<svg xmlns="http://www.w3.org/2000/svg" width="610" height="211.396" viewBox="0 0 610 211.396">
  <g id="Grupo_1103707" data-name="Grupo 1103707" transform="translate(-495.051 -4846.539)">
    <g id="Grupo_1102467" data-name="Grupo 1102467" transform="translate(-56.949 577.539)">
      <rect id="Rect치ngulo_403494" data-name="Rect치ngulo 403494" width="610" height="70" rx="21" transform="translate(552 4269)" fill="#4b96e3"/>
      <rect id="Rect치ngulo_403495" data-name="Rect치ngulo 403495" width="610" height="70" rx="21" transform="translate(552 4358)" fill="#4b96e3"/>
      <text id="_7_riesgos" data-name="7 riesgos" transform="translate(584 4310)" fill="#fff" font-size="18" font-family="Roboto-Bold, Roboto" font-weight="700"><tspan x="0" y="0">7 riesgos</tspan></text>
      <text id="A_A_M_M_M_B_B" data-name="A       A       M       M       M       B       B" transform="translate(844.398 4310)" fill="#fff" font-size="18" font-family="Roboto-Bold, Roboto" font-weight="700"><tspan x="0" y="0" xml:space="preserve">A       A       M       M       M       B       B</tspan></text>
      <text id="_0.8_0.8_0.5_0.5_0.5_0.2_0.2" data-name="0.8   0.8     0.5     0.5    0.5     0.2     0.2" transform="translate(837.898 4398.5)" fill="#fff" font-size="18" font-family="Roboto-Bold, Roboto" font-weight="700"><tspan x="0" y="0" xml:space="preserve">0.8   0.8     0.5     0.5    0.5     0.2     0.2</tspan></text>
      <text id="Valor" transform="translate(584 4399)" fill="#fff" font-size="18" font-family="Roboto-Bold, Roboto" font-weight="700"><tspan x="0" y="0">Valor</tspan></text>
    </g>
    <path id="Trazado_913968" data-name="Trazado 913968" d="M5.88-4.685h-2.1V0H1.143V-12.8H5.9a5.375,5.375,0,0,1,3.5,1.011,3.488,3.488,0,0,1,1.23,2.856,3.937,3.937,0,0,1-.567,2.184A3.866,3.866,0,0,1,8.341-5.353L11.109-.123V0H8.279ZM3.779-6.82H5.906a2.178,2.178,0,0,0,1.538-.505,1.806,1.806,0,0,0,.545-1.393,1.933,1.933,0,0,0-.514-1.424A2.137,2.137,0,0,0,5.9-10.661H3.779ZM15.144,0H12.595V-9.51h2.549Zm-2.7-11.971a1.251,1.251,0,0,1,.382-.94,1.436,1.436,0,0,1,1.042-.369,1.44,1.44,0,0,1,1.037.369,1.244,1.244,0,0,1,.387.94,1.247,1.247,0,0,1-.391.949,1.443,1.443,0,0,1-1.033.369,1.443,1.443,0,0,1-1.033-.369A1.247,1.247,0,0,1,12.445-11.971ZM21.612.176a4.668,4.668,0,0,1-3.406-1.283,4.561,4.561,0,0,1-1.314-3.419v-.246a5.745,5.745,0,0,1,.554-2.562,4.064,4.064,0,0,1,1.569-1.74,4.4,4.4,0,0,1,2.316-.611A3.947,3.947,0,0,1,24.4-8.455a5,5,0,0,1,1.121,3.489v1.037H19.468a2.36,2.36,0,0,0,.743,1.494,2.245,2.245,0,0,0,1.569.563,2.742,2.742,0,0,0,2.294-1.063l1.248,1.4A3.813,3.813,0,0,1,23.774-.277,5.075,5.075,0,0,1,21.612.176Zm-.29-7.813a1.587,1.587,0,0,0-1.226.512,2.651,2.651,0,0,0-.6,1.466h3.533v-.2a1.891,1.891,0,0,0-.457-1.311A1.638,1.638,0,0,0,21.322-7.638Zm10.793,5.01a.818.818,0,0,0-.461-.734,5.241,5.241,0,0,0-1.481-.479Q26.78-4.553,26.78-6.724a2.613,2.613,0,0,1,1.05-2.114,4.237,4.237,0,0,1,2.747-.848,4.56,4.56,0,0,1,2.9.853,2.687,2.687,0,0,1,1.085,2.215h-2.54a1.229,1.229,0,0,0-.352-.9,1.488,1.488,0,0,0-1.1-.356,1.52,1.52,0,0,0-.993.29.916.916,0,0,0-.352.738.783.783,0,0,0,.4.681,4.114,4.114,0,0,0,1.349.448,11.019,11.019,0,0,1,1.6.426,2.628,2.628,0,0,1,2.013,2.558,2.481,2.481,0,0,1-1.116,2.1,4.815,4.815,0,0,1-2.883.8A5.029,5.029,0,0,1,28.463-.25a3.561,3.561,0,0,1-1.455-1.169,2.716,2.716,0,0,1-.527-1.6H28.89a1.326,1.326,0,0,0,.5,1.037,1.987,1.987,0,0,0,1.248.36,1.839,1.839,0,0,0,1.1-.277A.861.861,0,0,0,32.115-2.628Zm3.735-2.2A5.573,5.573,0,0,1,36.892-8.35,3.375,3.375,0,0,1,39.7-9.686a2.96,2.96,0,0,1,2.435,1.072l.105-.9h2.3V-.316a4.064,4.064,0,0,1-.567,2.171,3.641,3.641,0,0,1-1.6,1.406,5.608,5.608,0,0,1-2.408.483,5.215,5.215,0,0,1-2.039-.417,3.619,3.619,0,0,1-1.5-1.077L37.556.7a2.975,2.975,0,0,0,2.3,1.063,2.178,2.178,0,0,0,1.573-.541,2.027,2.027,0,0,0,.563-1.534v-.51a2.938,2.938,0,0,1-2.312.993,3.366,3.366,0,0,1-2.773-1.34A5.572,5.572,0,0,1,35.851-4.72Zm2.54.189a3.47,3.47,0,0,0,.519,2.029,1.65,1.65,0,0,0,1.424.735,1.764,1.764,0,0,0,1.661-.871V-6.749a1.76,1.76,0,0,0-1.644-.871,1.66,1.66,0,0,0-1.437.748A3.911,3.911,0,0,0,38.391-4.636ZM46.1-4.843a5.64,5.64,0,0,1,.545-2.522,3.989,3.989,0,0,1,1.569-1.714,4.577,4.577,0,0,1,2.377-.606,4.33,4.33,0,0,1,3.142,1.178,4.727,4.727,0,0,1,1.358,3.2l.018.65a4.97,4.97,0,0,1-1.222,3.511A4.247,4.247,0,0,1,50.607.176a4.268,4.268,0,0,1-3.283-1.318A5.058,5.058,0,0,1,46.1-4.729Zm2.54.18a3.555,3.555,0,0,0,.51,2.073,1.682,1.682,0,0,0,1.459.717,1.686,1.686,0,0,0,1.441-.709,3.89,3.89,0,0,0,.519-2.267,3.519,3.519,0,0,0-.519-2.06,1.686,1.686,0,0,0-1.459-.731,1.658,1.658,0,0,0-1.441.726A3.955,3.955,0,0,0,48.639-4.662Zm21.076,0a5.7,5.7,0,0,1-1,3.52A3.2,3.2,0,0,1,66.023.176a2.963,2.963,0,0,1-2.329-1V3.656h-2.54V-9.51H63.51l.088.932a2.985,2.985,0,0,1,2.408-1.107,3.22,3.22,0,0,1,2.733,1.3A5.858,5.858,0,0,1,69.715-4.8Zm-2.54-.185A3.743,3.743,0,0,0,66.7-6.9a1.532,1.532,0,0,0-1.367-.721,1.663,1.663,0,0,0-1.644.914v3.894a1.692,1.692,0,0,0,1.661.94Q67.175-1.872,67.175-4.852Zm9.457-2.276a6.9,6.9,0,0,0-.914-.07,1.86,1.86,0,0,0-1.89.976V0h-2.54V-9.51h2.4l.07,1.134a2.354,2.354,0,0,1,2.118-1.31,2.662,2.662,0,0,1,.791.114Zm.51,2.285a5.64,5.64,0,0,1,.545-2.522,3.989,3.989,0,0,1,1.569-1.714,4.577,4.577,0,0,1,2.377-.606,4.33,4.33,0,0,1,3.142,1.178,4.727,4.727,0,0,1,1.358,3.2l.018.65a4.97,4.97,0,0,1-1.222,3.511A4.247,4.247,0,0,1,81.65.176a4.268,4.268,0,0,1-3.283-1.318,5.058,5.058,0,0,1-1.226-3.586Zm2.54.18a3.555,3.555,0,0,0,.51,2.073,1.682,1.682,0,0,0,1.459.717,1.686,1.686,0,0,0,1.441-.709,3.89,3.89,0,0,0,.519-2.267,3.519,3.519,0,0,0-.519-2.06,1.686,1.686,0,0,0-1.459-.731,1.658,1.658,0,0,0-1.441.726A3.955,3.955,0,0,0,79.682-4.662ZM90.1-9.51l.079,1.063a3.342,3.342,0,0,1,2.733-1.239,2.536,2.536,0,0,1,2.522,1.45,3.265,3.265,0,0,1,2.856-1.45,2.836,2.836,0,0,1,2.3.9,4.141,4.141,0,0,1,.756,2.711V0H98.8V-6.064a1.811,1.811,0,0,0-.316-1.182,1.4,1.4,0,0,0-1.116-.374,1.585,1.585,0,0,0-1.582,1.09L95.792,0h-2.54V-6.056a1.789,1.789,0,0,0-.325-1.2,1.416,1.416,0,0,0-1.107-.369,1.646,1.646,0,0,0-1.564.9V0h-2.54V-9.51ZM107.675.176a4.668,4.668,0,0,1-3.406-1.283,4.561,4.561,0,0,1-1.314-3.419v-.246a5.745,5.745,0,0,1,.554-2.562,4.064,4.064,0,0,1,1.569-1.74,4.4,4.4,0,0,1,2.316-.611,3.947,3.947,0,0,1,3.072,1.23,5,5,0,0,1,1.121,3.489v1.037H105.53a2.36,2.36,0,0,0,.743,1.494,2.245,2.245,0,0,0,1.569.563,2.742,2.742,0,0,0,2.294-1.063l1.248,1.4a3.813,3.813,0,0,1-1.547,1.261A5.075,5.075,0,0,1,107.675.176Zm-.29-7.813a1.587,1.587,0,0,0-1.226.512,2.651,2.651,0,0,0-.6,1.466h3.533v-.2a1.891,1.891,0,0,0-.457-1.311A1.638,1.638,0,0,0,107.385-7.638Zm5.247,2.813a5.731,5.731,0,0,1,1-3.542,3.237,3.237,0,0,1,2.729-1.318,2.913,2.913,0,0,1,2.294,1.037V-13.5H121.2V0h-2.294l-.123-1.011A2.989,2.989,0,0,1,116.341.176a3.228,3.228,0,0,1-2.694-1.323A5.916,5.916,0,0,1,112.632-4.825Zm2.54.189a3.754,3.754,0,0,0,.466,2.051,1.517,1.517,0,0,0,1.354.713,1.7,1.7,0,0,0,1.661-.995V-6.625a1.675,1.675,0,0,0-1.644-.995Q115.172-7.62,115.172-4.636ZM125.851,0H123.3V-9.51h2.549Zm-2.7-11.971a1.251,1.251,0,0,1,.382-.94,1.436,1.436,0,0,1,1.042-.369,1.44,1.44,0,0,1,1.037.369,1.244,1.244,0,0,1,.387.94,1.247,1.247,0,0,1-.391.949,1.443,1.443,0,0,1-1.033.369,1.443,1.443,0,0,1-1.033-.369A1.247,1.247,0,0,1,123.152-11.971Zm4.395,7.128a5.64,5.64,0,0,1,.545-2.522,3.989,3.989,0,0,1,1.569-1.714,4.577,4.577,0,0,1,2.377-.606,4.33,4.33,0,0,1,3.142,1.178,4.727,4.727,0,0,1,1.358,3.2l.018.65a4.97,4.97,0,0,1-1.222,3.511A4.247,4.247,0,0,1,132.056.176a4.268,4.268,0,0,1-3.283-1.318,5.058,5.058,0,0,1-1.226-3.586Zm2.54.18a3.555,3.555,0,0,0,.51,2.073,1.682,1.682,0,0,0,1.459.717,1.686,1.686,0,0,0,1.441-.709,3.89,3.89,0,0,0,.519-2.267,3.519,3.519,0,0,0-.519-2.06,1.686,1.686,0,0,0-1.459-.731,1.658,1.658,0,0,0-1.441.726A3.955,3.955,0,0,0,130.087-4.662Zm15.557-7.185V-9.51h1.626v1.863h-1.626V-2.9a1.133,1.133,0,0,0,.2.756,1.015,1.015,0,0,0,.773.229,4.051,4.051,0,0,0,.747-.062V-.053a5.229,5.229,0,0,1-1.538.229,2.425,2.425,0,0,1-2.725-2.7V-7.646h-1.389V-9.51H143.1v-2.338Zm2.382,7a5.64,5.64,0,0,1,.545-2.522,3.989,3.989,0,0,1,1.569-1.714,4.577,4.577,0,0,1,2.377-.606,4.33,4.33,0,0,1,3.142,1.178,4.727,4.727,0,0,1,1.358,3.2l.018.65a4.97,4.97,0,0,1-1.222,3.511A4.247,4.247,0,0,1,152.534.176a4.268,4.268,0,0,1-3.283-1.318,5.058,5.058,0,0,1-1.226-3.586Zm2.54.18a3.555,3.555,0,0,0,.51,2.073,1.682,1.682,0,0,0,1.459.717,1.686,1.686,0,0,0,1.441-.709,3.89,3.89,0,0,0,.519-2.267,3.519,3.519,0,0,0-.519-2.06,1.686,1.686,0,0,0-1.459-.731,1.658,1.658,0,0,0-1.441.726A3.955,3.955,0,0,0,150.565-4.662Zm11.074-7.185V-9.51h1.626v1.863H161.64V-2.9a1.133,1.133,0,0,0,.2.756,1.015,1.015,0,0,0,.773.229,4.051,4.051,0,0,0,.747-.062V-.053a5.229,5.229,0,0,1-1.538.229,2.425,2.425,0,0,1-2.725-2.7V-7.646h-1.389V-9.51H159.1v-2.338ZM170.191,0a2.821,2.821,0,0,1-.255-.853,3.073,3.073,0,0,1-2.4,1.028,3.376,3.376,0,0,1-2.316-.809,2.6,2.6,0,0,1-.918-2.039,2.687,2.687,0,0,1,1.121-2.32,5.529,5.529,0,0,1,3.239-.817h1.169v-.545a1.567,1.567,0,0,0-.338-1.055,1.331,1.331,0,0,0-1.068-.4,1.513,1.513,0,0,0-1.006.308,1.045,1.045,0,0,0-.365.844h-2.54a2.551,2.551,0,0,1,.51-1.529,3.37,3.37,0,0,1,1.441-1.1,5.253,5.253,0,0,1,2.092-.4,4.15,4.15,0,0,1,2.791.883,3.09,3.09,0,0,1,1.033,2.483V-2.2a4.546,4.546,0,0,0,.378,2.048V0Zm-2.1-1.767a2.188,2.188,0,0,0,1.037-.25,1.645,1.645,0,0,0,.7-.672V-4.324h-.949q-1.907,0-2.03,1.318l-.009.149a1.017,1.017,0,0,0,.334.782A1.3,1.3,0,0,0,168.091-1.767ZM177.012,0h-2.549V-13.5h2.549Z" transform="translate(600 5052.815)" fill="#12263f"/>
    <path id="Trazado_913967" data-name="Trazado 913967" d="M16.859-9.406q0,4.719-1.953,7.219A6.818,6.818,0,0,1,9.188.313,6.865,6.865,0,0,1,3.5-2.141Q1.531-4.594,1.484-9.172v-4.187q0-4.766,1.977-7.234a6.869,6.869,0,0,1,5.7-2.469,6.875,6.875,0,0,1,5.688,2.445q1.969,2.445,2.016,7.023Zm-4.516-4.6a8.331,8.331,0,0,0-.773-4.121,2.614,2.614,0,0,0-2.414-1.29A2.567,2.567,0,0,0,6.8-18.194a7.8,7.8,0,0,0-.8,3.84v5.537a8.745,8.745,0,0,0,.758,4.137,2.579,2.579,0,0,0,2.43,1.353,2.536,2.536,0,0,0,2.391-1.3A8.536,8.536,0,0,0,12.344-8.6ZM20.328-2.219a2.273,2.273,0,0,1,.727-1.75,2.578,2.578,0,0,1,1.82-.672,2.6,2.6,0,0,1,1.836.672,2.273,2.273,0,0,1,.727,1.75,2.242,2.242,0,0,1-.719,1.727,2.61,2.61,0,0,1-1.844.664,2.589,2.589,0,0,1-1.828-.664A2.242,2.242,0,0,1,20.328-2.219Zm9.547-8.969L31.188-22.75h12.75v3.766H34.891l-.562,4.891a7.159,7.159,0,0,1,3.422-.859,6.557,6.557,0,0,1,5.094,2.016A8.051,8.051,0,0,1,44.688-7.3a8.248,8.248,0,0,1-.93,3.945,6.562,6.562,0,0,1-2.664,2.7A8.317,8.317,0,0,1,37,.313a8.831,8.831,0,0,1-3.828-.836,6.79,6.79,0,0,1-2.789-2.352A6.409,6.409,0,0,1,29.3-6.328h4.469a3.338,3.338,0,0,0,.992,2.211,3.146,3.146,0,0,0,2.227.789,2.776,2.776,0,0,0,2.359-1.1,5.1,5.1,0,0,0,.828-3.117,4.22,4.22,0,0,0-.953-2.969,3.5,3.5,0,0,0-2.7-1.031,3.909,3.909,0,0,0-2.609.844l-.437.406Zm40.2-.469H56.109v-3.687H70.078Zm0,6.766H56.109V-8.578H70.078ZM88.422-22.75l5.844,16.5,5.813-16.5h6.156V0h-4.7V-6.219L102-16.953,95.859,0H92.641L86.516-16.937l.469,10.719V0H82.3V-22.75ZM117.813.313a8.3,8.3,0,0,1-6.055-2.281,8.109,8.109,0,0,1-2.336-6.078v-.437a10.213,10.213,0,0,1,.984-4.555,7.224,7.224,0,0,1,2.789-3.094,7.828,7.828,0,0,1,4.117-1.086,7.016,7.016,0,0,1,5.461,2.188,8.889,8.889,0,0,1,1.992,6.2v1.844H114a4.2,4.2,0,0,0,1.32,2.656,3.991,3.991,0,0,0,2.789,1,4.874,4.874,0,0,0,4.078-1.891l2.219,2.484a6.779,6.779,0,0,1-2.75,2.242A9.022,9.022,0,0,1,117.813.313ZM117.3-13.578a2.822,2.822,0,0,0-2.18.91,4.714,4.714,0,0,0-1.07,2.605h6.281v-.361a3.362,3.362,0,0,0-.812-2.331A2.911,2.911,0,0,0,117.3-13.578Zm9.328,5a10.188,10.188,0,0,1,1.773-6.3,5.754,5.754,0,0,1,4.852-2.344,5.178,5.178,0,0,1,4.078,1.844V-24h4.531V0h-4.078l-.219-1.8A5.314,5.314,0,0,1,133.219.313a5.739,5.739,0,0,1-4.789-2.352A10.517,10.517,0,0,1,126.625-8.578Zm4.516.336a6.674,6.674,0,0,0,.828,3.646,2.7,2.7,0,0,0,2.406,1.268A3.022,3.022,0,0,0,137.328-5.1v-6.682a2.978,2.978,0,0,0-2.922-1.768Q131.141-13.547,131.141-8.242ZM150.125,0h-4.531V-16.906h4.531Zm-4.8-21.281a2.224,2.224,0,0,1,.68-1.672,2.553,2.553,0,0,1,1.852-.656,2.559,2.559,0,0,1,1.844.656,2.211,2.211,0,0,1,.688,1.672,2.217,2.217,0,0,1-.7,1.688,2.565,2.565,0,0,1-1.836.656,2.565,2.565,0,0,1-1.836-.656A2.217,2.217,0,0,1,145.328-21.281Zm7.813,12.672a10.026,10.026,0,0,1,.969-4.484,7.092,7.092,0,0,1,2.789-3.047,8.137,8.137,0,0,1,4.227-1.078,7.7,7.7,0,0,1,5.586,2.094,8.4,8.4,0,0,1,2.414,5.688l.031,1.156a8.836,8.836,0,0,1-2.172,6.242A7.549,7.549,0,0,1,161.156.313a7.587,7.587,0,0,1-5.836-2.344,8.992,8.992,0,0,1-2.18-6.375Zm4.516.321a6.319,6.319,0,0,0,.906,3.685,2.99,2.99,0,0,0,2.594,1.275,3,3,0,0,0,2.563-1.26,6.915,6.915,0,0,0,.922-4.03,6.256,6.256,0,0,0-.922-3.662,3,3,0,0,0-2.594-1.3,2.948,2.948,0,0,0-2.562,1.291A7.031,7.031,0,0,0,157.656-8.289Z" transform="translate(825.9 5057.623)" fill="#4b96e3"/>
  </g>
</svg>
