<svg xmlns="http://www.w3.org/2000/svg" xmlns:xlink="http://www.w3.org/1999/xlink" width="299.22" height="301.435" viewBox="0 0 299.22 301.435">
  <defs>
    <clipPath id="clip-path">
      <rect id="Rectángulo_403569" data-name="Rectángulo 403569" width="133.575" height="301.435" transform="translate(0 0)" fill="none"/>
    </clipPath>
  </defs>
  <g id="Grupo_1103705" data-name="Grupo 1103705" transform="translate(-1051.21 -2798.96)">
    <rect id="Rectángulo_35929" data-name="Rectángulo 35929" width="298.949" height="249.293" transform="translate(1051.481 2851.102)" fill="#8ab2ee"/>
    <rect id="Rectángulo_402739" data-name="Rectángulo 402739" width="298.949" height="81.071" transform="translate(1051.21 2851.102)" fill="#fef6ed"/>
    <g id="Rectángulo_402741" data-name="Rectángulo 402741" transform="translate(1076.544 2873.396)" fill="none" stroke="#fef6ed" stroke-width="3">
      <rect width="248.279" height="204.704" stroke="none"/>
      <rect x="1.5" y="1.5" width="245.279" height="201.704" fill="none"/>
    </g>
    <g id="Grupo_1102424" data-name="Grupo 1102424" transform="translate(1125 2798.957)">
      <g id="Grupo_1102423" data-name="Grupo 1102423" transform="translate(0 0.003)" clip-path="url(#clip-path)">
        <path id="Trazado_913079" data-name="Trazado 913079" d="M84.637,293.847l-.521,41.744-.924-1.524,28.394,13.118a2.053,2.053,0,1,1-1.722,3.728c-.112-.044-28.013-13.886-28.128-13.936a1.576,1.576,0,0,1-.872-1.5l2.372-41.68a.7.7,0,0,1,1.4.049" transform="translate(-61.801 -224.048)" fill="#fa6d61"/>
        <path id="Trazado_913080" data-name="Trazado 913080" d="M462.731,546.853l-11.841-6.594a.732.732,0,0,1-.284-1L462.779,517.4a.732.732,0,0,1,1-.283l11.841,6.593a.732.732,0,0,1,.283,1l-12.172,21.861a.732.732,0,0,1-1,.283" transform="translate(-344.324 -395.16)" fill="#8ab2ee"/>
        <path id="Trazado_913081" data-name="Trazado 913081" d="M518.38,545.749a1.16,1.16,0,1,1-.45-1.578A1.16,1.16,0,0,1,518.38,545.749Z" transform="translate(-394.532 -415.794)" fill="none" stroke="#ffdf80" stroke-miterlimit="10" stroke-width="0.253"/>
        <line id="Línea_712" data-name="Línea 712" x2="5.725" y2="3.188" transform="translate(111.443 144.377)" fill="none" stroke="#ffdf80" stroke-miterlimit="10" stroke-width="0.253"/>
        <path id="Trazado_913082" data-name="Trazado 913082" d="M377.689,534.359l16.272,32.411-2.8-.311,18.858-21.031a.708.708,0,0,1,1.086.907L393.755,568.63a1.664,1.664,0,0,1-2.766-.237c-.043.006-16.906-32.136-16.951-32.156a2.053,2.053,0,1,1,3.651-1.879" transform="translate(-285.691 -407.539)" fill="#fa6d61"/>
        <path id="Trazado_913083" data-name="Trazado 913083" d="M167.093,452.517c-4.059-1.823-8.684-1.671-13.133-1.716a128.681,128.681,0,0,1-23.675-2.442,2.9,2.9,0,0,0-2.349.2,2.671,2.671,0,0,0-.775,1.328,22.229,22.229,0,0,0,2.369,18.727,20.166,20.166,0,0,1,2.5,4.29c.487,1.452.48,3.028.908,4.5,1.109,3.809,7.186,6.512,10.91,7.879,3.79,1.563,16.52,5.9,22.486-.515,3.716-4-4.2-29.981.763-32.249" transform="translate(-96.363 -342.565)" fill="#ffebb0"/>
        <path id="Trazado_913084" data-name="Trazado 913084" d="M204.792,570.763q-.278-.625-.585-1.239c.192.413.388.826.585,1.239" transform="translate(-156.074 -435.283)" fill="#5da1e6"/>
        <path id="Trazado_913085" data-name="Trazado 913085" d="M244.964,478.748a12.57,12.57,0,0,0,.746-6.143,10.315,10.315,0,0,0-1.475-3.93,15.736,15.736,0,0,0-5.282-4.956,25.106,25.106,0,0,0-4.634-2.179c-.23-.082-.462-.161-.692-.237q-1.83-.6-3.713-1.016a41.666,41.666,0,0,0-17.12-.191,40.3,40.3,0,0,0-6.033,1.69,17.542,17.542,0,0,0-8.03,5.986,17.194,17.194,0,0,0-3.183,7.435,13.422,13.422,0,0,0-.118,3.706c.024.226.056.448.091.668a.882.882,0,0,1,.65.361,31.116,31.116,0,0,1,4.5,8.563c.053.153.1.307.152.461a.738.738,0,0,1,.239.247,27.378,27.378,0,0,1,3.273,10.367,72.315,72.315,0,0,1,1.921,11.618.881.881,0,0,1,.064.337q0,.187,0,.375c.207,2.447.335,4.9.43,7.348l.111.011a104.711,104.711,0,0,0,26.887-.977,12.1,12.1,0,0,0,4.938-1.629c3.182-2.175,3.709-6.631,3.033-10.482-.041-.233-.086-.464-.135-.69-.867-4-2.644-7.894-2.367-11.973.356-5.241,4.042-9.893,5.752-14.769" transform="translate(-149.308 -351.039)" fill="#ffebb0"/>
        <path id="Trazado_913086" data-name="Trazado 913086" d="M351.423,534.72a29.034,29.034,0,0,0,19.928-23.1,106.778,106.778,0,0,0-7.693-14.573,12.859,12.859,0,0,0-3.539-3.883,4.826,4.826,0,0,0-5.008-.325,6.788,6.788,0,0,0-2.3,3.119c-5.8,12.684-5.939,25.58-1.389,38.765" transform="translate(-266.137 -376.242)" fill="#ffebb0"/>
        <path id="Trazado_913087" data-name="Trazado 913087" d="M393.288,581.61q-.3-8.809.012-17.625.088-2.467.225-4.931c.012-.208-.313-.208-.324,0q-.487,8.8-.359,17.621.036,2.467.122,4.934c.007.208.331.209.324,0" transform="translate(-300.225 -427.162)" fill="#6b8be8"/>
        <path id="Trazado_913088" data-name="Trazado 913088" d="M393.737,600.917c.791-4.384,1.859-8.711,2.774-13.069.257-1.223.5-2.449.723-3.679.037-.2-.275-.291-.312-.086-.791,4.384-1.859,8.711-2.774,13.069-.257,1.223-.5,2.449-.723,3.679-.037.2.275.291.312.086" transform="translate(-300.689 -446.321)" fill="#6b8be8"/>
        <path id="Trazado_913089" data-name="Trazado 913089" d="M284.424,412.14c-3.692-2.017-5.845-12.439-5.084-16.577l-7.374,5.912c.1,2.88-1.624,4.927-3.211,7.333a6.435,6.435,0,0,1-3.257,2.97,11.81,11.81,0,0,0,9.182,4.279c3.485.088,7.519-1.233,9.743-3.917" transform="translate(-202.919 -302.326)" fill="#fa6d61"/>
        <path id="Trazado_913090" data-name="Trazado 913090" d="M278.209,428.363a11.932,11.932,0,0,0,5.959-2.535,9.772,9.772,0,0,0,2.863-5.185h-5.35c.1,2.88-1.625,4.927-3.211,7.333q-.128.193-.261.387" transform="translate(-212.633 -321.495)" fill="#8ab2ee"/>
        <path id="Trazado_913091" data-name="Trazado 913091" d="M281.7,352.774h0a6.678,6.678,0,0,1-6.658-6.658v-9.653a6.658,6.658,0,1,1,13.316,0v9.653a6.678,6.678,0,0,1-6.658,6.658" transform="translate(-210.212 -252.068)" fill="#fa6d61"/>
        <path id="Trazado_913092" data-name="Trazado 913092" d="M331.3,380.236a2.564,2.564,0,1,1-2.564-2.564,2.564,2.564,0,0,1,2.564,2.564" transform="translate(-249.292 -288.652)" fill="#fa6d61"/>
        <path id="Trazado_913093" data-name="Trazado 913093" d="M291.091,399.31a2.165,2.165,0,0,1-4.315.039Z" transform="translate(-219.181 -305.19)" fill="#fff"/>
        <path id="Trazado_913094" data-name="Trazado 913094" d="M295.889,575.159a28.319,28.319,0,0,1-4.629,7.7,29.116,29.116,0,0,1-6.775,5.9,27.961,27.961,0,0,1-4.533,2.3c-.191.076-.108.389.086.312a28.8,28.8,0,0,0,7.818-4.67,29.385,29.385,0,0,0,6-6.859,28.392,28.392,0,0,0,2.344-4.606c.078-.193-.236-.278-.312-.086" transform="translate(-213.882 -439.507)" fill="#6b8be8"/>
        <path id="Trazado_913095" data-name="Trazado 913095" d="M351.164,1205.353a7.719,7.719,0,0,0,3.939,7.832c1.874.98,4.058,1.125,6.1,1.693a15.154,15.154,0,0,1,9.312,7.617h-26.9v-17.38Z" transform="translate(-262.616 -921.06)" fill="#fa6d61"/>
        <path id="Trazado_913096" data-name="Trazado 913096" d="M361.815,1244.324c-.458-.127-.923-.233-1.391-.333a8.707,8.707,0,0,1-8.94,4.1,17.417,17.417,0,0,1-7.877-3.214v7.33h27.846a15.687,15.687,0,0,0-9.638-7.884" transform="translate(-262.616 -950.773)" fill="#8ab2ee"/>
        <path id="Trazado_913097" data-name="Trazado 913097" d="M172.054,1198.558a8.362,8.362,0,0,1-4.267,8.484c-2.03,1.062-4.4,1.219-6.6,1.834a16.418,16.418,0,0,0-10.088,8.251h29.145V1198.3Z" transform="translate(-115.481 -915.851)" fill="#fa6d61"/>
        <path id="Trazado_913098" data-name="Trazado 913098" d="M172.433,1242.818c-2.819.868-6.382.59-7.741-2.412a5.824,5.824,0,0,1-.492-2.625c-1.008.214-2.028.4-3.016.675a16.418,16.418,0,0,0-10.088,8.252H180.24V1237c-2.275,2.437-4.755,4.878-7.808,5.818" transform="translate(-115.481 -945.43)" fill="#8ab2ee"/>
        <path id="Trazado_913099" data-name="Trazado 913099" d="M226.7,829c.532-8.307,5.845-97.446,5.36-105.756L218.341,712.95c-14.022,16.426-4.361,106.8-4,115.953Z" transform="translate(-161.084 -544.903)" fill="#6b8be8"/>
        <path id="Trazado_913100" data-name="Trazado 913100" d="M324.631,824.531c.018-10.6,8.166-90.039-2.25-118.379l-17.425,8.963c-.145,9.445,7.016,99.859,8.151,109.231Z" transform="translate(-233.074 -539.707)" fill="#6b8be8"/>
        <path id="Trazado_913101" data-name="Trazado 913101" d="M307.437,337.9a26.2,26.2,0,0,0,.908-9.065,21.229,21.229,0,0,1,2.132,11.4" transform="translate(-234.972 -251.328)" fill="#fa6d61"/>
        <path id="Trazado_913102" data-name="Trazado 913102" d="M221.973,703.789l32.217-1.122s4.14,16.3,4.44,25.46l-20.582,5.258h-2.854l-19.548-6.942s1.98-17.421,6.327-22.654" transform="translate(-164.816 -537.043)" fill="#6b8be8"/>
        <path id="Trazado_913103" data-name="Trazado 913103" d="M227.01,578.039l-.643,22.906a6.532,6.532,0,0,0,3.191,5.8l2.26,1.344,4.056-3L233.32,585.1Z" transform="translate(-173.008 -441.791)" fill="#ffebb0"/>
        <path id="Trazado_913104" data-name="Trazado 913104" d="M272.316,702.295h-30.8a1.577,1.577,0,0,1,0-3.155h30.8a1.577,1.577,0,0,1,0,3.155" transform="translate(-183.385 -534.348)" fill="#6b8be8"/>
        <path id="Trazado_913105" data-name="Trazado 913105" d="M203.76,514.6,206,537.9l-6.974-17.032" transform="translate(-152.112 -393.303)" fill="none" stroke="#6b8be8" stroke-linecap="round" stroke-linejoin="round" stroke-width="1.099"/>
        <path id="Trazado_913106" data-name="Trazado 913106" d="M278.251,728.59a1.485,1.485,0,1,1-1.485-1.485,1.485,1.485,0,0,1,1.485,1.485" transform="translate(-210.395 -555.721)" fill="#8ab2ee"/>
        <path id="Trazado_913107" data-name="Trazado 913107" d="M278.671,776.045a1.485,1.485,0,1,1-1.485-1.485,1.485,1.485,0,0,1,1.485,1.485" transform="translate(-210.716 -591.991)" fill="#8ab2ee"/>
        <path id="Trazado_913108" data-name="Trazado 913108" d="M326.451,730.813a1.485,1.485,0,1,1,2.093.166,1.485,1.485,0,0,1-2.093-.166" transform="translate(-249.232 -556.684)" fill="#8ab2ee"/>
        <path id="Trazado_913109" data-name="Trazado 913109" d="M318.052,777.008a1.485,1.485,0,1,1,2.093.165,1.485,1.485,0,0,1-2.093-.165" transform="translate(-242.813 -591.99)" fill="#8ab2ee"/>
        <path id="Trazado_913110" data-name="Trazado 913110" d="M281.16,822.855s6.137,4.751,12.671,0" transform="translate(-214.888 -628.902)" fill="none" stroke="#8ab2ee" stroke-linecap="round" stroke-linejoin="round" stroke-width="2.2"/>
        <path id="Trazado_913111" data-name="Trazado 913111" d="M80.59,267.383v6.531a3.74,3.74,0,1,0,7.479,0v-6.531Z" transform="translate(-61.594 -204.359)" fill="#fa6d61"/>
        <path id="Trazado_913112" data-name="Trazado 913112" d="M77.651,263.32h0a1.135,1.135,0,0,1-1.132-1.131v-2.144a1.132,1.132,0,0,1,2.264,0v2.144a1.135,1.135,0,0,1-1.132,1.131" transform="translate(-58.483 -197.886)" fill="#fa6d61"/>
        <path id="Trazado_913113" data-name="Trazado 913113" d="M86.659,262.441h0a1.135,1.135,0,0,1-1.132-1.132v-2.144a1.132,1.132,0,1,1,2.264,0v2.144a1.135,1.135,0,0,1-1.132,1.132" transform="translate(-65.368 -197.213)" fill="#fa6d61"/>
        <path id="Trazado_913114" data-name="Trazado 913114" d="M94.331,261.929h0A1.135,1.135,0,0,1,93.2,260.8v-2.144a1.132,1.132,0,1,1,2.264,0V260.8a1.135,1.135,0,0,1-1.132,1.132" transform="translate(-71.231 -196.822)" fill="#fa6d61"/>
        <path id="Trazado_913115" data-name="Trazado 913115" d="M103.537,260.907h0a1.135,1.135,0,0,1-1.132-1.132v-2.144a1.132,1.132,0,0,1,2.264,0v2.144a1.135,1.135,0,0,1-1.132,1.132" transform="translate(-78.267 -196.041)" fill="#fa6d61"/>
        <path id="Trazado_913116" data-name="Trazado 913116" d="M89.435,278.081a4.846,4.846,0,0,0,2.221-2.778,12.561,12.561,0,0,0,.539-3.591v-.02a1.778,1.778,0,0,0-1.866-1.84c-1.739.073-3.567-.025-5.235-.025a1.606,1.606,0,0,0,.98,1.815,4.683,4.683,0,0,0,2.222.239,2.56,2.56,0,0,0,.844,4.353" transform="translate(-64.994 -206.228)" fill="#fa6d61"/>
        <path id="Trazado_913117" data-name="Trazado 913117" d="M93.222,270.156a3.019,3.019,0,0,0-.752-.007l-3.938.293c-.105.008-.234.033-.266.133a.253.253,0,0,0,.042.193,2.36,2.36,0,0,0,1.532,1.068,7,7,0,0,0,1.912.113,5.007,5.007,0,0,0-1.627,3.983" transform="translate(-67.456 -206.458)" fill="none" stroke="#6b8be8" stroke-linecap="round" stroke-linejoin="round" stroke-width="0.335"/>
        <path id="Trazado_913118" data-name="Trazado 913118" d="M523.82,539.567c-.357-1.766-.777-4.1-.14-5.786.339-.9.813-1.743,1.094-2.66.727-2.366.117-4.941.527-7.381.124-.739.883-1.529,1.474-1.07a2.935,2.935,0,0,1,.832,2.022c.294-.731,1.668-.945,2.4-.658l.712,2.177c-.022-.638,1.051-.83,1.654-.624a1.9,1.9,0,0,1,1.11,1.455c.344,1.571-.468,3.146-1.314,4.513-2.106,3.405-4.664,10.036-8.352,8.011" transform="translate(-399.992 -399.37)" fill="#fa6d61"/>
        <path id="Trazado_913119" data-name="Trazado 913119" d="M251.965,329.6c.945,3.38,4.02,5.684,7.039,7.474a25.146,25.146,0,0,0,4.537,2.221,22.17,22.17,0,0,1,3.508,1.281,6.542,6.542,0,0,1,3.1,3.885v-2.725c.029.256.813-.569,1.049-.675a7.727,7.727,0,0,0,3.905-4.771l.02-.06a4.884,4.884,0,0,0-4.619-6.307Z" transform="translate(-192.575 -251.911)" fill="#8ab2ee"/>
        <path id="Trazado_913120" data-name="Trazado 913120" d="M313.8,362.715a3.228,3.228,0,0,0-.631,3.722,30.5,30.5,0,0,0,2.094,3.466,4.029,4.029,0,0,1,.377,3.857c1.824-1.057,2.151-3.519,2.167-5.628q.018-2.517-.167-5.03" transform="translate(-239.121 -277.221)" fill="#8ab2ee"/>
        <path id="Trazado_913121" data-name="Trazado 913121" d="M234.985,272.206c-8.012-2.087-15.562-8.93-17.921-16.935-1.056-3.585-1.314-8.22,2.256-10.476a7.667,7.667,0,0,1,10.01,1.72c4.7,5.953,4.007,16.043,12.956,16.42,4,.168,7.3,1.607,7.109,6.159-.1,2.53-3.278,4.077-5.811,4.074" transform="translate(-165.371 -186.219)" fill="#8ab2ee"/>
        <path id="Trazado_913122" data-name="Trazado 913122" d="M47.483,23.745a23.742,23.742,0,1,0-33.99,21.416,6.152,6.152,0,0,1,3.46,5.559v6.521A6.883,6.883,0,0,0,22.7,64.1a6.8,6.8,0,0,0,7.826-6.709V49.835a4.839,4.839,0,0,1,2.89-4.409,23.74,23.74,0,0,0,14.064-21.68" transform="translate(0 -0.004)" fill="#4b96e3"/>
        <path id="Trazado_913123" data-name="Trazado 913123" d="M95.367.011c-.3.007-.6.025-.895.044V64.011c.144.032.288.065.435.087a6.8,6.8,0,0,0,7.826-6.709V49.835a4.839,4.839,0,0,1,2.89-4.409A23.742,23.742,0,0,0,95.367.011" transform="translate(-72.204 -0.004)" fill="#a1c8f0"/>
        <line id="Línea_713" data-name="Línea 713" y2="17.226" transform="translate(22.268 36.563)" fill="none" stroke="#ffbe01" stroke-miterlimit="10" stroke-width="0.655"/>
        <line id="Línea_714" data-name="Línea 714" y2="17.226" transform="translate(25.713 36.563)" fill="none" stroke="#ffbe01" stroke-miterlimit="10" stroke-width="0.655"/>
        <path id="Trazado_913124" data-name="Trazado 913124" d="M93.617,258.578h0A2.525,2.525,0,0,1,91.1,256.06v-3.975a2.518,2.518,0,1,1,5.035,0v3.975a2.525,2.525,0,0,1-2.518,2.518" transform="translate(-69.626 -190.743)" fill="#ffbe01"/>
        <path id="Trazado_913125" data-name="Trazado 913125" d="M71.778,212.493a6.234,6.234,0,0,1,.036.631v6.521a6.883,6.883,0,0,0,5.749,6.856,6.8,6.8,0,0,0,7.826-6.709v-7.3Z" transform="translate(-54.859 -162.407)" fill="#ffd046"/>
        <line id="Línea_715" data-name="Línea 715" x2="13.781" transform="translate(16.879 52.287)" fill="none" stroke="#ffbe01" stroke-miterlimit="10" stroke-width="0.655"/>
      </g>
    </g>
  </g>
</svg>
