<svg xmlns="http://www.w3.org/2000/svg" xmlns:xlink="http://www.w3.org/1999/xlink" width="299.22" height="279.283" viewBox="0 0 299.22 279.283">
  <defs>
    <clipPath id="clip-path">
      <rect id="Rectángulo_403561" data-name="Rectángulo 403561" width="121.479" height="279.283" transform="translate(0 0)" fill="none"/>
    </clipPath>
  </defs>
  <g id="Grupo_1103708" data-name="Grupo 1103708" transform="translate(-1051.21 -4540.445)">
    <rect id="Rectángulo_35929" data-name="Rectángulo 35929" width="298.949" height="249.293" transform="translate(1051.481 4570.436)" fill="#8ab2ee"/>
    <rect id="Rectángulo_402739" data-name="Rectángulo 402739" width="298.949" height="81.071" transform="translate(1051.21 4570.436)" fill="#fef6ed"/>
    <g id="Rectángulo_402741" data-name="Rectángulo 402741" transform="translate(1076.544 4592.73)" fill="none" stroke="#fef6ed" stroke-width="3">
      <rect width="248.279" height="204.704" stroke="none"/>
      <rect x="1.5" y="1.5" width="245.279" height="201.704" fill="none"/>
    </g>
    <g id="Grupo_1102410" data-name="Grupo 1102410" transform="translate(1137.82 4540.442)">
      <g id="Grupo_1102409" data-name="Grupo 1102409" transform="translate(0 0.003)" clip-path="url(#clip-path)">
        <path id="Trazado_912934" data-name="Trazado 912934" d="M170.5,38.762a15.2,15.2,0,0,0-1.465-6.716c-1.1-2.033-3.23-2.56-5.5-2.99a19.758,19.758,0,0,0-6.01-.51,6.68,6.68,0,0,0-5.044,2.951c-.917,1.57-.9,3.5-.852,5.313l.4,15.857a8.736,8.736,0,0,1-.31,3.167,4.06,4.06,0,0,1-1.987,2.194,14.605,14.605,0,0,0,3.04,2.329c1.1.726,2.238,1.394,3.393,2.026a12.444,12.444,0,0,0,9.891-3.851,16.5,16.5,0,0,0,3.2-7.108A46.933,46.933,0,0,0,170.5,38.762" transform="translate(-113.205 -21.526)" fill="#6b8be8"/>
        <path id="Trazado_912935" data-name="Trazado 912935" d="M55.719,1045.664a9.7,9.7,0,0,1-4.95,9.841c-2.355,1.231-5.1,1.414-7.658,2.127a19.042,19.042,0,0,0-11.7,9.57h33.8v-21.838Z" transform="translate(-23.75 -790.389)" fill="#6b8be8"/>
        <path id="Trazado_912936" data-name="Trazado 912936" d="M43.111,1073.562c2.56-.713,5.3-.9,7.659-2.127a9.575,9.575,0,0,0,4.387-5c.672.959,1.322,1.935,2.042,2.86a9.735,9.735,0,0,0,2.45,2.368,4.523,4.523,0,0,0,3.231.626,6.563,6.563,0,0,0,2.335-.971v11.817h-33.8a19.043,19.043,0,0,1,11.7-9.57" transform="translate(-23.75 -806.319)" fill="#6b8be8"/>
        <path id="Trazado_912937" data-name="Trazado 912937" d="M29.261,1131.7H62.17a1.7,1.7,0,1,0,0-3.4H29.261a1.7,1.7,0,1,0,0,3.4" transform="translate(-20.837 -853.091)" fill="#6b8be8"/>
        <path id="Trazado_912938" data-name="Trazado 912938" d="M264.673,1048.433a9.7,9.7,0,0,0,4.95,9.84c2.354,1.231,5.1,1.414,7.658,2.127a19.041,19.041,0,0,1,11.7,9.57h-33.8v-21.838Z" transform="translate(-192.937 -792.482)" fill="#6b8be8"/>
        <path id="Trazado_912939" data-name="Trazado 912939" d="M277.282,1076.329c-2.56-.713-5.3-.9-7.658-2.127a9.573,9.573,0,0,1-4.387-5c-.672.959-1.322,1.935-2.042,2.86a9.737,9.737,0,0,1-2.45,2.368,4.523,4.523,0,0,1-3.231.626,6.563,6.563,0,0,1-2.335-.971V1085.9h33.8a19.042,19.042,0,0,0-11.7-9.57" transform="translate(-192.938 -808.411)" fill="#6b8be8"/>
        <path id="Trazado_912940" data-name="Trazado 912940" d="M284.606,1134.467H249.189a.449.449,0,0,1-.448-.448v-2.509a.449.449,0,0,1,.448-.447h35.418a.449.449,0,0,1,.447.448v2.509a.449.449,0,0,1-.447.448" transform="translate(-188.07 -855.185)" fill="#6b8be8"/>
        <path id="Trazado_912941" data-name="Trazado 912941" d="M118.5,412.036l11.4-.641a16.523,16.523,0,0,0,15.525-17.373l-1.808-32.171a16.523,16.523,0,0,0-17.373-15.525l-11.4.64A16.523,16.523,0,0,0,99.319,364.34l1.807,32.172A16.523,16.523,0,0,0,118.5,412.036" transform="translate(-75.074 -261.834)" fill="#4b96e3"/>
        <path id="Trazado_912942" data-name="Trazado 912942" d="M211.838,614.289C209.65,600.7,198.643,497.18,198.673,483.4L219.46,470.1c2.809,17.2,3.12,128.607,3.184,143.969Z" transform="translate(-150.214 -355.434)" fill="#4b96e3"/>
        <path id="Trazado_912943" data-name="Trazado 912943" d="M105.773,558.308c-1.092-16.07-3.078-66.343-3.247-81.015l22.1,7.84c1.072,14.943-1.769,58.294-3.328,73.175Z" transform="translate(-77.519 -360.877)" fill="#4b96e3"/>
        <path id="Trazado_912944" data-name="Trazado 912944" d="M178.394,602.628a20.9,20.9,0,0,1-10.563-4.255Z" transform="translate(-126.895 -452.423)" fill="#4b96e3"/>
        <path id="Trazado_912945" data-name="Trazado 912945" d="M169.823,600.461a12.164,12.164,0,0,0,5.407,1.088,19.435,19.435,0,0,0,5.877-.961,16.383,16.383,0,0,0,2.856-1.221c.133-.073.014-.277-.119-.2a17.587,17.587,0,0,1-5.207,1.813,16.944,16.944,0,0,1-5.814.162,10.242,10.242,0,0,1-2.881-.881c-.136-.066-.256.137-.119.2" transform="translate(-128.356 -453.009)" fill="#6c8ce8"/>
        <path id="Trazado_912946" data-name="Trazado 912946" d="M126.472,590.414l-3.836,109.03-12.494-1.351-4.737-117.159Z" transform="translate(-79.696 -439.239)" fill="#4b96e3"/>
        <path id="Trazado_912947" data-name="Trazado 912947" d="M254.923,203.949c-1.149,6.1-.368,12.607-.032,18.8.425,7.823,1.328,15.847,4.985,22.776s10.635,12.6,18.469,12.615c7.591.019,14.165-5.005,19.913-9.963,3.194-2.755,6.633-6.314,6.03-10.488-.608-4.2-5.41-7.391-9.577-6.562-4.739.942-6.974,1.969-11.366,3.591-4.17,1.54-7.521,2.667-7.521,2.667a69.537,69.537,0,0,0-1.983-12.839c-1.853-6.285-4.351-14.01-7.558-19.975-1.311-2.439-2.858-3.861-5.642-4.317s-5.169.776-5.718,3.693" transform="translate(-192.287 -151.342)" fill="#12263f"/>
        <path id="Trazado_912948" data-name="Trazado 912948" d="M161.55,120.792a38.217,38.217,0,0,1,.648,6.012c.085,3.018-.3,6.311-2.41,8.475a10.05,10.05,0,0,0,5.436,3.819,9.712,9.712,0,0,0,6.5-.628c.547-.259,1.069-.57,1.589-.879l1.915-1.14c-2.767-4.766-5.131-10.039-4.391-15.5-1.381-.257-3.336-.839-4.717-1.1a8.07,8.07,0,0,0-1.813-.2c-.966.041-1.8,1.3-2.754,1.136" transform="translate(-120.814 -90.468)" fill="#ffbe01"/>
        <path id="Trazado_912949" data-name="Trazado 912949" d="M172.245,163.884a43.885,43.885,0,0,0,2.98,6.009l-1.915,1.14c-.52.31-1.042.62-1.589.88a9.71,9.71,0,0,1-6.5.628,10.049,10.049,0,0,1-5.436-3.819A8.769,8.769,0,0,0,162,163.884Z" transform="translate(-120.814 -123.912)" fill="#12263f"/>
        <path id="Trazado_912950" data-name="Trazado 912950" d="M118.445,224.792c-.15,2.866-.358,5.727-.6,8.585-.167,1.917-.339,3.828-.6,5.729-.581,3.052-1.3,6.08-1.979,9.109-.3,1.153-.608,2.3-.9,3.459-.369,1.446-.679,2.921-1.045,4.378a4.93,4.93,0,0,1-.649.882,4.355,4.355,0,0,1-.41.395,5.975,5.975,0,0,1-1.888.891q-1.142.411-2.317.714a36.618,36.618,0,0,1-6.324.917c-2.244.176-4.5.263-6.746.283q-1.725.015-3.451-.016c-3.293-.058-6.582-.228-9.84-.428-.664-.04-9.237-.989-12.142-1.329-.326-.038-.581-.07-.747-.09l-.016,0-.059-.008a1.1,1.1,0,0,1-.139-.021c-.212-3.017-.652-6.48-1.226-10.179-.449-2.9-.981-5.934-1.55-9.017q-.222-1.21-.453-2.425l-.007-.033c-1.07-5.663-2.226-11.382-3.192-16.544-.343-1.827-.662-3.583-.944-5.243-.048-.275-.094-.548-.139-.817-.007-.041-.014-.083-.021-.124-1-5.945-3.279-13.513-2.023-19.5.891-4.25,5.216-6.737,9.055-8.456l.108-.048c.427-.192.849-.371,1.258-.545a27.463,27.463,0,0,1,8.306-1.887q.862-.074,1.727-.116l.114-.005c1.284-.06,2.568-.071,3.834-.052h0q.693.01,1.377.031c4.612.134,9.2.644,13.8.976.732.052,1.465.1,2.2.143q.859.048,1.663.077l.4.014.168.005.48.018.818.029a31.679,31.679,0,0,1,3.839.319,40.709,40.709,0,0,1,4.093,1.927,7.837,7.837,0,0,1,2.313,1.932,10.666,10.666,0,0,1,1.545,3.147,37.7,37.7,0,0,1,1.48,7.385c.337,2.7.674,5.385.851,8.1a147.946,147.946,0,0,1-.008,17.449" transform="translate(-44.351 -138.543)" fill="#12263f"/>
        <path id="Trazado_912951" data-name="Trazado 912951" d="M193.315,183.437l-2.109,3.454,2.136,1.583.994,34.884,3.356,2.145,2.153-2.554-5.08-34.619,1.255-1.952Z" transform="translate(-144.568 -138.695)" fill="#4b96e3"/>
        <path id="Trazado_912952" data-name="Trazado 912952" d="M176.449,66.619a5.032,5.032,0,0,1,3.7,5.719c-.376,2.437-2.154,4.569-4.161,6.3-1.008-2.97-1.721-5.586-2.729-8.556-.379-1.116-.638-2.576.442-3.287a4.638,4.638,0,0,1,2.749-.173" transform="translate(-130.751 -50.278)" fill="#fa6d61"/>
        <path id="Trazado_912953" data-name="Trazado 912953" d="M184.288,56.636c0,.144,0,.287-.006.431-.006.094-.012.188-.019.281-.006.05-.006.1-.012.144s-.006.063-.006.094c-.012.088-.019.175-.031.269-.006.025-.006.05-.013.081-.019.125-.037.256-.062.387s-.056.268-.087.406c-.013.05-.025.094-.038.144-.006.025-.019.056-.025.081-.031.119-.062.231-.1.344a7.769,7.769,0,0,1-.293.8c-.025.062-.056.125-.081.187a8.844,8.844,0,0,1-.931,1.574c-.081.106-.162.206-.244.312-.044.05-.087.106-.131.162-.081.088-.156.175-.237.262-.194.206-.4.406-.612.6-.1.087-.206.175-.306.256a8.644,8.644,0,0,1-1.368.905,8.158,8.158,0,0,1-1.143.512c-.081.031-.169.056-.256.088l-.187.056a.652.652,0,0,1-.106.031.512.512,0,0,1-.094.025c-.1.031-.2.056-.306.081a8.579,8.579,0,0,1-1.892.225c-.144,0-.281,0-.425-.006A8.562,8.562,0,0,1,170.954,64a8.681,8.681,0,0,1-3.991-7.207l-.019-2.048-.056-6.027-.019-1.886-.019-2.6c-.006-.144,0-.287.006-.425,0-.075.006-.144.012-.212a1.355,1.355,0,0,1,.012-.163,1.57,1.57,0,0,1,.012-.169.078.078,0,0,1,.006-.037.607.607,0,0,1,.012-.106.875.875,0,0,1,.012-.119.321.321,0,0,1,.012-.075,1.719,1.719,0,0,1,.025-.175c.006-.05.019-.1.025-.15.006-.031.012-.057.019-.088a3.016,3.016,0,0,1,.075-.344c.012-.05.025-.106.037-.162,0-.012.006-.019.006-.031.019-.056.031-.119.05-.175s.031-.112.05-.169v-.006l.056-.169c.019-.062.037-.119.056-.175a1.793,1.793,0,0,0,.062-.169c.044-.112.094-.225.137-.337a.564.564,0,0,1,.031-.062c.037-.094.081-.188.125-.275a.19.19,0,0,1,.031-.062c.044-.094.094-.188.137-.281a.1.1,0,0,0,.025-.043,8.746,8.746,0,0,1,4.559-4,8.349,8.349,0,0,1,2.985-.568c.1,0,.193,0,.293.006a8.706,8.706,0,0,1,7.832,5.459,8.4,8.4,0,0,1,.556,2.2,7.428,7.428,0,0,1,.056.918Z" transform="translate(-126.152 -26.834)" fill="#ffc210"/>
        <path id="Trazado_912954" data-name="Trazado 912954" d="M147.574,91.816a3.336,3.336,0,1,0,3.305-3.366,3.336,3.336,0,0,0-3.305,3.366" transform="translate(-111.579 -66.876)" fill="#ffc210"/>
        <path id="Trazado_912955" data-name="Trazado 912955" d="M184.28,66.465c0,.094-.01.188-.017.282,0,.047-.007.1-.012.143,0,.03,0,.059-.009.089-.009.091-.019.18-.031.269l-.011.08c-.019.13-.04.26-.065.389s-.055.272-.088.407c-.011.048-.023.1-.035.142-.007.029-.015.057-.023.086-.03.114-.064.228-.1.34a8.339,8.339,0,0,1-.3.8c-.026.063-.054.125-.082.187a8.766,8.766,0,0,1-.929,1.575c-.078.106-.16.209-.242.311-.045.055-.09.109-.136.163-.077.089-.154.176-.234.262-.194.21-.4.411-.614.6-.1.089-.2.175-.306.259a8.674,8.674,0,0,1-1.367.906,8.5,8.5,0,0,1-1.14.508c-.085.031-.172.061-.26.089-.062.02-.124.04-.187.058l-.1.031-.1.026c-.1.028-.2.055-.306.079a8.623,8.623,0,0,1-1.891.227c-.143,0-.284,0-.424-.007a8.688,8.688,0,0,1-8.316-8.578l-.018-2.049-.054-6.025-.017-1.884-.024-2.6c0-.143,0-.286.007-.426,0-.07.006-.14.011-.21s.007-.11.013-.165.009-.111.016-.166a.347.347,0,0,1,0-.04c0-.034.007-.068.011-.1s.01-.08.015-.121c0-.025.006-.049.01-.074.009-.059.018-.118.028-.177s.016-.1.026-.149c0-.03.01-.058.016-.088.023-.115.047-.229.074-.343.014-.064.031-.129.047-.192s.031-.117.048-.176.034-.114.05-.171a.019.019,0,0,1,0-.005c.017-.057.036-.113.054-.17s.038-.114.059-.171.041-.113.062-.169a8.718,8.718,0,0,1,1.544-2.6l.029,3.239.058,6.475a1,1,0,0,0,.058.331,5.876,5.876,0,0,1,3.076,2.167,8.977,8.977,0,0,1,1.5,3.52.957.957,0,0,0,.347-.24c1.417-1.5,3.895-1.537,5.768-1.091,2.005.477,4.039,1.678,4.381,3.868a.672.672,0,0,0,.112.279" transform="translate(-126.152 -36.23)" fill="#6b8be8"/>
        <path id="Trazado_912956" data-name="Trazado 912956" d="M202.847,119.855a2.747,2.747,0,0,0,5.475,0Z" transform="translate(-153.37 -90.622)" fill="#fff"/>
        <path id="Trazado_912957" data-name="Trazado 912957" d="M183.557,40.953a8.165,8.165,0,0,1-2.055,1.005,10.332,10.332,0,0,1-2.935.556c-2.923.137-5.808-.643-8.731-.793-.044,0-.094-.006-.137-.006a2.542,2.542,0,0,0-.724.044.96.96,0,0,0-.337.15l-.069.412-1.074,6.764-.212,1.361c-.019-.531-.062-1.055-.119-1.586-.081-.674-.181-1.355-.293-2.03l-.019-2.6c-.006-.144,0-.287.006-.425,0-.075.006-.144.012-.212a1.351,1.351,0,0,1,.012-.162,1.574,1.574,0,0,1,.012-.169.076.076,0,0,1,.006-.037.61.61,0,0,1,.012-.107.875.875,0,0,1,.012-.119.311.311,0,0,1,.013-.075,1.652,1.652,0,0,1,.025-.175c.006-.05.019-.1.025-.15.006-.031.012-.056.019-.088a3.085,3.085,0,0,1,.075-.344c.012-.05.025-.106.037-.162,0-.012.006-.019.006-.031.019-.056.031-.119.05-.175s.031-.112.05-.169v-.006l.056-.169c.019-.062.037-.119.056-.175s.044-.112.062-.169c.044-.112.094-.225.138-.337a.567.567,0,0,1,.031-.062c.037-.094.081-.188.125-.275a.189.189,0,0,1,.031-.063c.044-.093.094-.188.137-.281a.1.1,0,0,0,.025-.044,8.746,8.746,0,0,1,4.559-4,8.35,8.35,0,0,1,2.985-.568c.1,0,.193,0,.293.006a8.706,8.706,0,0,1,7.832,5.459" transform="translate(-126.152 -26.833)" fill="#6b8be8"/>
        <path id="Trazado_912958" data-name="Trazado 912958" d="M184.917,43.176a8.285,8.285,0,0,1-2.611-1.2,6.93,6.93,0,0,1-1.362-1.243,13.464,13.464,0,0,1-8.444.131l-1.861.874-1.268.6-1.268.6a3.871,3.871,0,0,1-.181-.912,5.54,5.54,0,0,1,2.6-4.765,9.18,9.18,0,0,1,2.729-1.187,21.457,21.457,0,0,1,3.279-.562,8.706,8.706,0,0,1,7.832,5.459,8.388,8.388,0,0,1,.556,2.2" transform="translate(-126.955 -26.852)" fill="#6b8be8"/>
        <path id="Trazado_912959" data-name="Trazado 912959" d="M15.593,200.8c-3.932,4.8-6.369,10.887-9.044,16.485C3.171,224.356.116,231.831,0,239.665S3.3,255.817,10.161,259.591c6.652,3.657,14.83,2.4,22.252.805,4.123-.886,8.849-2.36,10.321-6.312,1.483-3.981-1.431-8.5-5.258-10.351s-8.351-.812-12.511-1.672c-4.353-.9-10.712-2.156-10.712-2.156-1.954-.19,3.562-13.246,4.214-14.522,2.981-5.835,6.75-11.812,6.8-18.585.019-2.769-.657-4.759-2.881-6.494s-4.908-1.8-6.789.5" transform="translate(0 -150.488)" fill="#12263f"/>
        <path id="Trazado_912960" data-name="Trazado 912960" d="M408.946,243.171l-14.711-5.615a1.052,1.052,0,0,0-1.354.606l-11.708,30.677a1.052,1.052,0,0,0,.606,1.354l14.711,5.615a1.052,1.052,0,0,0,1.354-.606l11.708-30.677a1.052,1.052,0,0,0-.606-1.354" transform="translate(-288.149 -179.563)" fill="#6b8be8"/>
        <path id="Trazado_912961" data-name="Trazado 912961" d="M411.383,244.087l-13.972-5.333a1.027,1.027,0,0,0-1.322.591L384.363,270.07a1.027,1.027,0,0,0,.591,1.321l13.972,5.333a1.027,1.027,0,0,0,1.322-.591l11.726-30.724a1.027,1.027,0,0,0-.591-1.322" transform="translate(-290.562 -180.47)" fill="#6b8be8"/>
        <path id="Trazado_912962" data-name="Trazado 912962" d="M429.359,273l-9.367-23.362,3.039-7.742,8.907,24.2Z" transform="translate(-317.552 -182.893)" fill="#6b8be8"/>
        <path id="Trazado_912963" data-name="Trazado 912963" d="M438.631,312.748c.45-1.18.127-2.4-.721-2.723s-1.9.37-2.352,1.55-.127,2.4.721,2.723S438.181,313.928,438.631,312.748Z" transform="translate(-329.166 -234.347)" fill="none" stroke="#8ab2ee" stroke-miterlimit="10" stroke-width="0.31"/>
        <path id="Trazado_912964" data-name="Trazado 912964" d="M459.31,317.556c3.612-1.624,5.21-5.963,5.329-9.922a5.5,5.5,0,0,0-.735-3.4,2.277,2.277,0,0,0-3.082-.709c-1.251.987-.561,2.969-.811,4.542-1.677.767-1.9,3.318-1.54,5.128s1.577,2.666.839,4.356" transform="translate(-346.534 -229.228)" fill="#ffc210"/>
        <path id="Trazado_912965" data-name="Trazado 912965" d="M167.51,369.928c1.037-.139,2.465.134,2.511,1.179.038.867-.956,1.361-1.781,1.629l-4.124,1.338c1.114-.725,2.7.119,3.238,1.335a6.964,6.964,0,0,1,.114,3.926c-.256,1.555-.627,3.293-1.952,4.145a5.09,5.09,0,0,1-1.38.559,25.23,25.23,0,0,1-8.73.892,2.208,2.208,0,0,1-1.1-.289c-3.157-2.16,1.647-7.768,3.081-9.338a16.959,16.959,0,0,1,10.125-5.377" transform="translate(-115.871 -279.674)" fill="#ffc210"/>
        <path id="Trazado_912966" data-name="Trazado 912966" d="M193.416,393.04h-1.127a3.239,3.239,0,0,1,0-6.479h1.127a3.239,3.239,0,0,1,0,6.479" transform="translate(-142.939 -292.275)" fill="#ffc210"/>
        <line id="Línea_689" data-name="Línea 689" y1="25.224" x2="9.972" transform="translate(96.675 61.136)" fill="none" stroke="#8ab2ee" stroke-miterlimit="10" stroke-width="0.291"/>
        <line id="Línea_690" data-name="Línea 690" x1="6.76" y2="112.108" transform="translate(37.943 148.932)" fill="none" stroke="#6c8ce8" stroke-linecap="round" stroke-linejoin="round" stroke-width="1.215"/>
        <line id="Línea_691" data-name="Línea 691" x1="12.957" y1="110.418" transform="translate(52.027 148.368)" fill="none" stroke="#6c8ce8" stroke-linecap="round" stroke-linejoin="round" stroke-width="1.215"/>
        <path id="Trazado_912967" data-name="Trazado 912967" d="M178.563.472c-3.2,1.288-5.543,4.805-9,4.819-2.669.011-5.2-2.18-7.766-1.441a4.44,4.44,0,0,0-2.918,4.407c.238,7.739,11.4,9.861,17.311,9.455a15.292,15.292,0,0,0,9.221-3.474C187.906,12,189.317,8.4,188.36,5.2a7.67,7.67,0,0,0-9.8-4.723" transform="translate(-120.128 -0.003)" fill="#6b8be8"/>
      </g>
    </g>
  </g>
</svg>
