<svg xmlns="http://www.w3.org/2000/svg" width="615.949" height="373.5" viewBox="0 0 615.949 373.5">
  <g id="Grupo_1103704" data-name="Grupo 1103704" transform="translate(-481.051 -3067)">
    <path id="Trazado_913906" data-name="Trazado 913906" d="M15,0H173V93H0V15A15,15,0,0,1,15,0Z" transform="translate(570 3067)" fill="#ff5e00"/>
    <path id="Trazado_913912" data-name="Trazado 913912" d="M0,0H173V93H0Z" transform="translate(747 3162)" fill="#ff5e00"/>
    <path id="Trazado_913917" data-name="Trazado 913917" d="M0,0H173V78a15,15,0,0,1-15,15H0Z" transform="translate(924 3257.5)" fill="#ff5e00"/>
    <path id="Trazado_913913" data-name="Trazado 913913" d="M0,0H173V93H0Z" transform="translate(747 3067)" fill="#e50000"/>
    <path id="Trazado_913918" data-name="Trazado 913918" d="M0,0H158a15,15,0,0,1,15,15V93H0Z" transform="translate(924 3067)" fill="#e50000"/>
    <path id="Trazado_913919" data-name="Trazado 913919" d="M0,0H173V93H0Z" transform="translate(924 3162)" fill="#e50000"/>
    <path id="Trazado_913907" data-name="Trazado 913907" d="M0,0H173V93H0Z" transform="translate(570 3162)" fill="#73d33b"/>
    <path id="Trazado_913908" data-name="Trazado 913908" d="M0,0H173V93H15A15,15,0,0,1,0,78Z" transform="translate(570 3257.5)" fill="#73d33b"/>
    <path id="Trazado_913914" data-name="Trazado 913914" d="M0,0H173V93H0Z" transform="translate(747.551 3257.5)" fill="#73d33b"/>
    <path id="Trazado_913905" data-name="Trazado 913905" d="M6.719-8.016V0H2.031V-22.75h8.875a10.268,10.268,0,0,1,4.508.938,6.908,6.908,0,0,1,2.992,2.664,7.428,7.428,0,0,1,1.047,3.93,6.532,6.532,0,0,1-2.289,5.273,9.534,9.534,0,0,1-6.336,1.93Zm0-3.8h4.188a4.117,4.117,0,0,0,2.836-.875,3.182,3.182,0,0,0,.977-2.5,3.753,3.753,0,0,0-.984-2.7,3.677,3.677,0,0,0-2.719-1.062h-4.3Zm25.156-.859A12.268,12.268,0,0,0,30.25-12.8q-2.563,0-3.359,1.734V0H22.375V-16.906h4.266l.125,2.016a4.184,4.184,0,0,1,3.766-2.328,4.732,4.732,0,0,1,1.406.2Zm.906,4.063a10.026,10.026,0,0,1,.969-4.484,7.092,7.092,0,0,1,2.789-3.047,8.137,8.137,0,0,1,4.227-1.078,7.7,7.7,0,0,1,5.586,2.094,8.4,8.4,0,0,1,2.414,5.688L48.8-8.281a8.836,8.836,0,0,1-2.172,6.242A7.549,7.549,0,0,1,40.8.313a7.587,7.587,0,0,1-5.836-2.344,8.992,8.992,0,0,1-2.18-6.375Zm4.516.321A6.32,6.32,0,0,0,38.2-4.6,2.99,2.99,0,0,0,40.8-3.328a3,3,0,0,0,2.563-1.26,6.915,6.915,0,0,0,.922-4.03,6.256,6.256,0,0,0-.922-3.662,3,3,0,0,0-2.594-1.3A2.948,2.948,0,0,0,38.2-12.287,7.031,7.031,0,0,0,37.3-8.289ZM66.813-8.3a10.237,10.237,0,0,1-1.734,6.336A5.745,5.745,0,0,1,60.234.313,5.278,5.278,0,0,1,55.844-1.8l-.2,1.8H51.578V-24h4.516v8.609A5.143,5.143,0,0,1,60.2-17.219a5.792,5.792,0,0,1,4.852,2.273,10.252,10.252,0,0,1,1.758,6.4ZM62.3-8.625a6.725,6.725,0,0,0-.812-3.742,2.747,2.747,0,0,0-2.422-1.18,2.979,2.979,0,0,0-2.969,1.766v6.672a3.019,3.019,0,0,0,3,1.781,2.788,2.788,0,0,0,2.875-2.156A11.123,11.123,0,0,0,62.3-8.625ZM79.391,0a5.014,5.014,0,0,1-.453-1.516A5.464,5.464,0,0,1,74.672.313a6,6,0,0,1-4.117-1.437A4.623,4.623,0,0,1,68.922-4.75a4.778,4.778,0,0,1,1.992-4.125,9.83,9.83,0,0,1,5.758-1.453H78.75V-11.3a2.786,2.786,0,0,0-.6-1.875,2.367,2.367,0,0,0-1.9-.7,2.69,2.69,0,0,0-1.789.547,1.858,1.858,0,0,0-.648,1.5H69.3a4.536,4.536,0,0,1,.906-2.719,5.99,5.99,0,0,1,2.563-1.961,9.339,9.339,0,0,1,3.719-.711,7.378,7.378,0,0,1,4.961,1.57,5.493,5.493,0,0,1,1.836,4.414v7.328a8.082,8.082,0,0,0,.672,3.641V0ZM75.656-3.141A3.889,3.889,0,0,0,77.5-3.586a2.925,2.925,0,0,0,1.25-1.2V-7.687H77.063q-3.391,0-3.609,2.344l-.016.266a1.808,1.808,0,0,0,.594,1.391A2.306,2.306,0,0,0,75.656-3.141ZM101.984-8.3a10.237,10.237,0,0,1-1.734,6.336A5.745,5.745,0,0,1,95.406.313,5.278,5.278,0,0,1,91.016-1.8l-.2,1.8H86.75V-24h4.516v8.609a5.143,5.143,0,0,1,4.109-1.828,5.792,5.792,0,0,1,4.852,2.273,10.252,10.252,0,0,1,1.758,6.4Zm-4.516-.328a6.725,6.725,0,0,0-.812-3.742,2.747,2.747,0,0,0-2.422-1.18,2.979,2.979,0,0,0-2.969,1.766v6.672a3.019,3.019,0,0,0,3,1.781,2.788,2.788,0,0,0,2.875-2.156A11.123,11.123,0,0,0,97.469-8.625ZM109.531,0H105V-16.906h4.531Zm-4.8-21.281a2.224,2.224,0,0,1,.68-1.672,2.553,2.553,0,0,1,1.852-.656,2.559,2.559,0,0,1,1.844.656,2.211,2.211,0,0,1,.688,1.672,2.217,2.217,0,0,1-.7,1.688,2.565,2.565,0,0,1-1.836.656,2.565,2.565,0,0,1-1.836-.656A2.217,2.217,0,0,1,104.734-21.281ZM118.016,0h-4.531V-24h4.531ZM126.5,0h-4.531V-16.906H126.5Zm-4.8-21.281a2.224,2.224,0,0,1,.68-1.672,2.553,2.553,0,0,1,1.852-.656,2.559,2.559,0,0,1,1.844.656,2.211,2.211,0,0,1,.688,1.672,2.217,2.217,0,0,1-.7,1.688,2.565,2.565,0,0,1-1.836.656,2.565,2.565,0,0,1-1.836-.656A2.217,2.217,0,0,1,121.7-21.281Zm7.813,12.7a10.188,10.188,0,0,1,1.773-6.3,5.754,5.754,0,0,1,4.852-2.344,5.178,5.178,0,0,1,4.078,1.844V-24h4.531V0h-4.078l-.219-1.8A5.314,5.314,0,0,1,136.109.313a5.739,5.739,0,0,1-4.789-2.352A10.517,10.517,0,0,1,129.516-8.578Zm4.516.336a6.674,6.674,0,0,0,.828,3.646,2.7,2.7,0,0,0,2.406,1.268A3.022,3.022,0,0,0,140.219-5.1v-6.682a2.978,2.978,0,0,0-2.922-1.768Q134.031-13.547,134.031-8.242ZM158.047,0a5.015,5.015,0,0,1-.453-1.516A5.464,5.464,0,0,1,153.328.313a6,6,0,0,1-4.117-1.437,4.623,4.623,0,0,1-1.633-3.625,4.778,4.778,0,0,1,1.992-4.125,9.83,9.83,0,0,1,5.758-1.453h2.078V-11.3a2.786,2.786,0,0,0-.6-1.875,2.367,2.367,0,0,0-1.9-.7,2.69,2.69,0,0,0-1.789.547,1.858,1.858,0,0,0-.648,1.5h-4.516a4.536,4.536,0,0,1,.906-2.719,5.99,5.99,0,0,1,2.563-1.961,9.339,9.339,0,0,1,3.719-.711,7.378,7.378,0,0,1,4.961,1.57,5.493,5.493,0,0,1,1.836,4.414v7.328a8.083,8.083,0,0,0,.672,3.641V0Zm-3.734-3.141a3.889,3.889,0,0,0,1.844-.445,2.925,2.925,0,0,0,1.25-1.2V-7.687h-1.687q-3.391,0-3.609,2.344l-.016.266a1.808,1.808,0,0,0,.594,1.391A2.306,2.306,0,0,0,154.313-3.141ZM164.7-8.578a10.188,10.188,0,0,1,1.773-6.3,5.754,5.754,0,0,1,4.852-2.344,5.178,5.178,0,0,1,4.078,1.844V-24h4.531V0h-4.078l-.219-1.8A5.314,5.314,0,0,1,171.3.313a5.739,5.739,0,0,1-4.789-2.352A10.517,10.517,0,0,1,164.7-8.578Zm4.516.336a6.674,6.674,0,0,0,.828,3.646,2.7,2.7,0,0,0,2.406,1.268A3.022,3.022,0,0,0,175.406-5.1v-6.682a2.978,2.978,0,0,0-2.922-1.768Q169.219-13.547,169.219-8.242Z" transform="translate(505.051 3315) rotate(-90)" fill="#12263f"/>
    <path id="Trazado_913921" data-name="Trazado 913921" d="M7.016,0H2.328V-22.75H7.016ZM15.3-16.906l.141,1.891a5.941,5.941,0,0,1,4.859-2.2,4.509,4.509,0,0,1,4.484,2.578,5.8,5.8,0,0,1,5.078-2.578,5.043,5.043,0,0,1,4.094,1.6A7.361,7.361,0,0,1,35.3-10.8V0H30.766V-10.781a3.219,3.219,0,0,0-.562-2.1,2.493,2.493,0,0,0-1.984-.664,2.818,2.818,0,0,0-2.812,1.938L25.422,0H20.906V-10.766a3.18,3.18,0,0,0-.578-2.125,2.517,2.517,0,0,0-1.969-.656,2.926,2.926,0,0,0-2.781,1.594V0H11.063V-16.906ZM53.984-8.3a10.139,10.139,0,0,1-1.773,6.258A5.686,5.686,0,0,1,47.422.313a5.267,5.267,0,0,1-4.141-1.781V6.5H38.766V-16.906h4.188l.156,1.656a5.307,5.307,0,0,1,4.281-1.969,5.725,5.725,0,0,1,4.859,2.313,10.414,10.414,0,0,1,1.734,6.375Zm-4.516-.328a6.654,6.654,0,0,0-.836-3.641,2.723,2.723,0,0,0-2.43-1.281,2.957,2.957,0,0,0-2.922,1.625V-5a3.007,3.007,0,0,0,2.953,1.672Q49.469-3.328,49.469-8.625ZM66.578,0a5.014,5.014,0,0,1-.453-1.516A5.464,5.464,0,0,1,61.859.313a6,6,0,0,1-4.117-1.437A4.623,4.623,0,0,1,56.109-4.75,4.778,4.778,0,0,1,58.1-8.875a9.83,9.83,0,0,1,5.758-1.453h2.078V-11.3a2.786,2.786,0,0,0-.6-1.875,2.367,2.367,0,0,0-1.9-.7,2.69,2.69,0,0,0-1.789.547,1.858,1.858,0,0,0-.648,1.5H56.484a4.536,4.536,0,0,1,.906-2.719,5.99,5.99,0,0,1,2.563-1.961,9.339,9.339,0,0,1,3.719-.711,7.378,7.378,0,0,1,4.961,1.57,5.493,5.493,0,0,1,1.836,4.414v7.328a8.082,8.082,0,0,0,.672,3.641V0ZM62.844-3.141a3.889,3.889,0,0,0,1.844-.445,2.925,2.925,0,0,0,1.25-1.2V-7.687H64.25q-3.391,0-3.609,2.344l-.016.266a1.808,1.808,0,0,0,.594,1.391A2.306,2.306,0,0,0,62.844-3.141Zm18.125-.187A2.962,2.962,0,0,0,83-4.016a2.409,2.409,0,0,0,.813-1.828h4.234A5.792,5.792,0,0,1,87.109-2.7,6.186,6.186,0,0,1,84.586-.477a7.9,7.9,0,0,1-3.539.789,7.34,7.34,0,0,1-5.719-2.3,9.12,9.12,0,0,1-2.094-6.367v-.3a9.016,9.016,0,0,1,2.078-6.234,7.254,7.254,0,0,1,5.7-2.328,7.111,7.111,0,0,1,5.086,1.8,6.39,6.39,0,0,1,1.945,4.8H83.813A3.1,3.1,0,0,0,83-12.753a2.709,2.709,0,0,0-2.062-.825,2.72,2.72,0,0,0-2.383,1.15,6.666,6.666,0,0,0-.8,3.732v.469a6.75,6.75,0,0,0,.8,3.756A2.754,2.754,0,0,0,80.969-3.328ZM96.031-21.062v4.156h2.891v3.313H96.031v8.438a2.015,2.015,0,0,0,.359,1.344,1.8,1.8,0,0,0,1.375.406,7.2,7.2,0,0,0,1.328-.109V-.094a9.3,9.3,0,0,1-2.734.406q-4.75,0-4.844-4.8v-9.109H89.047v-3.312h2.469v-4.156Zm4.234,12.453a10.026,10.026,0,0,1,.969-4.484,7.092,7.092,0,0,1,2.789-3.047,8.137,8.137,0,0,1,4.227-1.078,7.7,7.7,0,0,1,5.586,2.094,8.4,8.4,0,0,1,2.414,5.688l.031,1.156a8.836,8.836,0,0,1-2.172,6.242A7.549,7.549,0,0,1,108.281.313a7.587,7.587,0,0,1-5.836-2.344,8.992,8.992,0,0,1-2.18-6.375Zm4.516.321a6.32,6.32,0,0,0,.906,3.685,2.99,2.99,0,0,0,2.594,1.275,3,3,0,0,0,2.563-1.26,6.915,6.915,0,0,0,.922-4.03,6.256,6.256,0,0,0-.922-3.662,3,3,0,0,0-2.594-1.3,2.948,2.948,0,0,0-2.562,1.291A7.032,7.032,0,0,0,104.781-8.289Z" transform="translate(778.051 3434)" fill="#12263f"/>
    <path id="Trazado_913909" data-name="Trazado 913909" d="M1.143,0V-12.8H5.625a5.886,5.886,0,0,1,3.533.892,3.05,3.05,0,0,1,1.2,2.615,2.891,2.891,0,0,1-.483,1.657,2.792,2.792,0,0,1-1.345,1.05,2.7,2.7,0,0,1,1.551.993,2.936,2.936,0,0,1,.567,1.828A3.377,3.377,0,0,1,9.475-.967,5.3,5.3,0,0,1,6.117,0ZM3.779-5.572v3.454H6.038a2.18,2.18,0,0,0,1.455-.444,1.522,1.522,0,0,0,.523-1.226A1.607,1.607,0,0,0,6.2-5.572Zm0-1.863H5.73q2-.035,2-1.591a1.47,1.47,0,0,0-.505-1.252,2.658,2.658,0,0,0-1.6-.382H3.779ZM17.974,0a2.821,2.821,0,0,1-.255-.853,3.073,3.073,0,0,1-2.4,1.028A3.376,3.376,0,0,1,13-.633a2.6,2.6,0,0,1-.918-2.039,2.687,2.687,0,0,1,1.121-2.32,5.529,5.529,0,0,1,3.239-.817h1.169v-.545a1.567,1.567,0,0,0-.338-1.055,1.331,1.331,0,0,0-1.068-.4A1.513,1.513,0,0,0,15.2-7.5a1.045,1.045,0,0,0-.365.844H12.3a2.551,2.551,0,0,1,.51-1.529,3.37,3.37,0,0,1,1.441-1.1,5.253,5.253,0,0,1,2.092-.4,4.15,4.15,0,0,1,2.791.883,3.09,3.09,0,0,1,1.033,2.483V-2.2A4.546,4.546,0,0,0,20.54-.149V0Zm-2.1-1.767a2.188,2.188,0,0,0,1.037-.25,1.645,1.645,0,0,0,.7-.672V-4.324h-.949q-1.907,0-2.03,1.318l-.009.149a1.017,1.017,0,0,0,.334.782A1.3,1.3,0,0,0,15.873-1.767ZM24.8-9.51V.519a3.4,3.4,0,0,1-.835,2.448,3.174,3.174,0,0,1-2.408.875A5.165,5.165,0,0,1,20.3,3.691V1.679a4.768,4.768,0,0,0,.8.079q1.151,0,1.151-1.222V-9.51Zm-2.751-2.461a1.251,1.251,0,0,1,.382-.94,1.436,1.436,0,0,1,1.042-.369,1.436,1.436,0,0,1,1.042.369,1.251,1.251,0,0,1,.382.94,1.247,1.247,0,0,1-.391.949,1.443,1.443,0,0,1-1.033.369,1.443,1.443,0,0,1-1.033-.369A1.247,1.247,0,0,1,22.052-11.971ZM32.3,0a2.821,2.821,0,0,1-.255-.853,3.073,3.073,0,0,1-2.4,1.028A3.376,3.376,0,0,1,27.33-.633a2.6,2.6,0,0,1-.918-2.039,2.687,2.687,0,0,1,1.121-2.32,5.529,5.529,0,0,1,3.239-.817h1.169v-.545A1.567,1.567,0,0,0,31.6-7.409a1.331,1.331,0,0,0-1.068-.4,1.513,1.513,0,0,0-1.006.308,1.045,1.045,0,0,0-.365.844h-2.54a2.551,2.551,0,0,1,.51-1.529,3.37,3.37,0,0,1,1.441-1.1,5.253,5.253,0,0,1,2.092-.4,4.15,4.15,0,0,1,2.791.883,3.09,3.09,0,0,1,1.033,2.483V-2.2a4.546,4.546,0,0,0,.378,2.048V0ZM30.2-1.767a2.188,2.188,0,0,0,1.037-.25,1.645,1.645,0,0,0,.7-.672V-4.324H30.99q-1.907,0-2.03,1.318l-.009.149a1.017,1.017,0,0,0,.334.782A1.3,1.3,0,0,0,30.2-1.767Z" transform="translate(555.051 3340) rotate(-90)" fill="#12263f"/>
    <path id="Trazado_913915" data-name="Trazado 913915" d="M1.143,0V-12.8H5.625a5.886,5.886,0,0,1,3.533.892,3.05,3.05,0,0,1,1.2,2.615,2.891,2.891,0,0,1-.483,1.657,2.792,2.792,0,0,1-1.345,1.05,2.7,2.7,0,0,1,1.551.993,2.936,2.936,0,0,1,.567,1.828A3.377,3.377,0,0,1,9.475-.967,5.3,5.3,0,0,1,6.117,0ZM3.779-5.572v3.454H6.038a2.18,2.18,0,0,0,1.455-.444,1.522,1.522,0,0,0,.523-1.226A1.607,1.607,0,0,0,6.2-5.572Zm0-1.863H5.73q2-.035,2-1.591a1.47,1.47,0,0,0-.505-1.252,2.658,2.658,0,0,0-1.6-.382H3.779ZM17.974,0a2.821,2.821,0,0,1-.255-.853,3.073,3.073,0,0,1-2.4,1.028A3.376,3.376,0,0,1,13-.633a2.6,2.6,0,0,1-.918-2.039,2.687,2.687,0,0,1,1.121-2.32,5.529,5.529,0,0,1,3.239-.817h1.169v-.545a1.567,1.567,0,0,0-.338-1.055,1.331,1.331,0,0,0-1.068-.4A1.513,1.513,0,0,0,15.2-7.5a1.045,1.045,0,0,0-.365.844H12.3a2.551,2.551,0,0,1,.51-1.529,3.37,3.37,0,0,1,1.441-1.1,5.253,5.253,0,0,1,2.092-.4,4.15,4.15,0,0,1,2.791.883,3.09,3.09,0,0,1,1.033,2.483V-2.2A4.546,4.546,0,0,0,20.54-.149V0Zm-2.1-1.767a2.188,2.188,0,0,0,1.037-.25,1.645,1.645,0,0,0,.7-.672V-4.324h-.949q-1.907,0-2.03,1.318l-.009.149a1.017,1.017,0,0,0,.334.782A1.3,1.3,0,0,0,15.873-1.767ZM24.8-9.51V.519a3.4,3.4,0,0,1-.835,2.448,3.174,3.174,0,0,1-2.408.875A5.165,5.165,0,0,1,20.3,3.691V1.679a4.768,4.768,0,0,0,.8.079q1.151,0,1.151-1.222V-9.51Zm-2.751-2.461a1.251,1.251,0,0,1,.382-.94,1.436,1.436,0,0,1,1.042-.369,1.436,1.436,0,0,1,1.042.369,1.251,1.251,0,0,1,.382.94,1.247,1.247,0,0,1-.391.949,1.443,1.443,0,0,1-1.033.369,1.443,1.443,0,0,1-1.033-.369A1.247,1.247,0,0,1,22.052-11.971Zm4.342,7.128a5.64,5.64,0,0,1,.545-2.522,3.989,3.989,0,0,1,1.569-1.714,4.577,4.577,0,0,1,2.377-.606,4.33,4.33,0,0,1,3.142,1.178,4.727,4.727,0,0,1,1.358,3.2l.018.65a4.97,4.97,0,0,1-1.222,3.511A4.247,4.247,0,0,1,30.9.176,4.268,4.268,0,0,1,27.62-1.143a5.058,5.058,0,0,1-1.226-3.586Zm2.54.18a3.555,3.555,0,0,0,.51,2.073,1.682,1.682,0,0,0,1.459.717,1.686,1.686,0,0,0,1.441-.709,3.89,3.89,0,0,0,.519-2.267,3.519,3.519,0,0,0-.519-2.06,1.686,1.686,0,0,0-1.459-.731,1.658,1.658,0,0,0-1.441.726A3.955,3.955,0,0,0,28.934-4.662Z" transform="translate(639.051 3384)" fill="#12263f"/>
    <path id="Trazado_913910" data-name="Trazado 913910" d="M4.588-12.8,7.875-3.516l3.27-9.281h3.463V0H11.962V-3.5l.264-6.038L8.771,0H6.961L3.516-9.527,3.779-3.5V0H1.143V-12.8ZM21.12.176a4.668,4.668,0,0,1-3.406-1.283A4.561,4.561,0,0,1,16.4-4.526v-.246a5.745,5.745,0,0,1,.554-2.562,4.064,4.064,0,0,1,1.569-1.74,4.4,4.4,0,0,1,2.316-.611,3.947,3.947,0,0,1,3.072,1.23,5,5,0,0,1,1.121,3.489v1.037H18.976a2.36,2.36,0,0,0,.743,1.494,2.245,2.245,0,0,0,1.569.563,2.742,2.742,0,0,0,2.294-1.063l1.248,1.4A3.813,3.813,0,0,1,23.282-.277,5.075,5.075,0,0,1,21.12.176Zm-.29-7.813a1.587,1.587,0,0,0-1.226.512A2.651,2.651,0,0,0,19-5.66h3.533v-.2a1.891,1.891,0,0,0-.457-1.311A1.638,1.638,0,0,0,20.83-7.638Zm5.247,2.813a5.731,5.731,0,0,1,1-3.542A3.237,3.237,0,0,1,29.8-9.686,2.913,2.913,0,0,1,32.1-8.648V-13.5h2.549V0H32.353l-.123-1.011A2.989,2.989,0,0,1,29.786.176a3.228,3.228,0,0,1-2.694-1.323A5.916,5.916,0,0,1,26.077-4.825Zm2.54.189a3.754,3.754,0,0,0,.466,2.051,1.517,1.517,0,0,0,1.354.713A1.7,1.7,0,0,0,32.1-2.867V-6.625a1.675,1.675,0,0,0-1.644-.995Q28.617-7.62,28.617-4.636ZM39.3,0H36.747V-9.51H39.3ZM36.6-11.971a1.251,1.251,0,0,1,.382-.94,1.436,1.436,0,0,1,1.042-.369,1.44,1.44,0,0,1,1.037.369,1.244,1.244,0,0,1,.387.94,1.247,1.247,0,0,1-.391.949,1.443,1.443,0,0,1-1.033.369,1.443,1.443,0,0,1-1.033-.369A1.247,1.247,0,0,1,36.6-11.971ZM46.9,0a2.821,2.821,0,0,1-.255-.853,3.073,3.073,0,0,1-2.4,1.028,3.376,3.376,0,0,1-2.316-.809,2.6,2.6,0,0,1-.918-2.039,2.687,2.687,0,0,1,1.121-2.32,5.529,5.529,0,0,1,3.239-.817h1.169v-.545A1.567,1.567,0,0,0,46.2-7.409a1.331,1.331,0,0,0-1.068-.4,1.513,1.513,0,0,0-1.006.308,1.045,1.045,0,0,0-.365.844h-2.54a2.551,2.551,0,0,1,.51-1.529,3.37,3.37,0,0,1,1.441-1.1,5.253,5.253,0,0,1,2.092-.4,4.15,4.15,0,0,1,2.791.883,3.09,3.09,0,0,1,1.033,2.483V-2.2a4.546,4.546,0,0,0,.378,2.048V0ZM44.8-1.767a2.188,2.188,0,0,0,1.037-.25,1.645,1.645,0,0,0,.7-.672V-4.324h-.949q-1.907,0-2.03,1.318l-.009.149a1.017,1.017,0,0,0,.334.782A1.3,1.3,0,0,0,44.8-1.767Z" transform="translate(555.051 3236) rotate(-90)" fill="#12263f"/>
    <path id="Trazado_913916" data-name="Trazado 913916" d="M4.588-12.8,7.875-3.516l3.27-9.281h3.463V0H11.962V-3.5l.264-6.038L8.771,0H6.961L3.516-9.527,3.779-3.5V0H1.143V-12.8ZM21.12.176a4.668,4.668,0,0,1-3.406-1.283A4.561,4.561,0,0,1,16.4-4.526v-.246a5.745,5.745,0,0,1,.554-2.562,4.064,4.064,0,0,1,1.569-1.74,4.4,4.4,0,0,1,2.316-.611,3.947,3.947,0,0,1,3.072,1.23,5,5,0,0,1,1.121,3.489v1.037H18.976a2.36,2.36,0,0,0,.743,1.494,2.245,2.245,0,0,0,1.569.563,2.742,2.742,0,0,0,2.294-1.063l1.248,1.4A3.813,3.813,0,0,1,23.282-.277,5.075,5.075,0,0,1,21.12.176Zm-.29-7.813a1.587,1.587,0,0,0-1.226.512A2.651,2.651,0,0,0,19-5.66h3.533v-.2a1.891,1.891,0,0,0-.457-1.311A1.638,1.638,0,0,0,20.83-7.638Zm5.247,2.813a5.731,5.731,0,0,1,1-3.542A3.237,3.237,0,0,1,29.8-9.686,2.913,2.913,0,0,1,32.1-8.648V-13.5h2.549V0H32.353l-.123-1.011A2.989,2.989,0,0,1,29.786.176a3.228,3.228,0,0,1-2.694-1.323A5.916,5.916,0,0,1,26.077-4.825Zm2.54.189a3.754,3.754,0,0,0,.466,2.051,1.517,1.517,0,0,0,1.354.713A1.7,1.7,0,0,0,32.1-2.867V-6.625a1.675,1.675,0,0,0-1.644-.995Q28.617-7.62,28.617-4.636ZM39.3,0H36.747V-9.51H39.3ZM36.6-11.971a1.251,1.251,0,0,1,.382-.94,1.436,1.436,0,0,1,1.042-.369,1.44,1.44,0,0,1,1.037.369,1.244,1.244,0,0,1,.387.94,1.247,1.247,0,0,1-.391.949,1.443,1.443,0,0,1-1.033.369,1.443,1.443,0,0,1-1.033-.369A1.247,1.247,0,0,1,36.6-11.971ZM46.9,0a2.821,2.821,0,0,1-.255-.853,3.073,3.073,0,0,1-2.4,1.028,3.376,3.376,0,0,1-2.316-.809,2.6,2.6,0,0,1-.918-2.039,2.687,2.687,0,0,1,1.121-2.32,5.529,5.529,0,0,1,3.239-.817h1.169v-.545A1.567,1.567,0,0,0,46.2-7.409a1.331,1.331,0,0,0-1.068-.4,1.513,1.513,0,0,0-1.006.308,1.045,1.045,0,0,0-.365.844h-2.54a2.551,2.551,0,0,1,.51-1.529,3.37,3.37,0,0,1,1.441-1.1,5.253,5.253,0,0,1,2.092-.4,4.15,4.15,0,0,1,2.791.883,3.09,3.09,0,0,1,1.033,2.483V-2.2a4.546,4.546,0,0,0,.378,2.048V0ZM44.8-1.767a2.188,2.188,0,0,0,1.037-.25,1.645,1.645,0,0,0,.7-.672V-4.324h-.949q-1.907,0-2.03,1.318l-.009.149a1.017,1.017,0,0,0,.334.782A1.3,1.3,0,0,0,44.8-1.767Z" transform="translate(809.051 3384)" fill="#12263f"/>
    <path id="Trazado_913911" data-name="Trazado 913911" d="M8.367-2.637H3.744L2.865,0H.062L4.825-12.8H7.269L12.059,0h-2.8ZM4.456-4.772h3.2L6.047-9.562ZM15.768,0H13.219V-13.5h2.549ZM20.9-11.848V-9.51h1.626v1.863H20.9V-2.9a1.133,1.133,0,0,0,.2.756,1.015,1.015,0,0,0,.773.229,4.051,4.051,0,0,0,.747-.062V-.053a5.229,5.229,0,0,1-1.538.229,2.425,2.425,0,0,1-2.725-2.7V-7.646H16.972V-9.51H18.36v-2.338ZM29.452,0A2.821,2.821,0,0,1,29.2-.853,3.073,3.073,0,0,1,26.8.176a3.376,3.376,0,0,1-2.316-.809,2.6,2.6,0,0,1-.918-2.039,2.687,2.687,0,0,1,1.121-2.32,5.529,5.529,0,0,1,3.239-.817h1.169v-.545a1.567,1.567,0,0,0-.338-1.055,1.331,1.331,0,0,0-1.068-.4,1.513,1.513,0,0,0-1.006.308,1.045,1.045,0,0,0-.365.844h-2.54a2.551,2.551,0,0,1,.51-1.529,3.37,3.37,0,0,1,1.441-1.1,5.253,5.253,0,0,1,2.092-.4,4.15,4.15,0,0,1,2.791.883,3.09,3.09,0,0,1,1.033,2.483V-2.2a4.546,4.546,0,0,0,.378,2.048V0Zm-2.1-1.767a2.188,2.188,0,0,0,1.037-.25,1.645,1.645,0,0,0,.7-.672V-4.324h-.949q-1.907,0-2.03,1.318l-.009.149a1.017,1.017,0,0,0,.334.782A1.3,1.3,0,0,0,27.352-1.767Z" transform="translate(555.051 3133) rotate(-90)" fill="#12263f"/>
    <path id="Trazado_913920" data-name="Trazado 913920" d="M8.367-2.637H3.744L2.865,0H.062L4.825-12.8H7.269L12.059,0h-2.8ZM4.456-4.772h3.2L6.047-9.562ZM15.768,0H13.219V-13.5h2.549ZM20.9-11.848V-9.51h1.626v1.863H20.9V-2.9a1.133,1.133,0,0,0,.2.756,1.015,1.015,0,0,0,.773.229,4.051,4.051,0,0,0,.747-.062V-.053a5.229,5.229,0,0,1-1.538.229,2.425,2.425,0,0,1-2.725-2.7V-7.646H16.972V-9.51H18.36v-2.338Zm2.382,7a5.64,5.64,0,0,1,.545-2.522A3.989,3.989,0,0,1,25.4-9.079a4.577,4.577,0,0,1,2.377-.606,4.33,4.33,0,0,1,3.142,1.178,4.727,4.727,0,0,1,1.358,3.2l.018.65a4.97,4.97,0,0,1-1.222,3.511A4.247,4.247,0,0,1,27.791.176a4.268,4.268,0,0,1-3.283-1.318,5.058,5.058,0,0,1-1.226-3.586Zm2.54.18a3.555,3.555,0,0,0,.51,2.073,1.682,1.682,0,0,0,1.459.717,1.686,1.686,0,0,0,1.441-.709,3.89,3.89,0,0,0,.519-2.267,3.519,3.519,0,0,0-.519-2.06,1.686,1.686,0,0,0-1.459-.731,1.658,1.658,0,0,0-1.441.726A3.955,3.955,0,0,0,25.822-4.662Z" transform="translate(987.051 3384)" fill="#12263f"/>
  </g>
</svg>
