<svg xmlns="http://www.w3.org/2000/svg" width="367" height="558" viewBox="0 0 367 558">
  <g id="Grupo_1103706" data-name="Grupo 1103706" transform="translate(-617.051 -4032)">
    <path id="Trazado_913938" data-name="Trazado 913938" d="M0,0H367V558H0Z" transform="translate(617.051 4032)" fill="#e8e8e8"/>
    <path id="Trazado_913964" data-name="Trazado 913964" d="M0,0H367V70H0Z" transform="translate(617.051 4032)" fill="#fa6d61"/>
    <path id="Trazado_913939" data-name="Trazado 913939" d="M0,0H129V488H0Z" transform="translate(855.051 4102)" fill="#f6f6f6"/>
    <path id="Trazado_913965" data-name="Trazado 913965" d="M10.453-8.328H6.719V0H2.031V-22.75h8.453a9.556,9.556,0,0,1,6.219,1.8,6.2,6.2,0,0,1,2.188,5.078,7,7,0,0,1-1.008,3.883,6.873,6.873,0,0,1-3.055,2.477l4.922,9.3V0H14.719Zm-3.734-3.8H10.5a3.871,3.871,0,0,0,2.734-.9A3.211,3.211,0,0,0,14.2-15.5a3.437,3.437,0,0,0-.914-2.531,3.8,3.8,0,0,0-2.8-.922H6.719ZM26.922,0H22.391V-16.906h4.531Zm-4.8-21.281a2.224,2.224,0,0,1,.68-1.672,2.553,2.553,0,0,1,1.852-.656,2.559,2.559,0,0,1,1.844.656,2.211,2.211,0,0,1,.688,1.672,2.217,2.217,0,0,1-.7,1.688,2.565,2.565,0,0,1-1.836.656,2.565,2.565,0,0,1-1.836-.656A2.217,2.217,0,0,1,22.125-21.281ZM38.422.313a8.3,8.3,0,0,1-6.055-2.281,8.109,8.109,0,0,1-2.336-6.078v-.437a10.213,10.213,0,0,1,.984-4.555A7.224,7.224,0,0,1,33.8-16.133a7.828,7.828,0,0,1,4.117-1.086,7.016,7.016,0,0,1,5.461,2.188,8.889,8.889,0,0,1,1.992,6.2v1.844H34.609a4.2,4.2,0,0,0,1.32,2.656,3.991,3.991,0,0,0,2.789,1A4.874,4.874,0,0,0,42.8-5.219l2.219,2.484a6.779,6.779,0,0,1-2.75,2.242A9.022,9.022,0,0,1,38.422.313Zm-.516-13.891a2.822,2.822,0,0,0-2.18.91,4.714,4.714,0,0,0-1.07,2.605h6.281v-.361a3.362,3.362,0,0,0-.812-2.331A2.911,2.911,0,0,0,37.906-13.578ZM57.094-4.672a1.455,1.455,0,0,0-.82-1.3,9.318,9.318,0,0,0-2.633-.852q-6.031-1.266-6.031-5.125a4.645,4.645,0,0,1,1.867-3.758,7.532,7.532,0,0,1,4.883-1.508A8.107,8.107,0,0,1,59.508-15.7a4.777,4.777,0,0,1,1.93,3.938H56.922a2.185,2.185,0,0,0-.625-1.6A2.645,2.645,0,0,0,54.344-14a2.7,2.7,0,0,0-1.766.516,1.628,1.628,0,0,0-.625,1.313,1.391,1.391,0,0,0,.711,1.211,7.314,7.314,0,0,0,2.4.8,19.59,19.59,0,0,1,2.844.758q3.578,1.313,3.578,4.547A4.41,4.41,0,0,1,59.5-1.117,8.56,8.56,0,0,1,54.375.313,8.941,8.941,0,0,1,50.6-.445a6.331,6.331,0,0,1-2.586-2.078,4.829,4.829,0,0,1-.937-2.852h4.281a2.357,2.357,0,0,0,.891,1.844,3.533,3.533,0,0,0,2.219.641,3.27,3.27,0,0,0,1.961-.492A1.532,1.532,0,0,0,57.094-4.672Zm6.641-3.906a9.908,9.908,0,0,1,1.852-6.266,6,6,0,0,1,4.992-2.375,5.262,5.262,0,0,1,4.328,1.906l.188-1.594h4.094V-.562A7.226,7.226,0,0,1,78.18,3.3a6.473,6.473,0,0,1-2.836,2.5,9.97,9.97,0,0,1-4.281.859,9.27,9.27,0,0,1-3.625-.742A6.434,6.434,0,0,1,64.766,4l2-2.75a5.29,5.29,0,0,0,4.094,1.891,3.872,3.872,0,0,0,2.8-.961,3.6,3.6,0,0,0,1-2.727v-.906A5.223,5.223,0,0,1,70.547.313a5.984,5.984,0,0,1-4.93-2.383,9.9,9.9,0,0,1-1.883-6.32Zm4.516.336a6.169,6.169,0,0,0,.922,3.607A2.933,2.933,0,0,0,71.7-3.328a3.136,3.136,0,0,0,2.953-1.549V-12a3.128,3.128,0,0,0-2.922-1.549,2.951,2.951,0,0,0-2.555,1.33A6.954,6.954,0,0,0,68.25-8.242Zm13.7-.367a10.026,10.026,0,0,1,.969-4.484,7.092,7.092,0,0,1,2.789-3.047,8.137,8.137,0,0,1,4.227-1.078,7.7,7.7,0,0,1,5.586,2.094,8.4,8.4,0,0,1,2.414,5.688l.031,1.156A8.836,8.836,0,0,1,95.8-2.039,7.549,7.549,0,0,1,89.969.313a7.587,7.587,0,0,1-5.836-2.344,8.992,8.992,0,0,1-2.18-6.375Zm4.516.321A6.32,6.32,0,0,0,87.375-4.6a2.99,2.99,0,0,0,2.594,1.275,3,3,0,0,0,2.563-1.26,6.915,6.915,0,0,0,.922-4.03,6.256,6.256,0,0,0-.922-3.662,3,3,0,0,0-2.594-1.3,2.948,2.948,0,0,0-2.562,1.291A7.032,7.032,0,0,0,86.469-8.289Zm23.438,3.617a1.455,1.455,0,0,0-.82-1.3,9.318,9.318,0,0,0-2.633-.852q-6.031-1.266-6.031-5.125a4.645,4.645,0,0,1,1.867-3.758,7.532,7.532,0,0,1,4.883-1.508A8.107,8.107,0,0,1,112.32-15.7a4.777,4.777,0,0,1,1.93,3.938h-4.516a2.185,2.185,0,0,0-.625-1.6A2.645,2.645,0,0,0,107.156-14a2.7,2.7,0,0,0-1.766.516,1.628,1.628,0,0,0-.625,1.313,1.391,1.391,0,0,0,.711,1.211,7.314,7.314,0,0,0,2.4.8,19.59,19.59,0,0,1,2.844.758Q114.3-8.094,114.3-4.859a4.41,4.41,0,0,1-1.984,3.742,8.56,8.56,0,0,1-5.125,1.43,8.941,8.941,0,0,1-3.773-.758,6.331,6.331,0,0,1-2.586-2.078,4.829,4.829,0,0,1-.937-2.852h4.281a2.357,2.357,0,0,0,.891,1.844,3.533,3.533,0,0,0,2.219.641,3.27,3.27,0,0,0,1.961-.492A1.531,1.531,0,0,0,109.906-4.672Z" transform="translate(675 4079)" fill="#fff"/>
    <path id="Trazado_913966" data-name="Trazado 913966" d="M10.453-8.328H6.719V0H2.031V-22.75h8.453a9.556,9.556,0,0,1,6.219,1.8,6.2,6.2,0,0,1,2.188,5.078,7,7,0,0,1-1.008,3.883,6.873,6.873,0,0,1-3.055,2.477l4.922,9.3V0H14.719Zm-3.734-3.8H10.5a3.871,3.871,0,0,0,2.734-.9A3.211,3.211,0,0,0,14.2-15.5a3.437,3.437,0,0,0-.914-2.531,3.8,3.8,0,0,0-2.8-.922H6.719ZM31.953,0A5.015,5.015,0,0,1,31.5-1.516,5.464,5.464,0,0,1,27.234.313a6,6,0,0,1-4.117-1.437A4.623,4.623,0,0,1,21.484-4.75a4.778,4.778,0,0,1,1.992-4.125,9.83,9.83,0,0,1,5.758-1.453h2.078V-11.3a2.786,2.786,0,0,0-.6-1.875,2.367,2.367,0,0,0-1.9-.7,2.69,2.69,0,0,0-1.789.547,1.858,1.858,0,0,0-.648,1.5H21.859a4.536,4.536,0,0,1,.906-2.719,5.99,5.99,0,0,1,2.563-1.961,9.339,9.339,0,0,1,3.719-.711,7.378,7.378,0,0,1,4.961,1.57,5.493,5.493,0,0,1,1.836,4.414v7.328a8.083,8.083,0,0,0,.672,3.641V0ZM28.219-3.141a3.889,3.889,0,0,0,1.844-.445,2.925,2.925,0,0,0,1.25-1.2V-7.687H29.625q-3.391,0-3.609,2.344L26-5.078a1.808,1.808,0,0,0,.594,1.391A2.306,2.306,0,0,0,28.219-3.141Zm15.25-13.766.141,1.953a5.9,5.9,0,0,1,4.859-2.266,4.905,4.905,0,0,1,4,1.578,7.363,7.363,0,0,1,1.344,4.719V0H49.3V-10.812a2.93,2.93,0,0,0-.625-2.086,2.8,2.8,0,0,0-2.078-.648,3.107,3.107,0,0,0-2.859,1.625V0H39.219V-16.906ZM56.578-8.578a9.908,9.908,0,0,1,1.852-6.266,6,6,0,0,1,4.992-2.375,5.262,5.262,0,0,1,4.328,1.906l.188-1.594h4.094V-.562A7.226,7.226,0,0,1,71.023,3.3a6.473,6.473,0,0,1-2.836,2.5,9.97,9.97,0,0,1-4.281.859,9.27,9.27,0,0,1-3.625-.742A6.434,6.434,0,0,1,57.609,4l2-2.75A5.29,5.29,0,0,0,63.7,3.141a3.872,3.872,0,0,0,2.8-.961,3.6,3.6,0,0,0,1-2.727v-.906A5.223,5.223,0,0,1,63.391.313a5.984,5.984,0,0,1-4.93-2.383,9.9,9.9,0,0,1-1.883-6.32Zm4.516.336a6.169,6.169,0,0,0,.922,3.607,2.933,2.933,0,0,0,2.531,1.307A3.136,3.136,0,0,0,67.5-4.877V-12a3.128,3.128,0,0,0-2.922-1.549,2.951,2.951,0,0,0-2.555,1.33A6.954,6.954,0,0,0,61.094-8.242Zm13.7-.367a10.026,10.026,0,0,1,.969-4.484,7.092,7.092,0,0,1,2.789-3.047,8.137,8.137,0,0,1,4.227-1.078,7.7,7.7,0,0,1,5.586,2.094,8.4,8.4,0,0,1,2.414,5.688l.031,1.156a8.836,8.836,0,0,1-2.172,6.242A7.549,7.549,0,0,1,82.813.313a7.587,7.587,0,0,1-5.836-2.344A8.992,8.992,0,0,1,74.8-8.406Zm4.516.321A6.32,6.32,0,0,0,80.219-4.6a2.99,2.99,0,0,0,2.594,1.275,3,3,0,0,0,2.563-1.26,6.915,6.915,0,0,0,.922-4.03,6.256,6.256,0,0,0-.922-3.662,3,3,0,0,0-2.594-1.3,2.948,2.948,0,0,0-2.562,1.291A7.032,7.032,0,0,0,79.313-8.289Z" transform="translate(873.551 4079)" fill="#fff"/>
    <path id="Trazado_913960" data-name="Trazado 913960" d="M14,0H37A14,14,0,0,1,51,14V36A14,14,0,0,1,37,50H14A14,14,0,0,1,0,36V14A14,14,0,0,1,14,0Z" transform="translate(895.051 4121)" fill="#ffbe01"/>
    <path id="Trazado_913956" data-name="Trazado 913956" d="M14,0H37A14,14,0,0,1,51,14V36A14,14,0,0,1,37,50H14A14,14,0,0,1,0,36V14A14,14,0,0,1,14,0Z" transform="translate(895.051 4199)" fill="#ffbe01"/>
    <path id="Trazado_913952" data-name="Trazado 913952" d="M14,0H37A14,14,0,0,1,51,14V36A14,14,0,0,1,37,50H14A14,14,0,0,1,0,36V14A14,14,0,0,1,14,0Z" transform="translate(895.051 4277)" fill="#ffbe01"/>
    <path id="Trazado_913944" data-name="Trazado 913944" d="M14,0H37A14,14,0,0,1,51,14V36A14,14,0,0,1,37,50H14A14,14,0,0,1,0,36V14A14,14,0,0,1,14,0Z" transform="translate(895.051 4355)" fill="#ffbe01"/>
    <path id="Trazado_913945" data-name="Trazado 913945" d="M14,0H37A14,14,0,0,1,51,14V36A14,14,0,0,1,37,50H14A14,14,0,0,1,0,36V14A14,14,0,0,1,14,0Z" transform="translate(895.051 4436)" fill="#ffbe01"/>
    <path id="Trazado_913940" data-name="Trazado 913940" d="M14,0H37A14,14,0,0,1,51,14V36A14,14,0,0,1,37,50H14A14,14,0,0,1,0,36V14A14,14,0,0,1,14,0Z" transform="translate(895.051 4514)" fill="#ffbe01"/>
    <path id="Trazado_913963" data-name="Trazado 913963" d="M0,0H173V9H0Z" transform="translate(637.051 4126)" fill="#727997"/>
    <path id="Trazado_913958" data-name="Trazado 913958" d="M0,0H173V9H0Z" transform="translate(637.051 4204)" fill="#727997"/>
    <path id="Trazado_913955" data-name="Trazado 913955" d="M0,0H173V9H0Z" transform="translate(637.051 4284)" fill="#727997"/>
    <path id="Trazado_913951" data-name="Trazado 913951" d="M0,0H173V9H0Z" transform="translate(637.051 4362)" fill="#727997"/>
    <path id="Trazado_913946" data-name="Trazado 913946" d="M0,0H173V9H0Z" transform="translate(637.051 4440)" fill="#727997"/>
    <path id="Trazado_913941" data-name="Trazado 913941" d="M0,0H173V9H0Z" transform="translate(637.051 4518)" fill="#727997"/>
    <path id="Trazado_913962" data-name="Trazado 913962" d="M0,0H173V9H0Z" transform="translate(637.051 4140)" fill="#727997"/>
    <path id="Trazado_913959" data-name="Trazado 913959" d="M0,0H173V9H0Z" transform="translate(637.051 4218)" fill="#727997"/>
    <path id="Trazado_913954" data-name="Trazado 913954" d="M0,0H173V9H0Z" transform="translate(637.051 4298)" fill="#727997"/>
    <path id="Trazado_913947" data-name="Trazado 913947" d="M0,0H173V9H0Z" transform="translate(637.051 4376)" fill="#727997"/>
    <path id="Trazado_913948" data-name="Trazado 913948" d="M0,0H173V9H0Z" transform="translate(637.051 4454)" fill="#727997"/>
    <path id="Trazado_913942" data-name="Trazado 913942" d="M0,0H173V9H0Z" transform="translate(637.051 4532)" fill="#727997"/>
    <path id="Trazado_913961" data-name="Trazado 913961" d="M0,0H173V9H0Z" transform="translate(637.051 4154)" fill="#727997"/>
    <path id="Trazado_913957" data-name="Trazado 913957" d="M0,0H173V9H0Z" transform="translate(637.051 4232)" fill="#727997"/>
    <path id="Trazado_913953" data-name="Trazado 913953" d="M0,0H173V9H0Z" transform="translate(637.051 4312)" fill="#727997"/>
    <path id="Trazado_913949" data-name="Trazado 913949" d="M0,0H173V9H0Z" transform="translate(637.051 4390)" fill="#727997"/>
    <path id="Trazado_913950" data-name="Trazado 913950" d="M0,0H173V9H0Z" transform="translate(637.051 4468)" fill="#727997"/>
    <path id="Trazado_913943" data-name="Trazado 913943" d="M0,0H173V9H0Z" transform="translate(637.051 4546)" fill="#727997"/>
  </g>
</svg>
