<svg xmlns="http://www.w3.org/2000/svg" xmlns:xlink="http://www.w3.org/1999/xlink" width="299.22" height="249.293" viewBox="0 0 299.22 249.293">
  <defs>
    <clipPath id="clip-path">
      <rect id="Rectángulo_403568" data-name="Rectángulo 403568" width="193.712" height="203.24" fill="none"/>
    </clipPath>
    <clipPath id="clip-path-3">
      <rect id="Rectángulo_403565" data-name="Rectángulo 403565" width="6.994" height="5.396" fill="none"/>
    </clipPath>
    <clipPath id="clip-path-4">
      <rect id="Rectángulo_403566" data-name="Rectángulo 403566" width="6.99" height="10.515" fill="none"/>
    </clipPath>
  </defs>
  <g id="Grupo_1103706" data-name="Grupo 1103706" transform="translate(-1051.21 -3419.744)">
    <rect id="Rectángulo_35929" data-name="Rectángulo 35929" width="298.949" height="249.293" transform="translate(1051.481 3419.744)" fill="#8ab2ee"/>
    <rect id="Rectángulo_402739" data-name="Rectángulo 402739" width="298.949" height="81.071" transform="translate(1051.21 3419.744)" fill="#fef6ed"/>
    <g id="Rectángulo_402741" data-name="Rectángulo 402741" transform="translate(1076.544 3442.039)" fill="none" stroke="#fef6ed" stroke-width="3">
      <rect width="248.279" height="204.704" stroke="none"/>
      <rect x="1.5" y="1.5" width="245.279" height="201.704" fill="none"/>
    </g>
    <g id="Grupo_1102422" data-name="Grupo 1102422" transform="translate(1103.875 3464.797)">
      <g id="Grupo_1102421" data-name="Grupo 1102421" clip-path="url(#clip-path)">
        <path id="Trazado_912991" data-name="Trazado 912991" d="M69.026,833.219l-3.642,13.491,131.685,2.907-6.4-25.2" transform="translate(-51.782 -652.914)" fill="#ffbe01"/>
        <path id="Trazado_912992" data-name="Trazado 912992" d="M415.139,774.41l-54.81,6.8-.4,31.606,64.411,3.2Z" transform="translate(-285.055 -613.313)" fill="#8ab2ee"/>
        <g id="Grupo_1102420" data-name="Grupo 1102420">
          <g id="Grupo_1102419" data-name="Grupo 1102419" clip-path="url(#clip-path)">
            <path id="Trazado_912993" data-name="Trazado 912993" d="M14.225,781.8l10.236-.1L28.1,768.205s-9.47-19.052-14.086-25.883q-.7,19.731.208,39.475" transform="translate(-10.859 -587.9)" fill="#fa6d61"/>
            <path id="Trazado_912994" data-name="Trazado 912994" d="M3.158,733.176C2,731.464,1.149,730.518.827,730.833c-1.605,1.576-.38,41.846-.38,41.846l2.918-.029q-.911-19.722-.208-39.475" transform="translate(0 -578.754)"/>
            <path id="Trazado_912995" data-name="Trazado 912995" d="M39.925,791.577a19.311,19.311,0,0,1-4.644,6.276" transform="translate(-27.942 -626.909)" fill="none" stroke="#000" stroke-linecap="round" stroke-miterlimit="10" stroke-width="2.446"/>
            <path id="Trazado_912996" data-name="Trazado 912996" d="M50.257,809.3a11.083,11.083,0,0,1-4.359,5.44" transform="translate(-36.35 -640.944)" fill="none" stroke="#000" stroke-linecap="round" stroke-miterlimit="10" stroke-width="2.446"/>
            <path id="Trazado_912997" data-name="Trazado 912997" d="M56.213,827.274a18.612,18.612,0,0,1-4.736,4.455.6.6,0,0,1-.413.139" transform="translate(-40.442 -655.18)" fill="none" stroke="#000" stroke-linecap="round" stroke-miterlimit="10" stroke-width="2.446"/>
            <path id="Trazado_912998" data-name="Trazado 912998" d="M714.084,393.91c10.37-.777,17.579-4.459,25.158-11.57-1.4-1.831-2.923-3.936-4.487-6.152a67.68,67.68,0,0,1-10.2,7.456,19.812,19.812,0,0,1-8.419,2.831c0,.014,0,.028,0,.042a63.328,63.328,0,0,1-2.055,7.392" transform="translate(-565.537 -297.932)" fill="#4b96e3"/>
            <path id="Trazado_912999" data-name="Trazado 912999" d="M730.057,293.338c-6.919-9.8-14.551-21.762-14.551-21.762l-7.353,23.58s3.476,4.821,3.29,8.47a19.816,19.816,0,0,0,8.419-2.832,67.671,67.671,0,0,0,10.2-7.456" transform="translate(-560.839 -215.081)" fill="#ffbe01"/>
            <rect id="Rectángulo_403563" data-name="Rectángulo 403563" width="2.749" height="59.938" transform="translate(46.808 100.134) rotate(-66.579)" fill="#ffe28d"/>
            <rect id="Rectángulo_403564" data-name="Rectángulo 403564" width="2.934" height="63.953" transform="matrix(0.397, -0.918, 0.918, 0.397, 44.113, 101.223)" fill="#a6c4f2"/>
            <path id="Trazado_913000" data-name="Trazado 913000" d="M417.725,406.763,399.854,429.1l1.38,1.381,1.3,1.3,19.076-21.852a19.4,19.4,0,0,0-1.48-1.375,18.418,18.418,0,0,0-2.405-1.792" transform="translate(-316.674 -322.146)" fill="#8ab2ee"/>
            <path id="Trazado_913001" data-name="Trazado 913001" d="M387.125,530.055l2.142-1.156a5.408,5.408,0,0,0-.79-1.683Z" transform="translate(-306.593 -417.542)"/>
            <path id="Trazado_913002" data-name="Trazado 913002" d="M394.415,518.543l3.187-1.721-2.68-2.682-1.3,2.72a5.4,5.4,0,0,1,.789,1.682" transform="translate(-311.742 -407.186)" fill="#ffe28d"/>
            <line id="Línea_692" data-name="Línea 692" y1="22.055" x2="18.797" transform="translate(85.215 86.938)" fill="none" stroke="#000" stroke-miterlimit="10" stroke-width="0.571"/>
            <line id="Línea_693" data-name="Línea 693" y1="22.249" x2="18.087" transform="translate(83.605 85.093)" fill="none" stroke="#000" stroke-miterlimit="10" stroke-width="0.571"/>
            <line id="Línea_694" data-name="Línea 694" y1="22.117" x2="18.524" transform="translate(84.39 85.988)" fill="none" stroke="#000" stroke-miterlimit="10" stroke-width="0.571"/>
            <path id="Trazado_913003" data-name="Trazado 913003" d="M437.726,438.337c4.128-4.8,8.732-10.023,12.977-14.72-4.127,4.8-8.732,10.022-12.977,14.72" transform="translate(-346.668 -335.494)" fill="#fff"/>
            <path id="Trazado_913004" data-name="Trazado 913004" d="M690.978,395.749s-.247-10.25-9.519-3.939-26.837,33.3-26.837,33.3l22.268,15.345L690.63,423.4Z" transform="translate(-518.444 -308.678)" fill="#4b96e3"/>
            <path id="Trazado_913005" data-name="Trazado 913005" d="M418.969,464.616s28.37,27.986,37.122,24.775a39.018,39.018,0,0,0,14.446-9.743l-16.173-11.09-3.5,4.618-27.766-14.9s-3.255-7.066-5.423-9.172-6.741-5.131-7.384-4.372.375,2.467.375,2.467a1.8,1.8,0,0,0-2.025.643,2.127,2.127,0,0,0-.138,2.215s-2.054-.4-2.716.586a2.266,2.266,0,0,0-.084,2.127s-2.019-.261-2.469.676a2.365,2.365,0,0,0,.271,2.041s-1.294-.061-1.706.716,2.5,3.455,6.6,5.165a86.322,86.322,0,0,0,10.568,3.246" transform="translate(-318.187 -352.124)" fill="#ffbe01"/>
            <path id="Trazado_913006" data-name="Trazado 913006" d="M665.456,545.821a36.243,36.243,0,0,1,6.4,3.537,155.56,155.56,0,0,1,15.632,11.709" transform="translate(-527.024 -432.277)" fill="none" stroke="#000" stroke-miterlimit="10" stroke-width="1"/>
            <path id="Trazado_913007" data-name="Trazado 913007" d="M671.657,536.388a36.244,36.244,0,0,1,6.4,3.537,155.55,155.55,0,0,1,15.632,11.71" transform="translate(-531.936 -424.806)" fill="none" stroke="#000" stroke-miterlimit="10" stroke-width="1"/>
            <path id="Trazado_913008" data-name="Trazado 913008" d="M444.25,456.438c.9.684,1.759,1.419,2.589,2.187a2.642,2.642,0,0,1,.583.648,1.494,1.494,0,0,1,.081.882,9.386,9.386,0,0,0-.037,1.671,9.54,9.54,0,0,0,2.7,6,8.88,8.88,0,0,1-2.909-5.987,9.576,9.576,0,0,1,.057-1.708,1.326,1.326,0,0,0-.053-.778,2.827,2.827,0,0,0-.533-.615c-.8-.79-1.634-1.552-2.479-2.3" transform="translate(-351.835 -361.487)"/>
            <path id="Trazado_913009" data-name="Trazado 913009" d="M405.3,473.692c.889.788,2.811,2.572,4.022,2.442.515-.108.489-.678.28-1.057a13.1,13.1,0,0,0-3.34-3.421l.1-.125a23.712,23.712,0,0,0,2.481,1.753c1.172.768,3.618,1.7,2.361-.74a19.608,19.608,0,0,0-2.769-3.6l.151-.137c.886.97,3.383,3.573,4.733,2.39,1.133-1.207-1.229-4.022-2.061-4.99l.1-.1a15.166,15.166,0,0,0,2.615,2.145c.551.345,1.571.833,1.881-.033a5.633,5.633,0,0,0-.586-3.278,9.253,9.253,0,0,1,.68,2.163c.147.709.021,1.857-.968,1.67a5.3,5.3,0,0,1-2-1.074,19.1,19.1,0,0,1-1.718-1.5l.1-.1a14.651,14.651,0,0,1,1.781,2.374,3.733,3.733,0,0,1,.651,2.14,1.223,1.223,0,0,1-1.046,1.048,3.248,3.248,0,0,1-2.111-.738,13.027,13.027,0,0,1-2.2-2l.151-.137a25.291,25.291,0,0,1,1.966,2.351,7.383,7.383,0,0,1,1.131,2.018c.208.607-.063,1.2-.787,1.14a5.454,5.454,0,0,1-2.144-.875,21.964,21.964,0,0,1-2.489-1.785l.1-.125a13.171,13.171,0,0,1,3.342,3.5c.235.434.229,1.075-.362,1.191-1.244.128-3.149-1.712-4.04-2.529" transform="translate(-320.985 -368.228)"/>
            <path id="Trazado_913010" data-name="Trazado 913010" d="M100.579,900.97l-.193-10.234-13.524-3.52s-18.966,9.642-25.754,14.32q19.736.523,39.471-.565" transform="translate(-48.396 -702.653)" fill="#fa6d61"/>
            <path id="Trazado_913011" data-name="Trazado 913011" d="M52.037,953.9c-1.7,1.172-2.64,2.034-2.321,2.352,1.591,1.591,41.847,0,41.847,0l-.055-2.918q-19.713,1.09-39.471.565" transform="translate(-39.325 -755.017)"/>
            <path id="Trazado_913012" data-name="Trazado 913012" d="M253.012,650.719s-21.879-11.168-30.03-8.945-38.07,50.826-38.07,50.826a47.555,47.555,0,0,0,6.854,3.705c2.223.741,6.669-.185,6.669-.185l29.548-32.486,13.633,10.685Z" transform="translate(-146.446 -508.037)" fill="#ffbe01"/>
            <path id="Trazado_913013" data-name="Trazado 913013" d="M719.432,194.049c-.059-.525-.116-1.074-.172-1.64a249.135,249.135,0,0,0-17.9-34.693Z" transform="translate(-555.459 -124.907)" fill="#ffbe01"/>
            <path id="Trazado_913014" data-name="Trazado 913014" d="M673.454,436.954c-2.176-24.484-10.312-31.194-10.312-31.194s-14.788,10.793-25.158,11.57c-5.236,16.813-19.989,58.185-19.989,58.185l45.659,23.021s11.977-37.1,9.8-61.581" transform="translate(-489.436 -321.352)" fill="#4b96e3"/>
            <path id="Trazado_913015" data-name="Trazado 913015" d="M603.681,164.944l-1.948-41.907L561.226,124l-3.633,13.566a69.659,69.659,0,0,0-.316,10.217c.336,3.975,1.53,9.059,1.121,10.073s-3.679,3.823-2.839,5.518,4.329,2.723,4.661,3.386,3.378,13.9,14.229,14.579a15.437,15.437,0,0,0,12.225-4.572" transform="translate(-439.88 -97.442)" fill="#ffbe01"/>
            <path id="Trazado_913016" data-name="Trazado 913016" d="M549.54,56.559c-3.8-.682-6.765-3.772-8.58-7.18s-2.739-7.208-4.18-10.79a5.283,5.283,0,0,1-4.313,2.577,5.564,5.564,0,0,1-4.644-2.261c-.629,1.951-2.9,3.283-4.9,3.73a6.037,6.037,0,0,1-5.615-1.734,30.549,30.549,0,0,0,.025,5.16,6.427,6.427,0,0,1-6.344-.319,7.662,7.662,0,0,1-3.4-5.68,8.742,8.742,0,0,1,2.047-6.354,5.971,5.971,0,0,1-3.142-2.411A9.8,9.8,0,0,1,514.3,15.927a9.424,9.424,0,0,1,.976-6.778,12,12,0,0,1,4.761-4.511,10.812,10.812,0,0,1,4.86-1.426,6.882,6.882,0,0,1,4.728,1.607A15.477,15.477,0,0,1,536.149.492a9.3,9.3,0,0,1,7.851.84,13.909,13.909,0,0,1,3.845,4.475,8.61,8.61,0,0,1,9.8-2.684,8.343,8.343,0,0,1,4.866,8.722,12.749,12.749,0,0,1,8.119-.372,7.769,7.769,0,0,1,5.07,5.664,11.183,11.183,0,0,1-.962,5.9c2.44.414,5.594,1.233,7.046,3.236a8.289,8.289,0,0,1,1.258,2.961,8.729,8.729,0,0,1,.2,3.651,4.762,4.762,0,0,1-1.876,3.062,6.922,6.922,0,0,1,3.79,3.884,6.608,6.608,0,0,1-.2,5.294,10.671,10.671,0,0,1-4.745,4.345A10.444,10.444,0,0,1,577.1,67.011c.384,1.653-.51,3.4-1.544,4.741a11.305,11.305,0,0,1-5.419,3.914,9.053,9.053,0,0,1-6.616-.371c-1.676.889-4.337.18-5.993-.745a10.887,10.887,0,0,1-3.871-4.081c-2.442-4.117-3.311-9.192-4.117-13.91" transform="translate(-399.773 0)"/>
            <path id="Trazado_913017" data-name="Trazado 913017" d="M583.925,265.572a2.362,2.362,0,1,0,1.716-2.867,2.362,2.362,0,0,0-1.716,2.867" transform="translate(-462.397 -208)"/>
            <path id="Trazado_913018" data-name="Trazado 913018" d="M588.187,233.7c-1.932-2.957-4.608-5.381-8.225-5.812a9.071,9.071,0,0,0-3.429.136l-.023-.059a6.067,6.067,0,0,1,3.525-.71c3.677.389,6.52,3.32,8.207,6.413l-.055.033" transform="translate(-456.581 -179.957)"/>
            <g id="Grupo_1102415" data-name="Grupo 1102415" transform="translate(125.816 60.508)" style="mix-blend-mode: multiply;isolation: isolate">
              <g id="Grupo_1102414" data-name="Grupo 1102414">
                <g id="Grupo_1102413" data-name="Grupo 1102413" clip-path="url(#clip-path-3)">
                  <path id="Trazado_913019" data-name="Trazado 913019" d="M604.871,294.429c.355,1.411,2.181,2.169,4.079,1.693s3.149-2.007,2.8-3.419-2.181-2.169-4.079-1.693-3.149,2.007-2.8,3.419" transform="translate(-604.812 -290.868)" fill="#ffbe01"/>
                </g>
              </g>
            </g>
            <path id="Trazado_913020" data-name="Trazado 913020" d="M708.22,236.362a9.112,9.112,0,0,1-3.254,6.869,5.068,5.068,0,0,1-2.2,1.163,4.479,4.479,0,0,1-4.617-2.531,8.666,8.666,0,0,1-.456-5.392c.41-2.334,1.483-4.869,3.783-5.719,3.709-1.369,6.745,2.394,6.74,5.609" transform="translate(-552.388 -182.521)" fill="#ffbe01"/>
            <g id="Grupo_1102418" data-name="Grupo 1102418" transform="translate(147.484 49.601)" opacity="0.5" style="mix-blend-mode: multiply;isolation: isolate">
              <g id="Grupo_1102417" data-name="Grupo 1102417">
                <g id="Grupo_1102416" data-name="Grupo 1102416" clip-path="url(#clip-path-4)">
                  <path id="Trazado_913021" data-name="Trazado 913021" d="M709.328,248.794a4.623,4.623,0,0,0,1.945-1.615.894.894,0,0,0,.189-.462c.008-.321-.287-.564-.554-.757l-1.623-1.171a.783.783,0,0,1-.275-.28.737.737,0,0,1-.016-.421c.284-1.794.647-3.735,2.044-4.955a2.686,2.686,0,0,1,1.336-.672,2.655,2.655,0,0,1,2.075.7,6.8,6.8,0,0,1,1.327,1.765s.939,3.636-1.4,6.21a4.932,4.932,0,0,1-5.046,1.656" transform="translate(-708.971 -238.439)" fill="#ffbe01"/>
                </g>
              </g>
            </g>
            <path id="Trazado_913022" data-name="Trazado 913022" d="M715.08,240.423c-.737-1.207-1.927-2.617-3.477-2.3-1.437.39-2.269,1.908-2.652,3.264a15.771,15.771,0,0,0-.492,2.456c.032.235.3.315.485.484l.918.686a4.09,4.09,0,0,1,.9.778c.3.4.006.853-.263,1.157a4.553,4.553,0,0,1-1.863,1.339,4.747,4.747,0,0,0,1.711-1.456c.188-.27.447-.591.2-.895a4.476,4.476,0,0,0-.862-.675c-.175-.121-1.02-.711-1.175-.82a.786.786,0,0,1-.412-.565,1.371,1.371,0,0,1,.019-.331,17.859,17.859,0,0,1,.459-2.269c1.137-3.949,4.6-4.935,6.5-.855" transform="translate(-560.792 -188.332)"/>
            <path id="Trazado_913023" data-name="Trazado 913023" d="M584.653,327.575a8.032,8.032,0,0,0,3.928-6,8.184,8.184,0,0,1-3.778,6.282l-.15-.282" transform="translate(-463.03 -254.679)"/>
            <path id="Trazado_913024" data-name="Trazado 913024" d="M705.555,349.1a18.237,18.237,0,0,0,5.031-8.53,54.471,54.471,0,0,1-2.287,8.469c-.293.757-1.25,2.466-1.25,2.466Z" transform="translate(-558.782 -269.724)"/>
            <path id="Trazado_913025" data-name="Trazado 913025" d="M559.547,107.709a5.183,5.183,0,0,0,2.643,7.489l.055.02,0,.058a3.886,3.886,0,0,0,1.892,3.478,4.173,4.173,0,0,0,4.018.182,4.148,4.148,0,0,1-4.081-.08,3.988,3.988,0,0,1-1.987-3.588l.052.078a5.18,5.18,0,0,1-2.589-7.637" transform="translate(-442.503 -85.303)" fill="#fff"/>
            <path id="Trazado_913026" data-name="Trazado 913026" d="M589.892,52.131a4.347,4.347,0,0,1,3.708-3.853,6.377,6.377,0,0,1,5.26,1.876l-.122.033a3.529,3.529,0,0,1,1.052-1.576,3.587,3.587,0,0,1,5.116-.033,3.5,3.5,0,0,0-3.453-.822,4.125,4.125,0,0,0-2.572,2.471l-.034.118-.089-.084a6.342,6.342,0,0,0-5.137-1.848,4.343,4.343,0,0,0-3.728,3.718" transform="translate(-467.18 -37.637)" fill="#fff"/>
            <path id="Trazado_913027" data-name="Trazado 913027" d="M620.041,87.14a6,6,0,0,0,5.876,7.055h.128l-.06.114c-.677,1.332.223,2.863,1.261,3.734a5.668,5.668,0,0,0,4,1.333c-2.464.266-5.441-1.405-5.642-4.055a2.191,2.191,0,0,1,.247-1.085l.068.114a5.989,5.989,0,0,1-5.876-7.208" transform="translate(-490.948 -69.013)" fill="#fff"/>
            <path id="Trazado_913028" data-name="Trazado 913028" d="M697.852,66.215a4.927,4.927,0,0,1,6.009,4.691l-.131-.056a2.75,2.75,0,0,1,3.675.266,4.576,4.576,0,0,1,1.412,3.576,4.641,4.641,0,0,0-1.492-3.488,2.612,2.612,0,0,0-3.617-.121,4.926,4.926,0,0,0-5.856-4.868" transform="translate(-552.681 -52.337)" fill="#fff"/>
            <path id="Trazado_913029" data-name="Trazado 913029" d="M712.913,133.412a5.486,5.486,0,0,1,4.773,2.821,7.338,7.338,0,0,1,.532,5.653l-.058-.09a3.866,3.866,0,0,1,1.5.57,4.318,4.318,0,0,1,2,4.106,4.31,4.31,0,0,0-3.526-4.535l-.081-.012.022-.079a7.365,7.365,0,0,0-.515-5.545,5.552,5.552,0,0,0-4.652-2.889" transform="translate(-564.609 -105.657)" fill="#fff"/>
            <path id="Trazado_913030" data-name="Trazado 913030" d="M692.1,165.484a3.3,3.3,0,0,0,2.335,3.885l.083.019-.025.081a2.4,2.4,0,0,0,2.635,3.034,2.434,2.434,0,0,1-2.787-3.079l.058.1a3.276,3.276,0,0,1-2.3-4.04" transform="translate(-548.016 -131.059)" fill="#fff"/>
            <path id="Trazado_913031" data-name="Trazado 913031" d="M791.9,88.3a5.776,5.776,0,0,1,3.952,2.618,5.844,5.844,0,0,1,.612,4.732l-.048-.094a5.956,5.956,0,0,1,3.854,6.088,6.022,6.022,0,0,0-3.974-5.967,5.779,5.779,0,0,0-4.4-7.376" transform="translate(-627.162 -69.929)" fill="#fff"/>
            <path id="Trazado_913032" data-name="Trazado 913032" d="M791.856,168.226a5.819,5.819,0,0,1,5.584,7.185l-.035-.081a4.41,4.41,0,0,1,1.544,5.865,4.419,4.419,0,0,0-1.664-5.765,5.845,5.845,0,0,0-5.429-7.2" transform="translate(-627.13 -133.23)" fill="#fff"/>
            <path id="Trazado_913033" data-name="Trazado 913033" d="M808.808,279.186a4.791,4.791,0,0,0,4.708-6.309l-.051-.149.149.047a3.111,3.111,0,0,0,3.533-1.951,5.867,5.867,0,0,0-.247-4.361,5.766,5.766,0,0,1,.359,4.407,3.23,3.23,0,0,1-3.692,2.057l.1-.1a4.857,4.857,0,0,1,.187,2.344,4.8,4.8,0,0,1-5.045,4.017" transform="translate(-640.556 -211.032)" fill="#fff"/>
            <path id="Trazado_913034" data-name="Trazado 913034" d="M765.1,253.24c2.783.09,4.812-2.854,4.311-5.465l-.014-.079.08-.007a2.634,2.634,0,0,0,2.345-1.531,2.9,2.9,0,0,0-.422-2.861,3.937,3.937,0,0,0,.321-5.249,3.965,3.965,0,0,1-.183,5.307l.008-.092a3.043,3.043,0,0,1,.419,2.951,2.752,2.752,0,0,1-2.475,1.621l.067-.086c.508,2.675-1.614,5.676-4.457,5.49" transform="translate(-605.943 -188.528)" fill="#fff"/>
            <path id="Trazado_913035" data-name="Trazado 913035" d="M705.878,620.2,695,609.439l-5.855,10.325Z" transform="translate(-545.785 -482.661)"/>
            <path id="Trazado_913036" data-name="Trazado 913036" d="M692.064,403.318s-6.42-3.087-14.874,4.284-22.677,36.263-22.677,36.263l23.937,12.582,11.609-18.577Z" transform="translate(-518.359 -318.91)" fill="#4b96e3"/>
            <path id="Trazado_913037" data-name="Trazado 913037" d="M382.53,544.606l-2.921,5-36.988-7.382s-4-4.279-6.3-7.133-4.89-4.542-5.915-3.389,3.577,6.86,3.577,6.86l-22.9-8.684s.2,4.383,4.168,9.542,23.65,10.7,23.65,10.7,39.513,19.2,47.821,14.968a39.02,39.02,0,0,0,13.182-11.4" transform="translate(-246.375 -419.651)" fill="#ffbe01"/>
            <path id="Trazado_913038" data-name="Trazado 913038" d="M326.59,535.4a24.6,24.6,0,0,0,10.927,9.574l.908.385-.929-.334A21.35,21.35,0,0,1,326.59,535.4" transform="translate(-258.651 -424.021)"/>
            <path id="Trazado_913039" data-name="Trazado 913039" d="M317.47,531.686A20.912,20.912,0,0,0,328.6,544.471c.737.389,1.487.754,2.232,1.13q-1.147-.5-2.277-1.039a19.493,19.493,0,0,1-11.082-12.876" transform="translate(-251.428 -421.082)"/>
            <path id="Trazado_913040" data-name="Trazado 913040" d="M769.584,553.723c5.407-9.588,11.282-18.982,17.272-28.219-5.5,9.514-11.4,18.932-17.272,28.219" transform="translate(-609.491 -416.186)"/>
            <path id="Trazado_913041" data-name="Trazado 913041" d="M663.614,585.587a36.244,36.244,0,0,1,6.777,2.749,155.541,155.541,0,0,1,16.916,9.763" transform="translate(-525.566 -463.77)" fill="none" stroke="#000" stroke-miterlimit="10" stroke-width="1"/>
            <path id="Trazado_913042" data-name="Trazado 913042" d="M668.647,575.482a36.239,36.239,0,0,1,6.777,2.749,155.534,155.534,0,0,1,16.916,9.763" transform="translate(-529.552 -455.767)" fill="none" stroke="#000" stroke-miterlimit="10" stroke-width="1"/>
            <path id="Trazado_913043" data-name="Trazado 913043" d="M514.324,720.39s-15.478,39.287-49.777,20.917c-26.28-14.076-35.105-19.92-35.105-19.92l17.232-35.5Z" transform="translate(-340.107 -543.206)" fill="#8ab2ee"/>
            <path id="Trazado_913044" data-name="Trazado 913044" d="M249.92,765.888C259.227,756,269.549,744.04,278.8,734.06c1.4-1.5,2.773-3.012,4.2-4.485-10.729,12.11-21.621,24.942-33.077,36.313" transform="translate(-197.93 -577.805)"/>
            <path id="Trazado_913045" data-name="Trazado 913045" d="M184.911,821.374q5.071-8.87,10.871-17.295-5.068,8.872-10.871,17.295" transform="translate(-146.445 -636.81)"/>
            <path id="Trazado_913046" data-name="Trazado 913046" d="M466.645,694.676c-3.622,11.817-9.132,22.54-16.268,36.394" transform="translate(-356.687 -550.166)" fill="none" stroke="#000" stroke-miterlimit="10" stroke-width="1.223"/>
            <path id="Trazado_913047" data-name="Trazado 913047" d="M482.287,702.086c-3.677,12.757-10.544,24.616-16.418,36.523" transform="translate(-368.957 -556.034)" fill="none" stroke="#000" stroke-miterlimit="10" stroke-width="1.223"/>
            <path id="Trazado_913048" data-name="Trazado 913048" d="M109.976,913.182a19.308,19.308,0,0,1,6.318,4.587" transform="translate(-87.098 -723.217)" fill="none" stroke="#000" stroke-linecap="round" stroke-miterlimit="10" stroke-width="2.446"/>
            <path id="Trazado_913049" data-name="Trazado 913049" d="M127.613,903.78a11.083,11.083,0,0,1,5.48,4.309" transform="translate(-101.066 -715.771)" fill="none" stroke="#000" stroke-linecap="round" stroke-miterlimit="10" stroke-width="2.446"/>
            <path id="Trazado_913050" data-name="Trazado 913050" d="M145.506,894.653a18.606,18.606,0,0,1,4.5,4.7.6.6,0,0,1,.143.411" transform="translate(-115.237 -708.543)" fill="none" stroke="#000" stroke-linecap="round" stroke-miterlimit="10" stroke-width="2.446"/>
            <path id="Trazado_913051" data-name="Trazado 913051" d="M462.7,482.773c11.78,2.266,25.336,4.627,37.026,7.19l-.241.108c5.208-8.723,15.614-26.686,20.892-35.222-5.1,8.849-15.37,26.623-20.5,35.451l-.079.137-.161-.029c-5.3-.893-13.176-2.573-18.493-3.694-4.543-1.008-14.051-2.821-18.444-3.942" transform="translate(-366.444 -360.23)"/>
            <path id="Trazado_913052" data-name="Trazado 913052" d="M697.94,425.64c-2.064,7.526-4.509,15.849-6.837,23.3,2.069-7.532,4.507-15.854,6.837-23.3" transform="translate(-547.336 -337.096)"/>
            <path id="Trazado_913053" data-name="Trazado 913053" d="M718.987,401.528s4.095.768,10.323-2.218a48.563,48.563,0,0,0,11.517-8.275" transform="translate(-569.42 -309.69)" fill="none" stroke="#000" stroke-miterlimit="10" stroke-width="1"/>
            <path id="Trazado_913054" data-name="Trazado 913054" d="M437.147,771.693c-2.053,4.433-6.251,13.3-8.341,17.717l-.063-.2c3.71,2.072,9.124,5.141,12.886,7.264,6.205,3.5,13.063,7.426,19.288,10.97.485.277,1.924,1.108,2.4,1.383a58,58,0,0,0,11.105,4.466,25.007,25.007,0,0,0,7.278,1.087,24.372,24.372,0,0,1-7.32-.934,60,60,0,0,1-10.4-3.9c-.923-.469-2.315-1.289-3.241-1.794-6.247-3.536-13.118-7.391-19.313-10.934-3.813-2.182-9.218-5.239-12.975-7.412,2.171-4.451,6.481-13.278,8.685-17.712" transform="translate(-339.331 -611.161)"/>
            <line id="Línea_695" data-name="Línea 695" x2="0.059" y2="32.452" transform="translate(79.15 167.335)" fill="none" stroke="#000" stroke-miterlimit="10" stroke-width="1.223"/>
            <line id="Línea_696" data-name="Línea 696" x2="0.323" y2="32.189" transform="translate(81.592 167.161)" fill="none" stroke="#000" stroke-miterlimit="10" stroke-width="1.223"/>
            <path id="Trazado_913055" data-name="Trazado 913055" d="M806.21,783.43l-31.319-1.436,12.519,17.1,15.42-7.176Z" transform="translate(-613.694 -619.32)"/>
            <path id="Trazado_913056" data-name="Trazado 913056" d="M865.158,729.208l-3.117,23.455,2.071.568,1.95.535,4.532-23.648a21.287,21.287,0,0,0-2.163-.507,20.243,20.243,0,0,0-3.273-.4" transform="translate(-682.715 -577.514)" fill="#4b96e3"/>
            <path id="Trazado_913057" data-name="Trazado 913057" d="M863.466,861.292l1.416-2.271a5.941,5.941,0,0,0-1.67-1.177Z" transform="translate(-683.642 -679.391)"/>
            <path id="Trazado_913058" data-name="Trazado 913058" d="M863.955,846.443l2.107-3.379-4.021-1.1.244,3.3a5.946,5.946,0,0,1,1.67,1.177" transform="translate(-682.715 -666.812)" fill="#ffe28d"/>
            <line id="Línea_697" data-name="Línea 697" y1="23.69" x2="4.155" transform="translate(182.38 152.298)" fill="none" stroke="#000" stroke-miterlimit="10" stroke-width="0.627"/>
            <line id="Línea_698" data-name="Línea 698" y1="23.488" x2="3.371" transform="translate(179.944 151.799)" fill="none" stroke="#000" stroke-miterlimit="10" stroke-width="0.627"/>
            <line id="Línea_699" data-name="Línea 699" y1="23.6" x2="3.86" transform="translate(181.109 151.989)" fill="none" stroke="#000" stroke-miterlimit="10" stroke-width="0.627"/>
            <path id="Trazado_913059" data-name="Trazado 913059" d="M887.456,751.011c.746-4.344,1.676-9.2,2.59-13.513-.746,4.344-1.677,9.2-2.59,13.513" transform="translate(-702.843 -584.08)" fill="#fff"/>
            <path id="Trazado_913060" data-name="Trazado 913060" d="M811.747,736.429l2.621,23.516,2.146.053,2.022.049L817.242,736a21.255,21.255,0,0,0-2.221.028,20.247,20.247,0,0,0-3.274.4" transform="translate(-642.883 -582.881)" fill="#8ab2ee"/>
            <path id="Trazado_913061" data-name="Trazado 913061" d="M830.385,869.584l.828-2.545a5.945,5.945,0,0,0-1.9-.741Z" transform="translate(-656.791 -686.086)"/>
            <path id="Trazado_913062" data-name="Trazado 913062" d="M827.284,855.053l1.232-3.787-4.168-.1,1.032,3.148a5.942,5.942,0,0,1,1.9.74" transform="translate(-652.862 -674.101)" fill="#ffe28d"/>
            <line id="Línea_700" data-name="Línea 700" x1="1.671" y1="23.994" transform="translate(172.98 153.149)" fill="none" stroke="#000" stroke-miterlimit="10" stroke-width="0.627"/>
            <line id="Línea_701" data-name="Línea 701" x1="2.382" y1="23.609" transform="translate(169.735 153.44)" fill="none" stroke="#000" stroke-miterlimit="10" stroke-width="0.627"/>
            <line id="Línea_702" data-name="Línea 702" x1="1.935" y1="23.835" transform="translate(171.386 153.226)" fill="none" stroke="#000" stroke-miterlimit="10" stroke-width="0.627"/>
            <path id="Trazado_913063" data-name="Trazado 913063" d="M836.688,754.4c-.322-4.4-.588-9.334-.74-13.739.322,4.4.588,9.334.74,13.739" transform="translate(-662.051 -586.583)" fill="#fff"/>
            <path id="Trazado_913064" data-name="Trazado 913064" d="M844.9,776.931l.333-23.659-2.123-.32-2-.3L839.4,776.668a21.242,21.242,0,0,0,2.208.249,20.253,20.253,0,0,0,3.3.014" transform="translate(-664.783 -596.081)" fill="#6b8be8"/>
            <path id="Trazado_913065" data-name="Trazado 913065" d="M856.931,723.684l-1.139,2.422a5.94,5.94,0,0,0,1.8.972Z" transform="translate(-677.766 -573.14)"/>
            <path id="Trazado_913066" data-name="Trazado 913066" d="M849.341,735.327l-1.695,3.6,4.123.621-.631-3.252a5.944,5.944,0,0,1-1.8-.972" transform="translate(-671.314 -582.361)" fill="#ffe28d"/>
            <line id="Línea_703" data-name="Línea 703" x1="1.336" y2="24.014" transform="translate(175.987 156.717)" fill="none" stroke="#000" stroke-miterlimit="10" stroke-width="0.627"/>
            <line id="Línea_704" data-name="Línea 704" x1="0.582" y2="23.722" transform="translate(179.243 157.126)" fill="none" stroke="#000" stroke-miterlimit="10" stroke-width="0.627"/>
            <line id="Línea_705" data-name="Línea 705" x1="1.054" y2="23.89" transform="translate(177.579 156.964)" fill="none" stroke="#000" stroke-miterlimit="10" stroke-width="0.627"/>
            <path id="Trazado_913067" data-name="Trazado 913067" d="M843.148,797.859c-.229,4.4-.581,9.334-.98,13.724.229-4.4.582-9.334.98-13.724" transform="translate(-666.976 -631.884)" fill="#fff"/>
            <path id="Trazado_913068" data-name="Trazado 913068" d="M793.634,780.561l-2.926-23.48-2.147-.025-2.022-.023,1.606,24.025a21.272,21.272,0,0,0,2.221-.057,20.246,20.246,0,0,0,3.269-.44" transform="translate(-622.919 -599.551)" fill="#ffbe01"/>
            <path id="Trazado_913069" data-name="Trazado 913069" d="M793.018,726.468l-.795,2.556a5.944,5.944,0,0,0,1.914.716Z" transform="translate(-627.421 -575.344)"/>
            <path id="Trazado_913070" data-name="Trazado 913070" d="M787.721,738.754l-1.182,3.8,4.169.048-1.073-3.135a5.945,5.945,0,0,1-1.914-.716" transform="translate(-622.919 -585.075)" fill="#ffe28d"/>
            <line id="Línea_706" data-name="Línea 706" x2="1.981" y2="23.97" transform="translate(164.622 157.491)" fill="none" stroke="#000" stroke-miterlimit="10" stroke-width="0.627"/>
            <line id="Línea_707" data-name="Línea 707" x2="2.688" y2="23.576" transform="translate(167.156 157.552)" fill="none" stroke="#000" stroke-miterlimit="10" stroke-width="0.627"/>
            <line id="Línea_708" data-name="Línea 708" x2="2.244" y2="23.808" transform="translate(165.953 157.555)" fill="none" stroke="#000" stroke-miterlimit="10" stroke-width="0.627"/>
            <path id="Trazado_913071" data-name="Trazado 913071" d="M792,801.917c.379,4.391.709,9.326.917,13.728-.379-4.391-.708-9.326-.917-13.728" transform="translate(-627.245 -635.098)" fill="#fff"/>
            <path id="Trazado_913072" data-name="Trazado 913072" d="M873.206,778.772l7.243-22.526-1.937-.927-1.824-.873-8.67,22.464a21.294,21.294,0,0,0,2.038.884,20.247,20.247,0,0,0,3.149.978" transform="translate(-687.449 -597.502)" fill="#8ab2ee"/>
            <path id="Trazado_913073" data-name="Trazado 913073" d="M924.352,730.734l-1.8,1.983a5.941,5.941,0,0,0,1.434,1.456Z" transform="translate(-730.64 -578.723)"/>
            <path id="Trazado_913074" data-name="Trazado 913074" d="M912.37,740.265l-2.675,2.95,3.761,1.8.348-3.295a5.943,5.943,0,0,1-1.434-1.456" transform="translate(-720.456 -586.271)" fill="#ffe28d"/>
            <line id="Línea_709" data-name="Línea 709" x1="8.306" y2="22.572" transform="translate(181.839 157.375)" fill="none" stroke="#000" stroke-miterlimit="10" stroke-width="0.627"/>
            <line id="Línea_710" data-name="Línea 710" x1="7.499" y2="22.513" transform="translate(184.918 158.498)" fill="none" stroke="#000" stroke-miterlimit="10" stroke-width="0.627"/>
            <line id="Línea_711" data-name="Línea 711" x1="8" y2="22.536" transform="translate(183.325 157.994)" fill="none" stroke="#000" stroke-miterlimit="10" stroke-width="0.627"/>
            <path id="Trazado_913075" data-name="Trazado 913075" d="M876.871,797.451c-1.508,4.142-3.287,8.756-4.954,12.836,1.507-4.142,3.288-8.756,4.954-12.836" transform="translate(-690.536 -631.561)" fill="#fff"/>
            <path id="Trazado_913076" data-name="Trazado 913076" d="M806.21,783.43s-4.6,5.587-15.746,4.823-15.573-6.259-15.573-6.259l3.97,39.694h22.748Z" transform="translate(-613.694 -619.32)" fill="#fff"/>
            <path id="Trazado_913077" data-name="Trazado 913077" d="M777.375,804.4c2.854,2.989,6.966,4.471,11.045,5.137,6.547,1.069,13.566.183,19.174-3.36" transform="translate(-615.661 -637.068)" fill="none" stroke="#000" stroke-miterlimit="10" stroke-width="0.627"/>
            <path id="Trazado_913078" data-name="Trazado 913078" d="M777.375,812.288c2.854,2.989,6.966,4.471,11.045,5.137,6.547,1.069,13.566.183,19.174-3.36" transform="translate(-615.661 -643.312)" fill="none" stroke="#000" stroke-miterlimit="10" stroke-width="0.627"/>
          </g>
        </g>
      </g>
    </g>
  </g>
</svg>
