<svg xmlns="http://www.w3.org/2000/svg" xmlns:xlink="http://www.w3.org/1999/xlink" width="299.22" height="249.292" viewBox="0 0 299.22 249.292">
  <defs>
    <clipPath id="clip-path">
      <rect id="Rectángulo_403560" data-name="Rectángulo 403560" width="286.866" height="230.112" fill="none"/>
    </clipPath>
  </defs>
  <g id="Grupo_1103709" data-name="Grupo 1103709" transform="translate(-1051.21 -5136.436)">
    <rect id="Rectángulo_35929" data-name="Rectángulo 35929" width="298.949" height="249.293" transform="translate(1051.481 5136.436)" fill="#8ab2ee"/>
    <rect id="Rectángulo_402739" data-name="Rectángulo 402739" width="298.949" height="81.071" transform="translate(1051.21 5136.436)" fill="#fef6ed"/>
    <g id="Rectángulo_402741" data-name="Rectángulo 402741" transform="translate(1076.544 5158.73)" fill="none" stroke="#fef6ed" stroke-width="3">
      <rect width="248.279" height="204.704" stroke="none"/>
      <rect x="1.5" y="1.5" width="245.279" height="201.704" fill="none"/>
    </g>
    <g id="Grupo_1102408" data-name="Grupo 1102408" transform="translate(1063.564 5155.615)">
      <g id="Grupo_1102407" data-name="Grupo 1102407" transform="translate(0 0.001)" clip-path="url(#clip-path)">
        <path id="Trazado_912872" data-name="Trazado 912872" d="M1236.662,47.864A27.758,27.758,0,1,1,1202.685,28.2a27.762,27.762,0,0,1,33.976,19.662" transform="translate(-963.174 -22.208)" fill="#6b8be8"/>
        <path id="Trazado_912873" data-name="Trazado 912873" d="M1290.138,85.775a5.846,5.846,0,1,1-7.155-4.141,5.845,5.845,0,0,1,7.155,4.141" transform="translate(-1041.857 -66.355)" fill="#fafcfe"/>
        <path id="Trazado_912874" data-name="Trazado 912874" d="M1398.734,162.774a19.287,19.287,0,0,1-6.164,14.644" transform="translate(-1134.687 -132.631)" fill="none" stroke="#fafcfe" stroke-linecap="round" stroke-linejoin="round" stroke-width="4.191"/>
        <path id="Trazado_912875" data-name="Trazado 912875" d="M1407.267,104.225a21.4,21.4,0,0,1,2.251,4.73" transform="translate(-1146.662 -84.924)" fill="none" stroke="#fafcfe" stroke-linecap="round" stroke-linejoin="round" stroke-width="4.191"/>
        <path id="Trazado_912876" data-name="Trazado 912876" d="M1082.509,273.419a13.429,13.429,0,0,1-1.574-1.145,2.763,2.763,0,0,0-.606.562L1050.1,312a2.8,2.8,0,0,0,4.428,3.419l30.229-39.159a2.779,2.779,0,0,0,.574-1.539,14.884,14.884,0,0,1-2.823-1.3" transform="translate(-855.164 -221.853)" fill="#fa6d61"/>
        <path id="Trazado_912877" data-name="Trazado 912877" d="M1063.042,396.221,1050.1,412.989a2.8,2.8,0,0,0,4.428,3.418l13.106-16.977c-1.511-1.089-3.045-2.154-4.589-3.21" transform="translate(-855.163 -322.847)"/>
        <path id="Trazado_912878" data-name="Trazado 912878" d="M1208.013,21.532A27.758,27.758,0,1,1,1174.036,1.87,27.763,27.763,0,0,1,1208.013,21.532Z" transform="translate(-939.83 -0.753)" fill="none" stroke="#4b96e3" stroke-linecap="round" stroke-linejoin="round" stroke-width="1.846"/>
        <path id="Trazado_912879" data-name="Trazado 912879" d="M373.345,913.37H292.071l6.894-59.323,74.38-14.747Z" transform="translate(-237.984 -683.874)" fill="#ffbe01"/>
        <path id="Trazado_912880" data-name="Trazado 912880" d="M455.513,167.858a68.275,68.275,0,0,1,1.118,10.566c.146,5.3-.525,11.092-4.16,14.895a17.358,17.358,0,0,0,9.386,6.711,16.49,16.49,0,0,0,11.216-1.1c.945-.456,1.845-1,2.743-1.546l3.306-2c-4.777-8.377-8.86-17.644-7.58-27.241-2.384-.452-5.76-1.475-8.145-1.927a13.671,13.671,0,0,0-3.13-.347c-1.668.072-3.108,2.284-4.754,2" transform="translate(-368.68 -135.141)" fill="#8ab2ee"/>
        <path id="Trazado_912881" data-name="Trazado 912881" d="M325.724,386.078c-.26,5.036-.617,10.065-1.044,15.088-.288,3.37-.586,6.728-1.044,10.069-1,5.364-2.237,10.686-3.416,16.009-.521,2.027-1.05,4.05-1.56,6.079-.638,2.543-1.172,5.134-1.8,7.7a8.679,8.679,0,0,1-1.12,1.549,7.66,7.66,0,0,1-.708.694,10.243,10.243,0,0,1-3.259,1.567q-1.97.721-4,1.254a62.115,62.115,0,0,1-10.919,1.611c-3.875.311-7.761.462-11.647.5q-2.978.026-5.958-.028c-5.685-.1-11.363-.4-16.988-.753-1.146-.071-15.948-1.738-20.963-2.335-.563-.067-1-.123-1.289-.159a.13.13,0,0,1-.028,0l-.1-.013a1.749,1.749,0,0,1-.239-.036c-.367-5.3-1.126-11.389-2.117-17.889-.775-5.089-1.693-10.43-2.676-15.847q-.384-2.127-.783-4.262c0-.019-.007-.038-.011-.058-1.846-9.952-3.843-20-5.51-29.077-.593-3.211-1.142-6.3-1.63-9.214-.082-.483-.161-.964-.239-1.437-.011-.073-.024-.146-.036-.218-1.733-10.449-5.661-23.75-3.493-34.279,1.538-7.469,9.005-11.841,15.633-14.862l.186-.084c.738-.337,1.466-.653,2.172-.958a46.744,46.744,0,0,1,14.341-3.316q1.487-.129,2.981-.2l.2-.009c2.217-.106,4.434-.125,6.623-.092q1.2.018,2.376.054c6.781.2,13.531.886,20.288,1.438,8.224.671,17.283.738,24.845,4.452,12.28,6.031,12.205,24.757,12.955,36.409a264.659,264.659,0,0,1-.013,30.668" transform="translate(-181.299 -255.072)"/>
        <path id="Trazado_912882" data-name="Trazado 912882" d="M473.978,268.246a77.678,77.678,0,0,0,5.145,10.561l-3.306,2c-.9.545-1.8,1.09-2.743,1.546a16.491,16.491,0,0,1-11.217,1.1,17.353,17.353,0,0,1-9.385-6.711,15.542,15.542,0,0,0,3.813-8.5Z" transform="translate(-368.681 -218.571)" fill="#e7ecfb"/>
        <path id="Trazado_912883" data-name="Trazado 912883" d="M465.738,98.746c3.462-.031,6.067,3.025,6.305,6.244s-1.372,6.449-3.387,9.229c-2.128-3.5-3.784-6.64-5.913-10.144-.8-1.316-1.55-3.106-.4-4.322.645-.683,2.46-1,3.4-1.007" transform="translate(-376.243 -80.46)" fill="#4f98e4"/>
        <path id="Trazado_912884" data-name="Trazado 912884" d="M475.179,63.412c.042.185.079.371.115.556.021.119.044.244.059.364.014.061.022.124.03.187,0,.04.011.074.015.114.016.12.024.236.04.356l.006.1c.016.173.025.341.034.51.007.187.008.369.007.546,0,.065,0,.13,0,.2a.789.789,0,0,1,0,.113c-.006.154-.012.309-.024.465-.027.371-.074.735-.137,1.1-.016.086-.036.179-.051.265a11.67,11.67,0,0,1-.706,2.275c-.071.158-.142.309-.212.467-.04.08-.081.159-.126.247-.07.134-.139.267-.216.4q-.277.487-.6.948c-.1.14-.2.282-.305.418a11.041,11.041,0,0,1-.788.91c-.21.218-.433.428-.663.634a10.255,10.255,0,0,1-1.285.976c-.1.064-.194.127-.3.186-.072.046-.145.086-.217.132-.037.02-.079.042-.12.068a.852.852,0,0,1-.111.055q-.18.1-.363.189a10.614,10.614,0,0,1-2.3.831c-.179.041-.359.082-.539.117a10.968,10.968,0,0,1-5.824-.515,11.427,11.427,0,0,1-7.1-8.063l-.619-2.609-1.819-7.672v-.005l-.571-2.4-.785-3.314c-.041-.179-.083-.364-.113-.545-.021-.09-.035-.181-.05-.271-.009-.069-.02-.143-.03-.211s-.022-.148-.032-.217a.145.145,0,0,0-.006-.051c0-.046-.009-.092-.012-.133-.007-.057-.013-.109-.019-.161,0-.035,0-.064,0-.1a1.574,1.574,0,0,1-.018-.231,1.069,1.069,0,0,1-.009-.2c0-.041-.007-.081-.009-.116-.005-.152-.006-.311-.005-.464,0-.081,0-.171,0-.253s0-.16.011-.238.011-.156.011-.238c.005,0,.005,0,0-.007.006-.078.012-.156.017-.234s.018-.157.023-.235.019-.151.03-.231a11.571,11.571,0,0,1,.3-1.494c.054-.2.114-.4.181-.6.024-.077.048-.152.078-.23.071-.2.154-.406.232-.607a.555.555,0,0,0,.04-.085,4.628,4.628,0,0,1,.2-.447c.045-.087.089-.179.134-.266,0-.006.007-.019.012-.026a11,11,0,0,1,17.971-2.394A10.767,10.767,0,0,1,469.7,43.6a11.375,11.375,0,0,1,1.681,3.811Z" transform="translate(-366.167 -31.495)" fill="#8ab2ee"/>
        <path id="Trazado_912885" data-name="Trazado 912885" d="M430.532,149.435a4.292,4.292,0,1,0,3.166-5.243,4.329,4.329,0,0,0-3.166,5.243" transform="translate(-350.705 -117.396)" fill="#8ab2ee"/>
        <path id="Trazado_912886" data-name="Trazado 912886" d="M475.294,90.443c.021.119.044.243.059.363.014.062.023.125.031.187,0,.041.011.075.014.115.015.12.024.236.04.356l.006.1c.016.173.025.341.034.51.007.186.007.369.007.546,0,.064,0,.13,0,.2a.72.72,0,0,1,0,.113c-.006.154-.012.309-.024.465a11.087,11.087,0,0,1-.137,1.1c-.016.086-.036.179-.051.264a11.663,11.663,0,0,1-.706,2.276c-.07.158-.142.309-.212.466-.041.08-.081.16-.127.247-.069.133-.139.267-.216.4q-.278.487-.6.949c-.1.14-.2.281-.305.417a10.716,10.716,0,0,1-.788.91c-.209.219-.432.429-.662.634a10.361,10.361,0,0,1-1.285.976c-.1.063-.2.127-.3.186-.072.046-.145.086-.218.132-.036.021-.078.042-.119.069a.873.873,0,0,1-.111.055c-.12.069-.241.132-.363.189a10.626,10.626,0,0,1-2.3.831c-.179.041-.358.082-.539.117a10.968,10.968,0,0,1-5.824-.516,11.429,11.429,0,0,1-7.1-8.063l-.619-2.61-1.819-7.671V84.75l-.571-2.4-.785-3.313c-.041-.179-.083-.364-.112-.545-.02-.09-.036-.181-.05-.272-.01-.069-.021-.142-.03-.211s-.022-.148-.032-.216a.164.164,0,0,0-.005-.051c-.005-.046-.009-.092-.013-.133-.007-.057-.013-.109-.019-.16,0-.035,0-.064-.005-.1a1.672,1.672,0,0,1-.017-.231,1.06,1.06,0,0,1-.01-.2c0-.04-.007-.081-.009-.115-.005-.152-.006-.311-.006-.464,0-.082,0-.171,0-.253s0-.16.011-.238.011-.156.011-.238c.005,0,.005,0,0-.007l.018-.234c.006-.078.017-.157.023-.235s.019-.152.03-.231a11.7,11.7,0,0,1,.3-1.494c.055-.2.115-.4.181-.6.024-.076.047-.152.077-.229.071-.2.155-.406.233-.607a.735.735,0,0,0,.039-.086,4.616,4.616,0,0,1,.2-.447c.045-.086.088-.179.133-.266,0-.007.008-.02.012-.026l.487,2.057.5,2.072.5,2.129,1.306,5.5.147.621a1.338,1.338,0,0,0,.17.409c.1.006.2.014.3.026a7.634,7.634,0,0,1,4.187,1.861,10.747,10.747,0,0,1,2.244,2.792c.14.227.265.464.384.7.1.19.193.38.278.572a1.252,1.252,0,0,0,.367-.408c.033-.06.072-.122.106-.177,1.4-2.174,4.4-2.9,6.809-2.865,2.659.036,5.556.989,6.624,3.685a.824.824,0,0,0,.221.326" transform="translate(-366.167 -57.97)"/>
        <path id="Trazado_912887" data-name="Trazado 912887" d="M537.125,135.887l2.812-.076-1.575-3.352" transform="translate(-437.658 -107.929)" fill="none" stroke="#599ee5" stroke-linecap="round" stroke-linejoin="round" stroke-width="0.778"/>
        <path id="Trazado_912888" data-name="Trazado 912888" d="M529.093,165.616a2.9,2.9,0,0,0,2.183-3.471l-5.654,1.289a2.9,2.9,0,0,0,3.471,2.183" transform="translate(-428.285 -132.118)" fill="#fafcfe"/>
        <path id="Trazado_912889" data-name="Trazado 912889" d="M472.548,42.275l.139.61a7.394,7.394,0,0,1-4.5,5.96,12.812,12.812,0,0,1-7.7.565,10.175,10.175,0,0,1-5.429-2.685,5.557,5.557,0,0,1-.876-1.231.554.554,0,0,0,.04-.086,4.7,4.7,0,0,1,.2-.447c.045-.087.089-.179.134-.266,0-.007.007-.019.012-.026a11,11,0,0,1,17.97-2.394" transform="translate(-370.079 -31.494)" fill="#4b96e3"/>
        <path id="Trazado_912890" data-name="Trazado 912890" d="M1188.8,791.839c1.953-3.994,7.187-4.14,10.888-5.445.731-.258,3.137-2.02,3.878-1.343,1.034.946-.594,2.612-1.159,3.293a6.626,6.626,0,0,1-3.583,1.9c-.164.026-1.666.346-1.836.407a2.47,2.47,0,0,0-1.169.787,2.942,2.942,0,0,0-.449,1.517c5.2,1.143,9.491-3.809,11.668-7.828,1.459-2.692,3.735-6.118,7.337-5.56,4.113.637,3.967,5.47,3.366,8.663a24.986,24.986,0,0,1-4.119,9.284c-1.987,2.969-4.528,6.586-7.963,7.952-3.323,1.322-7.865,2.505-11.45,2.134a36.525,36.525,0,0,1-4.841-.818c-1.177-.283-2.041-.286-3.909-.638a23.177,23.177,0,0,0,3.519-11.266Z" transform="translate(-965.928 -635.156)" fill="#8ab2ee"/>
        <path id="Trazado_912891" data-name="Trazado 912891" d="M731.116,423.663c-16.687-3.1-50.909-15.828-50.909-15.828l-7.245-26.082c-2.625-10.776-1.642-20.8-5.8-31.154-2.738-6.823-21.581-19.662-31.154-16.664-7.478,2.342-2.438,18.387-.1,25.865l21.129,67.456.44,1.414a10.369,10.369,0,0,0,9.989,7.251l64.449-.627c.818-3.99.228-7.77-.808-11.631" transform="translate(-515.022 -271.732)"/>
        <path id="Trazado_912892" data-name="Trazado 912892" d="M884.763,800.3l-30.406-5.653c-13.593-2.174-40.651,10.887-40.813,16.456l69.443,8.251a27.833,27.833,0,0,0,1.776-19.054" transform="translate(-662.888 -647.294)"/>
        <path id="Trazado_912893" data-name="Trazado 912893" d="M1154.307,840.068c3.431-5.795,4.939-12.91,2.29-18.89l-8.063-1.5q.034.387.056.775c.355,6.27-1.163,12.578-3.312,18.541Z" transform="translate(-933.19 -667.887)" fill="#e7ecfb"/>
        <path id="Trazado_912894" data-name="Trazado 912894" d="M828.242,770.445c-5.1,1.1-11.978,4.063-13.46,9.766" transform="translate(-663.897 -627.771)" fill="none" stroke="#f2f8fd" stroke-linecap="round" stroke-linejoin="round" stroke-width="1.05"/>
        <path id="Trazado_912895" data-name="Trazado 912895" d="M260.37,901.249H208.917c-3.873-.322-6.919,3.666-6.242,7.34.629,3.413,3.842,5.519,6.762,6.787l-23.908,48.9H293.113l-7.276-63.029s-24.688.815-25.467,0" transform="translate(-151.172 -734.336)"/>
        <path id="Trazado_912896" data-name="Trazado 912896" d="M452.471,314.163l30.679,60.9s13.766-35.864-4.028-58.842Z" transform="translate(-368.68 -255.985)" fill="#e7ecfb"/>
        <line id="Línea_679" data-name="Línea 679" x1="0.722" y2="56.769" transform="translate(112.057 139.484)" fill="none" stroke="#f2f8fd" stroke-linecap="round" stroke-linejoin="round" stroke-width="1.05"/>
        <path id="Trazado_912897" data-name="Trazado 912897" d="M1221.177,496.186a37.223,37.223,0,1,1-.01-.891q.011.445.01.891" transform="translate(-934.409 -373.986)" fill="#fa6d61"/>
        <path id="Trazado_912898" data-name="Trazado 912898" d="M1069.17,328.005a2.826,2.826,0,0,0-.887-1.77l1.624-.46a2.906,2.906,0,0,0-.868-5.724,2.94,2.94,0,0,0,1.475-3.371,2.992,2.992,0,0,0-3.709-1.985l-.208.059-.059-.077a2.926,2.926,0,0,0,1.235-3.227,2.991,2.991,0,0,0-3.708-1.985l-5.607,1.585c-2.567-2.627-2.6-3.288-7.032-1.124-8.934,4.36-5.754,7.629-18.75,14.517a46.014,46.014,0,0,0,6.169,10.013c3.112-.3,7.776-.758,11.945-1.243a17.525,17.525,0,0,0,8.2-1.112l7.489-.853a3.006,3.006,0,0,0,2.69-3.245" transform="translate(-841.438 -251.478)" fill="#8ab2ee"/>
        <path id="Trazado_912899" data-name="Trazado 912899" d="M943.566,373.591l26.086-8.583-5.871-17.957-19.536,4.44-3.379,12.172c1,3.283,1.892,6.6,2.7,9.928" transform="translate(-766.631 -282.783)" fill="#e7ecfb"/>
        <path id="Trazado_912900" data-name="Trazado 912900" d="M342.876,359.183l-60.5,13.19L212.6,359.45c-.32-.058-.687-.115-1.014-.154a15.872,15.872,0,0,0-3.753,31.522l78.52,9.349,1.644.2c5.333.922,11.305-2,14.589-3.608L352.732,379.9Z" transform="translate(-157.937 -292.667)"/>
        <path id="Trazado_912901" data-name="Trazado 912901" d="M289.684,359.3l70.79,13.077,60.5-13.19" transform="translate(-236.039 -292.669)" fill="none" stroke="#f2f8fd" stroke-linecap="round" stroke-linejoin="round" stroke-width="1.05"/>
        <path id="Trazado_912902" data-name="Trazado 912902" d="M204.844,493.437s4.592,6.875,14.966,7.547" transform="translate(-166.91 -402.06)" fill="none" stroke="#f2f8fd" stroke-linecap="round" stroke-linejoin="round" stroke-width="1.05"/>
        <path id="Trazado_912903" data-name="Trazado 912903" d="M667.052,448.4c-1.011,3.131.887,8.118,2.519,10.915" transform="translate(-543.294 -365.363)" fill="none" stroke="#f2f8fd" stroke-linecap="round" stroke-linejoin="round" stroke-width="1.05"/>
        <path id="Trazado_912904" data-name="Trazado 912904" d="M338.767,483.44l64.111,7.686c6.58.9,17.8-3.2,17.8-3.2l50.151-16.855" transform="translate(-276.033 -383.84)" fill="none" stroke="#f2f8fd" stroke-linecap="round" stroke-linejoin="round" stroke-width="1.05"/>
        <path id="Trazado_912905" data-name="Trazado 912905" d="M526.363,296.7c-.8,1.035,3.022,3.884,4.347,4.105-1.265,1.613-2.127,4.589-2.541,6.57a21.563,21.563,0,0,0-.478,4.3l16.181,2.9s-.966-7.729-9.177-13.766a6.317,6.317,0,0,0,1.449-3.5s-5.555-1.691-6.641-6.4a29.117,29.117,0,0,1-3.139,5.8" transform="translate(-428.799 -237.036)" fill="#fa6d61"/>
        <path id="Trazado_912906" data-name="Trazado 912906" d="M581.62,568.033l6.762,13.886,3.623-12.437Z" transform="translate(-473.913 -462.842)" fill="#fa6d61"/>
        <line id="Línea_680" data-name="Línea 680" x2="28.256" transform="translate(66.652 159.288)" fill="none" stroke="#f2f8fd" stroke-linecap="round" stroke-linejoin="round" stroke-width="1.05"/>
        <line id="Línea_681" data-name="Línea 681" x2="19.646" transform="translate(121.714 158.563)" fill="none" stroke="#f2f8fd" stroke-linecap="round" stroke-linejoin="round" stroke-width="1.05"/>
        <path id="Trazado_912907" data-name="Trazado 912907" d="M246.462,1100.5c13.766,2.9,55.156,4.723,65.93-14.731,0,0,3.14,14.007,27.773,15.456" transform="translate(-200.821 -884.701)" fill="none" stroke="#f2f8fd" stroke-linecap="round" stroke-linejoin="round" stroke-width="1.05"/>
        <path id="Trazado_912908" data-name="Trazado 912908" d="M451,93.575c3.167-2.336,2.225-12.8-2.415-13.283-2.175,1.841-2.752,3.381-2.662,6.215.116,3.608,3.23,4.348,5.077,7.067" transform="translate(-363.337 -65.423)" fill="#4b96e3"/>
        <path id="Trazado_912909" data-name="Trazado 912909" d="M439.806,33.447c-.811-3.067-3.584-3.715-5.151-6.039-2.19-3.246-.177-3.9.514-6.7.888-3.6-5.876-11.1,2.221-11.173,2.622-.023,3.932,1.809,6.226.005,1.382-1.087,2.839-4.268,5.149-3.9,2.014.321,2.839,3.685,4.819,4.333,1.893.62,3.918-.274,5.754.8,3.649,2.135,2.334,8.653-.936,10.84.1-2.318-2.042-4.448-3.864-5.8,2.035,9.049-10.615,5.319-14.731,4.83,2.268,4.714,1.833,8.164,0,12.8" transform="translate(-353.11 -4.571)"/>
        <path id="Trazado_912910" data-name="Trazado 912910" d="M1494.268,579.31h-7.311a5.029,5.029,0,0,1-5.013-5.013v-.957a5.021,5.021,0,0,1,2.6-4.387,4.814,4.814,0,0,1-.087-.895v-.952a5.03,5.03,0,0,1,5.017-5.014h.1a36.968,36.968,0,0,1,4.688,17.218" transform="translate(-1207.51 -458.001)"/>
        <path id="Trazado_912911" data-name="Trazado 912911" d="M1216.616,564.186a7.189,7.189,0,0,1-7.165,7.169h-7.4a5.017,5.017,0,0,1,2.246,4.173v.953a5.033,5.033,0,0,1-5.017,5.017h-17.8a5.032,5.032,0,0,1-5.013-5.017v-.953a5.026,5.026,0,0,1,2.453-4.3,7.188,7.188,0,0,1-5.851-7.038c0-3.539,3.47-4.7,3.807-7.618.888-7.677-12.164-5.5-16.2-5.5a7.19,7.19,0,0,1-7.169-7.169,7.01,7.01,0,0,1,.3-2.014,9.47,9.47,0,0,1-2.119-1.162,37.061,37.061,0,0,1,8.948-17.029h34.975a9.418,9.418,0,0,1,1.3,18.746,7.151,7.151,0,0,1-3.869,7.9c-2.395,1.174-5.7-.645-7.18,2.246-.909,1.779-.109,4.438,2.148,4.438h21.449a7.186,7.186,0,0,1,7.165,7.166" transform="translate(-938.408 -426.714)"/>
        <path id="Trazado_912912" data-name="Trazado 912912" d="M778.592,583.71a140.684,140.684,0,0,1-4.337,38" transform="translate(-630.875 -475.616)" fill="none" stroke="#f2f8fd" stroke-linecap="round" stroke-linejoin="round" stroke-width="1.05"/>
        <path id="Trazado_912913" data-name="Trazado 912913" d="M1225.354,872.533s5.046-3.989,10.091-1.76c0,0,2.347-3.989,6.219-4.576" transform="translate(-998.437 -705.791)" fill="none" stroke="#4b96e3" stroke-linecap="round" stroke-linejoin="round" stroke-width="1.068"/>
        <path id="Trazado_912914" data-name="Trazado 912914" d="M461.642,288.419c2.657,2.777,4.468,4.709,8.935,4.468,3.366-.182,5.917-3.864,6.279-7.849.845,5.193,4.83,7.97,9.419,7.125" transform="translate(-376.153 -232.254)" fill="none" stroke="#4b96e3" stroke-linecap="round" stroke-linejoin="round" stroke-width="1.648"/>
        <path id="Trazado_912915" data-name="Trazado 912915" d="M510.2,125.64c.042.232-.175.489-.568.722a4.22,4.22,0,0,1-.869.382,7.081,7.081,0,0,1-.866.216c-.21.038-.417.068-.616.085-.143.012-.284.021-.417.023-.874.018-1.52-.177-1.584-.53-.059-.326.4-.706,1.128-.992.125-.051.259-.1.4-.137a6.627,6.627,0,0,1,.773-.189,6.276,6.276,0,0,1,1.1-.112,4.01,4.01,0,0,1,.88.084c.364.09.6.241.638.446" transform="translate(-411.702 -101.941)" fill="#fff"/>
        <path id="Trazado_912916" data-name="Trazado 912916" d="M515.877,125.577a1.277,1.277,0,0,1-.082.784,4.241,4.241,0,0,1-.869.382,7.091,7.091,0,0,1-.866.216c-.21.038-.417.068-.617.085a1.286,1.286,0,0,1-.577-.811,1.265,1.265,0,0,1,.1-.824,6.623,6.623,0,0,1,.773-.189,6.3,6.3,0,0,1,1.1-.112,3.987,3.987,0,0,1,.879.084,1.348,1.348,0,0,1,.154.384" transform="translate(-417.867 -101.94)" fill="#4b96e3"/>
        <path id="Trazado_912917" data-name="Trazado 912917" d="M508.263,112.565l-1.931,1.22a.586.586,0,1,1-.626-.992l1.931-1.22a.586.586,0,1,1,.626.992" transform="translate(-411.833 -90.838)" fill="#4b96e3"/>
        <path id="Trazado_912918" data-name="Trazado 912918" d="M547.131,118.7c.034.189-.1.395-.369.591a3.927,3.927,0,0,1-1.069.51,6.6,6.6,0,0,1-1.647.314c-.085.007-.168.011-.249.012-.877.019-1.522-.176-1.587-.529-.06-.329.4-.706,1.131-.992.112-.043.227-.086.351-.123a6.346,6.346,0,0,1,.82-.206,6.571,6.571,0,0,1,1.1-.109,3.28,3.28,0,0,1,1.021.126c.284.09.465.227.5.4" transform="translate(-441.797 -96.283)" fill="#fff"/>
        <path id="Trazado_912919" data-name="Trazado 912919" d="M552.714,118.664a1.319,1.319,0,0,1-.014.624,3.9,3.9,0,0,1-1.068.51,6.662,6.662,0,0,1-1.648.315,1.344,1.344,0,0,1-.354-1.632,6.391,6.391,0,0,1,.82-.206,6.514,6.514,0,0,1,1.1-.109,3.306,3.306,0,0,1,1.021.125,1.24,1.24,0,0,1,.143.373" transform="translate(-447.734 -96.284)" fill="#4b96e3"/>
        <path id="Trazado_912920" data-name="Trazado 912920" d="M548.479,104.894l-2.167-.725a.587.587,0,0,1,.373-1.112l2.166.725a.586.586,0,1,1-.372,1.112" transform="translate(-444.817 -83.948)" fill="#4b96e3"/>
        <line id="Línea_682" data-name="Línea 682" y1="3.502" x2="11.968" transform="translate(189.632 77.881)" fill="none" stroke="#4b96e3" stroke-linecap="round" stroke-linejoin="round" stroke-width="1.068"/>
        <path id="Trazado_912921" data-name="Trazado 912921" d="M1046.16,393.247a1.567,1.567,0,1,1-1.567-1.567A1.567,1.567,0,0,1,1046.16,393.247Z" transform="translate(-849.873 -319.147)" fill="none" stroke="#4b96e3" stroke-linecap="round" stroke-linejoin="round" stroke-width="1.068"/>
        <path id="Trazado_912922" data-name="Trazado 912922" d="M1173.687,884.642a1.338,1.338,0,1,1-1.337-1.337A1.337,1.337,0,0,1,1173.687,884.642Z" transform="translate(-954.158 -719.73)" fill="none" stroke="#4b96e3" stroke-linecap="round" stroke-linejoin="round" stroke-width="1.068"/>
        <path id="Trazado_912923" data-name="Trazado 912923" d="M1139.17,856.02s12.315-.975,13.8,5.627" transform="translate(-928.213 -697.457)" fill="none" stroke="#4b96e3" stroke-linecap="round" stroke-linejoin="round" stroke-width="1.068"/>
        <line id="Línea_683" data-name="Línea 683" y2="74.407" transform="translate(249.568 84.996)" fill="none" stroke="#f2f8fd" stroke-linecap="round" stroke-linejoin="round" stroke-width="1.05"/>
        <path id="Trazado_912924" data-name="Trazado 912924" d="M1231.669,461.906s-38.632,29.9-4.488,72.9" transform="translate(-988.443 -376.368)" fill="none" stroke="#f2f8fd" stroke-linecap="round" stroke-linejoin="round" stroke-width="1.05"/>
        <path id="Trazado_912925" data-name="Trazado 912925" d="M1375.778,461.906s38.632,29.9,4.488,72.9" transform="translate(-1121.005 -376.368)" fill="none" stroke="#f2f8fd" stroke-linecap="round" stroke-linejoin="round" stroke-width="1.05"/>
        <line id="Línea_684" data-name="Línea 684" x2="74.083" transform="translate(212.686 127.094)" fill="none" stroke="#f2f8fd" stroke-linecap="round" stroke-linejoin="round" stroke-width="1.05"/>
        <path id="Trazado_912926" data-name="Trazado 912926" d="M1129.729,319.284s3.737-3.6,7.09-1.333l4.291-1.172" transform="translate(-920.52 -258.117)" fill="none" stroke="#4b96e3" stroke-linecap="round" stroke-linejoin="round" stroke-width="1.068"/>
        <path id="Trazado_912927" data-name="Trazado 912927" d="M1151.142,352.961s3.125-2.281,5.149-1.049" transform="translate(-937.968 -286.446)" fill="none" stroke="#4b96e3" stroke-linecap="round" stroke-linejoin="round" stroke-width="1.068"/>
        <path id="Trazado_912928" data-name="Trazado 912928" d="M1159.445,381.839s3.125-2.281,5.148-1.049" transform="translate(-944.734 -309.976)" fill="none" stroke="#4b96e3" stroke-linecap="round" stroke-linejoin="round" stroke-width="1.068"/>
        <path id="Trazado_912929" data-name="Trazado 912929" d="M1163.386,402.384s3.125-2.281,5.149-1.049" transform="translate(-947.944 -326.717)" fill="none" stroke="#4b96e3" stroke-linecap="round" stroke-linejoin="round" stroke-width="1.068"/>
        <line id="Línea_685" data-name="Línea 685" y1="0.534" x2="5.238" transform="translate(219.86 63.201)" fill="none" stroke="#4b96e3" stroke-linecap="round" stroke-linejoin="round" stroke-width="1.068"/>
        <line id="Línea_686" data-name="Línea 686" y1="0.534" x2="5.238" transform="translate(222.479 68.678)" fill="none" stroke="#4b96e3" stroke-linecap="round" stroke-linejoin="round" stroke-width="1.068"/>
        <line id="Línea_687" data-name="Línea 687" y1="0.534" x2="5.238" transform="translate(221.335 74.694)" fill="none" stroke="#4b96e3" stroke-linecap="round" stroke-linejoin="round" stroke-width="1.068"/>
        <line id="Línea_688" data-name="Línea 688" x2="274.263" transform="translate(0.171 229.941)" fill="none" stroke="#4b96e3" stroke-linecap="round" stroke-linejoin="round" stroke-width="1.846"/>
        <path id="Trazado_912930" data-name="Trazado 912930" d="M105.387,376.063a3.764,3.764,0,1,1-3.764-3.764A3.764,3.764,0,0,1,105.387,376.063Z" transform="translate(-79.738 -303.355)" fill="none" stroke="#4b96e3" stroke-linecap="round" stroke-linejoin="round" stroke-width="1.146"/>
        <path id="Trazado_912931" data-name="Trazado 912931" d="M93.188,855.969S91.03,871.819,72.2,872.707" transform="translate(-58.83 -697.457)" fill="none" stroke="#4b96e3" stroke-linecap="round" stroke-linejoin="round" stroke-width="1.4"/>
        <path id="Trazado_912932" data-name="Trazado 912932" d="M171.044,904.909s-6.155-19.237,13.209-24" transform="translate(-138.612 -717.781)" fill="none" stroke="#4b96e3" stroke-linecap="round" stroke-linejoin="round" stroke-width="1.4"/>
        <path id="Trazado_912933" data-name="Trazado 912933" d="M86.358,1022.914s6.329-3.737,11.351,2.068" transform="translate(-70.366 -832.521)" fill="none" stroke="#4b96e3" stroke-linecap="round" stroke-linejoin="round" stroke-width="1.4"/>
      </g>
    </g>
  </g>
</svg>
