<svg xmlns="http://www.w3.org/2000/svg" xmlns:xlink="http://www.w3.org/1999/xlink" width="1240" height="99.667" viewBox="0 0 1240 99.667">
  <defs>
    <clipPath id="clip-path">
      <rect id="Rectángulo_403548" data-name="Rectángulo 403548" width="61.606" height="36.588" fill="#12263f"/>
    </clipPath>
    <clipPath id="clip-path-3">
      <rect id="Rectángulo_403539" data-name="Rectángulo 403539" width="62.924" height="36.637" fill="none" stroke="#12263f" stroke-width="1"/>
    </clipPath>
    <clipPath id="clip-path-6">
      <rect id="Rectángulo_403576" data-name="Rectángulo 403576" width="22" height="22" transform="translate(-0.233 -0.233)" fill="#12263f"/>
    </clipPath>
    <clipPath id="clip-path-7">
      <rect id="Rectángulo_403544" data-name="Rectángulo 403544" width="66.259" height="42.351" fill="#12263f"/>
    </clipPath>
    <clipPath id="clip-path-8">
      <rect id="Rectángulo_403545" data-name="Rectángulo 403545" width="61.986" height="37.177" fill="#12263f"/>
    </clipPath>
    <clipPath id="clip-path-14">
      <rect id="Rectángulo_403577" data-name="Rectángulo 403577" width="24" height="24.002" transform="translate(0 0)" fill="#12263f"/>
    </clipPath>
  </defs>
  <g id="Grupo_1103708" data-name="Grupo 1103708" transform="translate(-180 -4401.751)">
    <circle id="Elipse_11606" data-name="Elipse 11606" cx="5.727" cy="5.727" r="5.727" transform="translate(950.906 4426.396)" fill="#ffbe01"/>
    <path id="Trazado_913907" data-name="Trazado 913907" d="M13.363,0A13.363,13.363,0,0,1,26.726,13.363V27.544A13.363,13.363,0,0,1,0,27.544V13.363A13.363,13.363,0,0,1,13.363,0Z" transform="translate(194.459 4426.645)" fill="#4b96e3"/>
    <circle id="Elipse_11523" data-name="Elipse 11523" cx="5.727" cy="5.727" r="5.727" transform="translate(194.459 4426.645)" fill="#ffbe01"/>
    <circle id="Elipse_11523-2" data-name="Elipse 11523" cx="5.727" cy="5.727" r="5.727" transform="translate(441.275 4426.396)" fill="#ffbe01"/>
    <circle id="Elipse_11604" data-name="Elipse 11604" cx="5.727" cy="5.727" r="5.727" transform="translate(700.091 4426.645)" fill="#ffbe01"/>
    <circle id="Elipse_11608" data-name="Elipse 11608" cx="5.727" cy="5.727" r="5.727" transform="translate(1205.722 4426.645)" fill="#ffbe01"/>
    <path id="Trazado_913895" data-name="Trazado 913895" d="M26,0H202.738a26,26,0,0,1,26,26V65.061a26,26,0,0,1-26,26H26a26,26,0,0,1-26-26V26A26,26,0,0,1,26,0Z" transform="translate(936.447 4410.108)" fill="#4b96e3" opacity="0.3"/>
    <path id="Trazado_913896" data-name="Trazado 913896" d="M3.545,14H.981V3.336H3.545Zm3.94-7.925.081.93A2.687,2.687,0,0,1,9.829,5.929a2.261,2.261,0,0,1,1.849.74A3.522,3.522,0,0,1,12.312,8.9V14H9.836V9a1.337,1.337,0,0,0-.242-.883,1.118,1.118,0,0,0-.879-.282A1.177,1.177,0,0,0,7.639,8.4V14H5.171V6.075Zm9.543,6.167a1.1,1.1,0,0,0,.806-.282,1.034,1.034,0,0,0,.278-.787h2.314a2.74,2.74,0,0,1-.934,2.139,3.474,3.474,0,0,1-2.406.835,3.517,3.517,0,0,1-2.725-1.084,4.271,4.271,0,0,1-1-3v-.1a4.827,4.827,0,0,1,.443-2.12,3.226,3.226,0,0,1,1.278-1.414,3.811,3.811,0,0,1,1.978-.494,3.43,3.43,0,0,1,2.454.857,3.039,3.039,0,0,1,.908,2.322H18.113a1.355,1.355,0,0,0-.3-.945,1.037,1.037,0,0,0-.806-.33q-.959,0-1.121,1.223a8.631,8.631,0,0,0-.051,1.069,3.39,3.39,0,0,0,.286,1.655A.989.989,0,0,0,17.029,12.242Zm8.276,1.9a4.074,4.074,0,0,1-2.952-1.088,3.756,3.756,0,0,1-1.128-2.831v-.205a4.867,4.867,0,0,1,.45-2.146,3.3,3.3,0,0,1,1.315-1.439,3.969,3.969,0,0,1,2.051-.509,3.43,3.43,0,0,1,2.637,1.036,4.073,4.073,0,0,1,.967,2.889v.959H23.738a1.779,1.779,0,0,0,.579,1.047,1.722,1.722,0,0,0,1.157.381,2.218,2.218,0,0,0,1.831-.82l1.128,1.333a3.153,3.153,0,0,1-1.307,1.014A4.418,4.418,0,0,1,25.305,14.146Zm-.278-6.313q-1.084,0-1.289,1.436h2.49v-.19a1.223,1.223,0,0,0-.3-.919A1.2,1.2,0,0,0,25.027,7.833ZM31.9,6.075l.081.93a2.687,2.687,0,0,1,2.263-1.077,2.261,2.261,0,0,1,1.849.74A3.522,3.522,0,0,1,36.731,8.9V14H34.255V9a1.337,1.337,0,0,0-.242-.883,1.118,1.118,0,0,0-.879-.282,1.177,1.177,0,0,0-1.077.571V14H29.59V6.075ZM40.972,4.1v1.97h1.3V7.789h-1.3v3.625a.926.926,0,0,0,.161.623.864.864,0,0,0,.637.176,3.621,3.621,0,0,0,.615-.044v1.765a4.555,4.555,0,0,1-1.392.212,2.586,2.586,0,0,1-1.882-.6,2.462,2.462,0,0,1-.608-1.824V7.789H37.493V6.075H38.5V4.1ZM45.85,14H43.374V6.075H45.85ZM43.228,4.032a1.1,1.1,0,0,1,.381-.864,1.619,1.619,0,0,1,1.978,0,1.1,1.1,0,0,1,.381.864,1.1,1.1,0,0,1-.381.864,1.619,1.619,0,0,1-1.978,0A1.1,1.1,0,0,1,43.228,4.032Zm7.3,7.031,1.252-4.988h2.6L51.8,14h-2.52L46.692,6.075H49.3Zm4.167-1.1a4.677,4.677,0,0,1,.461-2.113,3.3,3.3,0,0,1,1.326-1.425,3.993,3.993,0,0,1,2.029-.5,3.644,3.644,0,0,1,2.805,1.1,4.23,4.23,0,0,1,1.025,3v.088a4.1,4.1,0,0,1-1.029,2.941,3.654,3.654,0,0,1-2.787,1.088,3.7,3.7,0,0,1-2.717-1.014,3.968,3.968,0,0,1-1.106-2.75Zm2.468.154a2.949,2.949,0,0,0,.344,1.611,1.147,1.147,0,0,0,1.018.513q1.318,0,1.348-2.029V9.964q0-2.131-1.362-2.131-1.238,0-1.34,1.838Zm10.415,1.655a.57.57,0,0,0-.33-.505,5.013,5.013,0,0,0-1.252-.4,5.711,5.711,0,0,1-1.523-.538,2.552,2.552,0,0,1-.916-.809,1.933,1.933,0,0,1-.315-1.091,2.19,2.19,0,0,1,.9-1.8A3.711,3.711,0,0,1,66.5,5.929a4.112,4.112,0,0,1,2.52.71,2.222,2.222,0,0,1,.952,1.868H67.5q0-.952-1-.952a1,1,0,0,0-.652.216.669.669,0,0,0-.264.538.614.614,0,0,0,.322.535,3.045,3.045,0,0,0,1.029.337,8.893,8.893,0,0,1,1.241.315,2.255,2.255,0,0,1,1.787,2.2A2.075,2.075,0,0,1,69,13.465a4.224,4.224,0,0,1-2.494.681,4.31,4.31,0,0,1-1.816-.366,3.037,3.037,0,0,1-1.245-1A2.256,2.256,0,0,1,63,11.458H65.3a.954.954,0,0,0,.366.8,1.506,1.506,0,0,0,.9.253,1.185,1.185,0,0,0,.758-.205A.656.656,0,0,0,67.581,11.773ZM82.207,10.1a4.779,4.779,0,0,1-.831,2.948,2.665,2.665,0,0,1-2.245,1.1,2.285,2.285,0,0,1-1.794-.8v3.7H74.868V6.075h2.307l.073.732a2.285,2.285,0,0,1,1.868-.879,2.687,2.687,0,0,1,2.278,1.08,4.838,4.838,0,0,1,.813,2.97Zm-2.468-.154q0-2.109-1.23-2.109a1.162,1.162,0,0,0-1.172.63v3.12a1.2,1.2,0,0,0,1.187.659q1.179,0,1.216-2.036ZM87.759,14a2.787,2.787,0,0,1-.234-.71,2.3,2.3,0,0,1-1.9.857,2.812,2.812,0,0,1-1.9-.677,2.156,2.156,0,0,1-.784-1.7,2.216,2.216,0,0,1,.952-1.948,4.851,4.851,0,0,1,2.769-.659h.762v-.42q0-1.1-.945-1.1a.772.772,0,0,0-.879.868H83.123A2.213,2.213,0,0,1,84.1,6.646a4.109,4.109,0,0,1,2.494-.717,3.6,3.6,0,0,1,2.4.74,2.572,2.572,0,0,1,.9,2.029v3.508a3.593,3.593,0,0,0,.337,1.67V14Zm-1.545-1.611a1.377,1.377,0,0,0,.765-.2,1.239,1.239,0,0,0,.436-.447V10.477H86.7q-1.289,0-1.289,1.157a.707.707,0,0,0,.227.546A.822.822,0,0,0,86.213,12.389Zm9.836-4.08-.813-.059a1.46,1.46,0,0,0-1.494.732V14H91.274V6.075h2.314l.081,1.018a1.911,1.911,0,0,1,1.736-1.165,2.407,2.407,0,0,1,.688.088ZM101.184,14a2.787,2.787,0,0,1-.234-.71,2.3,2.3,0,0,1-1.9.857,2.812,2.812,0,0,1-1.9-.677,2.156,2.156,0,0,1-.784-1.7,2.216,2.216,0,0,1,.952-1.948,4.851,4.851,0,0,1,2.769-.659h.762v-.42q0-1.1-.945-1.1a.772.772,0,0,0-.879.868H96.548a2.213,2.213,0,0,1,.978-1.865,4.109,4.109,0,0,1,2.494-.717,3.6,3.6,0,0,1,2.4.74,2.572,2.572,0,0,1,.9,2.029v3.508a3.593,3.593,0,0,0,.337,1.67V14Zm-1.545-1.611a1.377,1.377,0,0,0,.765-.2,1.239,1.239,0,0,0,.436-.447V10.477h-.718q-1.289,0-1.289,1.157a.707.707,0,0,0,.227.546A.822.822,0,0,0,99.639,12.389ZM8.049,30.1a4.779,4.779,0,0,1-.831,2.948,2.665,2.665,0,0,1-2.245,1.1,2.285,2.285,0,0,1-1.794-.8v3.7H.71V26.075H3.018l.073.732a2.285,2.285,0,0,1,1.868-.879,2.687,2.687,0,0,1,2.278,1.08,4.838,4.838,0,0,1,.813,2.97Zm-2.468-.154q0-2.109-1.23-2.109a1.162,1.162,0,0,0-1.172.63v3.12a1.2,1.2,0,0,0,1.187.659q1.179,0,1.216-2.036ZM13.6,34a2.787,2.787,0,0,1-.234-.71,2.3,2.3,0,0,1-1.9.857,2.812,2.812,0,0,1-1.9-.677,2.156,2.156,0,0,1-.784-1.7,2.216,2.216,0,0,1,.952-1.948,4.851,4.851,0,0,1,2.769-.659h.762v-.42q0-1.1-.945-1.1a.772.772,0,0,0-.879.868H8.965a2.213,2.213,0,0,1,.978-1.865,4.109,4.109,0,0,1,2.494-.717,3.6,3.6,0,0,1,2.4.74,2.572,2.572,0,0,1,.9,2.029v3.508a3.593,3.593,0,0,0,.337,1.67V34Zm-1.545-1.611a1.377,1.377,0,0,0,.765-.2,1.239,1.239,0,0,0,.436-.447V30.477h-.718q-1.289,0-1.289,1.157a.707.707,0,0,0,.227.546A.822.822,0,0,0,12.056,32.389Zm9.836-4.08-.813-.059a1.46,1.46,0,0,0-1.494.732V34H17.117V26.075h2.314l.081,1.018a1.911,1.911,0,0,1,1.736-1.165,2.407,2.407,0,0,1,.688.088Zm4.131-4.2v1.97h1.3v1.714h-1.3v3.625a.926.926,0,0,0,.161.623.864.864,0,0,0,.637.176,3.621,3.621,0,0,0,.615-.044v1.765a4.555,4.555,0,0,1-1.392.212,2.586,2.586,0,0,1-1.882-.6,2.462,2.462,0,0,1-.608-1.824V27.789H22.544V26.075h1.011V24.1ZM30.9,34H28.425V26.075H30.9Zm-2.622-9.968a1.1,1.1,0,0,1,.381-.864,1.619,1.619,0,0,1,1.978,0,1.171,1.171,0,0,1,0,1.729,1.619,1.619,0,0,1-1.978,0A1.1,1.1,0,0,1,28.279,24.032Zm7.493,8.21a1.1,1.1,0,0,0,.806-.282,1.034,1.034,0,0,0,.278-.787H39.17a2.74,2.74,0,0,1-.934,2.139,3.474,3.474,0,0,1-2.406.835,3.517,3.517,0,0,1-2.725-1.084,4.271,4.271,0,0,1-1-3v-.1a4.827,4.827,0,0,1,.443-2.12,3.226,3.226,0,0,1,1.278-1.414,3.811,3.811,0,0,1,1.978-.494,3.43,3.43,0,0,1,2.454.857,3.039,3.039,0,0,1,.908,2.322H36.855a1.355,1.355,0,0,0-.3-.945,1.037,1.037,0,0,0-.806-.33q-.959,0-1.121,1.223a8.631,8.631,0,0,0-.051,1.069,3.39,3.39,0,0,0,.286,1.655A.989.989,0,0,0,35.771,32.242ZM42.817,34H40.342V26.075h2.476ZM40.2,24.032a1.1,1.1,0,0,1,.381-.864,1.619,1.619,0,0,1,1.978,0,1.171,1.171,0,0,1,0,1.729,1.619,1.619,0,0,1-1.978,0A1.1,1.1,0,0,1,40.2,24.032Zm11.5,6.064a4.779,4.779,0,0,1-.831,2.948,2.665,2.665,0,0,1-2.245,1.1,2.285,2.285,0,0,1-1.794-.8v3.7H44.355V26.075h2.307l.073.732a2.285,2.285,0,0,1,1.868-.879,2.687,2.687,0,0,1,2.278,1.08,4.838,4.838,0,0,1,.813,2.97Zm-2.468-.154q0-2.109-1.23-2.109a1.162,1.162,0,0,0-1.172.63v3.12a1.2,1.2,0,0,0,1.187.659q1.179,0,1.216-2.036ZM57.246,34a2.787,2.787,0,0,1-.234-.71,2.3,2.3,0,0,1-1.9.857,2.812,2.812,0,0,1-1.9-.677,2.156,2.156,0,0,1-.784-1.7,2.216,2.216,0,0,1,.952-1.948,4.851,4.851,0,0,1,2.769-.659H56.9v-.42q0-1.1-.945-1.1a.772.772,0,0,0-.879.868H52.61a2.213,2.213,0,0,1,.978-1.865,4.109,4.109,0,0,1,2.494-.717,3.6,3.6,0,0,1,2.4.74,2.572,2.572,0,0,1,.9,2.029v3.508a3.593,3.593,0,0,0,.337,1.67V34ZM55.7,32.389a1.377,1.377,0,0,0,.765-.2,1.239,1.239,0,0,0,.436-.447V30.477h-.718q-1.289,0-1.289,1.157a.707.707,0,0,0,.227.546A.822.822,0,0,0,55.7,32.389Zm9.836-4.08-.813-.059a1.46,1.46,0,0,0-1.494.732V34H60.762V26.075h2.314l.081,1.018a1.911,1.911,0,0,1,1.736-1.165,2.407,2.407,0,0,1,.688.088Zm1.15,3.3a1.405,1.405,0,0,1,.974.348,1.214,1.214,0,0,1,0,1.78,1.537,1.537,0,0,1-1.952,0,1.214,1.214,0,0,1,0-1.772A1.393,1.393,0,0,1,66.687,31.6Z" transform="translate(1021.447 4435)" fill="#12263f"/>
    <path id="Trazado_913898" data-name="Trazado 913898" d="M13.363,0A13.363,13.363,0,0,1,26.726,13.363V27.544A13.363,13.363,0,0,1,0,27.544V13.363A13.363,13.363,0,0,1,13.363,0Z" transform="translate(950.906 4426.396)" fill="#4b96e3"/>
    <g id="Grupo_1102504" data-name="Grupo 1102504" transform="translate(950.906 4429.891)">
      <g id="Grupo_1102387" data-name="Grupo 1102387">
        <g id="Grupo_1102386" data-name="Grupo 1102386" clip-path="url(#clip-path)">
          <path id="Línea_679" data-name="Línea 679" d="M7.433-.334H-.621A.287.287,0,0,1-.908-.621.287.287,0,0,1-.621-.908H7.433a.287.287,0,0,1,.287.287A.287.287,0,0,1,7.433-.334Z" transform="translate(0.908 33.622)" fill="#12263f"/>
          <path id="Línea_680" data-name="Línea 680" d="M6.336-.334H-.621A.287.287,0,0,1-.908-.621.287.287,0,0,1-.621-.908H6.336a.287.287,0,0,1,.287.287A.287.287,0,0,1,6.336-.334Z" transform="translate(54.984 33.622)" fill="#12263f"/>
        </g>
      </g>
      <path id="Línea_681" data-name="Línea 681" d="M40.665-.334H-.621A.287.287,0,0,1-.908-.621.287.287,0,0,1-.621-.908H40.665a.287.287,0,0,1,.287.287A.287.287,0,0,1,40.665-.334Z" transform="translate(12.066 33.622)" fill="#12263f"/>
      <g id="Grupo_1102389" data-name="Grupo 1102389">
        <g id="Grupo_1102388" data-name="Grupo 1102388" clip-path="url(#clip-path)">
          <path id="Línea_682" data-name="Línea 682" d="M6.284-.167H-.31A.144.144,0,0,1-.454-.31.144.144,0,0,1-.31-.454H6.284a.144.144,0,0,1,.144.144A.144.144,0,0,1,6.284-.167Z" transform="translate(9.83 36.755)" fill="#12263f"/>
          <path id="Línea_683" data-name="Línea 683" d="M6.289-.167H-.31A.144.144,0,0,1-.454-.31.144.144,0,0,1-.31-.454h6.6a.144.144,0,0,1,.144.144A.144.144,0,0,1,6.289-.167Z" transform="translate(20.44 36.755)" fill="#12263f"/>
          <path id="Línea_684" data-name="Línea 684" d="M13.283-.167H-.31A.144.144,0,0,1-.454-.31.144.144,0,0,1-.31-.454H13.283a.144.144,0,0,1,.144.144A.144.144,0,0,1,13.283-.167Z" transform="translate(30.809 36.755)" fill="#12263f"/>
          <path id="Línea_685" data-name="Línea 685" d="M7.423-.167H-.31A.144.144,0,0,1-.454-.31.144.144,0,0,1-.31-.454H7.423a.144.144,0,0,1,.144.144A.144.144,0,0,1,7.423-.167Z" transform="translate(48.411 36.755)" fill="#12263f"/>
          <path id="Trazado_912791" data-name="Trazado 912791" d="M89.4,55.1H87a.574.574,0,0,1-.574-.574V52.607A8.713,8.713,0,0,1,82.96,51.08a.574.574,0,0,1-.165-.71l1.245-2.516a.574.574,0,0,1,.4-.307h0A3.035,3.035,0,0,1,83.4,45.156a3.5,3.5,0,0,1,.973-2.478,4.468,4.468,0,0,1,2.051-1.16V39.644A.574.574,0,0,1,87,39.071h2.4a.574.574,0,0,1,.574.574v1.793a8.581,8.581,0,0,1,3.063,1.137.574.574,0,0,1,.209.731L92.03,45.852a.574.574,0,0,1-.324.293l.034.023a3.207,3.207,0,0,1,1.489,2.823,3.7,3.7,0,0,1-3.255,3.662v1.878A.574.574,0,0,1,89.4,55.1Zm-1.827-1.148h1.253V52.174a.574.574,0,0,1,.492-.568c1.032-.148,2.763-.684,2.763-2.615a2.068,2.068,0,0,0-.977-1.868,7.46,7.46,0,0,0-2.216-.834,7.831,7.831,0,0,1-1.251-.394,1.646,1.646,0,0,1-.526-.36,1.009,1.009,0,0,1-.281-.7.931.931,0,0,1,.443-.812,1.4,1.4,0,0,1,.753-.181,8.766,8.766,0,0,1,3.223.979l.732-1.532a8.259,8.259,0,0,0-2.654-.792.574.574,0,0,1-.5-.569V40.218H87.573v1.755a.574.574,0,0,1-.465.563c-1.626.315-2.559,1.27-2.559,2.619a1.919,1.919,0,0,0,.943,1.751,7.459,7.459,0,0,0,2.187.785,7.981,7.981,0,0,1,1.292.391,1.662,1.662,0,0,1,.544.368,1.029,1.029,0,0,1,.286.712c0,.529-.364,1.095-1.384,1.095a6.1,6.1,0,0,1-2.141-.5,8.889,8.889,0,0,1-1.509-.78l-.724,1.464a8.183,8.183,0,0,0,3.049,1.125.574.574,0,0,1,.482.567ZM86.266,48.5a5.825,5.825,0,0,0,2.15.613h.037c-.039-.016-.084-.034-.136-.052-.247-.087-.571-.167-.913-.251S86.66,48.623,86.266,48.5Z" transform="translate(-56.581 -26.72)" fill="#12263f"/>
          <path id="Elipse_11564" data-name="Elipse 11564" d="M10.738-1.815a12.55,12.55,0,0,1,8.877,21.431A12.554,12.554,0,1,1,5.852-.829,12.476,12.476,0,0,1,10.738-1.815Zm0,23.96A11.406,11.406,0,1,0-.668,10.738,11.419,11.419,0,0,0,10.738,22.145Z" transform="translate(20.699 9.63)" fill="#12263f"/>
          <path id="Línea_686" data-name="Línea 686" d="M.7,1.081A.383.383,0,0,1,.426.969L-1.1-.559a.384.384,0,0,1,0-.543.384.384,0,0,1,.543,0L.969.426A.384.384,0,0,1,.7,1.081Z" transform="translate(37.362 3.715)" fill="#12263f"/>
          <path id="Línea_687" data-name="Línea 687" d="M-.831,1.081A.383.383,0,0,1-1.1.969a.384.384,0,0,1,0-.543L.426-1.1a.384.384,0,0,1,.543,0,.384.384,0,0,1,0,.543L-.559.969A.383.383,0,0,1-.831,1.081Z" transform="translate(37.362 3.715)" fill="#12263f"/>
          <path id="Línea_688" data-name="Línea 688" d="M.7,1.081A.383.383,0,0,1,.426.969L-1.1-.559a.384.384,0,0,1,0-.543.384.384,0,0,1,.543,0L.969.426A.384.384,0,0,1,.7,1.081Z" transform="translate(50.749 21.422)" fill="#12263f"/>
          <path id="Línea_689" data-name="Línea 689" d="M-.831,1.081A.383.383,0,0,1-1.1.969a.384.384,0,0,1,0-.543L.426-1.1a.384.384,0,0,1,.543,0,.384.384,0,0,1,0,.543L-.559.969A.383.383,0,0,1-.831,1.081Z" transform="translate(50.749 21.422)" fill="#12263f"/>
          <path id="Línea_690" data-name="Línea 690" d="M1.939,2.323a.383.383,0,0,1-.272-.112L-1.1-.559a.384.384,0,0,1,0-.543.384.384,0,0,1,.543,0l2.77,2.77a.384.384,0,0,1-.272.656Z" transform="translate(12.296 13.899)" fill="#12263f"/>
          <path id="Línea_691" data-name="Línea 691" d="M-.831,2.323A.383.383,0,0,1-1.1,2.21a.384.384,0,0,1,0-.543L1.667-1.1a.384.384,0,0,1,.543,0,.384.384,0,0,1,0,.543L-.559,2.21A.383.383,0,0,1-.831,2.323Z" transform="translate(12.296 13.899)" fill="#12263f"/>
          <path id="Elipse_11565" data-name="Elipse 11565" d="M.8-1.215A2.016,2.016,0,1,1-1.215.8,2.018,2.018,0,0,1,.8-1.215Zm0,3.264A1.248,1.248,0,1,0-.447.8,1.249,1.249,0,0,0,.8,2.049Z" transform="translate(21.378 1.215)" fill="#12263f"/>
          <path id="Trazado_912792" data-name="Trazado 912792" d="M151.056,22.976A1.125,1.125,0,1,1,149.93,24.1,1.126,1.126,0,0,1,151.056,22.976Zm0,1.483a.357.357,0,1,0-.358-.358A.358.358,0,0,0,151.056,24.459Z" transform="translate(-102.534 -15.713)" fill="#12263f"/>
        </g>
      </g>
    </g>
    <path id="Trazado_913905" data-name="Trazado 913905" d="M26,0H202.738a26,26,0,0,1,26,26V65.061a26,26,0,0,1-26,26H26a26,26,0,0,1-26-26V26A26,26,0,0,1,26,0Z" transform="translate(180 4410.357)" fill="#4b96e3" opacity="0.3"/>
    <path id="Trazado_913906" data-name="Trazado 913906" d="M.806,14V3.336H4.241a5.053,5.053,0,0,1,2.542.641A4.5,4.5,0,0,1,8.544,5.786,5.462,5.462,0,0,1,9.185,8.4V8.9a5.494,5.494,0,0,1-.619,2.626,4.524,4.524,0,0,1-1.743,1.816A4.942,4.942,0,0,1,4.314,14ZM3.376,5.321v6.7H4.27a2,2,0,0,0,1.7-.787A3.858,3.858,0,0,0,6.563,8.9V8.434A3.827,3.827,0,0,0,5.969,6.1a2.035,2.035,0,0,0-1.729-.784Zm10.847,8.826a4.074,4.074,0,0,1-2.952-1.088,3.756,3.756,0,0,1-1.128-2.831v-.205a4.867,4.867,0,0,1,.45-2.146,3.3,3.3,0,0,1,1.315-1.439,3.969,3.969,0,0,1,2.051-.509A3.43,3.43,0,0,1,16.6,6.965a4.073,4.073,0,0,1,.967,2.889v.959H12.656a1.779,1.779,0,0,0,.579,1.047,1.722,1.722,0,0,0,1.157.381,2.218,2.218,0,0,0,1.831-.82l1.128,1.333a3.153,3.153,0,0,1-1.307,1.014A4.418,4.418,0,0,1,14.224,14.146Zm-.278-6.313q-1.084,0-1.289,1.436h2.49v-.19a1.223,1.223,0,0,0-.3-.919A1.2,1.2,0,0,0,13.945,7.833ZM19.131,14V7.789h-1.15V6.075h1.15V5.812a3.026,3.026,0,0,1,1.04-2.424,4.156,4.156,0,0,1,2.7-.791,9.591,9.591,0,0,1,2.578.425l-.337,1.948-.41-.11a6.527,6.527,0,0,0-1.685-.212q-1.414,0-1.414,1.289v.139h1.553V7.789H21.606V14Zm7.456,0H24.1V6.075h2.483Zm3.772-7.925.081.93A2.687,2.687,0,0,1,32.7,5.929a2.261,2.261,0,0,1,1.849.74A3.522,3.522,0,0,1,35.186,8.9V14H32.71V9a1.337,1.337,0,0,0-.242-.883,1.118,1.118,0,0,0-.879-.282,1.177,1.177,0,0,0-1.077.571V14H28.044V6.075ZM39.155,14H36.68V6.075h2.476ZM36.533,4.032a1.1,1.1,0,0,1,.381-.864,1.619,1.619,0,0,1,1.978,0,1.1,1.1,0,0,1,.381.864,1.1,1.1,0,0,1-.381.864,1.619,1.619,0,0,1-1.978,0A1.1,1.1,0,0,1,36.533,4.032Zm7.493,8.21a1.1,1.1,0,0,0,.806-.282,1.034,1.034,0,0,0,.278-.787h2.314a2.74,2.74,0,0,1-.934,2.139,3.474,3.474,0,0,1-2.406.835,3.517,3.517,0,0,1-2.725-1.084,4.271,4.271,0,0,1-1-3v-.1a4.827,4.827,0,0,1,.443-2.12,3.226,3.226,0,0,1,1.278-1.414,3.811,3.811,0,0,1,1.978-.494,3.43,3.43,0,0,1,2.454.857,3.039,3.039,0,0,1,.908,2.322H45.11a1.355,1.355,0,0,0-.3-.945A1.037,1.037,0,0,0,44,7.833q-.959,0-1.121,1.223a8.631,8.631,0,0,0-.051,1.069,3.39,3.39,0,0,0,.286,1.655A.989.989,0,0,0,44.026,12.242ZM51.072,14H48.6V6.075h2.476ZM48.45,4.032a1.1,1.1,0,0,1,.381-.864,1.619,1.619,0,0,1,1.978,0,1.1,1.1,0,0,1,.381.864,1.1,1.1,0,0,1-.381.864,1.619,1.619,0,0,1-1.978,0A1.1,1.1,0,0,1,48.45,4.032ZM52.28,9.964a4.677,4.677,0,0,1,.461-2.113,3.3,3.3,0,0,1,1.326-1.425,3.993,3.993,0,0,1,2.029-.5,3.644,3.644,0,0,1,2.805,1.1,4.23,4.23,0,0,1,1.025,3v.088A4.1,4.1,0,0,1,58.9,13.059a3.654,3.654,0,0,1-2.787,1.088,3.7,3.7,0,0,1-2.717-1.014,3.968,3.968,0,0,1-1.106-2.75Zm2.468.154a2.949,2.949,0,0,0,.344,1.611,1.147,1.147,0,0,0,1.018.513q1.318,0,1.348-2.029V9.964q0-2.131-1.362-2.131-1.238,0-1.34,1.838ZM56.433,2.75h2.607L57,5.05l-2.014,0Zm6.848,3.325.081.93a2.687,2.687,0,0,1,2.263-1.077,2.261,2.261,0,0,1,1.849.74A3.522,3.522,0,0,1,68.108,8.9V14H65.632V9a1.337,1.337,0,0,0-.242-.883,1.118,1.118,0,0,0-.879-.282,1.177,1.177,0,0,0-1.077.571V14H60.967V6.075Zm-62.9,23.9a4.841,4.841,0,0,1,.813-2.966,2.676,2.676,0,0,1,2.271-1.084,2.276,2.276,0,0,1,1.787.835V22.75H7.727V34H5.508l-.125-.85a2.337,2.337,0,0,1-1.934,1,2.671,2.671,0,0,1-2.241-1.084A4.994,4.994,0,0,1,.381,29.979Zm2.468.154q0,2.109,1.23,2.109a1.215,1.215,0,0,0,1.172-.688V28.536a1.182,1.182,0,0,0-1.157-.7q-1.143,0-1.238,1.846Zm10.115,4.014a4.074,4.074,0,0,1-2.952-1.088,3.756,3.756,0,0,1-1.128-2.831v-.205a4.867,4.867,0,0,1,.45-2.146,3.3,3.3,0,0,1,1.315-1.439,3.969,3.969,0,0,1,2.051-.509,3.43,3.43,0,0,1,2.637,1.036,4.073,4.073,0,0,1,.967,2.889v.959H11.4a1.779,1.779,0,0,0,.579,1.047,1.722,1.722,0,0,0,1.157.381,2.218,2.218,0,0,0,1.831-.82l1.128,1.333a3.153,3.153,0,0,1-1.307,1.014A4.418,4.418,0,0,1,12.964,34.146Zm-.278-6.313q-1.084,0-1.289,1.436h2.49v-.19a1.223,1.223,0,0,0-.3-.919A1.2,1.2,0,0,0,12.686,27.833ZM19.9,34H17.424V22.75H19.9Zm8.13-9.9v1.97h1.3v1.714h-1.3v3.625a.926.926,0,0,0,.161.623.864.864,0,0,0,.637.176,3.621,3.621,0,0,0,.615-.044v1.765a4.555,4.555,0,0,1-1.392.212,2.586,2.586,0,0,1-1.882-.6,2.462,2.462,0,0,1-.608-1.824V27.789H24.551V26.075h1.011V24.1Zm7.068,4.2-.813-.059a1.46,1.46,0,0,0-1.494.732V34H30.322V26.075h2.314l.081,1.018a1.911,1.911,0,0,1,1.736-1.165,2.407,2.407,0,0,1,.688.088ZM40.232,34A2.787,2.787,0,0,1,40,33.29a2.3,2.3,0,0,1-1.9.857,2.812,2.812,0,0,1-1.9-.677,2.156,2.156,0,0,1-.784-1.7,2.216,2.216,0,0,1,.952-1.948,4.851,4.851,0,0,1,2.769-.659h.762v-.42q0-1.1-.945-1.1a.772.772,0,0,0-.879.868H35.6a2.213,2.213,0,0,1,.978-1.865,4.109,4.109,0,0,1,2.494-.717,3.6,3.6,0,0,1,2.4.74,2.572,2.572,0,0,1,.9,2.029v3.508a3.593,3.593,0,0,0,.337,1.67V34Zm-1.545-1.611a1.377,1.377,0,0,0,.765-.2,1.239,1.239,0,0,0,.436-.447V30.477H39.17q-1.289,0-1.289,1.157a.707.707,0,0,0,.227.546A.822.822,0,0,0,38.687,32.389Zm12.4-2.285a4.83,4.83,0,0,1-.806,3,2.7,2.7,0,0,1-2.271,1.047,2.342,2.342,0,0,1-1.948-.959l-.1.813H43.748V22.75h2.468v3.962A2.259,2.259,0,0,1,48,25.929a2.7,2.7,0,0,1,2.285,1.062,4.855,4.855,0,0,1,.806,2.988Zm-2.476-.157a3.222,3.222,0,0,0-.3-1.627,1.025,1.025,0,0,0-.934-.486,1.182,1.182,0,0,0-1.157.636v3.144a1.188,1.188,0,0,0,1.172.629,1.048,1.048,0,0,0,1.106-.848A6.091,6.091,0,0,0,48.611,29.946ZM56.638,34a2.787,2.787,0,0,1-.234-.71,2.3,2.3,0,0,1-1.9.857,2.812,2.812,0,0,1-1.9-.677,2.156,2.156,0,0,1-.784-1.7,2.216,2.216,0,0,1,.952-1.948,4.851,4.851,0,0,1,2.769-.659h.762v-.42q0-1.1-.945-1.1a.772.772,0,0,0-.879.868H52a2.213,2.213,0,0,1,.978-1.865,4.109,4.109,0,0,1,2.494-.717,3.6,3.6,0,0,1,2.4.74,2.572,2.572,0,0,1,.9,2.029v3.508a3.593,3.593,0,0,0,.337,1.67V34Zm-1.545-1.611a1.377,1.377,0,0,0,.765-.2,1.239,1.239,0,0,0,.436-.447V30.477h-.718q-1.289,0-1.289,1.157a.707.707,0,0,0,.227.546A.822.822,0,0,0,55.093,32.389Zm7.7-6.313v8.2a2.877,2.877,0,0,1-.806,2.168,3.1,3.1,0,0,1-2.227.762,5.257,5.257,0,0,1-1.165-.125V35.208a4.722,4.722,0,0,0,.7.066.9.9,0,0,0,1.025-1.018V26.075Zm-2.659-2.043a1.1,1.1,0,0,1,.381-.864,1.619,1.619,0,0,1,1.978,0,1.171,1.171,0,0,1,0,1.729,1.619,1.619,0,0,1-1.978,0A1.1,1.1,0,0,1,60.132,24.032Zm3.743,5.933a4.677,4.677,0,0,1,.461-2.113,3.3,3.3,0,0,1,1.326-1.425,3.993,3.993,0,0,1,2.029-.5,3.644,3.644,0,0,1,2.805,1.1,4.23,4.23,0,0,1,1.025,3v.088a4.1,4.1,0,0,1-1.029,2.941,3.654,3.654,0,0,1-2.787,1.088,3.7,3.7,0,0,1-2.717-1.014,3.968,3.968,0,0,1-1.106-2.75Zm2.468.154a2.949,2.949,0,0,0,.344,1.611,1.147,1.147,0,0,0,1.018.513q1.318,0,1.348-2.029v-.249q0-2.131-1.362-2.131-1.238,0-1.34,1.838ZM74.136,31.6a1.405,1.405,0,0,1,.974.348,1.214,1.214,0,0,1,0,1.78,1.537,1.537,0,0,1-1.952,0,1.214,1.214,0,0,1,0-1.772A1.393,1.393,0,0,1,74.136,31.6Z" transform="translate(265 4435)" fill="#12263f"/>
    <g id="Grupo_1102503" data-name="Grupo 1102503" transform="translate(2.384 113.078)">
      <g id="Grupo_1102371" data-name="Grupo 1102371" transform="translate(192.076 4314.94)">
        <g id="Grupo_1102370" data-name="Grupo 1102370" clip-path="url(#clip-path-3)">
          <path id="Línea_679-2" data-name="Línea 679" d="M7.006-.625H-1.22a.6.6,0,0,1-.6-.6.6.6,0,0,1,.6-.6H7.006a.6.6,0,0,1,.6.6A.6.6,0,0,1,7.006-.625Z" transform="translate(1.513 34.193)" fill="#12263f"/>
          <path id="Línea_680-2" data-name="Línea 680" d="M5.885-.625H-1.22a.6.6,0,0,1-.6-.6.6.6,0,0,1,.6-.6H5.885a.6.6,0,0,1,.6.6A.6.6,0,0,1,5.885-.625Z" transform="translate(56.746 34.193)" fill="#12263f"/>
        </g>
      </g>
      <path id="Línea_681-2" data-name="Línea 681" d="M40.949-.625H-1.22a.6.6,0,0,1-.6-.6.6.6,0,0,1,.6-.6H40.949a.6.6,0,0,1,.6.6A.6.6,0,0,1,40.949-.625Z" transform="translate(204.986 4349.133)" fill="#12263f"/>
      <g id="Grupo_1102373" data-name="Grupo 1102373" transform="translate(192.076 4314.94)">
        <g id="Grupo_1102372" data-name="Grupo 1102372" clip-path="url(#clip-path-3)">
          <path id="Línea_682-2" data-name="Línea 682" d="M6.125-.312H-.61a.3.3,0,0,1-.3-.3.3.3,0,0,1,.3-.3H6.125a.3.3,0,0,1,.3.3A.3.3,0,0,1,6.125-.312Z" transform="translate(10.334 37.1)" fill="#12263f"/>
          <path id="Línea_683-2" data-name="Línea 683" d="M6.13-.312H-.61a.3.3,0,0,1-.3-.3.3.3,0,0,1,.3-.3H6.13a.3.3,0,0,1,.3.3A.3.3,0,0,1,6.13-.312Z" transform="translate(21.17 37.1)" fill="#12263f"/>
          <path id="Línea_684-2" data-name="Línea 684" d="M13.274-.312H-.61a.3.3,0,0,1-.3-.3.3.3,0,0,1,.3-.3H13.274a.3.3,0,0,1,.3.3A.3.3,0,0,1,13.274-.312Z" transform="translate(31.761 37.1)" fill="#12263f"/>
          <path id="Línea_685-2" data-name="Línea 685" d="M7.289-.312H-.61a.3.3,0,0,1-.3-.3.3.3,0,0,1,.3-.3h7.9a.3.3,0,0,1,.3.3A.3.3,0,0,1,7.289-.312Z" transform="translate(49.739 37.1)" fill="#12263f"/>
        </g>
      </g>
      <path id="Línea_686-2" data-name="Línea 686" d="M-.123.674A.792.792,0,0,1-.687.441L-2.2-1.069a.792.792,0,0,1-.233-.564A.792.792,0,0,1-2.2-2.2a.792.792,0,0,1,.564-.233.792.792,0,0,1,.564.233L.441-.687a.792.792,0,0,1,.233.564A.792.792,0,0,1,.441.441.792.792,0,0,1-.123.674Z" transform="translate(242.294 4320.916)" fill="#12263f"/>
      <path id="Línea_687-2" data-name="Línea 687" d="M-1.633.674A.792.792,0,0,1-2.2.441.792.792,0,0,1-2.43-.123.792.792,0,0,1-2.2-.687L-.687-2.2A.792.792,0,0,1-.123-2.43.792.792,0,0,1,.441-2.2a.792.792,0,0,1,.233.564.792.792,0,0,1-.233.564L-1.069.441A.792.792,0,0,1-1.633.674Z" transform="translate(242.294 4320.916)" fill="#12263f"/>
      <path id="Línea_688-2" data-name="Línea 688" d="M1.25,2.048a.792.792,0,0,1-.564-.233L-2.2-1.069a.792.792,0,0,1-.233-.564A.792.792,0,0,1-2.2-2.2a.792.792,0,0,1,.564-.233.792.792,0,0,1,.564.233L1.814.687A.8.8,0,0,1,1.25,2.048Z" transform="translate(210.14 4320.984)" fill="#12263f"/>
      <path id="Línea_689-2" data-name="Línea 689" d="M-1.633,2.048A.792.792,0,0,1-2.2,1.814.792.792,0,0,1-2.43,1.25.792.792,0,0,1-2.2.687L.687-2.2A.792.792,0,0,1,1.25-2.43a.792.792,0,0,1,.564.233.8.8,0,0,1,0,1.127L-1.069,1.814A.792.792,0,0,1-1.633,2.048Z" transform="translate(210.141 4320.984)" fill="#12263f"/>
      <path id="Línea_690-2" data-name="Línea 690" d="M.368,1.165A.792.792,0,0,1-.2.932l-2-2a.792.792,0,0,1-.233-.564A.792.792,0,0,1-2.2-2.2a.792.792,0,0,1,.564-.233.792.792,0,0,1,.564.233l2,2a.792.792,0,0,1,.233.564.8.8,0,0,1-.8.8Z" transform="translate(246.453 4335.871)" fill="#12263f"/>
      <path id="Línea_691-2" data-name="Línea 691" d="M-1.633,1.165A.792.792,0,0,1-2.2.932.792.792,0,0,1-2.43.368.792.792,0,0,1-2.2-.2l2-2A.792.792,0,0,1,.368-2.43.792.792,0,0,1,.932-2.2a.8.8,0,0,1,0,1.127l-2,2A.792.792,0,0,1-1.633,1.165Z" transform="translate(246.452 4335.871)" fill="#12263f"/>
      <g id="Grupo_1102375" data-name="Grupo 1102375" transform="translate(192.076 4314.94)">
        <g id="Grupo_1102374" data-name="Grupo 1102374" clip-path="url(#clip-path-3)">
          <path id="Elipse_11564-2" data-name="Elipse 11564" d="M.034-2.43A2.467,2.467,0,0,1,2.5.034,2.467,2.467,0,0,1,.034,2.5,2.467,2.467,0,0,1-2.43.034,2.467,2.467,0,0,1,.034-2.43ZM.034.9A.871.871,0,0,0,.9.034a.871.871,0,0,0-.87-.87.871.871,0,0,0-.87.87A.871.871,0,0,0,.034.9Z" transform="translate(30.781 2.025)" fill="#12263f"/>
          <path id="Trazado_912769" data-name="Trazado 912769" d="M29.038,42.73a2.208,2.208,0,1,1-2.208,2.208A2.211,2.211,0,0,1,29.038,42.73Zm0,2.822a.614.614,0,1,0-.614-.614A.615.615,0,0,0,29.038,45.552Z" transform="translate(-18.18 -28.946)" fill="#12263f"/>
          <g id="Grupo_1102435" data-name="Grupo 1102435" transform="translate(21.243 11.229)">
            <g id="Grupo_1102435-2" data-name="Grupo 1102435" transform="translate(-0.01 -0.01)" clip-path="url(#clip-path-6)">
              <path id="Trazado_913131" data-name="Trazado 913131" d="M17.035,3.586h-.986A4.491,4.491,0,0,0,11.656,0H9.863A4.491,4.491,0,0,0,5.469,3.586H4.483A4.488,4.488,0,0,0,0,8.069v8.966a4.488,4.488,0,0,0,4.483,4.483H17.035a4.488,4.488,0,0,0,4.483-4.483V8.069a4.488,4.488,0,0,0-4.483-4.483M9.863,1.793h1.793a2.69,2.69,0,0,1,2.525,1.793H7.338A2.69,2.69,0,0,1,9.863,1.793M4.483,5.38H17.035a2.69,2.69,0,0,1,2.69,2.69v2.69H1.793V8.069a2.69,2.69,0,0,1,2.69-2.69M17.035,19.725H4.483a2.69,2.69,0,0,1-2.69-2.69V12.552H9.863v.9a.9.9,0,0,0,1.793,0v-.9h8.069v4.483a2.69,2.69,0,0,1-2.69,2.69" transform="translate(0.008 0.008)" fill="#12263f"/>
            </g>
          </g>
        </g>
      </g>
    </g>
    <path id="Trazado_913902" data-name="Trazado 913902" d="M26,0H202.738a26,26,0,0,1,26,26V65.061a26,26,0,0,1-26,26H26a26,26,0,0,1-26-26V26A26,26,0,0,1,26,0Z" transform="translate(426.816 4410.108)" fill="#4b96e3" opacity="0.3"/>
    <path id="Trazado_913903" data-name="Trazado 913903" d="M7.419,9.474H3.376v2.549H8.152V14H.806V3.336H8.167V5.321H3.376V7.569H7.419Zm5.815,2.3a.57.57,0,0,0-.33-.505,5.013,5.013,0,0,0-1.252-.4,5.711,5.711,0,0,1-1.523-.538,2.552,2.552,0,0,1-.916-.809A1.933,1.933,0,0,1,8.9,8.434a2.19,2.19,0,0,1,.9-1.8,3.711,3.711,0,0,1,2.358-.707,4.112,4.112,0,0,1,2.52.71,2.222,2.222,0,0,1,.952,1.868H13.154q0-.952-1-.952a1,1,0,0,0-.652.216.669.669,0,0,0-.264.538.614.614,0,0,0,.322.535,3.045,3.045,0,0,0,1.029.337,8.893,8.893,0,0,1,1.241.315,2.255,2.255,0,0,1,1.787,2.2,2.075,2.075,0,0,1-.963,1.765,4.224,4.224,0,0,1-2.494.681,4.31,4.31,0,0,1-1.816-.366,3.037,3.037,0,0,1-1.245-1,2.256,2.256,0,0,1-.447-1.326h2.307a.954.954,0,0,0,.366.8,1.506,1.506,0,0,0,.9.253,1.185,1.185,0,0,0,.758-.205A.656.656,0,0,0,13.235,11.773ZM19.644,4.1v1.97h1.3V7.789h-1.3v3.625a.926.926,0,0,0,.161.623.864.864,0,0,0,.637.176,3.621,3.621,0,0,0,.615-.044v1.765a4.555,4.555,0,0,1-1.392.212,2.586,2.586,0,0,1-1.882-.6,2.462,2.462,0,0,1-.608-1.824V7.789H16.165V6.075h1.011V4.1Zm7.068,4.2L25.9,8.25a1.46,1.46,0,0,0-1.494.732V14H21.936V6.075H24.25l.081,1.018a1.911,1.911,0,0,1,1.736-1.165,2.407,2.407,0,0,1,.688.088Zm5.61,4.834a2.545,2.545,0,0,1-2.117,1,2.5,2.5,0,0,1-1.974-.758,3.188,3.188,0,0,1-.67-2.179V6.075h2.468v5.149a.887.887,0,0,0,.989,1.018,1.29,1.29,0,0,0,1.208-.608V6.075h2.483V14H32.4Zm7.09-.9a1.1,1.1,0,0,0,.806-.282,1.034,1.034,0,0,0,.278-.787H42.81a2.74,2.74,0,0,1-.934,2.139,3.474,3.474,0,0,1-2.406.835,3.517,3.517,0,0,1-2.725-1.084,4.271,4.271,0,0,1-1-3v-.1a4.827,4.827,0,0,1,.443-2.12,3.226,3.226,0,0,1,1.278-1.414,3.811,3.811,0,0,1,1.978-.494,3.43,3.43,0,0,1,2.454.857,3.039,3.039,0,0,1,.908,2.322H40.5a1.355,1.355,0,0,0-.3-.945,1.037,1.037,0,0,0-.806-.33q-.959,0-1.121,1.223a8.631,8.631,0,0,0-.051,1.069,3.39,3.39,0,0,0,.286,1.655A.989.989,0,0,0,39.412,12.242ZM46.729,4.1v1.97h1.3V7.789h-1.3v3.625a.926.926,0,0,0,.161.623.864.864,0,0,0,.637.176,3.621,3.621,0,0,0,.615-.044v1.765a4.555,4.555,0,0,1-1.392.212,2.586,2.586,0,0,1-1.882-.6,2.462,2.462,0,0,1-.608-1.824V7.789H43.25V6.075H44.26V4.1Zm6.995,9.038a2.545,2.545,0,0,1-2.117,1,2.5,2.5,0,0,1-1.974-.758,3.188,3.188,0,0,1-.67-2.179V6.075h2.468v5.149a.887.887,0,0,0,.989,1.018,1.29,1.29,0,0,0,1.208-.608V6.075h2.483V14H53.8Zm8.533-4.834-.813-.059a1.46,1.46,0,0,0-1.494.732V14H57.48V6.075h2.314l.081,1.018a1.911,1.911,0,0,1,1.736-1.165,2.407,2.407,0,0,1,.688.088ZM67.39,14a2.787,2.787,0,0,1-.234-.71,2.3,2.3,0,0,1-1.9.857,2.812,2.812,0,0,1-1.9-.677,2.156,2.156,0,0,1-.784-1.7,2.216,2.216,0,0,1,.952-1.948,4.851,4.851,0,0,1,2.769-.659h.762v-.42q0-1.1-.945-1.1a.772.772,0,0,0-.879.868H62.754a2.213,2.213,0,0,1,.978-1.865,4.109,4.109,0,0,1,2.494-.717,3.6,3.6,0,0,1,2.4.74,2.572,2.572,0,0,1,.9,2.029v3.508a3.593,3.593,0,0,0,.337,1.67V14Zm-1.545-1.611a1.377,1.377,0,0,0,.765-.2,1.239,1.239,0,0,0,.436-.447V10.477h-.718q-1.289,0-1.289,1.157a.707.707,0,0,0,.227.546A.822.822,0,0,0,65.845,12.389Zm8.467-2.41a4.841,4.841,0,0,1,.813-2.966A2.676,2.676,0,0,1,77.4,5.929a2.276,2.276,0,0,1,1.787.835V2.75h2.476V14H79.438l-.125-.85a2.337,2.337,0,0,1-1.934,1,2.671,2.671,0,0,1-2.241-1.084A4.994,4.994,0,0,1,74.312,9.979Zm2.468.154q0,2.109,1.23,2.109a1.215,1.215,0,0,0,1.172-.688V8.536a1.182,1.182,0,0,0-1.157-.7q-1.143,0-1.238,1.846Zm10.115,4.014a4.074,4.074,0,0,1-2.952-1.088,3.756,3.756,0,0,1-1.128-2.831v-.205a4.867,4.867,0,0,1,.45-2.146A3.3,3.3,0,0,1,84.58,6.438a3.969,3.969,0,0,1,2.051-.509,3.43,3.43,0,0,1,2.637,1.036,4.073,4.073,0,0,1,.967,2.889v.959H85.327a1.779,1.779,0,0,0,.579,1.047,1.722,1.722,0,0,0,1.157.381,2.218,2.218,0,0,0,1.831-.82l1.128,1.333a3.153,3.153,0,0,1-1.307,1.014A4.418,4.418,0,0,1,86.895,14.146Zm-.278-6.313q-1.084,0-1.289,1.436h2.49v-.19a1.223,1.223,0,0,0-.3-.919A1.2,1.2,0,0,0,86.616,7.833ZM93.831,14H91.355V2.75h2.476ZM.381,29.979a4.841,4.841,0,0,1,.813-2.966,2.676,2.676,0,0,1,2.271-1.084,2.276,2.276,0,0,1,1.787.835V22.75H7.727V34H5.508l-.125-.85a2.337,2.337,0,0,1-1.934,1,2.671,2.671,0,0,1-2.241-1.084A4.994,4.994,0,0,1,.381,29.979Zm2.468.154q0,2.109,1.23,2.109a1.215,1.215,0,0,0,1.172-.688V28.536a1.182,1.182,0,0,0-1.157-.7q-1.143,0-1.238,1.846Zm10.115,4.014a4.074,4.074,0,0,1-2.952-1.088,3.756,3.756,0,0,1-1.128-2.831v-.205a4.867,4.867,0,0,1,.45-2.146,3.3,3.3,0,0,1,1.315-1.439,3.969,3.969,0,0,1,2.051-.509,3.43,3.43,0,0,1,2.637,1.036,4.073,4.073,0,0,1,.967,2.889v.959H11.4a1.779,1.779,0,0,0,.579,1.047,1.722,1.722,0,0,0,1.157.381,2.218,2.218,0,0,0,1.831-.82l1.128,1.333a3.153,3.153,0,0,1-1.307,1.014A4.418,4.418,0,0,1,12.964,34.146Zm-.278-6.313q-1.084,0-1.289,1.436h2.49v-.19a1.223,1.223,0,0,0-.3-.919A1.2,1.2,0,0,0,12.686,27.833ZM24.653,30.1a4.779,4.779,0,0,1-.831,2.948,2.665,2.665,0,0,1-2.245,1.1,2.285,2.285,0,0,1-1.794-.8v3.7H17.314V26.075h2.307l.073.732a2.285,2.285,0,0,1,1.868-.879,2.687,2.687,0,0,1,2.278,1.08,4.838,4.838,0,0,1,.813,2.97Zm-2.468-.154q0-2.109-1.23-2.109a1.162,1.162,0,0,0-1.172.63v3.12a1.2,1.2,0,0,0,1.187.659q1.179,0,1.216-2.036ZM30.205,34a2.787,2.787,0,0,1-.234-.71,2.3,2.3,0,0,1-1.9.857,2.812,2.812,0,0,1-1.9-.677,2.156,2.156,0,0,1-.784-1.7,2.216,2.216,0,0,1,.952-1.948,4.851,4.851,0,0,1,2.769-.659h.762v-.42q0-1.1-.945-1.1a.772.772,0,0,0-.879.868H25.569a2.213,2.213,0,0,1,.978-1.865,4.109,4.109,0,0,1,2.494-.717,3.6,3.6,0,0,1,2.4.74,2.572,2.572,0,0,1,.9,2.029v3.508a3.593,3.593,0,0,0,.337,1.67V34ZM28.66,32.389a1.377,1.377,0,0,0,.765-.2,1.239,1.239,0,0,0,.436-.447V30.477h-.718q-1.289,0-1.289,1.157a.707.707,0,0,0,.227.546A.822.822,0,0,0,28.66,32.389Zm9.836-4.08-.813-.059a1.46,1.46,0,0,0-1.494.732V34H33.721V26.075h2.314l.081,1.018a1.911,1.911,0,0,1,1.736-1.165,2.407,2.407,0,0,1,.688.088Zm4.131-4.2v1.97h1.3v1.714h-1.3v3.625a.926.926,0,0,0,.161.623.864.864,0,0,0,.637.176,3.621,3.621,0,0,0,.615-.044v1.765a4.555,4.555,0,0,1-1.392.212,2.586,2.586,0,0,1-1.882-.6,2.462,2.462,0,0,1-.608-1.824V27.789H39.148V26.075h1.011V24.1ZM49.365,34a2.787,2.787,0,0,1-.234-.71,2.3,2.3,0,0,1-1.9.857,2.812,2.812,0,0,1-1.9-.677,2.156,2.156,0,0,1-.784-1.7,2.216,2.216,0,0,1,.952-1.948,4.851,4.851,0,0,1,2.769-.659h.762v-.42q0-1.1-.945-1.1a.772.772,0,0,0-.879.868H44.729a2.213,2.213,0,0,1,.978-1.865,4.109,4.109,0,0,1,2.494-.717,3.6,3.6,0,0,1,2.4.74,2.572,2.572,0,0,1,.9,2.029v3.508a3.593,3.593,0,0,0,.337,1.67V34ZM47.82,32.389a1.377,1.377,0,0,0,.765-.2,1.239,1.239,0,0,0,.436-.447V30.477H48.3q-1.289,0-1.289,1.157a.707.707,0,0,0,.227.546A.822.822,0,0,0,47.82,32.389ZM55.2,26.075l.081.93a2.725,2.725,0,0,1,2.263-1.077,2.006,2.006,0,0,1,2.029,1.194A2.637,2.637,0,0,1,61.9,25.929q2.41,0,2.476,2.915V34H61.9V29a1.511,1.511,0,0,0-.205-.886.873.873,0,0,0-.747-.278,1.169,1.169,0,0,0-1.091.652l.007.1V34H57.385V29.012a1.588,1.588,0,0,0-.2-.9.87.87,0,0,0-.754-.278,1.184,1.184,0,0,0-1.084.652V34H52.881V26.075Zm14.421,8.071a4.074,4.074,0,0,1-2.952-1.088,3.756,3.756,0,0,1-1.128-2.831v-.205a4.867,4.867,0,0,1,.45-2.146A3.3,3.3,0,0,1,67.3,26.438a3.969,3.969,0,0,1,2.051-.509,3.43,3.43,0,0,1,2.637,1.036,4.073,4.073,0,0,1,.967,2.889v.959H68.049a1.779,1.779,0,0,0,.579,1.047,1.722,1.722,0,0,0,1.157.381,2.218,2.218,0,0,0,1.831-.82l1.128,1.333a3.153,3.153,0,0,1-1.307,1.014A4.418,4.418,0,0,1,69.617,34.146Zm-.278-6.313q-1.084,0-1.289,1.436h2.49v-.19a1.223,1.223,0,0,0-.3-.919A1.2,1.2,0,0,0,69.338,27.833Zm6.877-1.758.081.93a2.687,2.687,0,0,1,2.263-1.077,2.261,2.261,0,0,1,1.849.74,3.522,3.522,0,0,1,.634,2.227V34H78.567V29a1.337,1.337,0,0,0-.242-.883,1.118,1.118,0,0,0-.879-.282,1.177,1.177,0,0,0-1.077.571V34H73.9V26.075Zm9.067-1.97v1.97h1.3v1.714h-1.3v3.625a.926.926,0,0,0,.161.623.864.864,0,0,0,.637.176,3.621,3.621,0,0,0,.615-.044v1.765a4.555,4.555,0,0,1-1.392.212,2.586,2.586,0,0,1-1.882-.6,2.462,2.462,0,0,1-.608-1.824V27.789H81.8V26.075h1.011V24.1Zm1.743,5.859a4.677,4.677,0,0,1,.461-2.113,3.3,3.3,0,0,1,1.326-1.425,3.993,3.993,0,0,1,2.029-.5,3.644,3.644,0,0,1,2.805,1.1,4.23,4.23,0,0,1,1.025,3v.088a4.1,4.1,0,0,1-1.029,2.941,3.654,3.654,0,0,1-2.787,1.088,3.7,3.7,0,0,1-2.717-1.014,3.968,3.968,0,0,1-1.106-2.75Zm2.468.154a2.949,2.949,0,0,0,.344,1.611,1.147,1.147,0,0,0,1.018.513q1.318,0,1.348-2.029v-.249q0-2.131-1.362-2.131-1.238,0-1.34,1.838Zm9.69-.139A4.841,4.841,0,0,1,100,27.013a2.676,2.676,0,0,1,2.271-1.084,2.276,2.276,0,0,1,1.787.835V22.75h2.476V34h-2.219l-.125-.85a2.337,2.337,0,0,1-1.934,1,2.671,2.671,0,0,1-2.241-1.084A4.994,4.994,0,0,1,99.185,29.979Zm2.468.154q0,2.109,1.23,2.109a1.215,1.215,0,0,0,1.172-.688V28.536a1.182,1.182,0,0,0-1.157-.7q-1.143,0-1.238,1.846Zm10.115,4.014a4.074,4.074,0,0,1-2.952-1.088,3.756,3.756,0,0,1-1.128-2.831v-.205a4.867,4.867,0,0,1,.45-2.146,3.3,3.3,0,0,1,1.315-1.439,3.969,3.969,0,0,1,2.051-.509,3.43,3.43,0,0,1,2.637,1.036,4.073,4.073,0,0,1,.967,2.889v.959H110.2a1.779,1.779,0,0,0,.579,1.047,1.722,1.722,0,0,0,1.157.381,2.218,2.218,0,0,0,1.831-.82l1.128,1.333a3.153,3.153,0,0,1-1.307,1.014A4.418,4.418,0,0,1,111.768,34.146Zm-.278-6.313q-1.084,0-1.289,1.436h2.49v-.19a1.223,1.223,0,0,0-.3-.919A1.2,1.2,0,0,0,111.489,27.833ZM3.025,46.075l.081.93a2.725,2.725,0,0,1,2.263-1.077A2.006,2.006,0,0,1,7.4,47.123a2.637,2.637,0,0,1,2.329-1.194q2.41,0,2.476,2.915V54H9.727V49a1.511,1.511,0,0,0-.205-.886.873.873,0,0,0-.747-.278,1.169,1.169,0,0,0-1.091.652l.007.1V54H5.215V49.012a1.588,1.588,0,0,0-.2-.9.87.87,0,0,0-.754-.278,1.184,1.184,0,0,0-1.084.652V54H.71V46.075Zm14.421,8.071a4.074,4.074,0,0,1-2.952-1.088,3.756,3.756,0,0,1-1.128-2.831v-.205a4.867,4.867,0,0,1,.45-2.146,3.3,3.3,0,0,1,1.315-1.439,3.969,3.969,0,0,1,2.051-.509,3.43,3.43,0,0,1,2.637,1.036,4.073,4.073,0,0,1,.967,2.889v.959H15.879a1.779,1.779,0,0,0,.579,1.047,1.722,1.722,0,0,0,1.157.381,2.218,2.218,0,0,0,1.831-.82l1.128,1.333a3.153,3.153,0,0,1-1.307,1.014A4.418,4.418,0,0,1,17.446,54.146Zm-.278-6.313q-1.084,0-1.289,1.436h2.49v-.19a1.223,1.223,0,0,0-.3-.919A1.2,1.2,0,0,0,17.168,47.833Zm9.4.476-.813-.059a1.46,1.46,0,0,0-1.494.732V54H21.8V46.075h2.314l.081,1.018a1.911,1.911,0,0,1,1.736-1.165,2.407,2.407,0,0,1,.688.088Zm4.1,3.933a1.1,1.1,0,0,0,.806-.282,1.034,1.034,0,0,0,.278-.787h2.314a2.74,2.74,0,0,1-.934,2.139,3.474,3.474,0,0,1-2.406.835,3.517,3.517,0,0,1-2.725-1.084,4.271,4.271,0,0,1-1-3v-.1a4.827,4.827,0,0,1,.443-2.12,3.226,3.226,0,0,1,1.278-1.414,3.811,3.811,0,0,1,1.978-.494,3.43,3.43,0,0,1,2.454.857,3.039,3.039,0,0,1,.908,2.322H31.758a1.355,1.355,0,0,0-.3-.945,1.037,1.037,0,0,0-.806-.33q-.959,0-1.121,1.223a8.631,8.631,0,0,0-.051,1.069,3.39,3.39,0,0,0,.286,1.655A.989.989,0,0,0,30.674,52.242ZM39.58,54a2.787,2.787,0,0,1-.234-.71,2.3,2.3,0,0,1-1.9.857,2.812,2.812,0,0,1-1.9-.677,2.156,2.156,0,0,1-.784-1.7,2.216,2.216,0,0,1,.952-1.948,4.851,4.851,0,0,1,2.769-.659h.762v-.42q0-1.1-.945-1.1a.772.772,0,0,0-.879.868H34.944a2.213,2.213,0,0,1,.978-1.865,4.109,4.109,0,0,1,2.494-.717,3.6,3.6,0,0,1,2.4.74,2.572,2.572,0,0,1,.9,2.029v3.508a3.593,3.593,0,0,0,.337,1.67V54Zm-1.545-1.611a1.377,1.377,0,0,0,.765-.2,1.239,1.239,0,0,0,.436-.447V50.477h-.718q-1.289,0-1.289,1.157a.707.707,0,0,0,.227.546A.822.822,0,0,0,38.035,52.389Zm4.731-2.41a4.841,4.841,0,0,1,.813-2.966,2.676,2.676,0,0,1,2.271-1.084,2.276,2.276,0,0,1,1.787.835V42.75h2.476V54H47.893l-.125-.85a2.337,2.337,0,0,1-1.934,1,2.671,2.671,0,0,1-2.241-1.084A4.994,4.994,0,0,1,42.766,49.979Zm2.468.154q0,2.109,1.23,2.109a1.215,1.215,0,0,0,1.172-.688V48.536a1.182,1.182,0,0,0-1.157-.7q-1.143,0-1.238,1.846Zm10.115,4.014A4.074,4.074,0,0,1,52.4,53.059a3.756,3.756,0,0,1-1.128-2.831v-.205a4.867,4.867,0,0,1,.45-2.146,3.3,3.3,0,0,1,1.315-1.439,3.969,3.969,0,0,1,2.051-.509,3.43,3.43,0,0,1,2.637,1.036,4.073,4.073,0,0,1,.967,2.889v.959H53.782a1.779,1.779,0,0,0,.579,1.047,1.722,1.722,0,0,0,1.157.381,2.218,2.218,0,0,0,1.831-.82l1.128,1.333a3.153,3.153,0,0,1-1.307,1.014A4.418,4.418,0,0,1,55.349,54.146Zm-.278-6.313q-1.084,0-1.289,1.436h2.49v-.19a1.223,1.223,0,0,0-.3-.919A1.2,1.2,0,0,0,55.071,47.833Zm4.3,2.131a4.677,4.677,0,0,1,.461-2.113,3.3,3.3,0,0,1,1.326-1.425,3.993,3.993,0,0,1,2.029-.5,3.644,3.644,0,0,1,2.805,1.1,4.23,4.23,0,0,1,1.025,3v.088a4.1,4.1,0,0,1-1.029,2.941A3.654,3.654,0,0,1,63.2,54.146a3.7,3.7,0,0,1-2.717-1.014,3.968,3.968,0,0,1-1.106-2.75Zm2.468.154a2.949,2.949,0,0,0,.344,1.611,1.147,1.147,0,0,0,1.018.513q1.318,0,1.348-2.029v-.249q0-2.131-1.362-2.131-1.238,0-1.34,1.838ZM69.631,51.6a1.405,1.405,0,0,1,.974.348,1.214,1.214,0,0,1,0,1.78,1.537,1.537,0,0,1-1.952,0,1.214,1.214,0,0,1,0-1.772A1.393,1.393,0,0,1,69.631,51.6Z" transform="translate(511.816 4425)" fill="#12263f"/>
    <path id="Trazado_913904" data-name="Trazado 913904" d="M13.363,0A13.363,13.363,0,0,1,26.726,13.363V27.544A13.363,13.363,0,0,1,0,27.544V13.363A13.363,13.363,0,0,1,13.363,0Z" transform="translate(441.275 4426.396)" fill="#4b96e3"/>
    <g id="Grupo_1102502" data-name="Grupo 1102502" transform="translate(441.275 4424.951)">
      <g id="Grupo_1102377" data-name="Grupo 1102377" clip-path="url(#clip-path-7)">
        <path id="Trazado_912769-2" data-name="Trazado 912769" d="M69.52,13.364a.412.412,0,0,1-.292-.121L66.445,10.46a.413.413,0,0,1,.584-.584l2.783,2.783a.413.413,0,0,1-.292.705" transform="translate(-43.774 -6.439)" fill="#12263f"/>
        <path id="Trazado_912770" data-name="Trazado 912770" d="M66.737,13.364a.413.413,0,0,1-.292-.705l2.783-2.783a.413.413,0,0,1,.584.584l-2.783,2.783a.413.413,0,0,1-.292.121" transform="translate(-43.775 -6.439)" fill="#12263f"/>
        <path id="Trazado_912771" data-name="Trazado 912771" d="M154.911,76.084a.412.412,0,0,1-.292-.121l-1.59-1.59a.413.413,0,0,1,.584-.584l1.59,1.59a.413.413,0,0,1-.292.705" transform="translate(-100.92 -48.622)" fill="#12263f"/>
        <path id="Trazado_912772" data-name="Trazado 912772" d="M153.321,76.085a.413.413,0,0,1-.292-.705l1.59-1.59a.413.413,0,1,1,.584.584l-1.59,1.59a.413.413,0,0,1-.292.121" transform="translate(-100.921 -48.622)" fill="#12263f"/>
        <path id="Trazado_912773" data-name="Trazado 912773" d="M8.971,112.927H.309a.309.309,0,0,1,0-.617H8.971a.309.309,0,0,1,0,.617" transform="translate(0 -74.126)" fill="#12263f"/>
        <path id="Trazado_912774" data-name="Trazado 912774" d="M178.853,112.927h-7.482a.309.309,0,0,1,0-.617h7.482a.309.309,0,0,1,0,.617" transform="translate(-112.902 -74.126)" fill="#12263f"/>
        <path id="Trazado_912775" data-name="Trazado 912775" d="M80.01,112.927h-44.4a.309.309,0,0,1,0-.617h44.4a.309.309,0,0,1,0,.617" transform="translate(-23.297 -74.126)" fill="#12263f"/>
        <path id="Trazado_912776" data-name="Trazado 912776" d="M36.908,123.966H29.815a.154.154,0,0,1,0-.309h7.092a.154.154,0,0,1,0,.309" transform="translate(-19.577 -81.615)" fill="#12263f"/>
        <path id="Trazado_912777" data-name="Trazado 912777" d="M70.474,123.966h-7.1a.154.154,0,1,1,0-.309h7.1a.154.154,0,0,1,0,.309" transform="translate(-41.727 -81.615)" fill="#12263f"/>
        <path id="Trazado_912778" data-name="Trazado 912778" d="M110.8,123.966H96.177a.154.154,0,1,1,0-.309H110.8a.154.154,0,1,1,0,.309" transform="translate(-63.376 -81.615)" fill="#12263f"/>
        <path id="Trazado_912779" data-name="Trazado 912779" d="M160.176,123.966h-8.318a.154.154,0,1,1,0-.309h8.318a.154.154,0,0,1,0,.309" transform="translate(-100.126 -81.615)" fill="#12263f"/>
        <path id="Trazado_912780" data-name="Trazado 912780" d="M105.159,4.336a2.168,2.168,0,1,1,2.168-2.168,2.17,2.17,0,0,1-2.168,2.168m0-3.51A1.342,1.342,0,1,0,106.5,2.167,1.344,1.344,0,0,0,105.159.825" transform="translate(-67.975 0.001)" fill="#12263f"/>
        <path id="Trazado_912781" data-name="Trazado 912781" d="M32,48.36a2.168,2.168,0,1,1,2.168-2.168A2.171,2.171,0,0,1,32,48.36m0-3.51a1.342,1.342,0,1,0,1.342,1.342A1.344,1.344,0,0,0,32,44.849" transform="translate(-19.687 -29.056)" fill="#12263f"/>
        <path id="Trazado_912782" data-name="Trazado 912782" d="M152.3,43.963a1.354,1.354,0,1,1,1.354-1.354,1.355,1.355,0,0,1-1.354,1.354m0-1.882a.528.528,0,1,0,.528.528.528.528,0,0,0-.528-.528" transform="translate(-99.624 -27.229)" fill="#12263f"/>
        <path id="Trazado_912783" data-name="Trazado 912783" d="M66.34,59.942a.617.617,0,0,1-.617-.617V33.033a.617.617,0,0,1,1.235,0V59.325a.617.617,0,0,1-.617.617" transform="translate(-43.378 -21.395)" fill="#12263f"/>
        <path id="Trazado_912784" data-name="Trazado 912784" d="M80.966,103.379H54.674a.617.617,0,1,1,0-1.235H80.966a.617.617,0,1,1,0,1.235" transform="translate(-35.678 -67.416)" fill="#12263f"/>
        <path id="Trazado_912785" data-name="Trazado 912785" d="M81.222,79.4a2,2,0,1,1,2-2,2,2,0,0,1-2,2m0-2.763a.764.764,0,1,0,.764.764.765.765,0,0,0-.764-.764" transform="translate(-52.288 -49.769)" fill="#12263f"/>
        <path id="Trazado_912786" data-name="Trazado 912786" d="M103.373,75.34a2,2,0,1,1,2-2,2,2,0,0,1-2,2m0-2.763a.764.764,0,1,0,.764.764.765.765,0,0,0-.764-.764" transform="translate(-66.908 -47.087)" fill="#12263f"/>
        <path id="Trazado_912787" data-name="Trazado 912787" d="M120.4,55.457a2,2,0,1,1,2-2,2,2,0,0,1-2,2m0-2.763a.764.764,0,1,0,.764.764.765.765,0,0,0-.764-.764" transform="translate(-78.144 -33.964)" fill="#12263f"/>
        <path id="Trazado_912788" data-name="Trazado 912788" d="M66.34,90.456a.617.617,0,0,1-.5-.973l4.956-7.016a.617.617,0,1,1,1.008.713L66.844,90.2a.616.616,0,0,1-.5.261" transform="translate(-43.378 -54.256)" fill="#12263f"/>
        <path id="Trazado_912789" data-name="Trazado 912789" d="M87.3,78.076a.617.617,0,0,1-.026-1.234l4.994-.212a.625.625,0,0,1,.643.591.617.617,0,0,1-.59.643l-4.994.212H87.3" transform="translate(-57.214 -50.576)" fill="#12263f"/>
        <path id="Trazado_912790" data-name="Trazado 912790" d="M108.911,64.558a.617.617,0,0,1-.475-1.011l3.918-4.737a.617.617,0,0,1,.951.787l-3.918,4.737a.616.616,0,0,1-.476.224" transform="translate(-71.475 -38.667)" fill="#12263f"/>
      </g>
    </g>
    <path id="Trazado_913899" data-name="Trazado 913899" d="M26,0H202.738a26,26,0,0,1,26,26V65.061a26,26,0,0,1-26,26H26a26,26,0,0,1-26-26V26A26,26,0,0,1,26,0Z" transform="translate(685.631 4410.357)" fill="#4b96e3" opacity="0.3"/>
    <path id="Trazado_913900" data-name="Trazado 913900" d="M6.863,12.008H3.34L2.725,14H-.022L3.889,3.336H6.306L10.247,14H7.485ZM3.955,10.023H6.248L5.1,6.324Zm11.1,1.75a.57.57,0,0,0-.33-.505,5.013,5.013,0,0,0-1.252-.4,5.711,5.711,0,0,1-1.523-.538,2.552,2.552,0,0,1-.916-.809,1.933,1.933,0,0,1-.315-1.091,2.19,2.19,0,0,1,.9-1.8,3.711,3.711,0,0,1,2.358-.707,4.112,4.112,0,0,1,2.52.71,2.222,2.222,0,0,1,.952,1.868H14.978q0-.952-1-.952a1,1,0,0,0-.652.216.669.669,0,0,0-.264.538.614.614,0,0,0,.322.535,3.045,3.045,0,0,0,1.029.337,8.893,8.893,0,0,1,1.241.315,2.255,2.255,0,0,1,1.787,2.2,2.075,2.075,0,0,1-.963,1.765,4.224,4.224,0,0,1-2.494.681,4.31,4.31,0,0,1-1.816-.366,3.037,3.037,0,0,1-1.245-1,2.256,2.256,0,0,1-.447-1.326h2.307a.954.954,0,0,0,.366.8,1.506,1.506,0,0,0,.9.253,1.185,1.185,0,0,0,.758-.205A.656.656,0,0,0,15.059,11.773ZM21.2,14H18.721V6.075H21.2ZM18.574,4.032a1.1,1.1,0,0,1,.381-.864,1.619,1.619,0,0,1,1.978,0,1.1,1.1,0,0,1,.381.864,1.1,1.1,0,0,1-.381.864,1.619,1.619,0,0,1-1.978,0A1.1,1.1,0,0,1,18.574,4.032Zm3.853,5.947a5.351,5.351,0,0,1,.4-2.124A3.184,3.184,0,0,1,23.958,6.43a2.993,2.993,0,0,1,1.721-.5,2.379,2.379,0,0,1,1.934.835l.088-.688h2.241V13.7a3.341,3.341,0,0,1-.487,1.82,3.125,3.125,0,0,1-1.41,1.187,5.182,5.182,0,0,1-2.139.414,4.471,4.471,0,0,1-1.688-.33,3.047,3.047,0,0,1-1.249-.857L24,14.483a2.263,2.263,0,0,0,1.816.813,1.47,1.47,0,0,0,1.641-1.685v-.249a2.318,2.318,0,0,1-1.794.784,2.864,2.864,0,0,1-2.344-1.11,4.6,4.6,0,0,1-.894-2.97Zm2.476.154a2.819,2.819,0,0,0,.366,1.542,1.155,1.155,0,0,0,1.025.568,1.311,1.311,0,0,0,1.165-.535V8.375a1.278,1.278,0,0,0-1.15-.542,1.163,1.163,0,0,0-1.033.59A3.215,3.215,0,0,0,24.9,10.133Zm8.708-4.058.081.93a2.687,2.687,0,0,1,2.263-1.077,2.261,2.261,0,0,1,1.849.74A3.522,3.522,0,0,1,38.438,8.9V14H35.962V9a1.337,1.337,0,0,0-.242-.883,1.118,1.118,0,0,0-.879-.282,1.177,1.177,0,0,0-1.077.571V14H31.3V6.075ZM44.268,14a2.787,2.787,0,0,1-.234-.71,2.3,2.3,0,0,1-1.9.857,2.812,2.812,0,0,1-1.9-.677,2.156,2.156,0,0,1-.784-1.7,2.216,2.216,0,0,1,.952-1.948,4.851,4.851,0,0,1,2.769-.659h.762v-.42q0-1.1-.945-1.1a.772.772,0,0,0-.879.868H39.631a2.213,2.213,0,0,1,.978-1.865A4.109,4.109,0,0,1,43.1,5.929a3.6,3.6,0,0,1,2.4.74A2.572,2.572,0,0,1,46.4,8.7v3.508a3.593,3.593,0,0,0,.337,1.67V14Zm-1.545-1.611a1.377,1.377,0,0,0,.765-.2,1.239,1.239,0,0,0,.436-.447V10.477h-.718q-1.289,0-1.289,1.157a.707.707,0,0,0,.227.546A.822.822,0,0,0,42.722,12.389Zm8.394-.146a1.1,1.1,0,0,0,.806-.282,1.034,1.034,0,0,0,.278-.787h2.314a2.74,2.74,0,0,1-.934,2.139,3.474,3.474,0,0,1-2.406.835,3.517,3.517,0,0,1-2.725-1.084,4.271,4.271,0,0,1-1-3v-.1a4.827,4.827,0,0,1,.443-2.12,3.226,3.226,0,0,1,1.278-1.414,3.811,3.811,0,0,1,1.978-.494,3.43,3.43,0,0,1,2.454.857,3.039,3.039,0,0,1,.908,2.322H52.2a1.355,1.355,0,0,0-.3-.945,1.037,1.037,0,0,0-.806-.33q-.959,0-1.121,1.223a8.631,8.631,0,0,0-.051,1.069,3.39,3.39,0,0,0,.286,1.655A.989.989,0,0,0,51.116,12.242ZM58.162,14H55.686V6.075h2.476ZM55.54,4.032a1.1,1.1,0,0,1,.381-.864,1.619,1.619,0,0,1,1.978,0,1.1,1.1,0,0,1,.381.864A1.1,1.1,0,0,1,57.9,4.9a1.619,1.619,0,0,1-1.978,0A1.1,1.1,0,0,1,55.54,4.032ZM59.37,9.964a4.677,4.677,0,0,1,.461-2.113,3.3,3.3,0,0,1,1.326-1.425,3.993,3.993,0,0,1,2.029-.5,3.644,3.644,0,0,1,2.805,1.1,4.23,4.23,0,0,1,1.025,3v.088a4.1,4.1,0,0,1-1.029,2.941A3.654,3.654,0,0,1,63.2,14.146a3.7,3.7,0,0,1-2.717-1.014,3.968,3.968,0,0,1-1.106-2.75Zm2.468.154a2.949,2.949,0,0,0,.344,1.611,1.147,1.147,0,0,0,1.018.513q1.318,0,1.348-2.029V9.964q0-2.131-1.362-2.131-1.238,0-1.34,1.838ZM63.523,2.75H66.13l-2.036,2.3-2.014,0Zm6.848,3.325.081.93a2.687,2.687,0,0,1,2.263-1.077,2.261,2.261,0,0,1,1.849.74A3.522,3.522,0,0,1,75.2,8.9V14H72.722V9a1.337,1.337,0,0,0-.242-.883,1.118,1.118,0,0,0-.879-.282,1.177,1.177,0,0,0-1.077.571V14H68.057V6.075Zm9.617,3.9A4.841,4.841,0,0,1,80.8,7.013a2.676,2.676,0,0,1,2.271-1.084,2.276,2.276,0,0,1,1.787.835V2.75h2.476V14H85.115l-.125-.85a2.337,2.337,0,0,1-1.934,1,2.671,2.671,0,0,1-2.241-1.084A4.994,4.994,0,0,1,79.988,9.979Zm2.468.154q0,2.109,1.23,2.109a1.215,1.215,0,0,0,1.172-.688V8.536a1.182,1.182,0,0,0-1.157-.7q-1.143,0-1.238,1.846Zm10.115,4.014a4.074,4.074,0,0,1-2.952-1.088,3.756,3.756,0,0,1-1.128-2.831v-.205a4.867,4.867,0,0,1,.45-2.146,3.3,3.3,0,0,1,1.315-1.439,3.969,3.969,0,0,1,2.051-.509,3.43,3.43,0,0,1,2.637,1.036,4.073,4.073,0,0,1,.967,2.889v.959H91a1.779,1.779,0,0,0,.579,1.047,1.722,1.722,0,0,0,1.157.381,2.218,2.218,0,0,0,1.831-.82L95.7,12.755a3.153,3.153,0,0,1-1.307,1.014A4.418,4.418,0,0,1,92.571,14.146Zm-.278-6.313q-1.084,0-1.289,1.436h2.49v-.19a1.223,1.223,0,0,0-.3-.919A1.2,1.2,0,0,0,92.292,7.833ZM5.486,28.309l-.813-.059a1.46,1.46,0,0,0-1.494.732V34H.71V26.075H3.025l.081,1.018a1.911,1.911,0,0,1,1.736-1.165,2.407,2.407,0,0,1,.688.088Zm4.585,5.837a4.074,4.074,0,0,1-2.952-1.088,3.756,3.756,0,0,1-1.128-2.831v-.205a4.867,4.867,0,0,1,.45-2.146,3.3,3.3,0,0,1,1.315-1.439,3.969,3.969,0,0,1,2.051-.509,3.43,3.43,0,0,1,2.637,1.036,4.073,4.073,0,0,1,.967,2.889v.959H8.5a1.779,1.779,0,0,0,.579,1.047,1.722,1.722,0,0,0,1.157.381,2.218,2.218,0,0,0,1.831-.82L13.2,32.755a3.153,3.153,0,0,1-1.307,1.014A4.418,4.418,0,0,1,10.071,34.146Zm-.278-6.313q-1.084,0-1.289,1.436h2.49v-.19a1.223,1.223,0,0,0-.3-.919A1.2,1.2,0,0,0,9.792,27.833Zm8.76,3.94a.57.57,0,0,0-.33-.505,5.013,5.013,0,0,0-1.252-.4,5.711,5.711,0,0,1-1.523-.538,2.552,2.552,0,0,1-.916-.809,1.933,1.933,0,0,1-.315-1.091,2.19,2.19,0,0,1,.9-1.8,3.711,3.711,0,0,1,2.358-.707,4.112,4.112,0,0,1,2.52.71,2.222,2.222,0,0,1,.952,1.868H18.472q0-.952-1-.952a1,1,0,0,0-.652.216.669.669,0,0,0-.264.538.614.614,0,0,0,.322.535,3.045,3.045,0,0,0,1.029.337,8.893,8.893,0,0,1,1.241.315,2.255,2.255,0,0,1,1.787,2.2,2.075,2.075,0,0,1-.963,1.765,4.224,4.224,0,0,1-2.494.681,4.31,4.31,0,0,1-1.816-.366,3.037,3.037,0,0,1-1.245-1,2.256,2.256,0,0,1-.447-1.326h2.307a.954.954,0,0,0,.366.8,1.506,1.506,0,0,0,.9.253,1.185,1.185,0,0,0,.758-.205A.656.656,0,0,0,18.552,31.773ZM29.443,30.1a4.779,4.779,0,0,1-.831,2.948,2.665,2.665,0,0,1-2.245,1.1,2.285,2.285,0,0,1-1.794-.8v3.7H22.1V26.075h2.307l.073.732a2.285,2.285,0,0,1,1.868-.879,2.687,2.687,0,0,1,2.278,1.08,4.838,4.838,0,0,1,.813,2.97Zm-2.468-.154q0-2.109-1.23-2.109a1.162,1.162,0,0,0-1.172.63v3.12a1.2,1.2,0,0,0,1.187.659q1.179,0,1.216-2.036Zm3.245.022a4.677,4.677,0,0,1,.461-2.113,3.3,3.3,0,0,1,1.326-1.425,3.993,3.993,0,0,1,2.029-.5,3.644,3.644,0,0,1,2.805,1.1,4.23,4.23,0,0,1,1.025,3v.088a4.1,4.1,0,0,1-1.029,2.941,3.654,3.654,0,0,1-2.787,1.088,3.7,3.7,0,0,1-2.717-1.014,3.968,3.968,0,0,1-1.106-2.75Zm2.468.154a2.949,2.949,0,0,0,.344,1.611,1.147,1.147,0,0,0,1.018.513q1.318,0,1.348-2.029v-.249q0-2.131-1.362-2.131-1.238,0-1.34,1.838Zm8.533-4.043.081.93a2.687,2.687,0,0,1,2.263-1.077,2.261,2.261,0,0,1,1.849.74,3.522,3.522,0,0,1,.634,2.227V34H43.572V29a1.337,1.337,0,0,0-.242-.883,1.118,1.118,0,0,0-.879-.282,1.177,1.177,0,0,0-1.077.571V34H38.906V26.075Zm10.342,5.7a.57.57,0,0,0-.33-.505,5.013,5.013,0,0,0-1.252-.4,5.711,5.711,0,0,1-1.523-.538,2.552,2.552,0,0,1-.916-.809,1.933,1.933,0,0,1-.315-1.091,2.19,2.19,0,0,1,.9-1.8,3.711,3.711,0,0,1,2.358-.707,4.112,4.112,0,0,1,2.52.71,2.222,2.222,0,0,1,.952,1.868H51.482q0-.952-1-.952a1,1,0,0,0-.652.216.669.669,0,0,0-.264.538.614.614,0,0,0,.322.535,3.045,3.045,0,0,0,1.029.337,8.893,8.893,0,0,1,1.241.315,2.255,2.255,0,0,1,1.787,2.2,2.075,2.075,0,0,1-.963,1.765,4.224,4.224,0,0,1-2.494.681,4.31,4.31,0,0,1-1.816-.366,3.037,3.037,0,0,1-1.245-1,2.256,2.256,0,0,1-.447-1.326h2.307a.954.954,0,0,0,.366.8,1.506,1.506,0,0,0,.9.253,1.185,1.185,0,0,0,.758-.205A.656.656,0,0,0,51.563,31.773Zm8,2.227a2.787,2.787,0,0,1-.234-.71,2.3,2.3,0,0,1-1.9.857,2.812,2.812,0,0,1-1.9-.677,2.156,2.156,0,0,1-.784-1.7,2.216,2.216,0,0,1,.952-1.948,4.851,4.851,0,0,1,2.769-.659h.762v-.42q0-1.1-.945-1.1a.772.772,0,0,0-.879.868H54.924a2.213,2.213,0,0,1,.978-1.865,4.109,4.109,0,0,1,2.494-.717,3.6,3.6,0,0,1,2.4.74,2.572,2.572,0,0,1,.9,2.029v3.508a3.593,3.593,0,0,0,.337,1.67V34Zm-1.545-1.611a1.377,1.377,0,0,0,.765-.2,1.239,1.239,0,0,0,.436-.447V30.477H58.5q-1.289,0-1.289,1.157a.707.707,0,0,0,.227.546A.822.822,0,0,0,58.015,32.389Zm12.4-2.285a4.83,4.83,0,0,1-.806,3,2.7,2.7,0,0,1-2.271,1.047,2.342,2.342,0,0,1-1.948-.959l-.1.813H63.076V22.75h2.468v3.962a2.259,2.259,0,0,1,1.78-.784,2.7,2.7,0,0,1,2.285,1.062,4.855,4.855,0,0,1,.806,2.988Zm-2.476-.157a3.222,3.222,0,0,0-.3-1.627,1.025,1.025,0,0,0-.934-.486,1.182,1.182,0,0,0-1.157.636v3.144a1.188,1.188,0,0,0,1.172.629,1.048,1.048,0,0,0,1.106-.848A6.091,6.091,0,0,0,67.939,29.946ZM74.106,34H71.631V26.075h2.476Zm-2.622-9.968a1.1,1.1,0,0,1,.381-.864,1.619,1.619,0,0,1,1.978,0,1.171,1.171,0,0,1,0,1.729,1.619,1.619,0,0,1-1.978,0A1.1,1.1,0,0,1,71.484,24.032ZM78.23,34H75.754V22.75H78.23Zm4.124,0H79.878V26.075h2.476Zm-2.622-9.968a1.1,1.1,0,0,1,.381-.864,1.619,1.619,0,0,1,1.978,0,1.171,1.171,0,0,1,0,1.729,1.619,1.619,0,0,1-1.978,0A1.1,1.1,0,0,1,79.731,24.032Zm3.831,5.947a4.841,4.841,0,0,1,.813-2.966,2.676,2.676,0,0,1,2.271-1.084,2.276,2.276,0,0,1,1.787.835V22.75h2.476V34H88.689l-.125-.85a2.337,2.337,0,0,1-1.934,1,2.671,2.671,0,0,1-2.241-1.084A4.994,4.994,0,0,1,83.562,29.979Zm2.468.154q0,2.109,1.23,2.109a1.215,1.215,0,0,0,1.172-.688V28.536a1.182,1.182,0,0,0-1.157-.7q-1.143,0-1.238,1.846ZM96.775,34a2.787,2.787,0,0,1-.234-.71,2.3,2.3,0,0,1-1.9.857,2.812,2.812,0,0,1-1.9-.677,2.156,2.156,0,0,1-.784-1.7,2.216,2.216,0,0,1,.952-1.948,4.851,4.851,0,0,1,2.769-.659h.762v-.42q0-1.1-.945-1.1a.772.772,0,0,0-.879.868H92.139a2.213,2.213,0,0,1,.978-1.865,4.109,4.109,0,0,1,2.494-.717,3.6,3.6,0,0,1,2.4.74,2.572,2.572,0,0,1,.9,2.029v3.508a3.593,3.593,0,0,0,.337,1.67V34Zm-1.545-1.611a1.377,1.377,0,0,0,.765-.2,1.239,1.239,0,0,0,.436-.447V30.477h-.718q-1.289,0-1.289,1.157a.707.707,0,0,0,.227.546A.822.822,0,0,0,95.229,32.389Zm4.731-2.41a4.841,4.841,0,0,1,.813-2.966,2.676,2.676,0,0,1,2.271-1.084,2.276,2.276,0,0,1,1.787.835V22.75h2.476V34h-2.219l-.125-.85a2.337,2.337,0,0,1-1.934,1,2.671,2.671,0,0,1-2.241-1.084A4.994,4.994,0,0,1,99.961,29.979Zm2.468.154q0,2.109,1.23,2.109a1.215,1.215,0,0,0,1.172-.688V28.536a1.182,1.182,0,0,0-1.157-.7q-1.143,0-1.238,1.846Zm10.115,4.014a4.074,4.074,0,0,1-2.952-1.088,3.756,3.756,0,0,1-1.128-2.831v-.205a4.867,4.867,0,0,1,.45-2.146,3.3,3.3,0,0,1,1.315-1.439,3.969,3.969,0,0,1,2.051-.509,3.43,3.43,0,0,1,2.637,1.036,4.073,4.073,0,0,1,.967,2.889v.959h-4.907a1.779,1.779,0,0,0,.579,1.047,1.722,1.722,0,0,0,1.157.381,2.218,2.218,0,0,0,1.831-.82l1.128,1.333a3.153,3.153,0,0,1-1.307,1.014A4.418,4.418,0,0,1,112.544,34.146Zm-.278-6.313q-1.084,0-1.289,1.436h2.49v-.19a1.223,1.223,0,0,0-.3-.919A1.2,1.2,0,0,0,112.266,27.833Zm8.76,3.94a.57.57,0,0,0-.33-.505,5.013,5.013,0,0,0-1.252-.4,5.711,5.711,0,0,1-1.523-.538,2.552,2.552,0,0,1-.916-.809,1.933,1.933,0,0,1-.315-1.091,2.19,2.19,0,0,1,.9-1.8,3.711,3.711,0,0,1,2.358-.707,4.112,4.112,0,0,1,2.52.71,2.222,2.222,0,0,1,.952,1.868h-2.476q0-.952-1-.952a1,1,0,0,0-.652.216.669.669,0,0,0-.264.538.614.614,0,0,0,.322.535,3.045,3.045,0,0,0,1.029.337,8.893,8.893,0,0,1,1.241.315,2.255,2.255,0,0,1,1.787,2.2,2.075,2.075,0,0,1-.963,1.765,4.224,4.224,0,0,1-2.494.681,4.31,4.31,0,0,1-1.816-.366,3.037,3.037,0,0,1-1.245-1,2.256,2.256,0,0,1-.447-1.326h2.307a.954.954,0,0,0,.366.8,1.506,1.506,0,0,0,.9.253,1.185,1.185,0,0,0,.758-.205A.656.656,0,0,0,121.025,31.773Zm5.061-.168a1.405,1.405,0,0,1,.974.348,1.214,1.214,0,0,1,0,1.78,1.537,1.537,0,0,1-1.952,0,1.214,1.214,0,0,1,0-1.772A1.393,1.393,0,0,1,126.086,31.6Z" transform="translate(770.631 4435)" fill="#12263f"/>
    <path id="Trazado_913901" data-name="Trazado 913901" d="M13.363,0A13.363,13.363,0,0,1,26.726,13.363V27.544A13.363,13.363,0,0,1,0,27.544V13.363A13.363,13.363,0,0,1,13.363,0Z" transform="translate(700.091 4426.645)" fill="#4b96e3"/>
    <g id="Grupo_1102385" data-name="Grupo 1102385" transform="translate(700.091 4430.14)">
      <g id="Grupo_1102380" data-name="Grupo 1102380">
        <g id="Grupo_1102379" data-name="Grupo 1102379" clip-path="url(#clip-path-8)">
          <path id="Línea_679-3" data-name="Línea 679" d="M7.485-.33h-8.1A.289.289,0,0,1-.908-.619.289.289,0,0,1-.619-.908h8.1a.289.289,0,0,1,.289.289A.289.289,0,0,1,7.485-.33Z" transform="translate(0.908 34.187)" fill="#12263f"/>
          <path id="Línea_680-3" data-name="Línea 680" d="M6.38-.33h-7A.289.289,0,0,1-.908-.619.289.289,0,0,1-.619-.908h7a.289.289,0,0,1,.289.289A.289.289,0,0,1,6.38-.33Z" transform="translate(55.317 34.187)" fill="#12263f"/>
        </g>
      </g>
      <path id="Línea_681-3" data-name="Línea 681" d="M40.921-.33H-.619A.289.289,0,0,1-.908-.619.289.289,0,0,1-.619-.908h41.54a.289.289,0,0,1,.289.289A.289.289,0,0,1,40.921-.33Z" transform="translate(12.135 34.187)" fill="#12263f"/>
      <g id="Grupo_1102382" data-name="Grupo 1102382">
        <g id="Grupo_1102381" data-name="Grupo 1102381" clip-path="url(#clip-path-8)">
          <path id="Línea_682-3" data-name="Línea 682" d="M6.325-.165H-.31A.144.144,0,0,1-.454-.31.144.144,0,0,1-.31-.454H6.325A.144.144,0,0,1,6.47-.31.144.144,0,0,1,6.325-.165Z" transform="translate(9.888 37.343)" fill="#12263f"/>
          <path id="Línea_683-3" data-name="Línea 683" d="M6.33-.165H-.31A.144.144,0,0,1-.454-.31.144.144,0,0,1-.31-.454H6.33a.144.144,0,0,1,.144.144A.144.144,0,0,1,6.33-.165Z" transform="translate(20.563 37.343)" fill="#12263f"/>
          <path id="Línea_684-3" data-name="Línea 684" d="M13.367-.165H-.31A.144.144,0,0,1-.454-.31.144.144,0,0,1-.31-.454H13.367a.144.144,0,0,1,.144.144A.144.144,0,0,1,13.367-.165Z" transform="translate(30.996 37.343)" fill="#12263f"/>
          <path id="Línea_685-3" data-name="Línea 685" d="M7.472-.165H-.31A.144.144,0,0,1-.454-.31.144.144,0,0,1-.31-.454H7.472a.144.144,0,0,1,.144.144A.144.144,0,0,1,7.472-.165Z" transform="translate(48.706 37.343)" fill="#12263f"/>
          <path id="Línea_686-3" data-name="Línea 686" d="M1.591,1.977a.385.385,0,0,1-.273-.113L-1.1-.555a.386.386,0,0,1,0-.547.386.386,0,0,1,.547,0L1.864,1.317a.386.386,0,0,1-.273.66Z" transform="translate(37.552 1.215)" fill="#12263f"/>
          <path id="Línea_687-3" data-name="Línea 687" d="M-.829,1.977A.385.385,0,0,1-1.1,1.864a.386.386,0,0,1,0-.547L1.317-1.1a.386.386,0,0,1,.547,0,.386.386,0,0,1,0,.547L-.555,1.864A.385.385,0,0,1-.829,1.977Z" transform="translate(37.552 1.215)" fill="#12263f"/>
        </g>
      </g>
      <path id="Línea_688-3" data-name="Línea 688" d="M.613,1A.385.385,0,0,1,.34.887L-1.1-.555a.386.386,0,0,1,0-.547.386.386,0,0,1,.547,0L.886.34A.386.386,0,0,1,.613,1Z" transform="translate(47.998 18.692)" fill="#12263f"/>
      <path id="Línea_689-3" data-name="Línea 689" d="M-.829,1A.385.385,0,0,1-1.1.887.386.386,0,0,1-1.1.34L.34-1.1a.386.386,0,0,1,.547,0,.386.386,0,0,1,0,.547L-.555.887A.385.385,0,0,1-.829,1Z" transform="translate(47.998 18.692)" fill="#12263f"/>
      <g id="Grupo_1102384" data-name="Grupo 1102384">
        <g id="Grupo_1102383" data-name="Grupo 1102383" clip-path="url(#clip-path-8)">
          <path id="Trazado_912791-2" data-name="Trazado 912791" d="M139.807,21.02a1.545,1.545,0,1,1-1.545,1.545A1.547,1.547,0,0,1,139.807,21.02Zm0,2.318a.772.772,0,1,0-.772-.773A.773.773,0,0,0,139.807,23.338Z" transform="translate(-94.286 -14.334)" fill="#12263f"/>
          <path id="Trazado_912792-2" data-name="Trazado 912792" d="M42.527,7.941a1.545,1.545,0,1,1-1.545,1.545A1.547,1.547,0,0,1,42.527,7.941Zm0,2.318a.772.772,0,1,0-.772-.773A.773.773,0,0,0,42.527,10.259Z" transform="translate(-27.947 -5.415)" fill="#12263f"/>
          <path id="Elipse_11564-3" data-name="Elipse 11564" d="M-.031-1.215A1.185,1.185,0,0,1,1.153-.031,1.185,1.185,0,0,1-.031,1.153,1.185,1.185,0,0,1-1.215-.031,1.185,1.185,0,0,1-.031-1.215Zm0,1.595A.411.411,0,0,0,.38-.031.411.411,0,0,0-.031-.442a.411.411,0,0,0-.411.411A.411.411,0,0,0-.031.38Z" transform="translate(8.424 15.326)" fill="#12263f"/>
          <path id="Trazado_912793" data-name="Trazado 912793" d="M66.358,19.417A2.041,2.041,0,0,1,68.4,21.46v2.953a2.266,2.266,0,0,1,.888-.178,2.18,2.18,0,0,1,1.408.5,1.826,1.826,0,0,1,.417.5,2.239,2.239,0,0,1,1.105-.287,2.186,2.186,0,0,1,1.407.5h0a1.862,1.862,0,0,1,.331.364,2.22,2.22,0,0,1,1.19-.338,2.188,2.188,0,0,1,1.407.5l0,0a1.707,1.707,0,0,1,.633,1.313v6.436c0,.231-.009.456-.027.67a8.255,8.255,0,0,1-8.23,7.589,5.454,5.454,0,0,1-1.105-.14,6.285,6.285,0,0,1-4.386-3.547L59.685,30.01a2.042,2.042,0,0,1,3.614-1.9l.23.432.784,1.472V21.5a2.07,2.07,0,0,1,1.9-2.081C66.263,19.419,66.311,19.417,66.358,19.417Zm.885,6.626V21.46a.886.886,0,0,0-.949-.885.913.913,0,0,0-.826.929V31.558a.768.768,0,0,1-1.447.359l-1.742-3.269a.887.887,0,1,0-1.566.836l.016.033L61.9,32.1l2.592,5.711a5.1,5.1,0,0,0,.638,1.051h0A5.09,5.09,0,0,0,68.068,40.7a4.413,4.413,0,0,0,.864.115,7.1,7.1,0,0,0,7.079-6.527v0c.016-.182.023-.375.023-.573V27.277a.584.584,0,0,0-.223-.431,1.047,1.047,0,0,0-.664-.225c-.481,0-.888.3-.888.656a.577.577,0,1,1-1.155,0v-.524a.585.585,0,0,0-.224-.431,1.046,1.046,0,0,0-.664-.225.926.926,0,0,0-.835.438.494.494,0,0,0-.052.218.577.577,0,1,1-1.155,0v-.71a.578.578,0,0,0-.222-.429h0a1.025,1.025,0,0,0-.664-.225c-.481,0-.888.3-.888.654a.577.577,0,0,1-1.155,0Z" transform="translate(-40.543 -13.241)" fill="#12263f"/>
          <path id="Trazado_912794" data-name="Trazado 912794" d="M112.107,62.547h.012a.577.577,0,0,1,.566.577c0,.231-.009.457-.028.671a.577.577,0,0,1-1.152-.073l.025-.622A.577.577,0,0,1,112.107,62.547Z" transform="translate(-76.039 -42.653)" fill="#12263f"/>
          <path id="Trazado_912795" data-name="Trazado 912795" d="M93.737,39.085a.577.577,0,0,1,.138.017c.036.009.085.021.135.036a.577.577,0,0,1,.357.809.5.5,0,0,0-.053.22.577.577,0,0,1-1.155,0v-.5a.577.577,0,0,1,.577-.577Z" transform="translate(-63.529 -26.654)" fill="#12263f"/>
          <path id="Línea_690-3" data-name="Línea 690" d="M-1.238,3.191a.577.577,0,0,1-.577-.577V-1.238a.577.577,0,0,1,.577-.577.577.577,0,0,1,.577.577V2.613A.577.577,0,0,1-1.238,3.191Z" transform="translate(28.516 14.041)" fill="#12263f"/>
          <path id="Línea_691-3" data-name="Línea 691" d="M-1.238,4.4a.577.577,0,0,1-.577-.577V-1.238a.577.577,0,0,1,.577-.577.577.577,0,0,1,.577.577V3.823A.577.577,0,0,1-1.238,4.4Z" transform="translate(31.446 14.041)" fill="#12263f"/>
          <path id="Línea_692" data-name="Línea 692" d="M-1.238,4.4a.577.577,0,0,1-.577-.577V-1.238a.577.577,0,0,1,.577-.577.577.577,0,0,1,.577.577V3.823A.577.577,0,0,1-1.238,4.4Z" transform="translate(34.377 14.99)" fill="#12263f"/>
          <path id="Trazado_912796" data-name="Trazado 912796" d="M85.988,71.8h.052a.577.577,0,0,1,.577.577v3.932a6.279,6.279,0,1,1-12.557,0V74.938a.577.577,0,0,1,1.032-.356,5.087,5.087,0,0,0,2.937,1.842,4.42,4.42,0,0,0,.864.115,7.083,7.083,0,0,0,6.562-4.381A.577.577,0,0,1,85.988,71.8ZM80.34,81.435a5.129,5.129,0,0,0,5.123-5.123v-1.87a8.261,8.261,0,0,1-6.569,3.253,5.459,5.459,0,0,1-1.105-.141,6.215,6.215,0,0,1-2.572-1.219A5.129,5.129,0,0,0,80.34,81.435Z" transform="translate(-50.504 -48.965)" fill="#12263f"/>
          <path id="Línea_693" data-name="Línea 693" d="M.567.954A.385.385,0,0,1,.294.84l-1.4-1.4a.386.386,0,0,1,0-.547.386.386,0,0,1,.547,0L.84.294a.386.386,0,0,1-.273.66Z" transform="translate(23.048 4.9)" fill="#12263f"/>
          <path id="Línea_694" data-name="Línea 694" d="M-.829.954A.385.385,0,0,1-1.1.84a.386.386,0,0,1,0-.547l1.4-1.4a.386.386,0,0,1,.547,0,.386.386,0,0,1,0,.547L-.555.84A.385.385,0,0,1-.829.954Z" transform="translate(28.457 4.9)" fill="#12263f"/>
          <path id="Línea_695" data-name="Línea 695" d="M-.829,2.012a.386.386,0,0,1-.386-.386V-.829a.386.386,0,0,1,.386-.386.386.386,0,0,1,.386.386V1.626A.386.386,0,0,1-.829,2.012Z" transform="translate(26.634 3.504)" fill="#12263f"/>
        </g>
      </g>
    </g>
    <path id="Trazado_913893" data-name="Trazado 913893" d="M26,0H202.738a26,26,0,0,1,26,26V65.061a26,26,0,0,1-26,26H26a26,26,0,0,1-26-26V26A26,26,0,0,1,26,0Z" transform="translate(1191.262 4410.357)" fill="#4b96e3" opacity="0.3"/>
    <path id="Trazado_913894" data-name="Trazado 913894" d="M4.768,10.228H3.376V14H.806V3.336H5a4.684,4.684,0,0,1,2.966.841A2.851,2.851,0,0,1,9.038,6.555,3.462,3.462,0,0,1,8.588,8.4a3.2,3.2,0,0,1-1.41,1.185L9.4,13.89V14H6.65ZM3.376,8.25H5a1.459,1.459,0,0,0,1.1-.385,1.49,1.49,0,0,0,.37-1.076A1.508,1.508,0,0,0,6.1,5.706,1.446,1.446,0,0,0,5,5.313H3.376Zm10.935,5.9a4.074,4.074,0,0,1-2.952-1.088,3.756,3.756,0,0,1-1.128-2.831v-.205a4.867,4.867,0,0,1,.45-2.146A3.3,3.3,0,0,1,12,6.438a3.969,3.969,0,0,1,2.051-.509,3.43,3.43,0,0,1,2.637,1.036,4.073,4.073,0,0,1,.967,2.889v.959H12.744a1.779,1.779,0,0,0,.579,1.047,1.722,1.722,0,0,0,1.157.381,2.218,2.218,0,0,0,1.831-.82l1.128,1.333a3.153,3.153,0,0,1-1.307,1.014A4.418,4.418,0,0,1,14.312,14.146Zm-.278-6.313q-1.084,0-1.289,1.436h2.49v-.19a1.223,1.223,0,0,0-.3-.919A1.2,1.2,0,0,0,14.033,7.833ZM21.248,14H18.772V2.75h2.476Zm5.984,0A2.787,2.787,0,0,1,27,13.29a2.3,2.3,0,0,1-1.9.857,2.812,2.812,0,0,1-1.9-.677,2.156,2.156,0,0,1-.784-1.7,2.216,2.216,0,0,1,.952-1.948,4.851,4.851,0,0,1,2.769-.659h.762v-.42q0-1.1-.945-1.1a.772.772,0,0,0-.879.868H22.6a2.213,2.213,0,0,1,.978-1.865,4.109,4.109,0,0,1,2.494-.717,3.6,3.6,0,0,1,2.4.74,2.572,2.572,0,0,1,.9,2.029v3.508a3.593,3.593,0,0,0,.337,1.67V14Zm-1.545-1.611a1.377,1.377,0,0,0,.765-.2,1.239,1.239,0,0,0,.436-.447V10.477h-.718q-1.289,0-1.289,1.157a.707.707,0,0,0,.227.546A.822.822,0,0,0,25.686,12.389Zm8.394-.146a1.1,1.1,0,0,0,.806-.282,1.034,1.034,0,0,0,.278-.787h2.314a2.74,2.74,0,0,1-.934,2.139,3.474,3.474,0,0,1-2.406.835,3.517,3.517,0,0,1-2.725-1.084,4.271,4.271,0,0,1-1-3v-.1a4.827,4.827,0,0,1,.443-2.12,3.226,3.226,0,0,1,1.278-1.414,3.811,3.811,0,0,1,1.978-.494,3.43,3.43,0,0,1,2.454.857,3.039,3.039,0,0,1,.908,2.322H35.164a1.355,1.355,0,0,0-.3-.945,1.037,1.037,0,0,0-.806-.33q-.959,0-1.121,1.223a8.631,8.631,0,0,0-.051,1.069,3.39,3.39,0,0,0,.286,1.655A.989.989,0,0,0,34.08,12.242ZM41.125,14H38.65V6.075h2.476ZM38.5,4.032a1.1,1.1,0,0,1,.381-.864,1.619,1.619,0,0,1,1.978,0,1.1,1.1,0,0,1,.381.864,1.1,1.1,0,0,1-.381.864,1.619,1.619,0,0,1-1.978,0A1.1,1.1,0,0,1,38.5,4.032Zm3.831,5.933A4.677,4.677,0,0,1,42.8,7.851a3.3,3.3,0,0,1,1.326-1.425,3.993,3.993,0,0,1,2.029-.5,3.644,3.644,0,0,1,2.805,1.1,4.23,4.23,0,0,1,1.025,3v.088a4.1,4.1,0,0,1-1.029,2.941,3.654,3.654,0,0,1-2.787,1.088,3.7,3.7,0,0,1-2.717-1.014,3.968,3.968,0,0,1-1.106-2.75Zm2.468.154a2.949,2.949,0,0,0,.344,1.611,1.147,1.147,0,0,0,1.018.513q1.318,0,1.348-2.029V9.964q0-2.131-1.362-2.131-1.238,0-1.34,1.838Zm8.533-4.043.081.93a2.687,2.687,0,0,1,2.263-1.077,2.261,2.261,0,0,1,1.849.74A3.522,3.522,0,0,1,58.162,8.9V14H55.686V9a1.337,1.337,0,0,0-.242-.883,1.118,1.118,0,0,0-.879-.282,1.177,1.177,0,0,0-1.077.571V14H51.021V6.075Zm10.027,8.071a4.074,4.074,0,0,1-2.952-1.088,3.756,3.756,0,0,1-1.128-2.831v-.205a4.867,4.867,0,0,1,.45-2.146,3.3,3.3,0,0,1,1.315-1.439A3.969,3.969,0,0,1,63.1,5.929a3.43,3.43,0,0,1,2.637,1.036A4.073,4.073,0,0,1,66.7,9.854v.959H61.794a1.779,1.779,0,0,0,.579,1.047,1.722,1.722,0,0,0,1.157.381,2.218,2.218,0,0,0,1.831-.82l1.128,1.333a3.153,3.153,0,0,1-1.307,1.014A4.418,4.418,0,0,1,63.362,14.146Zm-.278-6.313q-1.084,0-1.289,1.436h2.49v-.19a1.223,1.223,0,0,0-.3-.919A1.2,1.2,0,0,0,63.083,7.833Zm8.76,3.94a.57.57,0,0,0-.33-.505,5.013,5.013,0,0,0-1.252-.4,5.711,5.711,0,0,1-1.523-.538,2.552,2.552,0,0,1-.916-.809,1.933,1.933,0,0,1-.315-1.091,2.19,2.19,0,0,1,.9-1.8,3.711,3.711,0,0,1,2.358-.707,4.112,4.112,0,0,1,2.52.71,2.222,2.222,0,0,1,.952,1.868H71.763q0-.952-1-.952a1,1,0,0,0-.652.216.669.669,0,0,0-.264.538.614.614,0,0,0,.322.535,3.045,3.045,0,0,0,1.029.337,8.893,8.893,0,0,1,1.241.315,2.255,2.255,0,0,1,1.787,2.2,2.075,2.075,0,0,1-.963,1.765,4.224,4.224,0,0,1-2.494.681,4.31,4.31,0,0,1-1.816-.366,3.037,3.037,0,0,1-1.245-1,2.256,2.256,0,0,1-.447-1.326h2.307a.954.954,0,0,0,.366.8,1.506,1.506,0,0,0,.9.253,1.185,1.185,0,0,0,.758-.205A.656.656,0,0,0,71.843,11.773ZM3.3,34H.82V22.75H3.3ZM9.28,34a2.787,2.787,0,0,1-.234-.71,2.3,2.3,0,0,1-1.9.857,2.812,2.812,0,0,1-1.9-.677,2.156,2.156,0,0,1-.784-1.7,2.216,2.216,0,0,1,.952-1.948,4.851,4.851,0,0,1,2.769-.659h.762v-.42q0-1.1-.945-1.1a.772.772,0,0,0-.879.868H4.644a2.213,2.213,0,0,1,.978-1.865,4.109,4.109,0,0,1,2.494-.717,3.6,3.6,0,0,1,2.4.74,2.572,2.572,0,0,1,.9,2.029v3.508a3.593,3.593,0,0,0,.337,1.67V34ZM7.734,32.389a1.377,1.377,0,0,0,.765-.2,1.239,1.239,0,0,0,.436-.447V30.477H8.218q-1.289,0-1.289,1.157a.707.707,0,0,0,.227.546A.822.822,0,0,0,7.734,32.389Zm12.4-2.285a4.83,4.83,0,0,1-.806,3,2.7,2.7,0,0,1-2.271,1.047,2.342,2.342,0,0,1-1.948-.959l-.1.813H12.8V22.75h2.468v3.962a2.259,2.259,0,0,1,1.78-.784,2.7,2.7,0,0,1,2.285,1.062,4.855,4.855,0,0,1,.806,2.988Zm-2.476-.157a3.222,3.222,0,0,0-.3-1.627,1.025,1.025,0,0,0-.934-.486,1.182,1.182,0,0,0-1.157.636v3.144a1.188,1.188,0,0,0,1.172.629,1.048,1.048,0,0,0,1.106-.848A6.091,6.091,0,0,0,17.659,29.946Zm3.252.018a4.677,4.677,0,0,1,.461-2.113A3.3,3.3,0,0,1,22.7,26.427a3.993,3.993,0,0,1,2.029-.5,3.644,3.644,0,0,1,2.805,1.1,4.23,4.23,0,0,1,1.025,3v.088a4.1,4.1,0,0,1-1.029,2.941,3.654,3.654,0,0,1-2.787,1.088,3.7,3.7,0,0,1-2.717-1.014,3.968,3.968,0,0,1-1.106-2.75Zm2.468.154a2.949,2.949,0,0,0,.344,1.611,1.147,1.147,0,0,0,1.018.513q1.318,0,1.348-2.029v-.249q0-2.131-1.362-2.131-1.238,0-1.34,1.838Zm11.06-1.809-.813-.059a1.46,1.46,0,0,0-1.494.732V34H29.663V26.075h2.314l.081,1.018a1.911,1.911,0,0,1,1.736-1.165,2.407,2.407,0,0,1,.688.088ZM39.573,34a2.787,2.787,0,0,1-.234-.71,2.3,2.3,0,0,1-1.9.857,2.812,2.812,0,0,1-1.9-.677,2.156,2.156,0,0,1-.784-1.7,2.216,2.216,0,0,1,.952-1.948,4.851,4.851,0,0,1,2.769-.659h.762v-.42q0-1.1-.945-1.1a.772.772,0,0,0-.879.868H34.937a2.213,2.213,0,0,1,.978-1.865,4.109,4.109,0,0,1,2.494-.717,3.6,3.6,0,0,1,2.4.74,2.572,2.572,0,0,1,.9,2.029v3.508a3.593,3.593,0,0,0,.337,1.67V34Zm-1.545-1.611a1.377,1.377,0,0,0,.765-.2,1.239,1.239,0,0,0,.436-.447V30.477h-.718q-1.289,0-1.289,1.157a.707.707,0,0,0,.227.546A.822.822,0,0,0,38.027,32.389ZM45.674,34H43.2V22.75h2.476Zm5.354.146a4.074,4.074,0,0,1-2.952-1.088,3.756,3.756,0,0,1-1.128-2.831v-.205a4.867,4.867,0,0,1,.45-2.146,3.3,3.3,0,0,1,1.315-1.439,3.969,3.969,0,0,1,2.051-.509A3.43,3.43,0,0,1,53.4,26.965a4.073,4.073,0,0,1,.967,2.889v.959H49.46a1.779,1.779,0,0,0,.579,1.047,1.722,1.722,0,0,0,1.157.381,2.218,2.218,0,0,0,1.831-.82l1.128,1.333a3.153,3.153,0,0,1-1.307,1.014A4.418,4.418,0,0,1,51.028,34.146Zm-.278-6.313q-1.084,0-1.289,1.436h2.49v-.19a1.223,1.223,0,0,0-.3-.919A1.2,1.2,0,0,0,50.75,27.833Zm8.76,3.94a.57.57,0,0,0-.33-.505,5.013,5.013,0,0,0-1.252-.4,5.711,5.711,0,0,1-1.523-.538,2.552,2.552,0,0,1-.916-.809,1.933,1.933,0,0,1-.315-1.091,2.19,2.19,0,0,1,.9-1.8,3.711,3.711,0,0,1,2.358-.707,4.112,4.112,0,0,1,2.52.71,2.222,2.222,0,0,1,.952,1.868H59.429q0-.952-1-.952a1,1,0,0,0-.652.216.669.669,0,0,0-.264.538.614.614,0,0,0,.322.535,3.045,3.045,0,0,0,1.029.337A8.893,8.893,0,0,1,60.1,29.5a2.255,2.255,0,0,1,1.787,2.2,2.075,2.075,0,0,1-.963,1.765,4.224,4.224,0,0,1-2.494.681,4.31,4.31,0,0,1-1.816-.366,3.037,3.037,0,0,1-1.245-1,2.256,2.256,0,0,1-.447-1.326h2.307a.954.954,0,0,0,.366.8,1.506,1.506,0,0,0,.9.253,1.185,1.185,0,0,0,.758-.205A.656.656,0,0,0,59.509,31.773ZM64.57,31.6a1.405,1.405,0,0,1,.974.348,1.214,1.214,0,0,1,0,1.78,1.537,1.537,0,0,1-1.952,0,1.214,1.214,0,0,1,0-1.772A1.393,1.393,0,0,1,64.57,31.6Z" transform="translate(1276.262 4435)" fill="#12263f"/>
    <path id="Trazado_913897" data-name="Trazado 913897" d="M13.363,0A13.363,13.363,0,0,1,26.726,13.363V27.544A13.363,13.363,0,0,1,0,27.544V13.363A13.363,13.363,0,0,1,13.363,0Z" transform="translate(1210 4426.645)" fill="#4b96e3"/>
    <g id="Grupo_1102505" data-name="Grupo 1102505" transform="translate(1210 4430.41)">
      <g id="Grupo_1102371-2" data-name="Grupo 1102371">
        <g id="Grupo_1102370-2" data-name="Grupo 1102370" clip-path="url(#clip-path-3)">
          <path id="Línea_679-4" data-name="Línea 679" d="M7.006-.625H-1.22a.6.6,0,0,1-.6-.6.6.6,0,0,1,.6-.6H7.006a.6.6,0,0,1,.6.6A.6.6,0,0,1,7.006-.625Z" transform="translate(1.513 34.193)" fill="#12263f"/>
          <path id="Línea_680-4" data-name="Línea 680" d="M5.885-.625H-1.22a.6.6,0,0,1-.6-.6.6.6,0,0,1,.6-.6H5.885a.6.6,0,0,1,.6.6A.6.6,0,0,1,5.885-.625Z" transform="translate(56.746 34.193)" fill="#12263f"/>
        </g>
      </g>
      <path id="Línea_681-4" data-name="Línea 681" d="M40.949-.625H-1.22a.6.6,0,0,1-.6-.6.6.6,0,0,1,.6-.6H40.949a.6.6,0,0,1,.6.6A.6.6,0,0,1,40.949-.625Z" transform="translate(12.91 34.193)" fill="#12263f"/>
      <g id="Grupo_1102373-2" data-name="Grupo 1102373">
        <g id="Grupo_1102372-2" data-name="Grupo 1102372" clip-path="url(#clip-path-3)">
          <path id="Línea_682-4" data-name="Línea 682" d="M6.125-.312H-.61a.3.3,0,0,1-.3-.3.3.3,0,0,1,.3-.3H6.125a.3.3,0,0,1,.3.3A.3.3,0,0,1,6.125-.312Z" transform="translate(10.334 37.1)" fill="#12263f"/>
          <path id="Línea_683-4" data-name="Línea 683" d="M6.13-.312H-.61a.3.3,0,0,1-.3-.3.3.3,0,0,1,.3-.3H6.13a.3.3,0,0,1,.3.3A.3.3,0,0,1,6.13-.312Z" transform="translate(21.17 37.1)" fill="#12263f"/>
          <path id="Línea_684-4" data-name="Línea 684" d="M13.274-.312H-.61a.3.3,0,0,1-.3-.3.3.3,0,0,1,.3-.3H13.274a.3.3,0,0,1,.3.3A.3.3,0,0,1,13.274-.312Z" transform="translate(31.761 37.1)" fill="#12263f"/>
          <path id="Línea_685-4" data-name="Línea 685" d="M7.289-.312H-.61a.3.3,0,0,1-.3-.3.3.3,0,0,1,.3-.3h7.9a.3.3,0,0,1,.3.3A.3.3,0,0,1,7.289-.312Z" transform="translate(49.739 37.1)" fill="#12263f"/>
        </g>
      </g>
      <path id="Línea_686-4" data-name="Línea 686" d="M-.123.674A.792.792,0,0,1-.687.441L-2.2-1.069a.792.792,0,0,1-.233-.564A.792.792,0,0,1-2.2-2.2a.792.792,0,0,1,.564-.233.792.792,0,0,1,.564.233L.441-.687a.792.792,0,0,1,.233.564A.792.792,0,0,1,.441.441.792.792,0,0,1-.123.674Z" transform="translate(50.219 5.975)" fill="#12263f"/>
      <path id="Línea_687-4" data-name="Línea 687" d="M-1.633.674A.792.792,0,0,1-2.2.441.792.792,0,0,1-2.43-.123.792.792,0,0,1-2.2-.687L-.687-2.2A.792.792,0,0,1-.123-2.43.792.792,0,0,1,.441-2.2a.792.792,0,0,1,.233.564.792.792,0,0,1-.233.564L-1.069.441A.792.792,0,0,1-1.633.674Z" transform="translate(50.219 5.975)" fill="#12263f"/>
      <path id="Línea_688-4" data-name="Línea 688" d="M1.25,2.048a.792.792,0,0,1-.564-.233L-2.2-1.069a.792.792,0,0,1-.233-.564A.792.792,0,0,1-2.2-2.2a.792.792,0,0,1,.564-.233.792.792,0,0,1,.564.233L1.814.687A.8.8,0,0,1,1.25,2.048Z" transform="translate(18.064 6.043)" fill="#12263f"/>
      <path id="Línea_689-4" data-name="Línea 689" d="M-1.633,2.048A.792.792,0,0,1-2.2,1.814.792.792,0,0,1-2.43,1.25.792.792,0,0,1-2.2.687L.687-2.2A.792.792,0,0,1,1.25-2.43a.792.792,0,0,1,.564.233.8.8,0,0,1,0,1.127L-1.069,1.814A.792.792,0,0,1-1.633,2.048Z" transform="translate(18.065 6.043)" fill="#12263f"/>
      <path id="Línea_690-4" data-name="Línea 690" d="M.368,1.165A.792.792,0,0,1-.2.932l-2-2a.792.792,0,0,1-.233-.564A.792.792,0,0,1-2.2-2.2a.792.792,0,0,1,.564-.233.792.792,0,0,1,.564.233l2,2a.792.792,0,0,1,.233.564.8.8,0,0,1-.8.8Z" transform="translate(54.377 20.93)" fill="#12263f"/>
      <path id="Línea_691-4" data-name="Línea 691" d="M-1.633,1.165A.792.792,0,0,1-2.2.932.792.792,0,0,1-2.43.368.792.792,0,0,1-2.2-.2l2-2A.792.792,0,0,1,.368-2.43.792.792,0,0,1,.932-2.2a.8.8,0,0,1,0,1.127l-2,2A.792.792,0,0,1-1.633,1.165Z" transform="translate(54.377 20.93)" fill="#12263f"/>
      <g id="Grupo_1102375-2" data-name="Grupo 1102375">
        <g id="Grupo_1102374-2" data-name="Grupo 1102374" clip-path="url(#clip-path-3)">
          <path id="Elipse_11564-4" data-name="Elipse 11564" d="M.034-2.43A2.467,2.467,0,0,1,2.5.034,2.467,2.467,0,0,1,.034,2.5,2.467,2.467,0,0,1-2.43.034,2.467,2.467,0,0,1,.034-2.43ZM.034.9A.871.871,0,0,0,.9.034a.871.871,0,0,0-.87-.87.871.871,0,0,0-.87.87A.871.871,0,0,0,.034.9Z" transform="translate(38.781 6.136)" fill="#12263f"/>
          <path id="Trazado_912769-3" data-name="Trazado 912769" d="M29.038,42.73a2.208,2.208,0,1,1-2.208,2.208A2.211,2.211,0,0,1,29.038,42.73Zm0,2.822a.614.614,0,1,0-.614-.614A.615.615,0,0,0,29.038,45.552Z" transform="translate(-18.18 -28.946)" fill="#12263f"/>
          <path id="Rectángulo_403542" data-name="Rectángulo 403542" d="M.4,2.415Z" transform="translate(33.255 13.263)" fill="#12263f"/>
          <g id="Grupo_1102436" data-name="Grupo 1102436" transform="translate(-677.589 -4614.365)">
            <g id="Grupo_1102437" data-name="Grupo 1102437" transform="translate(697.051 4623)">
              <g id="Grupo_1102436-2" data-name="Grupo 1102436" clip-path="url(#clip-path-14)">
                <path id="Trazado_913132" data-name="Trazado 913132" d="M12,8a2.5,2.5,0,1,1-2.5,2.5A2.5,2.5,0,0,1,12,8m10,5.5A2.5,2.5,0,1,0,19.5,16,2.5,2.5,0,0,0,22,13.5M11.343,2.229a1.063,1.063,0,0,1,1.314,0l10.088,7.895,1.232-1.575L13.89.653a3.061,3.061,0,0,0-3.779,0L.022,8.548l1.232,1.575ZM21,18H19v2h2a1,1,0,0,1,1,1v3h2V21a3,3,0,0,0-3-3m-4,0a3,3,0,0,0-3-3H10a3,3,0,0,0-3,3v6H9V18a1,1,0,0,1,1-1h4a1,1,0,0,1,1,1v6h2ZM4.5,11A2.5,2.5,0,1,0,7,13.5,2.5,2.5,0,0,0,4.5,11M5,18H3a3,3,0,0,0-3,3v3H2V21a1,1,0,0,1,1-1H5Z" fill="#12263f"/>
              </g>
            </g>
          </g>
        </g>
      </g>
    </g>
    <circle id="Elipse_11540" data-name="Elipse 11540" cx="12" cy="12" r="12" transform="translate(384 4402)" fill="#fa6d61"/>
    <circle id="Elipse_11540-2" data-name="Elipse 11540" cx="12" cy="12" r="12" transform="translate(630.816 4401.751)" fill="#fa6d61"/>
    <circle id="Elipse_11603" data-name="Elipse 11603" cx="12" cy="12" r="12" transform="translate(889.631 4402)" fill="#fa6d61"/>
    <circle id="Elipse_11605" data-name="Elipse 11605" cx="12" cy="12" r="12" transform="translate(1140.447 4401.751)" fill="#fa6d61"/>
    <circle id="Elipse_11607" data-name="Elipse 11607" cx="12" cy="12" r="12" transform="translate(1395.262 4402)" fill="#fa6d61"/>
  </g>
</svg>
