<svg xmlns="http://www.w3.org/2000/svg" width="622" height="272" viewBox="0 0 622 272">
  <g id="Grupo_1103705" data-name="Grupo 1103705" transform="translate(-489.051 -3641)">
    <path id="Trazado_913922" data-name="Trazado 913922" d="M20,0H273a20,20,0,0,1,20,20V69a20,20,0,0,1-20,20H20A20,20,0,0,1,0,69V20A20,20,0,0,1,20,0Z" transform="translate(489.051 3641)" fill="#4b96e3"/>
    <path id="Trazado_913930" data-name="Trazado 913930" d="M20,0H273a20,20,0,0,1,20,20V69a20,20,0,0,1-20,20H20A20,20,0,0,1,0,69V20A20,20,0,0,1,20,0Z" transform="translate(817.051 3641)" fill="#ffbe01"/>
    <path id="Trazado_913923" data-name="Trazado 913923" d="M21,0H72A21,21,0,0,1,93,21V156a21,21,0,0,1-21,21H21A21,21,0,0,1,0,156V21A21,21,0,0,1,21,0Z" transform="translate(489.051 3736)" fill="#4b96e3"/>
    <path id="Trazado_913931" data-name="Trazado 913931" d="M21,0H72A21,21,0,0,1,93,21V156a21,21,0,0,1-21,21H21A21,21,0,0,1,0,156V21A21,21,0,0,1,21,0Z" transform="translate(817.051 3736)" fill="#ffbe01"/>
    <path id="Trazado_913924" data-name="Trazado 913924" d="M21,0H72A21,21,0,0,1,93,21V156a21,21,0,0,1-21,21H21A21,21,0,0,1,0,156V21A21,21,0,0,1,21,0Z" transform="translate(589.051 3736)" fill="#4b96e3"/>
    <path id="Trazado_913934" data-name="Trazado 913934" d="M21,0H72A21,21,0,0,1,93,21V156a21,21,0,0,1-21,21H21A21,21,0,0,1,0,156V21A21,21,0,0,1,21,0Z" transform="translate(917.051 3736)" fill="#ffbe01"/>
    <path id="Trazado_913927" data-name="Trazado 913927" d="M21,0H72A21,21,0,0,1,93,21V156a21,21,0,0,1-21,21H21A21,21,0,0,1,0,156V21A21,21,0,0,1,21,0Z" transform="translate(690.051 3736)" fill="#4b96e3"/>
    <path id="Trazado_913936" data-name="Trazado 913936" d="M21,0H72A21,21,0,0,1,93,21V156a21,21,0,0,1-21,21H21A21,21,0,0,1,0,156V21A21,21,0,0,1,21,0Z" transform="translate(1018.051 3736)" fill="#ffbe01"/>
    <path id="Trazado_913925" data-name="Trazado 913925" d="M19.156-18.953H12.188V0H7.5V-18.953H.625v-3.8H19.156ZM28.7,0a5.015,5.015,0,0,1-.453-1.516A5.464,5.464,0,0,1,23.984.313a6,6,0,0,1-4.117-1.437A4.623,4.623,0,0,1,18.234-4.75a4.778,4.778,0,0,1,1.992-4.125,9.83,9.83,0,0,1,5.758-1.453h2.078V-11.3a2.786,2.786,0,0,0-.6-1.875,2.367,2.367,0,0,0-1.9-.7,2.69,2.69,0,0,0-1.789.547,1.858,1.858,0,0,0-.648,1.5H18.609a4.536,4.536,0,0,1,.906-2.719,5.99,5.99,0,0,1,2.563-1.961,9.339,9.339,0,0,1,3.719-.711,7.378,7.378,0,0,1,4.961,1.57,5.493,5.493,0,0,1,1.836,4.414v7.328a8.083,8.083,0,0,0,.672,3.641V0ZM24.969-3.141a3.889,3.889,0,0,0,1.844-.445,2.925,2.925,0,0,0,1.25-1.2V-7.687H26.375q-3.391,0-3.609,2.344l-.016.266a1.808,1.808,0,0,0,.594,1.391A2.306,2.306,0,0,0,24.969-3.141ZM51.3-8.3a10.237,10.237,0,0,1-1.734,6.336A5.745,5.745,0,0,1,44.719.313,5.278,5.278,0,0,1,40.328-1.8l-.2,1.8H36.063V-24h4.516v8.609a5.143,5.143,0,0,1,4.109-1.828,5.792,5.792,0,0,1,4.852,2.273,10.252,10.252,0,0,1,1.758,6.4Zm-4.516-.328a6.725,6.725,0,0,0-.812-3.742,2.747,2.747,0,0,0-2.422-1.18,2.979,2.979,0,0,0-2.969,1.766v6.672a3.019,3.019,0,0,0,3,1.781,2.788,2.788,0,0,0,2.875-2.156A11.123,11.123,0,0,0,46.781-8.625ZM58.844,0H54.313V-24h4.531ZM72.359,0a5.014,5.014,0,0,1-.453-1.516A5.464,5.464,0,0,1,67.641.313a6,6,0,0,1-4.117-1.437A4.623,4.623,0,0,1,61.891-4.75a4.778,4.778,0,0,1,1.992-4.125,9.83,9.83,0,0,1,5.758-1.453h2.078V-11.3a2.786,2.786,0,0,0-.6-1.875,2.367,2.367,0,0,0-1.9-.7,2.69,2.69,0,0,0-1.789.547,1.858,1.858,0,0,0-.648,1.5H62.266a4.536,4.536,0,0,1,.906-2.719,5.99,5.99,0,0,1,2.563-1.961,9.339,9.339,0,0,1,3.719-.711,7.378,7.378,0,0,1,4.961,1.57,5.493,5.493,0,0,1,1.836,4.414v7.328a8.082,8.082,0,0,0,.672,3.641V0ZM68.625-3.141a3.889,3.889,0,0,0,1.844-.445,2.925,2.925,0,0,0,1.25-1.2V-7.687H70.031q-3.391,0-3.609,2.344l-.016.266A1.808,1.808,0,0,0,67-3.687,2.306,2.306,0,0,0,68.625-3.141ZM98.469,0H93.953V-17.406l-5.391,1.672v-3.672l9.422-3.375h.484Z" transform="translate(577.051 3697)" fill="#fff"/>
    <path id="Trazado_913933" data-name="Trazado 913933" d="M19.156-18.953H12.188V0H7.5V-18.953H.625v-3.8H19.156ZM28.7,0a5.015,5.015,0,0,1-.453-1.516A5.464,5.464,0,0,1,23.984.313a6,6,0,0,1-4.117-1.437A4.623,4.623,0,0,1,18.234-4.75a4.778,4.778,0,0,1,1.992-4.125,9.83,9.83,0,0,1,5.758-1.453h2.078V-11.3a2.786,2.786,0,0,0-.6-1.875,2.367,2.367,0,0,0-1.9-.7,2.69,2.69,0,0,0-1.789.547,1.858,1.858,0,0,0-.648,1.5H18.609a4.536,4.536,0,0,1,.906-2.719,5.99,5.99,0,0,1,2.563-1.961,9.339,9.339,0,0,1,3.719-.711,7.378,7.378,0,0,1,4.961,1.57,5.493,5.493,0,0,1,1.836,4.414v7.328a8.083,8.083,0,0,0,.672,3.641V0ZM24.969-3.141a3.889,3.889,0,0,0,1.844-.445,2.925,2.925,0,0,0,1.25-1.2V-7.687H26.375q-3.391,0-3.609,2.344l-.016.266a1.808,1.808,0,0,0,.594,1.391A2.306,2.306,0,0,0,24.969-3.141ZM51.3-8.3a10.237,10.237,0,0,1-1.734,6.336A5.745,5.745,0,0,1,44.719.313,5.278,5.278,0,0,1,40.328-1.8l-.2,1.8H36.063V-24h4.516v8.609a5.143,5.143,0,0,1,4.109-1.828,5.792,5.792,0,0,1,4.852,2.273,10.252,10.252,0,0,1,1.758,6.4Zm-4.516-.328a6.725,6.725,0,0,0-.812-3.742,2.747,2.747,0,0,0-2.422-1.18,2.979,2.979,0,0,0-2.969,1.766v6.672a3.019,3.019,0,0,0,3,1.781,2.788,2.788,0,0,0,2.875-2.156A11.123,11.123,0,0,0,46.781-8.625ZM58.844,0H54.313V-24h4.531ZM72.359,0a5.014,5.014,0,0,1-.453-1.516A5.464,5.464,0,0,1,67.641.313a6,6,0,0,1-4.117-1.437A4.623,4.623,0,0,1,61.891-4.75a4.778,4.778,0,0,1,1.992-4.125,9.83,9.83,0,0,1,5.758-1.453h2.078V-11.3a2.786,2.786,0,0,0-.6-1.875,2.367,2.367,0,0,0-1.9-.7,2.69,2.69,0,0,0-1.789.547,1.858,1.858,0,0,0-.648,1.5H62.266a4.536,4.536,0,0,1,.906-2.719,5.99,5.99,0,0,1,2.563-1.961,9.339,9.339,0,0,1,3.719-.711,7.378,7.378,0,0,1,4.961,1.57,5.493,5.493,0,0,1,1.836,4.414v7.328a8.082,8.082,0,0,0,.672,3.641V0ZM68.625-3.141a3.889,3.889,0,0,0,1.844-.445,2.925,2.925,0,0,0,1.25-1.2V-7.687H70.031q-3.391,0-3.609,2.344l-.016.266A1.808,1.808,0,0,0,67-3.687,2.306,2.306,0,0,0,68.625-3.141ZM103.094,0H87.5V-3.094l7.359-7.844A18.156,18.156,0,0,0,97.1-13.828a4.644,4.644,0,0,0,.727-2.344,3.475,3.475,0,0,0-.766-2.383,2.764,2.764,0,0,0-2.187-.867,2.981,2.981,0,0,0-2.414,1.055,4.178,4.178,0,0,0-.883,2.773H87.047a7.458,7.458,0,0,1,.992-3.8,6.993,6.993,0,0,1,2.8-2.7,8.525,8.525,0,0,1,4.109-.977,8.072,8.072,0,0,1,5.461,1.688,5.97,5.97,0,0,1,1.945,4.766,7.649,7.649,0,0,1-.875,3.438,19.1,19.1,0,0,1-3,4.078L93.313-3.641h9.781Z" transform="translate(905.051 3697)" fill="#fff"/>
    <path id="Trazado_913932" data-name="Trazado 913932" d="M14.906-8.562h2.578v3.641H14.906V0H10.391V-4.922H1.063l-.2-2.844L10.344-22.75h4.563Zm-9.547,0h5.031v-8.031l-.3.516Z" transform="translate(856.051 3838)" fill="#fff"/>
    <path id="Trazado_913928" data-name="Trazado 913928" d="M17.141,0H1.547V-3.094l7.359-7.844a18.156,18.156,0,0,0,2.242-2.891,4.644,4.644,0,0,0,.727-2.344,3.475,3.475,0,0,0-.766-2.383,2.764,2.764,0,0,0-2.187-.867,2.981,2.981,0,0,0-2.414,1.055,4.178,4.178,0,0,0-.883,2.773H1.094a7.458,7.458,0,0,1,.992-3.8,6.993,6.993,0,0,1,2.8-2.7A8.525,8.525,0,0,1,9-23.062a8.072,8.072,0,0,1,5.461,1.688,5.97,5.97,0,0,1,1.945,4.766,7.649,7.649,0,0,1-.875,3.438,19.1,19.1,0,0,1-3,4.078L7.359-3.641h9.781Z" transform="translate(627.051 3838)" fill="#fff"/>
    <path id="Trazado_913926" data-name="Trazado 913926" d="M12.516,0H8V-17.406L2.609-15.734v-3.672l9.422-3.375h.484Z" transform="translate(528.051 3838)" fill="#fff"/>
    <path id="Trazado_913935" data-name="Trazado 913935" d="M2.219-11.187,3.531-22.75h12.75v3.766H7.234l-.562,4.891a7.159,7.159,0,0,1,3.422-.859,6.557,6.557,0,0,1,5.094,2.016A8.051,8.051,0,0,1,17.031-7.3a8.248,8.248,0,0,1-.93,3.945,6.562,6.562,0,0,1-2.664,2.7A8.317,8.317,0,0,1,9.344.313,8.831,8.831,0,0,1,5.516-.523,6.79,6.79,0,0,1,2.727-2.875,6.409,6.409,0,0,1,1.641-6.328H6.109A3.338,3.338,0,0,0,7.1-4.117a3.146,3.146,0,0,0,2.227.789,2.776,2.776,0,0,0,2.359-1.1,5.1,5.1,0,0,0,.828-3.117,4.22,4.22,0,0,0-.953-2.969,3.5,3.5,0,0,0-2.7-1.031A3.909,3.909,0,0,0,6.25-10.7l-.437.406Z" transform="translate(955.051 3838)" fill="#fff"/>
    <path id="Trazado_913929" data-name="Trazado 913929" d="M6.141-13.375H8.547a3.391,3.391,0,0,0,2.547-.859,3.149,3.149,0,0,0,.828-2.281,2.784,2.784,0,0,0-.82-2.141,3.179,3.179,0,0,0-2.258-.766,3.332,3.332,0,0,0-2.172.711A2.273,2.273,0,0,0,5.8-16.859H1.281a5.553,5.553,0,0,1,.961-3.2A6.4,6.4,0,0,1,4.93-22.266a8.969,8.969,0,0,1,3.8-.8,8.506,8.506,0,0,1,5.656,1.727,5.891,5.891,0,0,1,2.047,4.758,4.787,4.787,0,0,1-.953,2.875,6.192,6.192,0,0,1-2.5,2.016,5.653,5.653,0,0,1,2.867,2.063,5.6,5.6,0,0,1,.945,3.25,5.988,5.988,0,0,1-2.211,4.859A8.89,8.89,0,0,1,8.734.313a8.429,8.429,0,0,1-5.57-1.8A5.868,5.868,0,0,1,1-6.234H5.516a2.616,2.616,0,0,0,.961,2.094,3.541,3.541,0,0,0,2.367.813,3.558,3.558,0,0,0,2.523-.852,2.94,2.94,0,0,0,.914-2.258q0-3.406-3.75-3.406H6.141Z" transform="translate(727.051 3838)" fill="#fff"/>
    <path id="Trazado_913937" data-name="Trazado 913937" d="M13.8-22.984v3.719h-.437a7.671,7.671,0,0,0-4.93,1.594,6.475,6.475,0,0,0-2.242,4.3,6.15,6.15,0,0,1,4.578-1.844,5.8,5.8,0,0,1,4.719,2.125A8.518,8.518,0,0,1,17.234-7.5a8.379,8.379,0,0,1-.961,4.016,6.892,6.892,0,0,1-2.719,2.8,7.9,7.9,0,0,1-3.977,1,7.377,7.377,0,0,1-5.8-2.5A9.7,9.7,0,0,1,1.563-8.859v-1.625a14.6,14.6,0,0,1,1.4-6.539,10.254,10.254,0,0,1,4.016-4.391,11.767,11.767,0,0,1,6.07-1.57ZM9.391-11.578a3.608,3.608,0,0,0-1.984.569A3.429,3.429,0,0,0,6.094-9.5v1.372A6.08,6.08,0,0,0,6.984-4.6a2.878,2.878,0,0,0,2.5,1.271,2.846,2.846,0,0,0,2.352-1.146,4.675,4.675,0,0,0,.9-2.971,4.666,4.666,0,0,0-.906-2.994A2.954,2.954,0,0,0,9.391-11.578Z" transform="translate(1055.051 3838)" fill="#fff"/>
  </g>
</svg>
