<svg xmlns="http://www.w3.org/2000/svg" xmlns:xlink="http://www.w3.org/1999/xlink" width="820" height="348.561" viewBox="0 0 820 348.561">
  <defs>
    <linearGradient id="linear-gradient" x1="0.5" x2="0.5" y2="1" gradientUnits="objectBoundingBox">
      <stop offset="0" stop-color="#4b96e3"/>
      <stop offset="1" stop-color="#6b8be8"/>
    </linearGradient>
  </defs>
  <g id="Grupo_1103703" data-name="Grupo 1103703" transform="translate(-390 -1106.937)">
    <path id="Trazado_912393" data-name="Trazado 912393" d="M936.892,371.18a152.975,152.975,0,1,1,108.17-44.806,151.976,151.976,0,0,1-108.17,44.806m0-291.581c-76.427,0-138.6,62.178-138.6,138.6s62.177,138.605,138.6,138.605,138.6-62.178,138.6-138.605S1013.32,79.6,936.892,79.6" transform="translate(99.314 1084.317)" fill="#8ab2ee"/>
    <path id="Trazado_912394" data-name="Trazado 912394" d="M234.18,195.831c-1.873,0-2.964,0-4.055,0-15.794-.068-14.382-1.112-14.38,14.505q.009,64.476,0,128.952c0,3.845,0,3.848-3.888,3.849q-11.912,0-23.824,0c-3.909,0-3.911,0-3.911-3.8q0-68.173,0-136.345c0-6.049-1.115-7.157-7.182-7.163q-4.93,0-9.858-.022c-.18,0-.359-.058-1.161-.2l34.031-40.078,34.225,40.3" transform="translate(335.996 1069.994)" fill="#4b96e3"/>
    <path id="Trazado_912395" data-name="Trazado 912395" d="M197.867,344.976H185.955c-2.527,0-4.522,0-6.152-1.584-1.678-1.63-1.678-3.618-1.678-6.135V200.912a13.341,13.341,0,0,0-.218-3.021,13.435,13.435,0,0,0-3.049-.223q-4.934,0-9.868-.022a5.855,5.855,0,0,1-1.18-.138c-.146-.027-.345-.066-.636-.117a3.919,3.919,0,0,1-2.318-6.4l34.031-40.078a3.919,3.919,0,0,1,5.975,0l34.225,40.3a3.919,3.919,0,0,1-2.987,6.456h-1.72c-.926,0-1.639,0-2.351,0-1.007,0-1.945-.012-2.817-.02a43.47,43.47,0,0,0-7.412.255,40.4,40.4,0,0,0-.234,6.784c.009,1.082.019,2.267.019,3.567q.007,48.751,0,97.5v31.452c0,2.525,0,4.519-1.649,6.151-1.632,1.616-3.629,1.616-6.157,1.617H197.867m-11.9-7.839h23.784V305.755q0-48.749,0-97.5c0-1.277-.01-2.442-.019-3.5-.053-6.377-.082-9.89,2.474-12.443,2.374-2.374,5.513-2.549,11.4-2.512l-25.726-30.29-25.745,30.32,2.736,0c8.194.007,11.1,2.907,11.1,11.082Z" transform="translate(338.077 1072.075)"/>
    <path id="Trazado_912396" data-name="Trazado 912396" d="M322.2,372.837a7.172,7.172,0,0,1-5.176-1.83,7.447,7.447,0,0,1-1.844-5.539c.065-22.706.056-45.795.048-68.124l0-14.292a17.233,17.233,0,0,0-.1-2.373,1.885,1.885,0,0,0-.114-.464,2.652,2.652,0,0,0-.815-.111c-1.7-.027-3.407-.036-5.161-.036-1.262,0-2.55,0-3.882.009-1.436,0-2.923.009-4.483.009H292.2L334.951,229.7l42.756,50.375h-20.12a8.332,8.332,0,0,0-2.823.295,8.562,8.562,0,0,0-.308,2.945q-.008,25.849-.005,51.7v30.117c0,2.371,0,4.419-1.63,6.036-1.615,1.6-3.565,1.6-6.033,1.6h-.205q-3.388,0-6.776-.017t-6.746-.017c-4.13,0-7.481.031-10.546.1-.108,0-.214,0-.317,0" transform="translate(298.824 1036.281)" fill="#6b8be8"/>
    <path id="Trazado_912397" data-name="Trazado 912397" d="M330.459,232.541l34.289,40.4h-7.474l-4.183,0c-5.593.005-7.044,1.459-7.046,7.158q-.013,40.908-.005,81.817c0,3.717-.009,3.721-3.746,3.721h-.218c-4.5,0-9-.034-13.505-.034-3.545,0-7.089.021-10.633.1-.08,0-.157,0-.233,0-2.529,0-3.107-.958-3.1-3.439q.119-41.045.043-82.091a22.786,22.786,0,0,0-.137-3.275c-.372-2.551-1.932-3.882-4.744-3.928-1.725-.028-3.451-.037-5.227-.037-2.622,0-5.355.018-8.362.018l34.282-40.411m0-12.115-5.976,7.044L290.2,267.881l-10.952,12.91h16.93c1.564,0,3.054,0,4.494-.01,1.327,0,2.611-.008,3.868-.008.814,0,1.565,0,2.27.006l0,13.229c.008,22.366.017,45.493-.048,68.233a11.277,11.277,0,0,0,2.988,8.318,10.773,10.773,0,0,0,7.95,2.982c.131,0,.265,0,.4,0,3.036-.065,6.362-.1,10.465-.1q3.361,0,6.723.017,3.391.013,6.782.017h.218c2.689,0,6.034,0,8.795-2.741,2.789-2.767,2.789-6.122,2.79-8.818q0-15.141,0-30.284,0-25.427,0-50.854h27.8l-10.959-12.911-33.362-39.305-.927-1.093Z" transform="translate(303.317 1039.497)"/>
    <path id="Trazado_912398" data-name="Trazado 912398" d="M43.068,387.949a7.248,7.248,0,0,1-5.234-1.847,7.53,7.53,0,0,1-1.846-5.68c.1-18.457.069-36.933.017-54.149a12.933,12.933,0,0,0-.118-2,3.4,3.4,0,0,0-1.5-.567c-1.5-.1-3.1-.144-5.178-.144-1.168,0-2.36.014-3.591.027-1.345.016-2.735.031-4.188.031H12.965l42.753-50.357,42.766,50.352H80.85a37.5,37.5,0,0,0-5.278.223,37.029,37.029,0,0,0-.219,5.187q0,6.406-.007,12.81c-.01,12.657-.021,25.746.062,38.611a7.56,7.56,0,0,1-1.854,5.64,7.141,7.141,0,0,1-5.284,1.858c-.123,0-.249,0-.378,0-4.141-.1-8.283-.149-12.308-.149-4.079,0-8.159.051-12.127.153-.134,0-.263.005-.389.005" transform="translate(385.504 1021.175)" fill="#fa6d61"/>
    <path id="Trazado_912399" data-name="Trazado 912399" d="M51.223,276.1l34.295,40.377H76.354c-9.116,0-9.416.3-9.417,9.33,0,17.149-.054,34.3.056,51.446.017,2.619-.617,3.553-3.218,3.553-.093,0-.187,0-.285,0q-6.2-.148-12.4-.15-6.116,0-12.228.154c-.1,0-.2,0-.289,0-2.653,0-3.174-1.027-3.16-3.586.1-18.061.072-36.122.017-54.183,0-1.5-.048-3.393-.9-4.4a6.832,6.832,0,0,0-4.371-2.068c-1.79-.119-3.586-.153-5.443-.153-2.443,0-4.992.058-7.775.058L51.223,276.1m0-12.11-5.974,7.036-16,18.844L10.962,311.412,0,324.324H16.938c1.482,0,2.879-.016,4.23-.031,1.216-.014,2.392-.027,3.545-.027,1.081,0,2.022.012,2.881.039.05,16.843.08,34.86-.02,52.881-.008,1.486-.031,5.432,2.986,8.466a10.838,10.838,0,0,0,8.012,3c.159,0,.323,0,.491-.007,3.933-.1,7.98-.152,12.026-.152,3.994,0,8.1.05,12.215.148.163,0,.319.006.472.006a10.9,10.9,0,0,0,8.064-3.014,11.394,11.394,0,0,0,2.992-8.429c-.082-12.87-.072-25.97-.062-38.639q0-6.378.007-12.756c0-.393,0-.924.005-1.486.594-.006,1.159-.006,1.573-.006h26.105L91.492,311.407,76.062,293.24,57.2,271.03Z" transform="translate(390 1024.389)"/>
    <path id="Trazado_912439" data-name="Trazado 912439" d="M1039.69,46.015A46.015,46.015,0,1,1,993.675,0a46.015,46.015,0,0,1,46.015,46.015" transform="translate(42.531 1106.937)" fill="#4b96e3"/>
    <path id="Trazado_912440" data-name="Trazado 912440" d="M1049.78,262.411a67.522,67.522,0,1,1-67.522-67.522,67.522,67.522,0,0,1,67.522,67.522" transform="translate(53.949 1039.354)" fill="#4b96e3"/>
    <path id="Trazado_912441" data-name="Trazado 912441" d="M841.739,387.193a46.015,46.015,0,1,1-46.015-46.015,46.015,46.015,0,0,1,46.015,46.015" transform="translate(111.177 988.623)" fill="#4b96e3"/>
    <path id="Trazado_912442" data-name="Trazado 912442" d="M1235.3,387.193a46.015,46.015,0,1,1-46.016-46.015,46.015,46.015,0,0,1,46.016,46.015" transform="translate(-25.303 988.623)" fill="#4b96e3"/>
    <path id="Trazado_912445" data-name="Trazado 912445" d="M984.15,63.741v2.945h-1.723V58.327h3.261a3.774,3.774,0,0,1,1.657.344,2.536,2.536,0,0,1,1.1.979,2.725,2.725,0,0,1,.385,1.444,2.4,2.4,0,0,1-.841,1.937,3.5,3.5,0,0,1-2.327.709Zm0-1.4h1.538a1.513,1.513,0,0,0,1.043-.321,1.169,1.169,0,0,0,.359-.918,1.38,1.38,0,0,0-.361-.994,1.351,1.351,0,0,0-1-.391H984.15Z" transform="translate(30.475 1086.71)" fill="#12263f"/>
    <path id="Trazado_912446" data-name="Trazado 912446" d="M997.363,63.108a4.492,4.492,0,0,0-.6-.046,1.215,1.215,0,0,0-1.234.637v4.065h-1.66V61.552h1.568l.046.741a1.537,1.537,0,0,1,1.383-.856,1.72,1.72,0,0,1,.517.075Z" transform="translate(26.506 1085.632)" fill="#12263f"/>
    <path id="Trazado_912447" data-name="Trazado 912447" d="M999.725,64.6a3.688,3.688,0,0,1,.356-1.648,2.611,2.611,0,0,1,1.025-1.12,2.994,2.994,0,0,1,1.553-.4,2.83,2.83,0,0,1,2.053.769,3.089,3.089,0,0,1,.887,2.09l.012.425a3.247,3.247,0,0,1-.8,2.294,3.093,3.093,0,0,1-4.285,0,3.3,3.3,0,0,1-.8-2.342Zm1.66.118a2.32,2.32,0,0,0,.333,1.354,1.2,1.2,0,0,0,1.894.006,2.541,2.541,0,0,0,.338-1.481,2.3,2.3,0,0,0-.338-1.346,1.1,1.1,0,0,0-.953-.477,1.083,1.083,0,0,0-.941.474,2.582,2.582,0,0,0-.333,1.469" transform="translate(24.476 1085.632)" fill="#12263f"/>
    <path id="Trazado_912448" data-name="Trazado 912448" d="M1009.9,63.29a3.744,3.744,0,0,1,.652-2.314,2.113,2.113,0,0,1,1.783-.861,1.9,1.9,0,0,1,1.5.677V57.623h1.665v8.818H1014l-.08-.66a1.95,1.95,0,0,1-1.6.775,2.107,2.107,0,0,1-1.759-.864,3.864,3.864,0,0,1-.664-2.4m1.66.123a2.451,2.451,0,0,0,.3,1.34.992.992,0,0,0,.884.466,1.11,1.11,0,0,0,1.086-.649V62.114a1.1,1.1,0,0,0-1.074-.65q-1.2,0-1.2,1.949" transform="translate(20.946 1086.954)" fill="#12263f"/>
    <path id="Trazado_912449" data-name="Trazado 912449" d="M1024.14,67.193a2.081,2.081,0,0,1-1.7.747,1.961,1.961,0,0,1-1.524-.574,2.45,2.45,0,0,1-.538-1.683v-4.07h1.66v4.018q0,.971.885.971a1.2,1.2,0,0,0,1.159-.587v-4.4h1.665v6.212h-1.562Z" transform="translate(17.314 1085.57)" fill="#12263f"/>
    <path id="Trazado_912450" data-name="Trazado 912450" d="M1032.96,66.542a1.088,1.088,0,0,0,.747-.253.884.884,0,0,0,.3-.672h1.555a2.121,2.121,0,0,1-.344,1.157,2.273,2.273,0,0,1-.927.815,2.9,2.9,0,0,1-1.3.29,2.7,2.7,0,0,1-2.1-.847,3.351,3.351,0,0,1-.77-2.339v-.109a3.315,3.315,0,0,1,.764-2.291,2.665,2.665,0,0,1,2.1-.855,2.614,2.614,0,0,1,1.869.663,2.345,2.345,0,0,1,.714,1.765H1034a1.141,1.141,0,0,0-.3-.788,1.11,1.11,0,0,0-1.634.12,2.449,2.449,0,0,0-.3,1.371v.173a2.478,2.478,0,0,0,.293,1.38,1.013,1.013,0,0,0,.89.42" transform="translate(13.937 1085.631)" fill="#12263f"/>
    <path id="Trazado_912451" data-name="Trazado 912451" d="M1041.579,59.275V60.8h1.062v1.217h-1.062v3.1a.74.74,0,0,0,.131.494.665.665,0,0,0,.505.15,2.658,2.658,0,0,0,.489-.04V66.98a3.43,3.43,0,0,1-1.005.149,1.584,1.584,0,0,1-1.78-1.762V62.019h-.907V60.8h.907V59.275Z" transform="translate(10.853 1086.381)" fill="#12263f"/>
    <path id="Trazado_912452" data-name="Trazado 912452" d="M1045.323,64.6a3.689,3.689,0,0,1,.356-1.648,2.611,2.611,0,0,1,1.025-1.12,2.994,2.994,0,0,1,1.553-.4,2.83,2.83,0,0,1,2.052.769,3.089,3.089,0,0,1,.887,2.09l.012.425a3.247,3.247,0,0,1-.8,2.294,3.093,3.093,0,0,1-4.285,0,3.3,3.3,0,0,1-.8-2.342Zm1.66.118a2.321,2.321,0,0,0,.333,1.354,1.2,1.2,0,0,0,1.894.006,2.54,2.54,0,0,0,.339-1.481,2.3,2.3,0,0,0-.339-1.346,1.1,1.1,0,0,0-.953-.477,1.083,1.083,0,0,0-.941.474,2.583,2.583,0,0,0-.333,1.469" transform="translate(8.664 1085.632)" fill="#12263f"/>
    <path id="Trazado_912453" data-name="Trazado 912453" d="M979.4,82.6a3.688,3.688,0,0,1,.356-1.648,2.609,2.609,0,0,1,1.024-1.12,2.992,2.992,0,0,1,1.553-.4,2.831,2.831,0,0,1,2.053.77,3.088,3.088,0,0,1,.886,2.09l.012.425a3.249,3.249,0,0,1-.8,2.294,3.094,3.094,0,0,1-4.286,0,3.3,3.3,0,0,1-.8-2.342Zm1.658.118a2.32,2.32,0,0,0,.333,1.354,1.2,1.2,0,0,0,1.894.006,2.54,2.54,0,0,0,.34-1.481,2.3,2.3,0,0,0-.34-1.346,1.1,1.1,0,0,0-.953-.477,1.083,1.083,0,0,0-.941.474,2.582,2.582,0,0,0-.333,1.469" transform="translate(31.525 1079.39)" fill="#12263f"/>
    <path id="Trazado_912454" data-name="Trazado 912454" d="M997.648,84.047a.534.534,0,0,0-.3-.479,3.426,3.426,0,0,0-.967-.313q-2.216-.464-2.216-1.883a1.706,1.706,0,0,1,.686-1.38,2.766,2.766,0,0,1,1.794-.555,2.978,2.978,0,0,1,1.891.557,1.754,1.754,0,0,1,.709,1.447h-1.659a.8.8,0,0,0-.229-.589.976.976,0,0,0-.719-.233.992.992,0,0,0-.648.189.6.6,0,0,0-.23.482.51.51,0,0,0,.261.445,2.679,2.679,0,0,0,.88.293,7.226,7.226,0,0,1,1.045.278,1.718,1.718,0,0,1,1.316,1.671,1.622,1.622,0,0,1-.73,1.375,3.148,3.148,0,0,1-1.883.525,3.275,3.275,0,0,1-1.386-.279,2.314,2.314,0,0,1-.95-.764,1.771,1.771,0,0,1-.345-1.048h1.573a.869.869,0,0,0,.327.678,1.3,1.3,0,0,0,.815.235,1.2,1.2,0,0,0,.721-.181.561.561,0,0,0,.244-.474" transform="translate(26.472 1079.39)" fill="#12263f"/>
    <path id="Trazado_912455" data-name="Trazado 912455" d="M1006.448,85.878a3.048,3.048,0,0,1-2.225-.838,2.979,2.979,0,0,1-.859-2.233v-.161a3.755,3.755,0,0,1,.363-1.674,2.654,2.654,0,0,1,1.024-1.137,2.881,2.881,0,0,1,1.514-.4,2.575,2.575,0,0,1,2.006.8A3.265,3.265,0,0,1,1009,82.52V83.2h-3.955a1.545,1.545,0,0,0,.485.976,1.465,1.465,0,0,0,1.024.368,1.792,1.792,0,0,0,1.5-.7l.815.913a2.49,2.49,0,0,1-1.01.824,3.312,3.312,0,0,1-1.412.3m-.19-5.1a1.038,1.038,0,0,0-.8.334,1.735,1.735,0,0,0-.393.958h2.308v-.133a1.236,1.236,0,0,0-.3-.856,1.069,1.069,0,0,0-.815-.3" transform="translate(23.214 1079.39)" fill="#12263f"/>
    <path id="Trazado_912456" data-name="Trazado 912456" d="M1016.927,81.108a4.486,4.486,0,0,0-.6-.046,1.215,1.215,0,0,0-1.234.637v4.065h-1.66V79.552H1015l.046.741a1.537,1.537,0,0,1,1.383-.856,1.721,1.721,0,0,1,.517.075Z" transform="translate(19.722 1079.39)" fill="#12263f"/>
    <path id="Trazado_912457" data-name="Trazado 912457" d="M1022.187,83.8l1.155-4.185h1.734l-2.1,6.212h-1.585l-2.095-6.212h1.734Z" transform="translate(17.688 1079.328)" fill="#12263f"/>
    <path id="Trazado_912458" data-name="Trazado 912458" d="M1029.239,76.7a.816.816,0,0,1,.25-.614,1.076,1.076,0,0,1,1.357,0,.877.877,0,0,1,0,1.235,1.064,1.064,0,0,1-1.349,0,.816.816,0,0,1-.256-.621m1.763,7.82h-1.665V78.306H1031Z" transform="translate(14.241 1080.636)" fill="#12263f"/>
    <path id="Trazado_912459" data-name="Trazado 912459" d="M1036.476,84.542a1.088,1.088,0,0,0,.747-.253.885.885,0,0,0,.3-.672h1.555a2.123,2.123,0,0,1-.344,1.157,2.274,2.274,0,0,1-.927.815,2.9,2.9,0,0,1-1.3.29,2.7,2.7,0,0,1-2.1-.847,3.351,3.351,0,0,1-.769-2.339v-.109a3.314,3.314,0,0,1,.764-2.291,2.664,2.664,0,0,1,2.095-.855,2.613,2.613,0,0,1,1.87.663,2.346,2.346,0,0,1,.714,1.765h-1.555a1.141,1.141,0,0,0-.3-.788,1.11,1.11,0,0,0-1.634.12,2.448,2.448,0,0,0-.3,1.371v.173a2.479,2.479,0,0,0,.293,1.38,1.012,1.012,0,0,0,.89.42" transform="translate(12.718 1079.39)" fill="#12263f"/>
    <path id="Trazado_912460" data-name="Trazado 912460" d="M1043.4,76.7a.815.815,0,0,1,.249-.614,1.077,1.077,0,0,1,1.358,0,.876.876,0,0,1,0,1.235,1.064,1.064,0,0,1-1.349,0,.815.815,0,0,1-.255-.621m1.762,7.82H1043.5V78.306h1.665Z" transform="translate(9.331 1080.636)" fill="#12263f"/>
    <path id="Trazado_912461" data-name="Trazado 912461" d="M1047.794,82.6a3.687,3.687,0,0,1,.356-1.648,2.61,2.61,0,0,1,1.024-1.12,2.991,2.991,0,0,1,1.553-.4,2.831,2.831,0,0,1,2.053.77,3.088,3.088,0,0,1,.886,2.09l.012.425a3.25,3.25,0,0,1-.8,2.294,3.094,3.094,0,0,1-4.286,0,3.3,3.3,0,0,1-.8-2.342Zm1.658.118a2.321,2.321,0,0,0,.333,1.354,1.2,1.2,0,0,0,1.894.006,2.54,2.54,0,0,0,.34-1.481,2.3,2.3,0,0,0-.34-1.346,1.1,1.1,0,0,0-.953-.477,1.083,1.083,0,0,0-.941.474,2.583,2.583,0,0,0-.333,1.469" transform="translate(7.807 1079.39)" fill="#12263f"/>
    <path id="Trazado_912462" data-name="Trazado 912462" d="M977.546,281.864a2.961,2.961,0,0,1-1,2.124,3.5,3.5,0,0,1-2.369.775,3.146,3.146,0,0,1-2.529-1.082,4.437,4.437,0,0,1-.922-2.971V280.2a5.009,5.009,0,0,1,.425-2.124,3.181,3.181,0,0,1,1.214-1.41,3.795,3.795,0,0,1,4.165.285,3.18,3.18,0,0,1,1.022,2.176h-1.723a1.743,1.743,0,0,0-.451-1.174,1.666,1.666,0,0,0-1.179-.364,1.467,1.467,0,0,0-1.29.617,3.473,3.473,0,0,0-.439,1.915v.632a3.7,3.7,0,0,0,.411,1.981,1.435,1.435,0,0,0,1.295.626,1.7,1.7,0,0,0,1.191-.365,1.644,1.644,0,0,0,.451-1.128Z" transform="translate(34.531 1011.165)" fill="#12263f"/>
    <path id="Trazado_912463" data-name="Trazado 912463" d="M982.333,282.624a3.686,3.686,0,0,1,.356-1.647,2.611,2.611,0,0,1,1.024-1.12,3,3,0,0,1,1.553-.4,2.828,2.828,0,0,1,2.052.769,3.087,3.087,0,0,1,.887,2.09l.012.425a3.245,3.245,0,0,1-.8,2.293,3.092,3.092,0,0,1-4.285,0,3.3,3.3,0,0,1-.8-2.342Zm1.659.118a2.32,2.32,0,0,0,.333,1.354,1.2,1.2,0,0,0,1.894.006,2.541,2.541,0,0,0,.339-1.481,2.3,2.3,0,0,0-.339-1.345,1.1,1.1,0,0,0-.953-.478,1.084,1.084,0,0,0-.941.474,2.583,2.583,0,0,0-.333,1.469" transform="translate(30.507 1010.025)" fill="#12263f"/>
    <path id="Trazado_912464" data-name="Trazado 912464" d="M994.415,279.576l.052.718a2.169,2.169,0,0,1,1.786-.833,1.8,1.8,0,0,1,1.469.58,2.7,2.7,0,0,1,.494,1.734v4.013h-1.659v-3.973a1.079,1.079,0,0,0-.229-.767,1.029,1.029,0,0,0-.764-.238,1.141,1.141,0,0,0-1.051.6v4.38h-1.659v-6.212Z" transform="translate(26.859 1010.025)" fill="#12263f"/>
    <path id="Trazado_912465" data-name="Trazado 912465" d="M1003.191,284.4v-4.994h-.925v-1.218h.925v-.528a2.144,2.144,0,0,1,.6-1.623,2.321,2.321,0,0,1,1.679-.577,3.88,3.88,0,0,1,.844.115l-.017,1.286a2.109,2.109,0,0,0-.505-.052q-.936,0-.935.879v.5h1.235v1.218h-1.235V284.4Z" transform="translate(23.595 1011.412)" fill="#12263f"/>
    <path id="Trazado_912466" data-name="Trazado 912466" d="M1009.421,276.722a.815.815,0,0,1,.25-.615,1.076,1.076,0,0,1,1.357,0,.878.878,0,0,1,0,1.235,1.066,1.066,0,0,1-1.35,0,.818.818,0,0,1-.255-.62m1.763,7.819h-1.665v-6.212h1.665Z" transform="translate(21.114 1011.271)" fill="#12263f"/>
    <path id="Trazado_912467" data-name="Trazado 912467" d="M1013.842,282.636a3.64,3.64,0,0,1,.681-2.3,2.2,2.2,0,0,1,1.834-.873,1.934,1.934,0,0,1,1.59.7l.069-.585h1.5v6.005a2.661,2.661,0,0,1-.37,1.418,2.382,2.382,0,0,1-1.042.918,3.655,3.655,0,0,1-1.573.316,3.41,3.41,0,0,1-1.332-.273,2.366,2.366,0,0,1-.982-.7l.735-1.011a1.943,1.943,0,0,0,1.5.694,1.421,1.421,0,0,0,1.028-.353,1.324,1.324,0,0,0,.368-1v-.333a1.92,1.92,0,0,1-1.51.649,2.2,2.2,0,0,1-1.811-.875,3.632,3.632,0,0,1-.693-2.322Zm1.659.123a2.265,2.265,0,0,0,.339,1.325,1.075,1.075,0,0,0,.929.481,1.153,1.153,0,0,0,1.086-.57v-2.616a1.149,1.149,0,0,0-1.074-.569,1.084,1.084,0,0,0-.939.489,2.553,2.553,0,0,0-.342,1.46" transform="translate(19.581 1010.025)" fill="#12263f"/>
    <path id="Trazado_912468" data-name="Trazado 912468" d="M1028.184,285.217a2.081,2.081,0,0,1-1.7.747,1.965,1.965,0,0,1-1.525-.574,2.456,2.456,0,0,1-.536-1.683v-4.07h1.659v4.017q0,.972.885.972a1.2,1.2,0,0,0,1.159-.587v-4.4h1.665v6.212h-1.562Z" transform="translate(15.911 1009.964)" fill="#12263f"/>
    <path id="Trazado_912469" data-name="Trazado 912469" d="M1038.048,281.132a4.492,4.492,0,0,0-.6-.046,1.216,1.216,0,0,0-1.235.637v4.065h-1.659v-6.212h1.568l.046.741a1.538,1.538,0,0,1,1.384-.856,1.722,1.722,0,0,1,.516.075Z" transform="translate(12.397 1010.025)" fill="#12263f"/>
    <path id="Trazado_912470" data-name="Trazado 912470" d="M1044.328,285.788a1.819,1.819,0,0,1-.167-.557,2.007,2.007,0,0,1-1.568.672,2.207,2.207,0,0,1-1.513-.528,1.7,1.7,0,0,1-.6-1.332,1.754,1.754,0,0,1,.732-1.516,3.61,3.61,0,0,1,2.115-.534h.764v-.356a1.021,1.021,0,0,0-.221-.689.868.868,0,0,0-.7-.258.987.987,0,0,0-.658.2.684.684,0,0,0-.238.551h-1.659a1.667,1.667,0,0,1,.333-1,2.2,2.2,0,0,1,.941-.721,3.437,3.437,0,0,1,1.366-.261,2.713,2.713,0,0,1,1.823.577,2.021,2.021,0,0,1,.674,1.622v2.693a2.973,2.973,0,0,0,.247,1.338v.1Zm-1.372-1.154a1.427,1.427,0,0,0,.677-.164,1.07,1.07,0,0,0,.459-.439v-1.068h-.62q-1.245,0-1.326.862l-.006.1a.663.663,0,0,0,.218.511.848.848,0,0,0,.6.2" transform="translate(10.343 1010.025)" fill="#12263f"/>
    <path id="Trazado_912471" data-name="Trazado 912471" d="M1054,281.132a4.493,4.493,0,0,0-.6-.046,1.216,1.216,0,0,0-1.234.637v4.065h-1.659v-6.212h1.568l.046.741a1.538,1.538,0,0,1,1.384-.856,1.721,1.721,0,0,1,.517.075Z" transform="translate(6.865 1010.025)" fill="#12263f"/>
    <path id="Trazado_912472" data-name="Trazado 912472" d="M1065.026,285.788a1.812,1.812,0,0,1-.167-.557,2.007,2.007,0,0,1-1.568.672,2.2,2.2,0,0,1-1.511-.528,1.7,1.7,0,0,1-.6-1.332,1.757,1.757,0,0,1,.732-1.516,3.615,3.615,0,0,1,2.116-.534h.764v-.356a1.031,1.031,0,0,0-.221-.689.874.874,0,0,0-.7-.258.983.983,0,0,0-.658.2.682.682,0,0,0-.239.551h-1.658a1.663,1.663,0,0,1,.333-1,2.2,2.2,0,0,1,.941-.721,3.44,3.44,0,0,1,1.367-.261,2.711,2.711,0,0,1,1.823.577,2.02,2.02,0,0,1,.674,1.622v2.693a2.961,2.961,0,0,0,.248,1.338v.1Zm-1.372-1.154a1.429,1.429,0,0,0,.677-.164,1.079,1.079,0,0,0,.459-.439v-1.068h-.621q-1.245,0-1.325.862l-.007.1a.663.663,0,0,0,.218.511.848.848,0,0,0,.6.2" transform="translate(3.165 1010.025)" fill="#12263f"/>
    <path id="Trazado_913893" data-name="Trazado 913893" d="M0,0H1.665V8.818H0Z" transform="translate(1001.108 1298.752)" fill="#12263f"/>
    <path id="Trazado_912473" data-name="Trazado 912473" d="M972.483,303.788a1.818,1.818,0,0,1-.167-.557,2.006,2.006,0,0,1-1.567.672,2.206,2.206,0,0,1-1.513-.528,1.7,1.7,0,0,1-.6-1.332,1.756,1.756,0,0,1,.732-1.516,3.613,3.613,0,0,1,2.116-.534h.763v-.356a1.024,1.024,0,0,0-.221-.689.87.87,0,0,0-.7-.258.985.985,0,0,0-.657.2.682.682,0,0,0-.238.551h-1.659a1.668,1.668,0,0,1,.333-1,2.2,2.2,0,0,1,.941-.721,3.438,3.438,0,0,1,1.367-.261,2.71,2.71,0,0,1,1.822.577,2.02,2.02,0,0,1,.674,1.622v2.693a2.971,2.971,0,0,0,.248,1.338v.1Zm-1.373-1.154a1.428,1.428,0,0,0,.677-.164,1.072,1.072,0,0,0,.459-.439v-1.068h-.62q-1.245,0-1.325.862l-.007.1a.663.663,0,0,0,.218.511.848.848,0,0,0,.6.2" transform="translate(35.257 1003.783)" fill="#12263f"/>
    <path id="Trazado_912474" data-name="Trazado 912474" d="M985.885,303.9a3.047,3.047,0,0,1-2.224-.838,2.979,2.979,0,0,1-.858-2.233v-.161a3.755,3.755,0,0,1,.361-1.674,2.656,2.656,0,0,1,1.025-1.137,2.873,2.873,0,0,1,1.513-.4,2.577,2.577,0,0,1,2.007.8,3.265,3.265,0,0,1,.732,2.279v.677h-3.956a1.542,1.542,0,0,0,.485.976,1.467,1.467,0,0,0,1.025.368,1.79,1.79,0,0,0,1.5-.7l.815.913a2.485,2.485,0,0,1-1.011.823,3.311,3.311,0,0,1-1.412.3m-.189-5.1a1.04,1.04,0,0,0-.8.334,1.736,1.736,0,0,0-.392.958h2.308v-.133a1.237,1.237,0,0,0-.3-.856,1.07,1.07,0,0,0-.815-.3" transform="translate(30.344 1003.783)" fill="#12263f"/>
    <path id="Trazado_912475" data-name="Trazado 912475" d="M994.431,297.576l.052.694a2.182,2.182,0,0,1,1.785-.809,1.658,1.658,0,0,1,1.648.947,2.133,2.133,0,0,1,1.865-.947,1.851,1.851,0,0,1,1.5.589,2.7,2.7,0,0,1,.494,1.772v3.967h-1.665v-3.962a1.182,1.182,0,0,0-.206-.772.914.914,0,0,0-.728-.244,1.036,1.036,0,0,0-1.034.711l.005,4.266h-1.658v-3.956a1.166,1.166,0,0,0-.213-.781.925.925,0,0,0-.723-.241,1.075,1.075,0,0,0-1.022.585v4.392h-1.658v-6.212Z" transform="translate(26.851 1003.783)" fill="#12263f"/>
    <path id="Trazado_912476" data-name="Trazado 912476" d="M1014.049,300.739a3.725,3.725,0,0,1-.651,2.3,2.089,2.089,0,0,1-1.76.864,1.933,1.933,0,0,1-1.521-.655v2.928h-1.66v-8.6H1010l.057.608a1.95,1.95,0,0,1,1.573-.723,2.1,2.1,0,0,1,1.786.85,3.823,3.823,0,0,1,.637,2.342Zm-1.659-.121a2.443,2.443,0,0,0-.308-1.338,1,1,0,0,0-.893-.471,1.084,1.084,0,0,0-1.073.6v2.543a1.1,1.1,0,0,0,1.084.614q1.189,0,1.189-1.946" transform="translate(21.448 1003.783)" fill="#12263f"/>
    <path id="Trazado_912477" data-name="Trazado 912477" d="M1022.083,299.132a4.486,4.486,0,0,0-.6-.046,1.217,1.217,0,0,0-1.235.637v4.065h-1.659v-6.212h1.567l.046.741a1.539,1.539,0,0,1,1.384-.856,1.72,1.72,0,0,1,.516.075Z" transform="translate(17.934 1003.783)" fill="#12263f"/>
    <path id="Trazado_912478" data-name="Trazado 912478" d="M1027.731,303.9a3.048,3.048,0,0,1-2.225-.838,2.979,2.979,0,0,1-.859-2.233v-.161a3.754,3.754,0,0,1,.363-1.674,2.657,2.657,0,0,1,1.024-1.137,2.876,2.876,0,0,1,1.514-.4,2.575,2.575,0,0,1,2.006.8,3.265,3.265,0,0,1,.732,2.279v.677h-3.955a1.545,1.545,0,0,0,.485.976,1.465,1.465,0,0,0,1.024.368,1.792,1.792,0,0,0,1.5-.7l.815.913a2.484,2.484,0,0,1-1.011.823,3.312,3.312,0,0,1-1.412.3m-.19-5.1a1.038,1.038,0,0,0-.8.334,1.737,1.737,0,0,0-.393.958h2.308v-.133a1.235,1.235,0,0,0-.3-.856,1.07,1.07,0,0,0-.815-.3" transform="translate(15.834 1003.783)" fill="#12263f"/>
    <path id="Trazado_912479" data-name="Trazado 912479" d="M1037.917,302.071a.533.533,0,0,0-.3-.479,3.427,3.427,0,0,0-.967-.313q-2.216-.464-2.216-1.883a1.707,1.707,0,0,1,.686-1.381,2.768,2.768,0,0,1,1.794-.554,2.978,2.978,0,0,1,1.891.557,1.754,1.754,0,0,1,.709,1.447h-1.658a.806.806,0,0,0-.229-.589.976.976,0,0,0-.719-.232.991.991,0,0,0-.648.189.6.6,0,0,0-.23.482.511.511,0,0,0,.261.445,2.684,2.684,0,0,0,.881.293,7.234,7.234,0,0,1,1.045.279,1.717,1.717,0,0,1,1.315,1.671,1.62,1.62,0,0,1-.73,1.374,3.149,3.149,0,0,1-1.883.526,3.286,3.286,0,0,1-1.386-.279,2.317,2.317,0,0,1-.949-.764,1.772,1.772,0,0,1-.345-1.048h1.573a.869.869,0,0,0,.327.678,1.3,1.3,0,0,0,.815.235,1.2,1.2,0,0,0,.721-.181.563.563,0,0,0,.244-.474" transform="translate(12.508 1003.783)" fill="#12263f"/>
    <path id="Trazado_912480" data-name="Trazado 912480" d="M1047.443,303.788a1.823,1.823,0,0,1-.166-.557,2.009,2.009,0,0,1-1.568.672,2.2,2.2,0,0,1-1.512-.528,1.7,1.7,0,0,1-.6-1.332,1.756,1.756,0,0,1,.732-1.516,3.611,3.611,0,0,1,2.115-.534h.764v-.356a1.025,1.025,0,0,0-.221-.689.87.87,0,0,0-.7-.258.986.986,0,0,0-.658.2.682.682,0,0,0-.238.551h-1.66a1.668,1.668,0,0,1,.333-1,2.2,2.2,0,0,1,.942-.721,3.436,3.436,0,0,1,1.366-.261,2.713,2.713,0,0,1,1.823.577,2.021,2.021,0,0,1,.675,1.622v2.693a2.971,2.971,0,0,0,.246,1.338v.1Zm-1.372-1.154a1.428,1.428,0,0,0,.677-.164,1.071,1.071,0,0,0,.459-.439v-1.068h-.62q-1.245,0-1.326.862l-.005.1a.663.663,0,0,0,.218.511.848.848,0,0,0,.6.2" transform="translate(9.263 1003.783)" fill="#12263f"/>
    <path id="Trazado_912481" data-name="Trazado 912481" d="M1060.848,303.9a3.048,3.048,0,0,1-2.225-.838,2.979,2.979,0,0,1-.859-2.233v-.161a3.754,3.754,0,0,1,.362-1.674,2.655,2.655,0,0,1,1.024-1.137,2.875,2.875,0,0,1,1.514-.4,2.575,2.575,0,0,1,2.006.8,3.264,3.264,0,0,1,.732,2.279v.677h-3.955a1.544,1.544,0,0,0,.485.976,1.466,1.466,0,0,0,1.024.368,1.792,1.792,0,0,0,1.5-.7l.815.913a2.484,2.484,0,0,1-1.011.823,3.311,3.311,0,0,1-1.412.3m-.19-5.1a1.037,1.037,0,0,0-.8.334,1.735,1.735,0,0,0-.393.958h2.308v-.133a1.236,1.236,0,0,0-.3-.856,1.07,1.07,0,0,0-.815-.3" transform="translate(4.349 1003.783)" fill="#12263f"/>
    <path id="Trazado_912482" data-name="Trazado 912482" d="M1069.345,297.576l.052.718a2.166,2.166,0,0,1,1.785-.833,1.8,1.8,0,0,1,1.468.58,2.7,2.7,0,0,1,.495,1.734v4.013h-1.659v-3.973a1.078,1.078,0,0,0-.229-.767,1.032,1.032,0,0,0-.765-.238,1.141,1.141,0,0,0-1.051.6v4.38h-1.66v-6.212Z" transform="translate(0.875 1003.783)" fill="#12263f"/>
    <path id="Trazado_912483" data-name="Trazado 912483" d="M952.994,313.3v1.527h1.062v1.217h-1.062v3.1a.739.739,0,0,0,.132.494.665.665,0,0,0,.506.15,2.648,2.648,0,0,0,.488-.04V321a3.424,3.424,0,0,1-1,.149,1.584,1.584,0,0,1-1.78-1.762v-3.347h-.907v-1.217h.907V313.3Z" transform="translate(41.571 998.291)" fill="#12263f"/>
    <path id="Trazado_912484" data-name="Trazado 912484" d="M960.889,317.132a4.484,4.484,0,0,0-.6-.046,1.216,1.216,0,0,0-1.235.637v4.065H957.4v-6.212h1.568l.046.741a1.538,1.538,0,0,1,1.384-.856,1.722,1.722,0,0,1,.517.075Z" transform="translate(39.154 997.541)" fill="#12263f"/>
    <path id="Trazado_912485" data-name="Trazado 912485" d="M966.537,321.9a3.047,3.047,0,0,1-2.224-.838,2.977,2.977,0,0,1-.859-2.233v-.161a3.755,3.755,0,0,1,.362-1.674,2.651,2.651,0,0,1,1.025-1.137,2.872,2.872,0,0,1,1.513-.4,2.574,2.574,0,0,1,2.006.8,3.262,3.262,0,0,1,.732,2.279v.677h-3.955a1.539,1.539,0,0,0,.485.976,1.464,1.464,0,0,0,1.024.368,1.791,1.791,0,0,0,1.5-.7l.815.913a2.484,2.484,0,0,1-1.011.823,3.312,3.312,0,0,1-1.412.3m-.19-5.1a1.04,1.04,0,0,0-.8.334,1.742,1.742,0,0,0-.393.958h2.308v-.133a1.235,1.235,0,0,0-.3-.856,1.07,1.07,0,0,0-.815-.3" transform="translate(37.054 997.541)" fill="#12263f"/>
    <path id="Trazado_912486" data-name="Trazado 912486" d="M976.723,320.071a.534.534,0,0,0-.3-.479,3.439,3.439,0,0,0-.967-.313q-2.216-.464-2.216-1.883a1.709,1.709,0,0,1,.686-1.381,2.77,2.77,0,0,1,1.794-.554,2.976,2.976,0,0,1,1.891.557,1.753,1.753,0,0,1,.709,1.447H976.66a.805.805,0,0,0-.229-.589.974.974,0,0,0-.718-.232.993.993,0,0,0-.648.189.6.6,0,0,0-.23.482.512.512,0,0,0,.261.445,2.692,2.692,0,0,0,.881.293,7.225,7.225,0,0,1,1.045.279A1.717,1.717,0,0,1,978.337,320a1.619,1.619,0,0,1-.729,1.374,3.148,3.148,0,0,1-1.883.526,3.289,3.289,0,0,1-1.387-.279,2.322,2.322,0,0,1-.95-.764,1.771,1.771,0,0,1-.345-1.048h1.573a.87.87,0,0,0,.327.678,1.3,1.3,0,0,0,.815.235,1.206,1.206,0,0,0,.721-.181.564.564,0,0,0,.244-.474" transform="translate(33.729 997.541)" fill="#12263f"/>
    <path id="Trazado_912487" data-name="Trazado 912487" d="M986.868,317.314A3.738,3.738,0,0,1,987.52,315a2.113,2.113,0,0,1,1.783-.862,1.9,1.9,0,0,1,1.5.677v-3.169h1.665v8.818h-1.5l-.08-.66a1.952,1.952,0,0,1-1.6.775,2.106,2.106,0,0,1-1.759-.864,3.857,3.857,0,0,1-.664-2.4m1.659.123a2.451,2.451,0,0,0,.3,1.34.993.993,0,0,0,.884.466,1.11,1.11,0,0,0,1.085-.65v-2.455a1.094,1.094,0,0,0-1.073-.649q-1.2,0-1.2,1.949" transform="translate(28.935 998.863)" fill="#12263f"/>
    <path id="Trazado_912488" data-name="Trazado 912488" d="M997.388,312.722a.819.819,0,0,1,.25-.615,1.077,1.077,0,0,1,1.358,0,.877.877,0,0,1,0,1.235,1.064,1.064,0,0,1-1.349,0,.812.812,0,0,1-.256-.62m1.763,7.819h-1.665v-6.212h1.665Z" transform="translate(25.287 998.788)" fill="#12263f"/>
    <path id="Trazado_912489" data-name="Trazado 912489" d="M1003.734,315.576l.052.694a2.183,2.183,0,0,1,1.786-.809,1.657,1.657,0,0,1,1.647.947,2.134,2.134,0,0,1,1.866-.947,1.852,1.852,0,0,1,1.5.589,2.7,2.7,0,0,1,.494,1.772v3.967h-1.665v-3.962a1.182,1.182,0,0,0-.206-.772.915.915,0,0,0-.729-.244,1.035,1.035,0,0,0-1.033.711l.005,4.266h-1.659v-3.956a1.167,1.167,0,0,0-.212-.781.925.925,0,0,0-.723-.241,1.075,1.075,0,0,0-1.022.585v4.392h-1.659v-6.212Z" transform="translate(23.625 997.541)" fill="#12263f"/>
    <path id="Trazado_912490" data-name="Trazado 912490" d="M1020.5,321.9a3.046,3.046,0,0,1-2.224-.838,2.976,2.976,0,0,1-.859-2.233v-.161a3.755,3.755,0,0,1,.362-1.674,2.65,2.65,0,0,1,1.025-1.137,2.871,2.871,0,0,1,1.513-.4,2.574,2.574,0,0,1,2.006.8,3.262,3.262,0,0,1,.732,2.279v.677H1019.1a1.54,1.54,0,0,0,.485.976,1.464,1.464,0,0,0,1.024.368,1.791,1.791,0,0,0,1.5-.7l.815.913a2.488,2.488,0,0,1-1.01.823,3.311,3.311,0,0,1-1.412.3m-.19-5.1a1.04,1.04,0,0,0-.8.334,1.742,1.742,0,0,0-.393.958h2.308v-.133a1.236,1.236,0,0,0-.3-.856,1.069,1.069,0,0,0-.815-.3" transform="translate(18.34 997.541)" fill="#12263f"/>
    <path id="Trazado_912491" data-name="Trazado 912491" d="M1029,315.576l.052.718a2.169,2.169,0,0,1,1.786-.833,1.8,1.8,0,0,1,1.469.58,2.7,2.7,0,0,1,.494,1.734v4.013h-1.659v-3.973a1.079,1.079,0,0,0-.229-.767,1.029,1.029,0,0,0-.764-.238,1.142,1.142,0,0,0-1.051.6v4.381h-1.659v-6.212Z" transform="translate(14.866 997.541)" fill="#12263f"/>
    <path id="Trazado_912492" data-name="Trazado 912492" d="M1040.768,320.071a.532.532,0,0,0-.3-.479,3.421,3.421,0,0,0-.967-.313q-2.216-.464-2.216-1.883a1.706,1.706,0,0,1,.687-1.381,2.766,2.766,0,0,1,1.794-.554,2.98,2.98,0,0,1,1.892.557,1.756,1.756,0,0,1,.709,1.447H1040.7a.806.806,0,0,0-.229-.589.974.974,0,0,0-.718-.232.994.994,0,0,0-.649.189.6.6,0,0,0-.23.482.51.51,0,0,0,.262.445,2.676,2.676,0,0,0,.88.293,7.225,7.225,0,0,1,1.045.279,1.717,1.717,0,0,1,1.315,1.671,1.62,1.62,0,0,1-.729,1.374,3.149,3.149,0,0,1-1.883.526,3.282,3.282,0,0,1-1.386-.279,2.317,2.317,0,0,1-.95-.764,1.772,1.772,0,0,1-.345-1.048h1.573a.87.87,0,0,0,.327.678,1.3,1.3,0,0,0,.815.235,1.2,1.2,0,0,0,.72-.181.561.561,0,0,0,.244-.474" transform="translate(11.52 997.541)" fill="#12263f"/>
    <path id="Trazado_912493" data-name="Trazado 912493" d="M1046.809,312.722a.815.815,0,0,1,.25-.615,1.076,1.076,0,0,1,1.357,0,.877.877,0,0,1,0,1.235,1.065,1.065,0,0,1-1.349,0,.817.817,0,0,1-.255-.62m1.763,7.819h-1.665v-6.212h1.665Z" transform="translate(8.148 998.788)" fill="#12263f"/>
    <path id="Trazado_912494" data-name="Trazado 912494" d="M1051.2,318.624a3.685,3.685,0,0,1,.356-1.647,2.61,2.61,0,0,1,1.024-1.12,3,3,0,0,1,1.553-.4,2.828,2.828,0,0,1,2.052.769,3.087,3.087,0,0,1,.887,2.09l.012.425a3.245,3.245,0,0,1-.8,2.293,3.092,3.092,0,0,1-4.285,0,3.3,3.3,0,0,1-.8-2.342Zm1.659.118a2.32,2.32,0,0,0,.333,1.354,1.2,1.2,0,0,0,1.894.006,2.541,2.541,0,0,0,.339-1.481,2.3,2.3,0,0,0-.339-1.345,1.1,1.1,0,0,0-.953-.477,1.084,1.084,0,0,0-.941.474,2.582,2.582,0,0,0-.333,1.469" transform="translate(6.625 997.541)" fill="#12263f"/>
    <path id="Trazado_912495" data-name="Trazado 912495" d="M1063.286,315.576l.052.718a2.169,2.169,0,0,1,1.786-.833,1.8,1.8,0,0,1,1.469.58,2.7,2.7,0,0,1,.494,1.734v4.013h-1.659v-3.973a1.078,1.078,0,0,0-.229-.767,1.029,1.029,0,0,0-.764-.238,1.142,1.142,0,0,0-1.051.6v4.381h-1.659v-6.212Z" transform="translate(2.976 997.541)" fill="#12263f"/>
    <path id="Trazado_912496" data-name="Trazado 912496" d="M1074.6,321.9a3.045,3.045,0,0,1-2.224-.838,2.977,2.977,0,0,1-.859-2.233v-.161a3.755,3.755,0,0,1,.361-1.674,2.654,2.654,0,0,1,1.026-1.137,2.869,2.869,0,0,1,1.512-.4,2.576,2.576,0,0,1,2.007.8,3.262,3.262,0,0,1,.732,2.279v.677H1073.2a1.539,1.539,0,0,0,.486.976,1.464,1.464,0,0,0,1.024.368,1.79,1.79,0,0,0,1.5-.7l.815.913a2.483,2.483,0,0,1-1.01.823,3.311,3.311,0,0,1-1.412.3m-.189-5.1a1.038,1.038,0,0,0-.8.334,1.732,1.732,0,0,0-.392.958h2.308v-.133a1.235,1.235,0,0,0-.3-.856,1.069,1.069,0,0,0-.815-.3" transform="translate(-0.419 997.541)" fill="#12263f"/>
    <path id="Trazado_912497" data-name="Trazado 912497" d="M1084.784,320.071a.532.532,0,0,0-.3-.479,3.419,3.419,0,0,0-.966-.313q-2.217-.464-2.217-1.883a1.707,1.707,0,0,1,.687-1.381,2.767,2.767,0,0,1,1.794-.554,2.98,2.98,0,0,1,1.892.557,1.755,1.755,0,0,1,.708,1.447h-1.658a.8.8,0,0,0-.229-.589.975.975,0,0,0-.719-.232.99.99,0,0,0-.648.189.6.6,0,0,0-.23.482.51.51,0,0,0,.262.445,2.671,2.671,0,0,0,.88.293,7.229,7.229,0,0,1,1.045.279A1.717,1.717,0,0,1,1086.4,320a1.62,1.62,0,0,1-.73,1.374,3.149,3.149,0,0,1-1.883.526,3.28,3.28,0,0,1-1.385-.279,2.316,2.316,0,0,1-.95-.764,1.772,1.772,0,0,1-.345-1.048h1.573a.869.869,0,0,0,.327.678,1.3,1.3,0,0,0,.815.235,1.207,1.207,0,0,0,.721-.181.564.564,0,0,0,.244-.474" transform="translate(-3.745 997.541)" fill="#12263f"/>
    <path id="Trazado_912498" data-name="Trazado 912498" d="M1173.632,404.461h-3.02l-.574,1.722h-1.832l3.112-8.359h1.6l3.129,8.359h-1.832Zm-2.555-1.4h2.09l-1.05-3.129Z" transform="translate(-33.95 968.979)" fill="#12263f"/>
    <path id="Trazado_912499" data-name="Trazado 912499" d="M1183.678,406.04a1.088,1.088,0,0,0,.747-.253.884.884,0,0,0,.3-.672h1.555a2.12,2.12,0,0,1-.344,1.157,2.272,2.272,0,0,1-.927.815,2.9,2.9,0,0,1-1.3.29,2.7,2.7,0,0,1-2.1-.847,3.351,3.351,0,0,1-.77-2.339v-.109a3.314,3.314,0,0,1,.764-2.291,2.667,2.667,0,0,1,2.1-.855,2.612,2.612,0,0,1,1.869.663,2.345,2.345,0,0,1,.714,1.765h-1.555a1.14,1.14,0,0,0-.3-.788,1.11,1.11,0,0,0-1.634.12,2.45,2.45,0,0,0-.3,1.371v.173a2.477,2.477,0,0,0,.293,1.38,1.011,1.011,0,0,0,.89.42" transform="translate(-38.33 967.9)" fill="#12263f"/>
    <path id="Trazado_912500" data-name="Trazado 912500" d="M1192.3,398.773V400.3h1.062v1.217H1192.3v3.1a.739.739,0,0,0,.132.494.665.665,0,0,0,.505.15,2.651,2.651,0,0,0,.488-.04v1.257a3.426,3.426,0,0,1-1,.149,1.584,1.584,0,0,1-1.78-1.762v-3.347h-.907V400.3h.907v-1.527Z" transform="translate(-41.414 968.65)" fill="#12263f"/>
    <path id="Trazado_912501" data-name="Trazado 912501" d="M1196.683,398.2a.818.818,0,0,1,.249-.615,1.077,1.077,0,0,1,1.358,0,.876.876,0,0,1,0,1.235,1.064,1.064,0,0,1-1.349,0,.814.814,0,0,1-.255-.62m1.763,7.82h-1.665V399.8h1.665Z" transform="translate(-43.825 969.147)" fill="#12263f"/>
    <path id="Trazado_912502" data-name="Trazado 912502" d="M1203.5,405.3l1.154-4.185h1.734l-2.1,6.212h-1.585l-2.1-6.212h1.734Z" transform="translate(-45.188 967.84)" fill="#12263f"/>
    <path id="Trazado_912503" data-name="Trazado 912503" d="M1210.552,398.2a.818.818,0,0,1,.25-.615,1.077,1.077,0,0,1,1.358,0,.877.877,0,0,1,0,1.235,1.065,1.065,0,0,1-1.349,0,.814.814,0,0,1-.255-.62m1.763,7.82h-1.665V399.8h1.665Z" transform="translate(-48.634 969.147)" fill="#12263f"/>
    <path id="Trazado_912504" data-name="Trazado 912504" d="M1214.947,402.787a3.746,3.746,0,0,1,.651-2.314,2.115,2.115,0,0,1,1.783-.861,1.9,1.9,0,0,1,1.5.677V397.12h1.665v8.818h-1.5l-.08-.66a1.95,1.95,0,0,1-1.6.775,2.108,2.108,0,0,1-1.76-.864,3.863,3.863,0,0,1-.663-2.4m1.659.123a2.451,2.451,0,0,0,.3,1.34.992.992,0,0,0,.884.466,1.11,1.11,0,0,0,1.085-.649v-2.455a1.094,1.094,0,0,0-1.073-.65q-1.2,0-1.2,1.949" transform="translate(-50.158 969.224)" fill="#12263f"/>
    <path id="Trazado_912505" data-name="Trazado 912505" d="M1228.954,407.262a1.819,1.819,0,0,1-.167-.557,2.007,2.007,0,0,1-1.568.672,2.206,2.206,0,0,1-1.513-.528,1.7,1.7,0,0,1-.6-1.332,1.756,1.756,0,0,1,.731-1.516,3.613,3.613,0,0,1,2.116-.534h.764v-.356a1.024,1.024,0,0,0-.222-.689.869.869,0,0,0-.7-.258.986.986,0,0,0-.658.2.682.682,0,0,0-.238.551h-1.659a1.666,1.666,0,0,1,.333-1,2.2,2.2,0,0,1,.941-.721,3.426,3.426,0,0,1,1.367-.261,2.71,2.71,0,0,1,1.822.577,2.02,2.02,0,0,1,.675,1.622v2.693a2.974,2.974,0,0,0,.247,1.338v.1Zm-1.372-1.154a1.427,1.427,0,0,0,.677-.163,1.073,1.073,0,0,0,.459-.44v-1.068h-.62q-1.245,0-1.326.862l-.006.1a.662.662,0,0,0,.218.511.848.848,0,0,0,.6.2" transform="translate(-53.682 967.9)" fill="#12263f"/>
    <path id="Trazado_912506" data-name="Trazado 912506" d="M1234.74,402.787a3.744,3.744,0,0,1,.651-2.314,2.114,2.114,0,0,1,1.783-.861,1.9,1.9,0,0,1,1.5.677V397.12h1.665v8.818h-1.5l-.08-.66a1.951,1.951,0,0,1-1.6.775,2.109,2.109,0,0,1-1.76-.864,3.864,3.864,0,0,1-.663-2.4m1.659.123a2.447,2.447,0,0,0,.3,1.34.991.991,0,0,0,.884.466,1.109,1.109,0,0,0,1.085-.649v-2.455a1.094,1.094,0,0,0-1.073-.65q-1.2,0-1.2,1.949" transform="translate(-57.022 969.224)" fill="#12263f"/>
    <path id="Trazado_912507" data-name="Trazado 912507" d="M1248.018,407.376a3.049,3.049,0,0,1-2.225-.838,2.98,2.98,0,0,1-.858-2.233v-.161a3.752,3.752,0,0,1,.362-1.674,2.653,2.653,0,0,1,1.024-1.137,2.88,2.88,0,0,1,1.513-.4,2.575,2.575,0,0,1,2.006.8,3.264,3.264,0,0,1,.732,2.279v.677h-3.955a1.541,1.541,0,0,0,.485.976,1.466,1.466,0,0,0,1.025.368,1.791,1.791,0,0,0,1.5-.7l.815.913a2.49,2.49,0,0,1-1.011.824,3.311,3.311,0,0,1-1.412.3m-.189-5.1a1.039,1.039,0,0,0-.8.334,1.735,1.735,0,0,0-.393.958h2.308v-.133a1.236,1.236,0,0,0-.3-.856,1.07,1.07,0,0,0-.815-.3" transform="translate(-60.558 967.9)" fill="#12263f"/>
    <path id="Trazado_912508" data-name="Trazado 912508" d="M1258.2,405.545a.534.534,0,0,0-.3-.479,3.429,3.429,0,0,0-.967-.313q-2.216-.464-2.216-1.883a1.706,1.706,0,0,1,.686-1.38,2.766,2.766,0,0,1,1.794-.555,2.977,2.977,0,0,1,1.891.557,1.755,1.755,0,0,1,.709,1.447h-1.659a.8.8,0,0,0-.229-.589.973.973,0,0,0-.718-.233.993.993,0,0,0-.649.189.6.6,0,0,0-.23.482.51.51,0,0,0,.261.445,2.686,2.686,0,0,0,.881.293,7.234,7.234,0,0,1,1.045.278,1.717,1.717,0,0,1,1.315,1.671,1.621,1.621,0,0,1-.729,1.375,3.148,3.148,0,0,1-1.883.525,3.277,3.277,0,0,1-1.387-.279,2.313,2.313,0,0,1-.95-.764,1.77,1.77,0,0,1-.345-1.048h1.573a.87.87,0,0,0,.328.678,1.3,1.3,0,0,0,.815.235,1.2,1.2,0,0,0,.72-.181.562.562,0,0,0,.245-.474" transform="translate(-63.883 967.9)" fill="#12263f"/>
    <path id="Trazado_912509" data-name="Trazado 912509" d="M1161.819,423.376a3.048,3.048,0,0,1-2.224-.838,2.98,2.98,0,0,1-.859-2.233v-.161a3.754,3.754,0,0,1,.362-1.674,2.654,2.654,0,0,1,1.025-1.137,2.877,2.877,0,0,1,1.513-.4,2.578,2.578,0,0,1,2.007.8,3.265,3.265,0,0,1,.731,2.279v.677h-3.955a1.541,1.541,0,0,0,.485.976,1.465,1.465,0,0,0,1.024.368,1.791,1.791,0,0,0,1.5-.7l.815.913a2.491,2.491,0,0,1-1.011.824,3.311,3.311,0,0,1-1.412.3m-.189-5.1a1.038,1.038,0,0,0-.8.334,1.737,1.737,0,0,0-.393.958h2.308v-.133a1.235,1.235,0,0,0-.3-.856,1.069,1.069,0,0,0-.815-.3" transform="translate(-30.666 962.352)" fill="#12263f"/>
    <path id="Trazado_912510" data-name="Trazado 912510" d="M1170.364,417.05l.052.694a2.183,2.183,0,0,1,1.786-.809,1.657,1.657,0,0,1,1.647.947,2.134,2.134,0,0,1,1.866-.947,1.854,1.854,0,0,1,1.5.589,2.7,2.7,0,0,1,.494,1.772v3.967h-1.665V419.3a1.181,1.181,0,0,0-.206-.772.916.916,0,0,0-.729-.244,1.035,1.035,0,0,0-1.033.711l.005,4.266h-1.659v-3.956a1.166,1.166,0,0,0-.212-.781.925.925,0,0,0-.723-.241,1.075,1.075,0,0,0-1.022.585v4.392h-1.659V417.05Z" transform="translate(-34.158 962.352)" fill="#12263f"/>
    <path id="Trazado_912511" data-name="Trazado 912511" d="M1189.983,420.214a3.727,3.727,0,0,1-.651,2.3,2.091,2.091,0,0,1-1.76.863,1.934,1.934,0,0,1-1.521-.654v2.928h-1.66v-8.6h1.539l.057.608a1.951,1.951,0,0,1,1.573-.723,2.1,2.1,0,0,1,1.785.85,3.823,3.823,0,0,1,.638,2.342Zm-1.659-.121a2.443,2.443,0,0,0-.307-1.338,1,1,0,0,0-.893-.471,1.085,1.085,0,0,0-1.073.6v2.543a1.1,1.1,0,0,0,1.085.614q1.189,0,1.188-1.946" transform="translate(-39.563 962.352)" fill="#12263f"/>
    <path id="Trazado_912512" data-name="Trazado 912512" d="M1198.016,418.606a4.486,4.486,0,0,0-.6-.046,1.216,1.216,0,0,0-1.234.637v4.065h-1.659V417.05h1.568l.046.741a1.538,1.538,0,0,1,1.384-.856,1.721,1.721,0,0,1,.517.075Z" transform="translate(-43.077 962.352)" fill="#12263f"/>
    <path id="Trazado_912513" data-name="Trazado 912513" d="M1203.663,423.376a3.047,3.047,0,0,1-2.224-.838,2.979,2.979,0,0,1-.859-2.233v-.161a3.755,3.755,0,0,1,.362-1.674,2.657,2.657,0,0,1,1.025-1.137,2.879,2.879,0,0,1,1.513-.4,2.577,2.577,0,0,1,2.006.8,3.265,3.265,0,0,1,.732,2.279v.677h-3.955a1.541,1.541,0,0,0,.485.976,1.465,1.465,0,0,0,1.024.368,1.791,1.791,0,0,0,1.5-.7l.815.913a2.49,2.49,0,0,1-1.01.824,3.312,3.312,0,0,1-1.412.3m-.189-5.1a1.038,1.038,0,0,0-.8.334,1.736,1.736,0,0,0-.393.958h2.308v-.133a1.235,1.235,0,0,0-.3-.856,1.069,1.069,0,0,0-.815-.3" transform="translate(-45.176 962.352)" fill="#12263f"/>
    <path id="Trazado_912514" data-name="Trazado 912514" d="M1213.849,421.545a.534.534,0,0,0-.3-.479,3.433,3.433,0,0,0-.967-.313q-2.216-.464-2.216-1.883a1.707,1.707,0,0,1,.687-1.38,2.764,2.764,0,0,1,1.794-.555,2.979,2.979,0,0,1,1.892.557,1.754,1.754,0,0,1,.709,1.447h-1.659a.8.8,0,0,0-.229-.589.974.974,0,0,0-.718-.233.993.993,0,0,0-.649.189.6.6,0,0,0-.23.482.511.511,0,0,0,.262.445,2.677,2.677,0,0,0,.88.293,7.222,7.222,0,0,1,1.045.278,1.717,1.717,0,0,1,1.315,1.671,1.621,1.621,0,0,1-.729,1.375,3.148,3.148,0,0,1-1.883.525,3.274,3.274,0,0,1-1.386-.279,2.315,2.315,0,0,1-.95-.764,1.771,1.771,0,0,1-.345-1.048h1.573a.869.869,0,0,0,.327.678,1.3,1.3,0,0,0,.815.235,1.2,1.2,0,0,0,.721-.181.562.562,0,0,0,.244-.474" transform="translate(-48.502 962.352)" fill="#12263f"/>
    <path id="Trazado_912515" data-name="Trazado 912515" d="M1223.377,423.262a1.822,1.822,0,0,1-.167-.557,2.007,2.007,0,0,1-1.568.671,2.2,2.2,0,0,1-1.512-.528,1.7,1.7,0,0,1-.6-1.332,1.756,1.756,0,0,1,.732-1.516,3.611,3.611,0,0,1,2.115-.534h.764v-.356a1.024,1.024,0,0,0-.221-.689.871.871,0,0,0-.7-.258.984.984,0,0,0-.657.2.682.682,0,0,0-.239.551h-1.659a1.667,1.667,0,0,1,.333-1,2.2,2.2,0,0,1,.941-.721,3.425,3.425,0,0,1,1.366-.261,2.712,2.712,0,0,1,1.823.577,2.02,2.02,0,0,1,.674,1.622v2.693a2.971,2.971,0,0,0,.247,1.338v.1ZM1222,422.108a1.428,1.428,0,0,0,.677-.163,1.073,1.073,0,0,0,.459-.44v-1.068h-.62q-1.245,0-1.326.862l-.006.1a.663.663,0,0,0,.218.511.848.848,0,0,0,.6.2" transform="translate(-51.748 962.352)" fill="#12263f"/>
    <path id="Trazado_912516" data-name="Trazado 912516" d="M1233.048,418.606a4.476,4.476,0,0,0-.6-.046,1.216,1.216,0,0,0-1.234.637v4.065h-1.659V417.05h1.568l.046.741a1.538,1.538,0,0,1,1.383-.856,1.722,1.722,0,0,1,.517.075Z" transform="translate(-55.225 962.352)" fill="#12263f"/>
    <path id="Trazado_912517" data-name="Trazado 912517" d="M1236.106,414.2a.819.819,0,0,1,.25-.615,1.076,1.076,0,0,1,1.358,0,.877.877,0,0,1,0,1.235,1.065,1.065,0,0,1-1.349,0,.814.814,0,0,1-.256-.62m1.762,7.82H1236.2V415.8h1.665Z" transform="translate(-57.496 963.599)" fill="#12263f"/>
    <path id="Trazado_912518" data-name="Trazado 912518" d="M1244.365,423.262a1.826,1.826,0,0,1-.167-.557,2.007,2.007,0,0,1-1.568.671,2.2,2.2,0,0,1-1.512-.528,1.7,1.7,0,0,1-.6-1.332,1.756,1.756,0,0,1,.732-1.516,3.611,3.611,0,0,1,2.115-.534h.764v-.356a1.024,1.024,0,0,0-.221-.689.871.871,0,0,0-.7-.258.984.984,0,0,0-.657.2.682.682,0,0,0-.239.551h-1.659a1.667,1.667,0,0,1,.333-1,2.2,2.2,0,0,1,.941-.721,3.426,3.426,0,0,1,1.366-.261,2.712,2.712,0,0,1,1.823.577,2.019,2.019,0,0,1,.674,1.622v2.693a2.971,2.971,0,0,0,.247,1.338v.1Zm-1.372-1.154a1.428,1.428,0,0,0,.677-.163,1.072,1.072,0,0,0,.459-.44v-1.068h-.62q-1.245,0-1.326.862l-.006.1a.662.662,0,0,0,.218.511.848.848,0,0,0,.6.2" transform="translate(-59.026 962.352)" fill="#12263f"/>
    <path id="Trazado_913896" data-name="Trazado 913896" d="M0,0H1.665V8.818H0Z" transform="translate(1188.128 1376.795)" fill="#12263f"/>
    <path id="Trazado_912519" data-name="Trazado 912519" d="M1258.059,423.376a3.047,3.047,0,0,1-2.224-.838,2.979,2.979,0,0,1-.859-2.233v-.161a3.757,3.757,0,0,1,.362-1.674,2.655,2.655,0,0,1,1.025-1.137,2.877,2.877,0,0,1,1.513-.4,2.577,2.577,0,0,1,2.006.8,3.266,3.266,0,0,1,.732,2.279v.677h-3.955a1.542,1.542,0,0,0,.485.976,1.465,1.465,0,0,0,1.024.368,1.79,1.79,0,0,0,1.5-.7l.815.913a2.491,2.491,0,0,1-1.01.824,3.312,3.312,0,0,1-1.412.3m-.189-5.1a1.037,1.037,0,0,0-.8.334,1.735,1.735,0,0,0-.393.958h2.308v-.133a1.237,1.237,0,0,0-.3-.856,1.07,1.07,0,0,0-.815-.3" transform="translate(-64.04 962.352)" fill="#12263f"/>
    <path id="Trazado_912520" data-name="Trazado 912520" d="M1268.245,421.545a.533.533,0,0,0-.3-.479,3.421,3.421,0,0,0-.967-.313q-2.216-.464-2.216-1.883a1.707,1.707,0,0,1,.687-1.38,2.763,2.763,0,0,1,1.794-.555,2.981,2.981,0,0,1,1.892.557,1.756,1.756,0,0,1,.709,1.447h-1.659a.8.8,0,0,0-.229-.589.974.974,0,0,0-.718-.233.994.994,0,0,0-.649.189.6.6,0,0,0-.23.482.509.509,0,0,0,.262.445,2.668,2.668,0,0,0,.88.293,7.227,7.227,0,0,1,1.045.278,1.717,1.717,0,0,1,1.315,1.671,1.621,1.621,0,0,1-.729,1.375,3.149,3.149,0,0,1-1.883.525,3.273,3.273,0,0,1-1.386-.279,2.315,2.315,0,0,1-.95-.764,1.772,1.772,0,0,1-.345-1.048h1.573a.87.87,0,0,0,.327.678,1.3,1.3,0,0,0,.815.235,1.2,1.2,0,0,0,.72-.181.563.563,0,0,0,.244-.474" transform="translate(-67.365 962.352)" fill="#12263f"/>
    <path id="Trazado_912521" data-name="Trazado 912521" d="M807.695,403.272h-3.02l-.574,1.723H802.27l3.111-8.359h1.6l3.129,8.359h-1.832Zm-2.555-1.4h2.09l-1.05-3.129Zm1.4-7.481h1.809l-1.591,1.78H805.4Z" transform="translate(92.95 970.168)" fill="#12263f"/>
    <path id="Trazado_912522" data-name="Trazado 912522" d="M818.785,402.606a4.487,4.487,0,0,0-.6-.046,1.216,1.216,0,0,0-1.235.637v4.065h-1.659V401.05h1.568l.046.741a1.538,1.538,0,0,1,1.384-.856,1.721,1.721,0,0,1,.517.075Z" transform="translate(88.433 967.9)" fill="#12263f"/>
    <path id="Trazado_912523" data-name="Trazado 912523" d="M824.433,407.376a3.049,3.049,0,0,1-2.225-.838,2.979,2.979,0,0,1-.858-2.233v-.161a3.753,3.753,0,0,1,.362-1.674,2.654,2.654,0,0,1,1.024-1.137,2.881,2.881,0,0,1,1.513-.4,2.575,2.575,0,0,1,2.006.8,3.265,3.265,0,0,1,.732,2.279v.677h-3.955a1.542,1.542,0,0,0,.485.976,1.467,1.467,0,0,0,1.025.368,1.791,1.791,0,0,0,1.5-.7l.815.913a2.49,2.49,0,0,1-1.01.824,3.312,3.312,0,0,1-1.412.3m-.189-5.1a1.04,1.04,0,0,0-.8.334,1.736,1.736,0,0,0-.392.958h2.308v-.133a1.236,1.236,0,0,0-.3-.856,1.07,1.07,0,0,0-.815-.3" transform="translate(86.333 967.9)" fill="#12263f"/>
    <path id="Trazado_912524" data-name="Trazado 912524" d="M834.892,407.262a1.817,1.817,0,0,1-.167-.557,2.007,2.007,0,0,1-1.568.672,2.206,2.206,0,0,1-1.513-.528,1.7,1.7,0,0,1-.6-1.332,1.756,1.756,0,0,1,.732-1.516,3.613,3.613,0,0,1,2.116-.534h.764v-.356a1.024,1.024,0,0,0-.222-.689.869.869,0,0,0-.7-.258.986.986,0,0,0-.658.2.682.682,0,0,0-.238.551h-1.659a1.667,1.667,0,0,1,.333-1,2.2,2.2,0,0,1,.941-.721,3.425,3.425,0,0,1,1.366-.261,2.71,2.71,0,0,1,1.822.577,2.02,2.02,0,0,1,.675,1.622v2.693a2.972,2.972,0,0,0,.247,1.338v.1Zm-1.372-1.154a1.428,1.428,0,0,0,.677-.163,1.073,1.073,0,0,0,.459-.44v-1.068h-.62q-1.245,0-1.326.862l-.006.1a.662.662,0,0,0,.218.511.848.848,0,0,0,.6.2" transform="translate(82.971 967.9)" fill="#12263f"/>
    <path id="Trazado_912525" data-name="Trazado 912525" d="M780.666,420.11a3.64,3.64,0,0,1,.68-2.3,2.2,2.2,0,0,1,1.835-.873,1.932,1.932,0,0,1,1.59.7l.069-.586h1.5v6.006a2.656,2.656,0,0,1-.37,1.418,2.375,2.375,0,0,1-1.042.918,3.663,3.663,0,0,1-1.573.316,3.409,3.409,0,0,1-1.332-.272,2.361,2.361,0,0,1-.982-.7l.735-1.01a1.944,1.944,0,0,0,1.5.7,1.42,1.42,0,0,0,1.027-.353,1.323,1.323,0,0,0,.368-1v-.333a1.92,1.92,0,0,1-1.51.649,2.2,2.2,0,0,1-1.811-.875,3.637,3.637,0,0,1-.692-2.322Zm1.659.123a2.265,2.265,0,0,0,.339,1.325,1.076,1.076,0,0,0,.93.48,1.152,1.152,0,0,0,1.086-.569v-2.616a1.15,1.15,0,0,0-1.074-.57,1.086,1.086,0,0,0-.939.489,2.555,2.555,0,0,0-.341,1.46" transform="translate(100.441 962.352)" fill="#12263f"/>
    <path id="Trazado_912526" data-name="Trazado 912526" d="M794.049,423.376a3.049,3.049,0,0,1-2.225-.838,2.979,2.979,0,0,1-.858-2.233v-.161a3.754,3.754,0,0,1,.362-1.674,2.654,2.654,0,0,1,1.024-1.137,2.881,2.881,0,0,1,1.514-.4,2.576,2.576,0,0,1,2.006.8,3.265,3.265,0,0,1,.732,2.279v.677h-3.955a1.541,1.541,0,0,0,.485.976,1.467,1.467,0,0,0,1.025.368,1.791,1.791,0,0,0,1.5-.7l.815.913a2.491,2.491,0,0,1-1.011.824,3.311,3.311,0,0,1-1.412.3m-.189-5.1a1.039,1.039,0,0,0-.8.334,1.736,1.736,0,0,0-.393.958h2.308v-.133a1.237,1.237,0,0,0-.3-.856,1.069,1.069,0,0,0-.815-.3" transform="translate(96.87 962.352)" fill="#12263f"/>
    <path id="Trazado_912527" data-name="Trazado 912527" d="M800.643,420.1A3.687,3.687,0,0,1,801,418.45a2.61,2.61,0,0,1,1.024-1.12,2.994,2.994,0,0,1,1.553-.4,2.83,2.83,0,0,1,2.052.77,3.089,3.089,0,0,1,.887,2.09l.012.425a3.247,3.247,0,0,1-.8,2.294,3.094,3.094,0,0,1-4.286,0,3.3,3.3,0,0,1-.8-2.342Zm1.659.118a2.321,2.321,0,0,0,.333,1.354,1.2,1.2,0,0,0,1.894.006,2.54,2.54,0,0,0,.339-1.481,2.3,2.3,0,0,0-.339-1.346,1.1,1.1,0,0,0-.953-.477,1.083,1.083,0,0,0-.941.474,2.584,2.584,0,0,0-.333,1.469" transform="translate(93.514 962.352)" fill="#12263f"/>
    <path id="Trazado_912528" data-name="Trazado 912528" d="M810.847,420.11a3.64,3.64,0,0,1,.68-2.3,2.2,2.2,0,0,1,1.836-.873,1.932,1.932,0,0,1,1.589.7l.069-.586h1.5v6.006a2.656,2.656,0,0,1-.37,1.418,2.377,2.377,0,0,1-1.041.918,3.666,3.666,0,0,1-1.574.316,3.41,3.41,0,0,1-1.332-.272,2.36,2.36,0,0,1-.982-.7l.735-1.01a1.944,1.944,0,0,0,1.5.7,1.42,1.42,0,0,0,1.028-.353,1.323,1.323,0,0,0,.368-1v-.333a1.92,1.92,0,0,1-1.51.649,2.2,2.2,0,0,1-1.812-.875,3.636,3.636,0,0,1-.692-2.322Zm1.66.123a2.265,2.265,0,0,0,.338,1.325,1.077,1.077,0,0,0,.93.48,1.152,1.152,0,0,0,1.086-.569v-2.616a1.15,1.15,0,0,0-1.074-.57,1.086,1.086,0,0,0-.939.489,2.555,2.555,0,0,0-.34,1.46" transform="translate(89.976 962.352)" fill="#12263f"/>
    <path id="Trazado_912529" data-name="Trazado 912529" d="M824.982,418.606a4.48,4.48,0,0,0-.6-.046,1.216,1.216,0,0,0-1.235.637v4.065h-1.659V417.05h1.568l.046.741a1.538,1.538,0,0,1,1.383-.856,1.722,1.722,0,0,1,.517.075Z" transform="translate(86.284 962.352)" fill="#12263f"/>
    <path id="Trazado_912530" data-name="Trazado 912530" d="M831.262,421.939a1.857,1.857,0,0,1-.167-.557,2.007,2.007,0,0,1-1.568.672,2.206,2.206,0,0,1-1.513-.528,1.7,1.7,0,0,1-.6-1.332,1.755,1.755,0,0,1,.732-1.515,3.613,3.613,0,0,1,2.116-.534h.764v-.355a1.024,1.024,0,0,0-.221-.689.869.869,0,0,0-.7-.259.991.991,0,0,0-.658.2.682.682,0,0,0-.238.551h-1.659a1.668,1.668,0,0,1,.333-1,2.207,2.207,0,0,1,.941-.721,3.44,3.44,0,0,1,1.367-.261,2.709,2.709,0,0,1,1.822.577,2.017,2.017,0,0,1,.675,1.622V420.5a2.974,2.974,0,0,0,.247,1.338v.1Zm-1.372-1.154a1.428,1.428,0,0,0,.677-.163,1.072,1.072,0,0,0,.459-.439v-1.068h-.62q-1.245,0-1.326.861l-.006.1a.663.663,0,0,0,.218.511.847.847,0,0,0,.6.2m.632-7.664h1.809l-1.591,1.78H829.39Z" transform="translate(84.23 963.675)" fill="#12263f"/>
    <path id="Trazado_912531" data-name="Trazado 912531" d="M837.647,421.875v-4.995h-.925v-1.218h.925v-.528a2.144,2.144,0,0,1,.6-1.622,2.324,2.324,0,0,1,1.68-.577,3.88,3.88,0,0,1,.844.115l-.017,1.286a2.11,2.11,0,0,0-.506-.052q-.936,0-.935.879v.5h1.235v1.218h-1.235v4.995Z" transform="translate(81.002 963.738)" fill="#12263f"/>
    <path id="Trazado_912532" data-name="Trazado 912532" d="M843.877,414.2a.818.818,0,0,1,.25-.615,1.077,1.077,0,0,1,1.358,0,.878.878,0,0,1,0,1.235,1.065,1.065,0,0,1-1.35,0,.815.815,0,0,1-.255-.62m1.762,7.82h-1.665V415.8h1.665Z" transform="translate(78.521 963.599)" fill="#12263f"/>
    <path id="Trazado_912533" data-name="Trazado 912533" d="M851.113,422.04a1.088,1.088,0,0,0,.747-.253.885.885,0,0,0,.3-.671h1.555a2.123,2.123,0,0,1-.344,1.157,2.274,2.274,0,0,1-.928.815,2.9,2.9,0,0,1-1.3.29,2.7,2.7,0,0,1-2.1-.847,3.351,3.351,0,0,1-.77-2.339v-.109a3.314,3.314,0,0,1,.764-2.291,2.667,2.667,0,0,1,2.1-.855A2.612,2.612,0,0,1,853,417.6a2.347,2.347,0,0,1,.715,1.765h-1.555a1.141,1.141,0,0,0-.3-.788,1.11,1.11,0,0,0-1.634.12,2.449,2.449,0,0,0-.3,1.371v.173a2.477,2.477,0,0,0,.293,1.38,1.011,1.011,0,0,0,.89.42" transform="translate(76.998 962.352)" fill="#12263f"/>
    <path id="Trazado_912534" data-name="Trazado 912534" d="M861.523,423.262a1.817,1.817,0,0,1-.167-.557,2.007,2.007,0,0,1-1.568.671,2.206,2.206,0,0,1-1.513-.528,1.7,1.7,0,0,1-.6-1.332,1.756,1.756,0,0,1,.732-1.516,3.613,3.613,0,0,1,2.116-.534h.764v-.356a1.023,1.023,0,0,0-.222-.689.869.869,0,0,0-.7-.258.986.986,0,0,0-.658.2.682.682,0,0,0-.238.551h-1.659a1.667,1.667,0,0,1,.333-1,2.2,2.2,0,0,1,.941-.721,3.426,3.426,0,0,1,1.367-.261,2.71,2.71,0,0,1,1.822.577,2.02,2.02,0,0,1,.675,1.622v2.693a2.971,2.971,0,0,0,.247,1.338v.1Zm-1.372-1.154a1.428,1.428,0,0,0,.677-.163,1.073,1.073,0,0,0,.459-.44v-1.068h-.62q-1.245,0-1.326.862l-.006.1a.663.663,0,0,0,.218.511.848.848,0,0,0,.6.2" transform="translate(73.736 962.352)" fill="#12263f"/>
    <g id="Grupo_1101297" data-name="Grupo 1101297" transform="translate(896.11 1391.804)">
      <circle id="Elipse_11554" data-name="Elipse 11554" cx="10.605" cy="10.605" r="10.605" fill="#fa6d61"/>
      <circle id="Elipse_11555" data-name="Elipse 11555" cx="7.954" cy="7.954" r="7.954" transform="translate(2.651 2.651)" fill="#fff"/>
    </g>
    <g id="Grupo_1102150" data-name="Grupo 1102150" transform="translate(1181.758 1391.804)">
      <g id="Grupo_1101297-2" data-name="Grupo 1101297" transform="translate(-26.648)">
        <circle id="Elipse_11554-2" data-name="Elipse 11554" cx="10.605" cy="10.605" r="10.605" fill="#fa6d61"/>
        <circle id="Elipse_11555-2" data-name="Elipse 11555" cx="7.954" cy="7.954" r="7.954" transform="translate(2.651 2.651)" fill="#fff"/>
      </g>
    </g>
    <g id="Grupo_1101297-3" data-name="Grupo 1101297" transform="translate(1025.11 1117.804)">
      <circle id="Elipse_11554-3" data-name="Elipse 11554" cx="10.605" cy="10.605" r="10.605" fill="#fa6d61"/>
      <circle id="Elipse_11555-3" data-name="Elipse 11555" cx="7.954" cy="7.954" r="7.954" transform="translate(2.651 2.651)" fill="#fff"/>
    </g>
    <path id="Trazado_913894" data-name="Trazado 913894" d="M4.9,11H2.918V4.7L.973,5.264v-1.5L4.717,2.469H4.9Z" transform="translate(1032.321 1121.408)" fill="#12263f"/>
    <path id="Trazado_913895" data-name="Trazado 913895" d="M6.475,11H.521V9.711L3.264,6.828A3.273,3.273,0,0,0,4.277,4.994a1.276,1.276,0,0,0-.24-.838.858.858,0,0,0-.7-.287.868.868,0,0,0-.732.384,1.577,1.577,0,0,0-.281.958H.346a2.8,2.8,0,0,1,.393-1.45,2.753,2.753,0,0,1,1.09-1.04,3.237,3.237,0,0,1,1.559-.375,3.185,3.185,0,0,1,2.13.639,2.28,2.28,0,0,1,.747,1.834,2.663,2.663,0,0,1-.187.981,4.3,4.3,0,0,1-.583,1,14.686,14.686,0,0,1-1.274,1.4l-1.1,1.271H6.475Z" transform="translate(1162.215 1395.408)" fill="#12263f"/>
    <path id="Trazado_913892" data-name="Trazado 913892" d="M2.326,5.908h.932A.969.969,0,0,0,4.365,4.824.937.937,0,0,0,4.1,4.136a1,1,0,0,0-.744-.267,1.07,1.07,0,0,0-.683.229.7.7,0,0,0-.29.568H.41a2.021,2.021,0,0,1,.375-1.2,2.476,2.476,0,0,1,1.04-.823,3.556,3.556,0,0,1,1.462-.3A3.494,3.494,0,0,1,5.525,3,2.162,2.162,0,0,1,6.34,4.783,1.8,1.8,0,0,1,6,5.823a2.4,2.4,0,0,1-.981.794,2.294,2.294,0,0,1,1.066.747A1.967,1.967,0,0,1,6.475,8.6,2.2,2.2,0,0,1,5.6,10.432a3.648,3.648,0,0,1-2.309.686A3.783,3.783,0,0,1,1.731,10.8,2.437,2.437,0,0,1,.645,9.913,2.3,2.3,0,0,1,.275,8.627H2.262a.889.889,0,0,0,.316.68,1.117,1.117,0,0,0,.779.287,1.17,1.17,0,0,0,.832-.29A.969.969,0,0,0,4.5,8.563a1.133,1.133,0,0,0-.322-.914,1.347,1.347,0,0,0-.891-.27H2.326Z" transform="translate(903.215 1395.408)" fill="#12263f"/>
    <path id="Trazado_913130" data-name="Trazado 913130" d="M501.393,169.107H334.859c-6.48,0-11.733-5.718-11.733-12.772V127.5c0-7.053,5.253-12.772,11.733-12.772H501.393c6.48,0,11.733,5.718,11.733,12.772v28.838c0,7.053-5.253,12.772-11.733,12.772" transform="translate(120.656 1013.684)" fill="#4b96e3"/>
    <rect id="Rectngulo_403573" data-name="Rectngulo 403573" width="142.145" height="38.764" transform="translate(467.782 1137.529)" fill="none"/>
    <path id="Trazado_913891" data-name="Trazado 913891" d="M13.038,13H10.646V3.047h2.393ZM14.31,9.247a4.518,4.518,0,0,1,.759-2.769,2.5,2.5,0,0,1,2.119-1.012,2.124,2.124,0,0,1,1.668.779V2.5h2.311V13H19.095l-.116-.793a2.181,2.181,0,0,1-1.8.93,2.493,2.493,0,0,1-2.092-1.012A4.662,4.662,0,0,1,14.31,9.247Zm2.3.144q0,1.969,1.148,1.969a1.134,1.134,0,0,0,1.094-.643V7.9a1.1,1.1,0,0,0-1.08-.656q-1.066,0-1.155,1.723Zm9.44,3.746A3.8,3.8,0,0,1,23.3,12.122a3.506,3.506,0,0,1-1.053-2.642V9.288a4.542,4.542,0,0,1,.42-2,3.076,3.076,0,0,1,1.227-1.343,3.7,3.7,0,0,1,1.914-.475,3.2,3.2,0,0,1,2.461.967,3.8,3.8,0,0,1,.9,2.7v.9h-4.58a1.66,1.66,0,0,0,.54.978,1.607,1.607,0,0,0,1.08.355,2.07,2.07,0,0,0,1.709-.766l1.053,1.244a2.943,2.943,0,0,1-1.22.947A4.124,4.124,0,0,1,26.054,13.137Zm-.26-5.893q-1.012,0-1.2,1.34h2.324V8.406a1.141,1.141,0,0,0-.28-.858A1.115,1.115,0,0,0,25.794,7.244ZM32.213,5.6l.075.868a2.508,2.508,0,0,1,2.112-1,2.11,2.11,0,0,1,1.726.69,3.287,3.287,0,0,1,.591,2.078V13H34.407V8.331a1.248,1.248,0,0,0-.226-.824,1.044,1.044,0,0,0-.82-.263,1.1,1.1,0,0,0-1,.533V13h-2.3V5.6Zm8.463-1.839V5.6h1.217V7.2H40.676v3.384a.864.864,0,0,0,.15.581.807.807,0,0,0,.595.164A3.38,3.38,0,0,0,42,11.291v1.647a4.252,4.252,0,0,1-1.3.2,2.413,2.413,0,0,1-1.757-.561,2.3,2.3,0,0,1-.567-1.7V7.2h-.943V5.6h.943V3.765ZM45.229,13H42.918V5.6h2.311ZM42.781,3.7a1.028,1.028,0,0,1,.355-.807,1.511,1.511,0,0,1,1.846,0,1.028,1.028,0,0,1,.355.807,1.028,1.028,0,0,1-.355.807,1.511,1.511,0,0,1-1.846,0A1.028,1.028,0,0,1,42.781,3.7Zm4.4,9.3V7.2H46.111V5.6h1.073V5.357a2.824,2.824,0,0,1,.971-2.263,3.879,3.879,0,0,1,2.522-.738,8.951,8.951,0,0,1,2.406.4l-.314,1.818-.383-.1a6.092,6.092,0,0,0-1.572-.2q-1.319,0-1.319,1.2V5.6h1.449V7.2H49.494V13Zm6.959,0H51.825V5.6h2.317Zm4.532-1.641a1.025,1.025,0,0,0,.752-.263.965.965,0,0,0,.26-.735h2.16a2.557,2.557,0,0,1-.872,2,3.242,3.242,0,0,1-2.246.779,3.282,3.282,0,0,1-2.543-1.012,3.986,3.986,0,0,1-.93-2.8v-.1a4.505,4.505,0,0,1,.414-1.979,3.011,3.011,0,0,1,1.193-1.319,3.557,3.557,0,0,1,1.846-.461,3.2,3.2,0,0,1,2.29.8,2.837,2.837,0,0,1,.848,2.167h-2.16a1.265,1.265,0,0,0-.28-.882.967.967,0,0,0-.752-.308q-.9,0-1.046,1.142a8.055,8.055,0,0,0-.048,1,3.164,3.164,0,0,0,.267,1.545A.923.923,0,0,0,58.675,11.359ZM66.988,13a2.6,2.6,0,0,1-.219-.663,2.142,2.142,0,0,1-1.777.8,2.624,2.624,0,0,1-1.777-.632,2.013,2.013,0,0,1-.731-1.589A2.069,2.069,0,0,1,63.371,9.1a4.527,4.527,0,0,1,2.584-.615h.711V8.09q0-1.023-.882-1.023a.721.721,0,0,0-.82.811h-2.3a2.065,2.065,0,0,1,.913-1.741A3.835,3.835,0,0,1,65.9,5.467a3.363,3.363,0,0,1,2.235.69,2.4,2.4,0,0,1,.841,1.894v3.274a3.353,3.353,0,0,0,.314,1.559V13Zm-1.442-1.5a1.285,1.285,0,0,0,.714-.185,1.157,1.157,0,0,0,.407-.417V9.712H66q-1.2,0-1.2,1.08a.659.659,0,0,0,.212.509A.767.767,0,0,0,65.545,11.5Zm9.181-3.808-.759-.055a1.363,1.363,0,0,0-1.395.684V13h-2.3V5.6h2.16l.075.95a1.784,1.784,0,0,1,1.62-1.087,2.246,2.246,0,0,1,.643.082ZM81.473,13H79.162V2.5h2.311Zm5.585,0a2.6,2.6,0,0,1-.219-.663,2.142,2.142,0,0,1-1.777.8,2.624,2.624,0,0,1-1.777-.632,2.013,2.013,0,0,1-.731-1.589A2.069,2.069,0,0,1,83.442,9.1a4.527,4.527,0,0,1,2.584-.615h.711V8.09q0-1.023-.882-1.023a.721.721,0,0,0-.82.811h-2.3a2.065,2.065,0,0,1,.913-1.741,3.835,3.835,0,0,1,2.328-.669,3.363,3.363,0,0,1,2.235.69,2.4,2.4,0,0,1,.841,1.894v3.274a3.353,3.353,0,0,0,.314,1.559V13Zm-1.442-1.5a1.285,1.285,0,0,0,.714-.185,1.157,1.157,0,0,0,.407-.417V9.712h-.67q-1.2,0-1.2,1.08a.659.659,0,0,0,.212.509A.767.767,0,0,0,85.615,11.5Zm11.143-1.237L97.927,5.6h2.427L97.941,13H95.589L93.176,5.6H95.61Zm7.772,2.878a3.8,3.8,0,0,1-2.755-1.015,3.506,3.506,0,0,1-1.053-2.642V9.288a4.542,4.542,0,0,1,.42-2,3.076,3.076,0,0,1,1.227-1.343,3.7,3.7,0,0,1,1.914-.475,3.2,3.2,0,0,1,2.461.967,3.8,3.8,0,0,1,.9,2.7v.9h-4.58a1.66,1.66,0,0,0,.54.978,1.607,1.607,0,0,0,1.08.355,2.07,2.07,0,0,0,1.709-.766l1.053,1.244a2.943,2.943,0,0,1-1.22.947A4.124,4.124,0,0,1,104.531,13.137Zm-.26-5.893q-1.012,0-1.2,1.34h2.324V8.406a1.141,1.141,0,0,0-.28-.858A1.115,1.115,0,0,0,104.271,7.244ZM110.69,5.6l.075.868a2.508,2.508,0,0,1,2.112-1,2.11,2.11,0,0,1,1.726.69,3.287,3.287,0,0,1,.591,2.078V13h-2.311V8.331a1.248,1.248,0,0,0-.226-.824,1.044,1.044,0,0,0-.82-.263,1.1,1.1,0,0,0-1,.533V13h-2.3V5.6Zm8.463-1.839V5.6h1.217V7.2h-1.217v3.384a.864.864,0,0,0,.15.581.807.807,0,0,0,.595.164,3.379,3.379,0,0,0,.574-.041v1.647a4.252,4.252,0,0,1-1.3.2,2.413,2.413,0,0,1-1.757-.561,2.3,2.3,0,0,1-.567-1.7V7.2h-.943V5.6h.943V3.765ZM125.442,13a2.6,2.6,0,0,1-.219-.663,2.142,2.142,0,0,1-1.777.8,2.624,2.624,0,0,1-1.777-.632,2.013,2.013,0,0,1-.731-1.589,2.069,2.069,0,0,1,.889-1.818,4.527,4.527,0,0,1,2.584-.615h.711V8.09q0-1.023-.882-1.023a.721.721,0,0,0-.82.811h-2.3a2.065,2.065,0,0,1,.913-1.741,3.835,3.835,0,0,1,2.328-.669,3.363,3.363,0,0,1,2.235.69,2.4,2.4,0,0,1,.841,1.894v3.274a3.353,3.353,0,0,0,.314,1.559V13ZM124,11.5a1.285,1.285,0,0,0,.714-.185,1.157,1.157,0,0,0,.407-.417V9.712h-.67q-1.2,0-1.2,1.08a.659.659,0,0,0,.212.509A.767.767,0,0,0,124,11.5ZM131.184,5.6v7.649a2.685,2.685,0,0,1-.752,2.023,2.889,2.889,0,0,1-2.078.711,4.906,4.906,0,0,1-1.087-.116V14.128a4.408,4.408,0,0,0,.649.062.843.843,0,0,0,.957-.95V5.6ZM128.7,3.7a1.028,1.028,0,0,1,.355-.807,1.511,1.511,0,0,1,1.846,0,1.028,1.028,0,0,1,.355.807,1.028,1.028,0,0,1-.355.807,1.511,1.511,0,0,1-1.846,0A1.028,1.028,0,0,1,128.7,3.7Zm7.95,9.3a2.6,2.6,0,0,1-.219-.663,2.142,2.142,0,0,1-1.777.8,2.624,2.624,0,0,1-1.777-.632,2.013,2.013,0,0,1-.731-1.589,2.069,2.069,0,0,1,.889-1.818,4.527,4.527,0,0,1,2.584-.615h.711V8.09q0-1.023-.882-1.023a.721.721,0,0,0-.82.811h-2.3a2.065,2.065,0,0,1,.913-1.741,3.835,3.835,0,0,1,2.328-.669,3.363,3.363,0,0,1,2.235.69,2.4,2.4,0,0,1,.841,1.894v3.274a3.353,3.353,0,0,0,.314,1.559V13Zm-1.442-1.5a1.285,1.285,0,0,0,.714-.185,1.157,1.157,0,0,0,.407-.417V9.712h-.67q-1.2,0-1.2,1.08a.659.659,0,0,0,.212.509A.767.767,0,0,0,135.21,11.5ZM12.734,29.359a1.025,1.025,0,0,0,.752-.263.965.965,0,0,0,.26-.735h2.16a2.557,2.557,0,0,1-.872,2,3.242,3.242,0,0,1-2.246.779,3.282,3.282,0,0,1-2.543-1.012,3.986,3.986,0,0,1-.93-2.8v-.1a4.505,4.505,0,0,1,.414-1.979,3.011,3.011,0,0,1,1.193-1.319,3.557,3.557,0,0,1,1.846-.461,3.2,3.2,0,0,1,2.29.8,2.837,2.837,0,0,1,.848,2.167h-2.16a1.265,1.265,0,0,0-.28-.882.967.967,0,0,0-.752-.308q-.9,0-1.046,1.142a8.055,8.055,0,0,0-.048,1,3.164,3.164,0,0,0,.267,1.545A.923.923,0,0,0,12.734,29.359Zm3.855-2.126a4.366,4.366,0,0,1,.431-1.972,3.08,3.08,0,0,1,1.237-1.33,3.726,3.726,0,0,1,1.894-.465A3.4,3.4,0,0,1,22.769,24.5a3.948,3.948,0,0,1,.957,2.8v.082a3.83,3.83,0,0,1-.96,2.745,3.41,3.41,0,0,1-2.6,1.015,3.449,3.449,0,0,1-2.536-.947A3.7,3.7,0,0,1,16.6,27.623Zm2.3.144a2.752,2.752,0,0,0,.321,1.5,1.07,1.07,0,0,0,.95.479q1.23,0,1.258-1.894v-.232q0-1.989-1.271-1.989Q19,25.244,18.9,26.96ZM26.919,23.6l.075.868a2.543,2.543,0,0,1,2.112-1A1.872,1.872,0,0,1,31,24.581a2.462,2.462,0,0,1,2.174-1.114q2.249,0,2.311,2.721V31H33.174V26.331a1.41,1.41,0,0,0-.191-.827.815.815,0,0,0-.7-.26,1.091,1.091,0,0,0-1.019.608l.007.1V31H28.963V26.345a1.482,1.482,0,0,0-.185-.841.812.812,0,0,0-.7-.26,1.1,1.1,0,0,0-1.012.608V31h-2.3V23.6Zm16.748,3.753a4.46,4.46,0,0,1-.776,2.751,2.488,2.488,0,0,1-2.1,1.029,2.132,2.132,0,0,1-1.675-.745v3.452h-2.3V23.6H38.97l.068.684a2.132,2.132,0,0,1,1.743-.82,2.508,2.508,0,0,1,2.126,1.008,4.515,4.515,0,0,1,.759,2.772Zm-2.3-.144q0-1.969-1.148-1.969a1.084,1.084,0,0,0-1.094.588v2.912a1.119,1.119,0,0,0,1.107.615q1.1,0,1.135-1.9Zm6.9,3.924a3.8,3.8,0,0,1-2.755-1.015,3.506,3.506,0,0,1-1.053-2.642v-.191a4.542,4.542,0,0,1,.42-2A3.076,3.076,0,0,1,46.1,23.942a3.7,3.7,0,0,1,1.914-.475,3.2,3.2,0,0,1,2.461.967,3.8,3.8,0,0,1,.9,2.7v.9H46.8a1.66,1.66,0,0,0,.54.978,1.607,1.607,0,0,0,1.08.355,2.07,2.07,0,0,0,1.709-.766l1.053,1.244a2.943,2.943,0,0,1-1.22.947A4.123,4.123,0,0,1,48.26,31.137ZM48,25.244q-1.012,0-1.2,1.34h2.324v-.178a1.141,1.141,0,0,0-.28-.858A1.115,1.115,0,0,0,48,25.244Zm6.986-3.479V23.6H56.2v1.6H54.987v3.384a.864.864,0,0,0,.15.581.807.807,0,0,0,.595.164,3.38,3.38,0,0,0,.574-.041v1.647a4.252,4.252,0,0,1-1.3.2,2.413,2.413,0,0,1-1.757-.561,2.3,2.3,0,0,1-.567-1.7V25.2H51.74V23.6h.943V21.765ZM59.54,31H57.229V23.6H59.54Zm-2.447-9.3a1.028,1.028,0,0,1,.355-.807,1.511,1.511,0,0,1,1.846,0,1.093,1.093,0,0,1,0,1.613,1.511,1.511,0,0,1-1.846,0A1.028,1.028,0,0,1,57.093,21.7Zm6.549.068V23.6h1.217v1.6H63.641v3.384a.864.864,0,0,0,.15.581.807.807,0,0,0,.595.164,3.379,3.379,0,0,0,.574-.041v1.647a4.252,4.252,0,0,1-1.3.2,2.413,2.413,0,0,1-1.757-.561,2.3,2.3,0,0,1-.567-1.7V25.2h-.943V23.6h.943V21.765ZM68.194,31H65.884V23.6h2.311Zm-2.447-9.3a1.028,1.028,0,0,1,.355-.807,1.511,1.511,0,0,1,1.846,0,1.093,1.093,0,0,1,0,1.613,1.511,1.511,0,0,1-1.846,0A1.028,1.028,0,0,1,65.747,21.7Zm6.815,6.563L73.731,23.6h2.427L73.745,31H71.393L68.98,23.6h2.434ZM80.909,31a2.6,2.6,0,0,1-.219-.663,2.142,2.142,0,0,1-1.777.8,2.624,2.624,0,0,1-1.777-.632,2.013,2.013,0,0,1-.731-1.589,2.069,2.069,0,0,1,.889-1.818,4.527,4.527,0,0,1,2.584-.615h.711V26.09q0-1.023-.882-1.023a.721.721,0,0,0-.82.811h-2.3a2.065,2.065,0,0,1,.913-1.741,3.835,3.835,0,0,1,2.328-.669,3.363,3.363,0,0,1,2.235.69,2.4,2.4,0,0,1,.841,1.894v3.274a3.353,3.353,0,0,0,.314,1.559V31Zm-1.442-1.5a1.285,1.285,0,0,0,.714-.185,1.157,1.157,0,0,0,.407-.417V27.712h-.67q-1.2,0-1.2,1.08a.659.659,0,0,0,.212.509A.767.767,0,0,0,79.467,29.5Zm7.9-2.249a4.518,4.518,0,0,1,.759-2.769,2.5,2.5,0,0,1,2.119-1.012,2.124,2.124,0,0,1,1.668.779V20.5h2.311V31H92.154l-.116-.793a2.181,2.181,0,0,1-1.8.93,2.493,2.493,0,0,1-2.092-1.012A4.661,4.661,0,0,1,87.369,27.247Zm2.3.144q0,1.969,1.148,1.969a1.134,1.134,0,0,0,1.094-.643V25.9a1.1,1.1,0,0,0-1.08-.656q-1.066,0-1.155,1.723Zm9.44,3.746a3.8,3.8,0,0,1-2.755-1.015,3.506,3.506,0,0,1-1.053-2.642v-.191a4.542,4.542,0,0,1,.42-2,3.076,3.076,0,0,1,1.227-1.343,3.7,3.7,0,0,1,1.914-.475,3.2,3.2,0,0,1,2.461.967,3.8,3.8,0,0,1,.9,2.7v.9H97.65a1.66,1.66,0,0,0,.54.978,1.607,1.607,0,0,0,1.08.355,2.07,2.07,0,0,0,1.709-.766l1.053,1.244a2.943,2.943,0,0,1-1.22.947A4.123,4.123,0,0,1,99.113,31.137Zm-.26-5.893q-1.012,0-1.2,1.34h2.324v-.178a1.141,1.141,0,0,0-.28-.858A1.115,1.115,0,0,0,98.853,25.244Zm8.176,3.678a.532.532,0,0,0-.308-.472,4.679,4.679,0,0,0-1.169-.369,5.33,5.33,0,0,1-1.422-.5,2.382,2.382,0,0,1-.854-.755,1.8,1.8,0,0,1-.294-1.019,2.044,2.044,0,0,1,.841-1.678,3.464,3.464,0,0,1,2.2-.66,3.837,3.837,0,0,1,2.352.663,2.074,2.074,0,0,1,.889,1.743h-2.311q0-.889-.937-.889a.928.928,0,0,0-.608.2.624.624,0,0,0-.246.5.573.573,0,0,0,.3.5,2.842,2.842,0,0,0,.96.314,8.3,8.3,0,0,1,1.159.294,2.105,2.105,0,0,1,1.668,2.058,1.937,1.937,0,0,1-.9,1.647,3.942,3.942,0,0,1-2.328.636,4.023,4.023,0,0,1-1.7-.342,2.835,2.835,0,0,1-1.162-.93,2.105,2.105,0,0,1-.417-1.237H104.9a.89.89,0,0,0,.342.749,1.406,1.406,0,0,0,.841.236,1.106,1.106,0,0,0,.708-.191A.612.612,0,0,0,107.029,28.922Zm6.877,2.215a3.8,3.8,0,0,1-2.755-1.015,3.506,3.506,0,0,1-1.053-2.642v-.191a4.542,4.542,0,0,1,.42-2,3.076,3.076,0,0,1,1.227-1.343,3.7,3.7,0,0,1,1.914-.475,3.2,3.2,0,0,1,2.461.967,3.8,3.8,0,0,1,.9,2.7v.9h-4.58a1.66,1.66,0,0,0,.54.978,1.607,1.607,0,0,0,1.08.355,2.07,2.07,0,0,0,1.709-.766l1.053,1.244a2.943,2.943,0,0,1-1.22.947A4.123,4.123,0,0,1,113.906,31.137Zm-.26-5.893q-1.012,0-1.2,1.34h2.324v-.178a1.141,1.141,0,0,0-.28-.858A1.115,1.115,0,0,0,113.646,25.244ZM122.116,31a2.6,2.6,0,0,1-.219-.663,2.142,2.142,0,0,1-1.777.8,2.624,2.624,0,0,1-1.777-.632,2.013,2.013,0,0,1-.731-1.589A2.069,2.069,0,0,1,118.5,27.1a4.527,4.527,0,0,1,2.584-.615h.711V26.09q0-1.023-.882-1.023a.721.721,0,0,0-.82.811h-2.3a2.065,2.065,0,0,1,.913-1.741,3.835,3.835,0,0,1,2.328-.669,3.363,3.363,0,0,1,2.235.69,2.4,2.4,0,0,1,.841,1.894v3.274a3.353,3.353,0,0,0,.314,1.559V31Zm-1.442-1.5a1.285,1.285,0,0,0,.714-.185,1.157,1.157,0,0,0,.407-.417V27.712h-.67q-1.2,0-1.2,1.08a.659.659,0,0,0,.212.509A.767.767,0,0,0,120.674,29.5Zm4.416-2.249a4.518,4.518,0,0,1,.759-2.769,2.5,2.5,0,0,1,2.119-1.012,2.124,2.124,0,0,1,1.668.779V20.5h2.311V31h-2.071l-.116-.793a2.181,2.181,0,0,1-1.8.93,2.493,2.493,0,0,1-2.092-1.012A4.661,4.661,0,0,1,125.09,27.247Zm2.3.144q0,1.969,1.148,1.969a1.134,1.134,0,0,0,1.094-.643V25.9a1.1,1.1,0,0,0-1.08-.656q-1.066,0-1.155,1.723ZM137.422,31a2.6,2.6,0,0,1-.219-.663,2.142,2.142,0,0,1-1.777.8,2.624,2.624,0,0,1-1.777-.632,2.013,2.013,0,0,1-.731-1.589,2.069,2.069,0,0,1,.889-1.818,4.527,4.527,0,0,1,2.584-.615h.711V26.09q0-1.023-.882-1.023a.721.721,0,0,0-.82.811h-2.3a2.065,2.065,0,0,1,.913-1.741,3.835,3.835,0,0,1,2.328-.669,3.363,3.363,0,0,1,2.235.69,2.4,2.4,0,0,1,.841,1.894v3.274a3.353,3.353,0,0,0,.314,1.559V31Zm-1.442-1.5a1.285,1.285,0,0,0,.714-.185,1.157,1.157,0,0,0,.407-.417V27.712h-.67q-1.2,0-1.2,1.08a.659.659,0,0,0,.212.509A.767.767,0,0,0,135.979,29.5Z" transform="translate(463.782 1138.389)" fill="#12263f"/>
    <rect id="Rectngulo_403574" data-name="Rectngulo 403574" width="85" height="22" rx="11" transform="translate(757.5 1294.83)" fill="url(#linear-gradient)"/>
    <rect id="Rectngulo_403575" data-name="Rectngulo 403575" width="85" height="22" rx="11" transform="translate(789 1348.33) rotate(-90)" fill="url(#linear-gradient)"/>
  </g>
</svg>
