<svg xmlns="http://www.w3.org/2000/svg" xmlns:xlink="http://www.w3.org/1999/xlink" width="441.688" height="441.693" viewBox="0 0 441.688 441.693">
  <defs>
    <clipPath id="clip-path">
      <rect id="Rectángulo_403101" data-name="Rectángulo 403101" width="145.273" height="33.383" fill="none"/>
    </clipPath>
    <clipPath id="clip-path-2">
      <rect id="Rectángulo_403103" data-name="Rectángulo 403103" width="56.045" height="33.383" fill="none"/>
    </clipPath>
    <clipPath id="clip-path-3">
      <rect id="Rectángulo_403105" data-name="Rectángulo 403105" width="70.478" height="50.602" fill="none"/>
    </clipPath>
    <clipPath id="clip-path-4">
      <rect id="Rectángulo_403107" data-name="Rectángulo 403107" width="77.884" height="50.602" fill="none"/>
    </clipPath>
    <clipPath id="clip-path-5">
      <rect id="Rectángulo_403109" data-name="Rectángulo 403109" width="61.832" height="16.164" fill="none"/>
    </clipPath>
    <clipPath id="clip-path-6">
      <rect id="Rectángulo_403111" data-name="Rectángulo 403111" width="82.417" height="33.383" fill="none"/>
    </clipPath>
    <clipPath id="clip-path-7">
      <rect id="Rectángulo_403113" data-name="Rectángulo 403113" width="60.263" height="16.164" fill="none"/>
    </clipPath>
    <clipPath id="clip-path-8">
      <rect id="Rectángulo_403115" data-name="Rectángulo 403115" width="57.558" height="16.164" fill="none"/>
    </clipPath>
    <clipPath id="clip-path-9">
      <rect id="Rectángulo_403117" data-name="Rectángulo 403117" width="61.51" height="16.164" fill="none"/>
    </clipPath>
  </defs>
  <g id="Grupo_1103704" data-name="Grupo 1103704" transform="translate(-584.051 -501.944)">
    <path id="Trazado_912029" data-name="Trazado 912029" d="M529.15,529.723h-.83l.413-.413h0Z" transform="translate(276.16 193.477)" fill="none" stroke="#00d86c" stroke-miterlimit="10" stroke-width="3"/>
    <path id="Trazado_912030" data-name="Trazado 912030" d="M174.271,259.754a89.446,89.446,0,0,0-26.59,63.585H28.48v-.409A208.3,208.3,0,0,1,89.687,175.17Z" transform="translate(567.454 399.86)" fill="#8ab2ee"/>
    <path id="Trazado_912031" data-name="Trazado 912031" d="M528.737,529.31h0l-.413.413h.83Zm0,0h0v.413h.417Zm0,0h0v.413h.417Zm0,0h0v.413h.417Zm0,0h0l-.413.413h.83Zm0,0h0l-.413.413h.83Z" transform="translate(276.16 193.477)" fill="none" stroke="#00d86c" stroke-miterlimit="10" stroke-width="3"/>
    <path id="Trazado_912032" data-name="Trazado 912032" d="M377,64.683A220.844,220.844,0,0,0,0,220.846v.409C.221,343.039,99.012,441.693,220.842,441.693s220.625-98.653,220.846-220.437v-.409A220.158,220.158,0,0,0,377,64.683m52.8,156.573a208.962,208.962,0,0,1-417.923,0v-.409a208.962,208.962,0,0,1,417.923,0Z" transform="translate(584.051 501.944)" fill="#4b96e3"/>
    <path id="Trazado_912033" data-name="Trazado 912033" d="M173.679,593.647l-84,84A208.327,208.327,0,0,1,28.48,530.3h119.2v.175a89.461,89.461,0,0,0,26,63.172" transform="translate(567.454 192.899)" fill="#4b96e3"/>
    <path id="Trazado_912034" data-name="Trazado 912034" d="M322.921,708.716V827.337A208.3,208.3,0,0,1,175.16,766.13l84-84a89.472,89.472,0,0,0,63.761,26.586" transform="translate(481.973 104.417)" fill="#fa6d61"/>
    <path id="Trazado_912035" data-name="Trazado 912035" d="M677.075,766.13A208.313,208.313,0,0,1,529.31,827.337V708.716a89.482,89.482,0,0,0,63.765-26.586Z" transform="translate(275.583 104.417)" fill="#8ab2ee"/>
    <path id="Trazado_912036" data-name="Trazado 912036" d="M827.339,530.3a208.328,208.328,0,0,1-61.2,147.348l-84-84a89.462,89.462,0,0,0,26-63.172V530.3Z" transform="translate(186.518 192.899)" fill="#4b96e3"/>
    <path id="Trazado_912037" data-name="Trazado 912037" d="M826.511,322.931v.409H707.31a89.446,89.446,0,0,0-26.59-63.585L765.3,175.17a208.3,208.3,0,0,1,61.207,147.761" transform="translate(187.346 399.86)" fill="#ffbe01"/>
    <path id="Trazado_912038" data-name="Trazado 912038" d="M677.067,89.689l-84.584,84.584a89.469,89.469,0,0,0-63.172-26V28.49a208.3,208.3,0,0,1,147.757,61.2" transform="translate(275.583 485.341)" fill="#fa6d61"/>
    <path id="Trazado_912039" data-name="Trazado 912039" d="M322.932,28.49V148.276a89.451,89.451,0,0,0-63.168,26L175.18,89.689a208.3,208.3,0,0,1,147.752-61.2" transform="translate(481.961 485.341)" fill="#6b8be8"/>
    <path id="Trazado_912040" data-name="Trazado 912040" d="M529.15,529.723h-.83l.413-.413h0Z" transform="translate(276.16 193.477)" fill="none" stroke="#00d86c" stroke-miterlimit="10" stroke-width="3"/>
    <path id="Trazado_913934" data-name="Trazado 913934" d="M0,.413V0" transform="translate(804.894 722.786)" fill="none" stroke="#00d86c" stroke-width="3"/>
    <g id="Grupo_1101245" data-name="Grupo 1101245" transform="translate(731.844 712.705)" style="isolation: isolate">
      <g id="Grupo_1101244" data-name="Grupo 1101244">
        <g id="Grupo_1101243" data-name="Grupo 1101243" clip-path="url(#clip-path)">
          <text id="Creación_y_protecctión" data-name="Creación y protecctión" transform="translate(0 10.507)" fill="#12263f" font-size="13" font-family="Roboto-Bold, Roboto" font-weight="700"><tspan x="0" y="0">C</tspan><tspan y="0" letter-spacing="-0.009em">r</tspan><tspan y="0">eación y p</tspan><tspan y="0" letter-spacing="-0.017em">r</tspan><tspan y="0">otecctión</tspan></text>
          <text id="del_valor" data-name="del valor" transform="translate(45.028 27.726)" fill="#12263f" font-size="13" font-family="Roboto-Bold, Roboto" font-weight="700"><tspan x="0" y="0">del </tspan><tspan y="0" letter-spacing="-0.007em">v</tspan><tspan y="0">alor</tspan></text>
        </g>
      </g>
    </g>
    <path id="Trazado_913931" data-name="Trazado 913931" d="M0,0H145.273V33.383H0Z" transform="translate(731.844 712.705)" fill="none"/>
    <g id="Grupo_1101251" data-name="Grupo 1101251" transform="translate(719.824 577.259)" style="isolation: isolate">
      <g id="Grupo_1101250" data-name="Grupo 1101250">
        <g id="Grupo_1101249" data-name="Grupo 1101249" clip-path="url(#clip-path-2)">
          <text id="Mejora" transform="translate(5.581 10.507)" fill="#12263f" font-size="13" font-family="Roboto-Bold, Roboto" font-weight="700"><tspan x="0" y="0">Mejo</tspan><tspan y="0" letter-spacing="-0.014em">r</tspan><tspan y="0">a</tspan></text>
          <text id="continua" transform="translate(-0.001 27.726)" fill="#12263f" font-size="13" font-family="Roboto-Bold, Roboto" font-weight="700"><tspan x="0" y="0">continua</tspan></text>
        </g>
      </g>
    </g>
    <path id="Trazado_913935" data-name="Trazado 913935" d="M0,0H56.045V33.383H0Z" transform="translate(719.824 577.259)" fill="none"/>
    <g id="Grupo_1101257" data-name="Grupo 1101257" transform="translate(633.294 645.871)" style="isolation: isolate">
      <g id="Grupo_1101256" data-name="Grupo 1101256">
        <g id="Grupo_1101255" data-name="Grupo 1101255" clip-path="url(#clip-path-3)">
          <text id="Factores" transform="translate(7.346 10.507)" fill="#12263f" font-size="13" font-family="Roboto-Bold, Roboto" font-weight="700"><tspan x="0" y="0" letter-spacing="-0.016em">F</tspan><tspan y="0">ac</tspan><tspan y="0" letter-spacing="-0.014em">t</tspan><tspan y="0">o</tspan><tspan y="0" letter-spacing="-0.009em">r</tspan><tspan y="0">es</tspan></text>
          <text id="humanos_y" data-name="humanos y" transform="translate(0 27.726)" fill="#12263f" font-size="13" font-family="Roboto-Bold, Roboto" font-weight="700"><tspan x="0" y="0">humanos y</tspan></text>
          <text id="culturales" transform="translate(3.314 44.945)" fill="#12263f" font-size="13" font-family="Roboto-Bold, Roboto" font-weight="700"><tspan x="0" y="0">cultu</tspan><tspan y="0" letter-spacing="-0.014em">r</tspan><tspan y="0">ales</tspan></text>
        </g>
      </g>
    </g>
    <path id="Trazado_913937" data-name="Trazado 913937" d="M0,0H70.478V50.6H0Z" transform="translate(633.294 645.871)" fill="none"/>
    <g id="Grupo_1101263" data-name="Grupo 1101263" transform="translate(629.591 769.293)" style="isolation: isolate">
      <g id="Grupo_1101262" data-name="Grupo 1101262">
        <g id="Grupo_1101261" data-name="Grupo 1101261" clip-path="url(#clip-path-4)">
          <text id="Mejor" transform="translate(20.242 10.507)" fill="#12263f" font-size="13" font-family="Roboto-Bold, Roboto" font-weight="700"><tspan x="0" y="0">Mejor</tspan></text>
          <text id="información" transform="translate(-0.005 27.726)" fill="#12263f" font-size="13" font-family="Roboto-Bold, Roboto" font-weight="700"><tspan x="0" y="0">información</tspan></text>
          <text id="disponible" transform="translate(5.462 44.945)" fill="#12263f" font-size="13" font-family="Roboto-Bold, Roboto" font-weight="700"><tspan x="0" y="0">disponible</tspan></text>
        </g>
      </g>
    </g>
    <path id="Trazado_913938" data-name="Trazado 913938" d="M0,0H77.884V50.6H0Z" transform="translate(629.591 769.293)" fill="none"/>
    <g id="Grupo_1101269" data-name="Grupo 1101269" transform="translate(913.397 774.656)" style="isolation: isolate">
      <g id="Grupo_1101268" data-name="Grupo 1101268">
        <g id="Grupo_1101267" data-name="Grupo 1101267" clip-path="url(#clip-path-5)">
          <text id="Adaptada" transform="translate(0 10.507)" fill="#12263f" font-size="13" font-family="Roboto-Bold, Roboto" font-weight="700"><tspan x="0" y="0">Adaptada</tspan></text>
        </g>
      </g>
    </g>
    <path id="Trazado_913929" data-name="Trazado 913929" d="M0,0H61.832V16.164H0Z" transform="translate(913.397 774.656)" fill="none"/>
    <g id="Grupo_1101275" data-name="Grupo 1101275" transform="translate(903.522 655.514)" style="isolation: isolate">
      <g id="Grupo_1101274" data-name="Grupo 1101274">
        <g id="Grupo_1101273" data-name="Grupo 1101273" clip-path="url(#clip-path-6)">
          <text id="Estructurada" transform="translate(0 10.507)" fill="#12263f" font-size="13" font-family="Roboto-Bold, Roboto" font-weight="700"><tspan x="0" y="0">Estructu</tspan><tspan y="0" letter-spacing="-0.014em">r</tspan><tspan y="0">ada</tspan></text>
          <text id="y_exhaustiva" data-name="y exhaustiva" transform="translate(0.976 27.726)" fill="#12263f" font-size="13" font-family="Roboto-Bold, Roboto" font-weight="700"><tspan x="0" y="0">y exhausti</tspan><tspan y="0" letter-spacing="-0.007em">v</tspan><tspan y="0">a</tspan></text>
        </g>
      </g>
    </g>
    <path id="Trazado_913930" data-name="Trazado 913930" d="M0,0H82.417V33.383H0Z" transform="translate(903.522 655.514)" fill="none"/>
    <g id="Grupo_1101281" data-name="Grupo 1101281" transform="translate(716.73 854.1)" style="isolation: isolate">
      <g id="Grupo_1101280" data-name="Grupo 1101280">
        <g id="Grupo_1101279" data-name="Grupo 1101279" clip-path="url(#clip-path-7)">
          <text id="Dinámica" transform="translate(0 10.507)" fill="#12263f" font-size="13" font-family="Roboto-Bold, Roboto" font-weight="700"><tspan x="0" y="0">Dinámica</tspan></text>
        </g>
      </g>
    </g>
    <path id="Trazado_913936" data-name="Trazado 913936" d="M0,0H60.263V16.164H0Z" transform="translate(716.73 854.1)" fill="none"/>
    <g id="Grupo_1101287" data-name="Grupo 1101287" transform="translate(834.942 854.1)" style="isolation: isolate">
      <g id="Grupo_1101286" data-name="Grupo 1101286">
        <g id="Grupo_1101285" data-name="Grupo 1101285" clip-path="url(#clip-path-8)">
          <text id="Inclusiva" transform="translate(0 10.507)" fill="#12263f" font-size="13" font-family="Roboto-Bold, Roboto" font-weight="700"><tspan x="0" y="0">Inclusi</tspan><tspan y="0" letter-spacing="-0.007em">v</tspan><tspan y="0">a</tspan></text>
        </g>
      </g>
    </g>
    <path id="Trazado_913932" data-name="Trazado 913932" d="M0,0H57.558V16.164H0Z" transform="translate(834.942 854.1)" fill="none"/>
    <g id="Grupo_1101293" data-name="Grupo 1101293" transform="translate(831.317 583.902)" style="isolation: isolate">
      <g id="Grupo_1101292" data-name="Grupo 1101292">
        <g id="Grupo_1101291" data-name="Grupo 1101291" clip-path="url(#clip-path-9)">
          <text id="Integrada" transform="translate(0 10.507)" fill="#12263f" font-size="13" font-family="Roboto-Bold, Roboto" font-weight="700"><tspan x="0" y="0">Integ</tspan><tspan y="0" letter-spacing="-0.014em">r</tspan><tspan y="0">ada</tspan></text>
        </g>
      </g>
    </g>
    <path id="Trazado_913933" data-name="Trazado 913933" d="M0,0H61.51V16.164H0Z" transform="translate(831.317 583.902)" fill="none"/>
    <path id="Trazado_913928" data-name="Trazado 913928" d="M0,0H441.688V441.693H0Z" transform="translate(584.051 501.944)" fill="none"/>
    <g id="Grupo_1101961" data-name="Grupo 1101961" transform="translate(952.648 620.974)">
      <g id="Grupo_1101297" data-name="Grupo 1101297" transform="translate(-26.648)">
        <circle id="Elipse_11554" data-name="Elipse 11554" cx="14.258" cy="14.258" r="14.258" fill="#fa6d61"/>
        <circle id="Elipse_11555" data-name="Elipse 11555" cx="10.694" cy="10.694" r="10.694" transform="translate(3.565 3.565)" fill="#fff"/>
      </g>
    </g>
    <g id="Grupo_1101962" data-name="Grupo 1101962" transform="translate(870.648 544.974)">
      <g id="Grupo_1101297-2" data-name="Grupo 1101297" transform="translate(-26.648)">
        <circle id="Elipse_11554-2" data-name="Elipse 11554" cx="14.258" cy="14.258" r="14.258" fill="#fa6d61"/>
        <circle id="Elipse_11555-2" data-name="Elipse 11555" cx="10.694" cy="10.694" r="10.694" transform="translate(3.565 3.565)" fill="#fff"/>
      </g>
    </g>
    <g id="Grupo_1101963" data-name="Grupo 1101963" transform="translate(762.648 543.974)">
      <g id="Grupo_1101297-3" data-name="Grupo 1101297" transform="translate(-26.648)">
        <circle id="Elipse_11554-3" data-name="Elipse 11554" cx="14.258" cy="14.258" r="14.258" fill="#fa6d61"/>
        <circle id="Elipse_11555-3" data-name="Elipse 11555" cx="10.694" cy="10.694" r="10.694" transform="translate(3.565 3.565)" fill="#fff"/>
      </g>
    </g>
    <g id="Grupo_1101964" data-name="Grupo 1101964" transform="translate(679.648 611.974)">
      <g id="Grupo_1101297-4" data-name="Grupo 1101297" transform="translate(-26.648)">
        <circle id="Elipse_11554-4" data-name="Elipse 11554" cx="14.258" cy="14.258" r="14.258" fill="#fa6d61"/>
        <circle id="Elipse_11555-4" data-name="Elipse 11555" cx="10.694" cy="10.694" r="10.694" transform="translate(3.565 3.565)" fill="#fff"/>
      </g>
    </g>
    <g id="Grupo_1101965" data-name="Grupo 1101965" transform="translate(678.648 735.974)">
      <g id="Grupo_1101297-5" data-name="Grupo 1101297" transform="translate(-26.648)">
        <circle id="Elipse_11554-5" data-name="Elipse 11554" cx="14.258" cy="14.258" r="14.258" fill="#fa6d61"/>
        <circle id="Elipse_11555-5" data-name="Elipse 11555" cx="10.694" cy="10.694" r="10.694" transform="translate(3.565 3.565)" fill="#fff"/>
      </g>
    </g>
    <g id="Grupo_1101966" data-name="Grupo 1101966" transform="translate(952.648 735.974)">
      <g id="Grupo_1101297-6" data-name="Grupo 1101297" transform="translate(-26.648)">
        <circle id="Elipse_11554-6" data-name="Elipse 11554" cx="14.258" cy="14.258" r="14.258" fill="#fa6d61"/>
        <circle id="Elipse_11555-6" data-name="Elipse 11555" cx="10.694" cy="10.694" r="10.694" transform="translate(3.565 3.565)" fill="#fff"/>
      </g>
    </g>
    <g id="Grupo_1101967" data-name="Grupo 1101967" transform="translate(872.648 819.974)">
      <g id="Grupo_1101297-7" data-name="Grupo 1101297" transform="translate(-26.648)">
        <circle id="Elipse_11554-7" data-name="Elipse 11554" cx="14.258" cy="14.258" r="14.258" fill="#fa6d61"/>
        <circle id="Elipse_11555-7" data-name="Elipse 11555" cx="10.694" cy="10.694" r="10.694" transform="translate(3.565 3.565)" fill="#fff"/>
      </g>
    </g>
    <g id="Grupo_1101968" data-name="Grupo 1101968" transform="translate(756.648 819.974)">
      <g id="Grupo_1101297-8" data-name="Grupo 1101297" transform="translate(-26.648)">
        <circle id="Elipse_11554-8" data-name="Elipse 11554" cx="14.258" cy="14.258" r="14.258" fill="#fa6d61"/>
        <circle id="Elipse_11555-8" data-name="Elipse 11555" cx="10.694" cy="10.694" r="10.694" transform="translate(3.565 3.565)" fill="#fff"/>
      </g>
    </g>
  </g>
</svg>
