<svg xmlns="http://www.w3.org/2000/svg" xmlns:xlink="http://www.w3.org/1999/xlink" width="441.688" height="441.693" viewBox="0 0 441.688 441.693">
  <defs>
    <clipPath id="clip-path">
      <rect id="Rectángulo_403101" data-name="Rectángulo 403101" width="145.273" height="33.383" fill="none"/>
    </clipPath>
    <clipPath id="clip-path-2">
      <rect id="Rectángulo_403103" data-name="Rectángulo 403103" width="56.045" height="33.383" fill="none"/>
    </clipPath>
    <clipPath id="clip-path-3">
      <rect id="Rectángulo_403105" data-name="Rectángulo 403105" width="70.478" height="50.602" fill="none"/>
    </clipPath>
    <clipPath id="clip-path-4">
      <rect id="Rectángulo_403107" data-name="Rectángulo 403107" width="77.884" height="50.602" fill="none"/>
    </clipPath>
    <clipPath id="clip-path-5">
      <rect id="Rectángulo_403109" data-name="Rectángulo 403109" width="61.832" height="16.164" fill="none"/>
    </clipPath>
    <clipPath id="clip-path-6">
      <rect id="Rectángulo_403111" data-name="Rectángulo 403111" width="82.417" height="33.383" fill="none"/>
    </clipPath>
    <clipPath id="clip-path-7">
      <rect id="Rectángulo_403113" data-name="Rectángulo 403113" width="60.263" height="16.164" fill="none"/>
    </clipPath>
    <clipPath id="clip-path-8">
      <rect id="Rectángulo_403115" data-name="Rectángulo 403115" width="57.558" height="16.164" fill="none"/>
    </clipPath>
    <clipPath id="clip-path-9">
      <rect id="Rectángulo_403117" data-name="Rectángulo 403117" width="61.51" height="16.164" fill="none"/>
    </clipPath>
  </defs>
  <g id="Grupo_1103788" data-name="Grupo 1103788" transform="translate(-584.051 -501.944)">
    <path id="Trazado_912030" data-name="Trazado 912030" d="M174.271,259.754a89.446,89.446,0,0,0-26.59,63.585H28.48v-.409A208.3,208.3,0,0,1,89.687,175.17Z" transform="translate(567.454 399.86)" fill="#8ab2ee"/>
    <path id="Trazado_912032" data-name="Trazado 912032" d="M377,64.683A220.844,220.844,0,0,0,0,220.846v.409C.221,343.039,99.012,441.693,220.842,441.693s220.625-98.653,220.846-220.437v-.409A220.158,220.158,0,0,0,377,64.683m52.8,156.573a208.962,208.962,0,0,1-417.923,0v-.409a208.962,208.962,0,0,1,417.923,0Z" transform="translate(584.051 501.944)" fill="#4b96e3"/>
    <path id="Trazado_912033" data-name="Trazado 912033" d="M173.679,593.647l-84,84A208.327,208.327,0,0,1,28.48,530.3h119.2v.175a89.461,89.461,0,0,0,26,63.172" transform="translate(567.454 192.899)" fill="#4b96e3"/>
    <path id="Trazado_912034" data-name="Trazado 912034" d="M322.921,708.716V827.337A208.3,208.3,0,0,1,175.16,766.13l84-84a89.472,89.472,0,0,0,63.761,26.586" transform="translate(481.973 104.417)" fill="#fa6d61"/>
    <path id="Trazado_912035" data-name="Trazado 912035" d="M677.075,766.13A208.313,208.313,0,0,1,529.31,827.337V708.716a89.482,89.482,0,0,0,63.765-26.586Z" transform="translate(275.583 104.417)" fill="#8ab2ee"/>
    <path id="Trazado_912036" data-name="Trazado 912036" d="M827.339,530.3a208.328,208.328,0,0,1-61.2,147.348l-84-84a89.462,89.462,0,0,0,26-63.172V530.3Z" transform="translate(186.518 192.899)" fill="#4b96e3"/>
    <path id="Trazado_912037" data-name="Trazado 912037" d="M826.511,322.931v.409H707.31a89.446,89.446,0,0,0-26.59-63.585L765.3,175.17a208.3,208.3,0,0,1,61.207,147.761" transform="translate(187.346 399.86)" fill="#ffbe01"/>
    <path id="Trazado_912038" data-name="Trazado 912038" d="M677.067,89.689l-84.584,84.584a89.469,89.469,0,0,0-63.172-26V28.49a208.3,208.3,0,0,1,147.757,61.2" transform="translate(275.583 485.341)" fill="#fa6d61"/>
    <path id="Trazado_912039" data-name="Trazado 912039" d="M322.932,28.49V148.276a89.451,89.451,0,0,0-63.168,26L175.18,89.689a208.3,208.3,0,0,1,147.752-61.2" transform="translate(481.961 485.341)" fill="#6b8be8"/>
    <path id="Trazado_912040" data-name="Trazado 912040" d="M528.733,529.31h0Z" transform="translate(276.16 193.477)" fill="none" stroke="#00d86c" stroke-miterlimit="10" stroke-width="3"/>
    <g id="Grupo_1101251" data-name="Grupo 1101251" transform="translate(719.824 577.259)" style="isolation: isolate">
      <g id="Grupo_1101250" data-name="Grupo 1101250">
        <g id="Grupo_1101249" data-name="Grupo 1101249" clip-path="url(#clip-path-2)">
          <text id="Mejora" transform="translate(5.581 10.507)" fill="#12263f" font-size="13" font-family="Roboto-Bold, Roboto" font-weight="700"><tspan x="0" y="0">Mejo</tspan><tspan y="0" letter-spacing="-0.014em">r</tspan><tspan y="0">a</tspan></text>
          <text id="continua" transform="translate(-0.001 27.726)" fill="#12263f" font-size="13" font-family="Roboto-Bold, Roboto" font-weight="700"><tspan x="0" y="0">continua</tspan></text>
        </g>
      </g>
    </g>
    <path id="Trazado_913904" data-name="Trazado 913904" d="M0,0H56.045V33.383H0Z" transform="translate(719.824 577.259)" fill="none"/>
    <g id="Grupo_1101257" data-name="Grupo 1101257" transform="translate(633.294 645.871)" style="isolation: isolate">
      <g id="Grupo_1101256" data-name="Grupo 1101256">
        <g id="Grupo_1101255" data-name="Grupo 1101255" clip-path="url(#clip-path-3)">
          <text id="Factores" transform="translate(7.346 10.507)" fill="#12263f" font-size="13" font-family="Roboto-Bold, Roboto" font-weight="700"><tspan x="0" y="0" letter-spacing="-0.016em">F</tspan><tspan y="0">ac</tspan><tspan y="0" letter-spacing="-0.014em">t</tspan><tspan y="0">o</tspan><tspan y="0" letter-spacing="-0.009em">r</tspan><tspan y="0">es</tspan></text>
          <text id="humanos_y" data-name="humanos y" transform="translate(0 27.726)" fill="#12263f" font-size="13" font-family="Roboto-Bold, Roboto" font-weight="700"><tspan x="0" y="0">humanos y</tspan></text>
          <text id="culturales" transform="translate(3.314 44.945)" fill="#12263f" font-size="13" font-family="Roboto-Bold, Roboto" font-weight="700"><tspan x="0" y="0">cultu</tspan><tspan y="0" letter-spacing="-0.014em">r</tspan><tspan y="0">ales</tspan></text>
        </g>
      </g>
    </g>
    <path id="Trazado_913907" data-name="Trazado 913907" d="M0,0H70.478V50.6H0Z" transform="translate(633.294 645.871)" fill="none"/>
    <g id="Grupo_1101263" data-name="Grupo 1101263" transform="translate(629.591 769.293)" style="isolation: isolate">
      <g id="Grupo_1101262" data-name="Grupo 1101262">
        <g id="Grupo_1101261" data-name="Grupo 1101261" clip-path="url(#clip-path-4)">
          <text id="Mejor" transform="translate(20.242 10.507)" fill="#12263f" font-size="13" font-family="Roboto-Bold, Roboto" font-weight="700"><tspan x="0" y="0">Mejor</tspan></text>
          <text id="información" transform="translate(-0.005 27.726)" fill="#12263f" font-size="13" font-family="Roboto-Bold, Roboto" font-weight="700"><tspan x="0" y="0">información</tspan></text>
          <text id="disponible" transform="translate(5.462 44.945)" fill="#12263f" font-size="13" font-family="Roboto-Bold, Roboto" font-weight="700"><tspan x="0" y="0">disponible</tspan></text>
        </g>
      </g>
    </g>
    <path id="Trazado_913908" data-name="Trazado 913908" d="M0,0H77.884V50.6H0Z" transform="translate(629.591 769.293)" fill="none"/>
    <g id="Grupo_1101269" data-name="Grupo 1101269" transform="translate(913.397 774.656)" style="isolation: isolate">
      <g id="Grupo_1101268" data-name="Grupo 1101268">
        <g id="Grupo_1101267" data-name="Grupo 1101267" clip-path="url(#clip-path-5)">
          <text id="Adaptada" transform="translate(0 10.507)" fill="#12263f" font-size="13" font-family="Roboto-Bold, Roboto" font-weight="700"><tspan x="0" y="0">Adaptada</tspan></text>
        </g>
      </g>
    </g>
    <path id="Trazado_913900" data-name="Trazado 913900" d="M0,0H61.832V16.164H0Z" transform="translate(913.397 774.656)" fill="none"/>
    <g id="Grupo_1101275" data-name="Grupo 1101275" transform="translate(903.522 655.514)" style="isolation: isolate">
      <g id="Grupo_1101274" data-name="Grupo 1101274">
        <g id="Grupo_1101273" data-name="Grupo 1101273" clip-path="url(#clip-path-6)">
          <text id="Estructurada" transform="translate(0 10.507)" fill="#12263f" font-size="13" font-family="Roboto-Bold, Roboto" font-weight="700"><tspan x="0" y="0">Estructu</tspan><tspan y="0" letter-spacing="-0.014em">r</tspan><tspan y="0">ada</tspan></text>
          <text id="y_exhaustiva" data-name="y exhaustiva" transform="translate(0.976 27.726)" fill="#12263f" font-size="13" font-family="Roboto-Bold, Roboto" font-weight="700"><tspan x="0" y="0">y exhausti</tspan><tspan y="0" letter-spacing="-0.007em">v</tspan><tspan y="0">a</tspan></text>
        </g>
      </g>
    </g>
    <path id="Trazado_913901" data-name="Trazado 913901" d="M0,0H82.417V33.383H0Z" transform="translate(903.522 655.514)" fill="none"/>
    <g id="Grupo_1101281" data-name="Grupo 1101281" transform="translate(716.73 854.1)" style="isolation: isolate">
      <g id="Grupo_1101280" data-name="Grupo 1101280">
        <g id="Grupo_1101279" data-name="Grupo 1101279" clip-path="url(#clip-path-7)">
          <text id="Dinámica" transform="translate(0 10.507)" fill="#12263f" font-size="13" font-family="Roboto-Bold, Roboto" font-weight="700"><tspan x="0" y="0">Dinámica</tspan></text>
        </g>
      </g>
    </g>
    <path id="Trazado_913905" data-name="Trazado 913905" d="M0,0H60.263V16.164H0Z" transform="translate(716.73 854.1)" fill="none"/>
    <g id="Grupo_1101287" data-name="Grupo 1101287" transform="translate(834.942 854.1)" style="isolation: isolate">
      <g id="Grupo_1101286" data-name="Grupo 1101286">
        <g id="Grupo_1101285" data-name="Grupo 1101285" clip-path="url(#clip-path-8)">
          <text id="Inclusiva" transform="translate(0 10.507)" fill="#12263f" font-size="13" font-family="Roboto-Bold, Roboto" font-weight="700"><tspan x="0" y="0">Inclusi</tspan><tspan y="0" letter-spacing="-0.007em">v</tspan><tspan y="0">a</tspan></text>
        </g>
      </g>
    </g>
    <path id="Trazado_913902" data-name="Trazado 913902" d="M0,0H57.558V16.164H0Z" transform="translate(834.942 854.1)" fill="none"/>
    <g id="Grupo_1101293" data-name="Grupo 1101293" transform="translate(831.317 583.902)" style="isolation: isolate">
      <g id="Grupo_1101292" data-name="Grupo 1101292">
        <g id="Grupo_1101291" data-name="Grupo 1101291" clip-path="url(#clip-path-9)">
          <text id="Integrada" transform="translate(0 10.507)" fill="#12263f" font-size="13" font-family="Roboto-Bold, Roboto" font-weight="700"><tspan x="0" y="0">Integ</tspan><tspan y="0" letter-spacing="-0.014em">r</tspan><tspan y="0">ada</tspan></text>
        </g>
      </g>
    </g>
    <path id="Trazado_913903" data-name="Trazado 913903" d="M0,0H61.51V16.164H0Z" transform="translate(831.317 583.902)" fill="none"/>
    <path id="Trazado_913899" data-name="Trazado 913899" d="M0,0H441.688V441.693H0Z" transform="translate(584.051 501.944)" fill="none"/>
    <g id="Grupo_1101961" data-name="Grupo 1101961" transform="translate(952.648 620.974)">
      <g id="Grupo_1101297" data-name="Grupo 1101297" transform="translate(-26.648)">
        <circle id="Elipse_11554" data-name="Elipse 11554" cx="14.258" cy="14.258" r="14.258" fill="#fa6d61"/>
        <circle id="Elipse_11555" data-name="Elipse 11555" cx="10.694" cy="10.694" r="10.694" transform="translate(3.565 3.565)" fill="#fff"/>
      </g>
    </g>
    <g id="Grupo_1101962" data-name="Grupo 1101962" transform="translate(870.648 544.974)">
      <g id="Grupo_1101297-2" data-name="Grupo 1101297" transform="translate(-26.648)">
        <circle id="Elipse_11554-2" data-name="Elipse 11554" cx="14.258" cy="14.258" r="14.258" fill="#fa6d61"/>
        <circle id="Elipse_11555-2" data-name="Elipse 11555" cx="10.694" cy="10.694" r="10.694" transform="translate(3.565 3.565)" fill="#fff"/>
      </g>
    </g>
    <g id="Grupo_1101963" data-name="Grupo 1101963" transform="translate(762.648 543.974)">
      <g id="Grupo_1101297-3" data-name="Grupo 1101297" transform="translate(-26.648)">
        <circle id="Elipse_11554-3" data-name="Elipse 11554" cx="14.258" cy="14.258" r="14.258" fill="#fa6d61"/>
        <circle id="Elipse_11555-3" data-name="Elipse 11555" cx="10.694" cy="10.694" r="10.694" transform="translate(3.565 3.565)" fill="#fff"/>
      </g>
    </g>
    <g id="Grupo_1101964" data-name="Grupo 1101964" transform="translate(679.648 611.974)">
      <g id="Grupo_1101297-4" data-name="Grupo 1101297" transform="translate(-26.648)">
        <circle id="Elipse_11554-4" data-name="Elipse 11554" cx="14.258" cy="14.258" r="14.258" fill="#fa6d61"/>
        <circle id="Elipse_11555-4" data-name="Elipse 11555" cx="10.694" cy="10.694" r="10.694" transform="translate(3.565 3.565)" fill="#fff"/>
      </g>
    </g>
    <g id="Grupo_1101965" data-name="Grupo 1101965" transform="translate(678.648 735.974)">
      <g id="Grupo_1101297-5" data-name="Grupo 1101297" transform="translate(-26.648)">
        <circle id="Elipse_11554-5" data-name="Elipse 11554" cx="14.258" cy="14.258" r="14.258" fill="#fa6d61"/>
        <circle id="Elipse_11555-5" data-name="Elipse 11555" cx="10.694" cy="10.694" r="10.694" transform="translate(3.565 3.565)" fill="#fff"/>
      </g>
    </g>
    <g id="Grupo_1101966" data-name="Grupo 1101966" transform="translate(952.648 735.974)">
      <g id="Grupo_1101297-6" data-name="Grupo 1101297" transform="translate(-26.648)">
        <circle id="Elipse_11554-6" data-name="Elipse 11554" cx="14.258" cy="14.258" r="14.258" fill="#fa6d61"/>
        <circle id="Elipse_11555-6" data-name="Elipse 11555" cx="10.694" cy="10.694" r="10.694" transform="translate(3.565 3.565)" fill="#fff"/>
      </g>
    </g>
    <g id="Grupo_1101967" data-name="Grupo 1101967" transform="translate(872.648 819.974)">
      <g id="Grupo_1101297-7" data-name="Grupo 1101297" transform="translate(-26.648)">
        <circle id="Elipse_11554-7" data-name="Elipse 11554" cx="14.258" cy="14.258" r="14.258" fill="#fa6d61"/>
        <circle id="Elipse_11555-7" data-name="Elipse 11555" cx="10.694" cy="10.694" r="10.694" transform="translate(3.565 3.565)" fill="#fff"/>
      </g>
    </g>
    <g id="Grupo_1101968" data-name="Grupo 1101968" transform="translate(756.648 819.974)">
      <g id="Grupo_1101297-8" data-name="Grupo 1101297" transform="translate(-26.648)">
        <circle id="Elipse_11554-8" data-name="Elipse 11554" cx="14.258" cy="14.258" r="14.258" fill="#fa6d61"/>
        <circle id="Elipse_11555-8" data-name="Elipse 11555" cx="10.694" cy="10.694" r="10.694" transform="translate(3.565 3.565)" fill="#fff"/>
      </g>
    </g>
    <path id="Trazado_913906" data-name="Trazado 913906" d="M43.456,9.685a3.522,3.522,0,0,1-1.186,2.529,4.165,4.165,0,0,1-2.82.923,3.745,3.745,0,0,1-3.011-1.289,5.284,5.284,0,0,1-1.1-3.538V7.7a5.966,5.966,0,0,1,.506-2.529,3.791,3.791,0,0,1,1.446-1.678,4.518,4.518,0,0,1,4.959.338,3.785,3.785,0,0,1,1.217,2.591H41.418a2.079,2.079,0,0,0-.537-1.4,1.987,1.987,0,0,0-1.4-.434,1.742,1.742,0,0,0-1.535.735,4.118,4.118,0,0,0-.523,2.28v.752a4.408,4.408,0,0,0,.489,2.358,1.71,1.71,0,0,0,1.542.745,2.025,2.025,0,0,0,1.418-.434A1.961,1.961,0,0,0,41.4,9.685Zm5.373-2.229a5.367,5.367,0,0,0-.711-.055,1.447,1.447,0,0,0-1.47.759V13H44.672V5.6h1.866l.055.882a1.831,1.831,0,0,1,1.647-1.019,2.07,2.07,0,0,1,.615.089Zm4.225,5.681a3.631,3.631,0,0,1-2.649-1,3.548,3.548,0,0,1-1.022-2.659V9.288A4.468,4.468,0,0,1,49.813,7.3a3.161,3.161,0,0,1,1.22-1.354,3.425,3.425,0,0,1,1.8-.475,3.07,3.07,0,0,1,2.389.957A3.889,3.889,0,0,1,56.1,9.138v.807h-4.71a1.835,1.835,0,0,0,.578,1.162,1.746,1.746,0,0,0,1.22.438,2.132,2.132,0,0,0,1.784-.827l.971,1.087a2.966,2.966,0,0,1-1.2.981A3.947,3.947,0,0,1,53.053,13.137ZM52.828,7.06a1.234,1.234,0,0,0-.954.4,2.062,2.062,0,0,0-.468,1.14h2.748V8.44A1.471,1.471,0,0,0,53.8,7.42,1.274,1.274,0,0,0,52.828,7.06ZM61.5,13a2.194,2.194,0,0,1-.2-.663,2.39,2.39,0,0,1-1.866.8,2.626,2.626,0,0,1-1.8-.629,2.023,2.023,0,0,1-.714-1.586,2.09,2.09,0,0,1,.872-1.8,4.3,4.3,0,0,1,2.519-.636h.909V8.058a1.219,1.219,0,0,0-.263-.82,1.035,1.035,0,0,0-.831-.308,1.177,1.177,0,0,0-.783.239.813.813,0,0,0-.284.656H57.086a1.984,1.984,0,0,1,.4-1.189A2.621,2.621,0,0,1,58.6,5.778a4.086,4.086,0,0,1,1.627-.311,3.228,3.228,0,0,1,2.17.687,2.4,2.4,0,0,1,.8,1.931v3.206a3.536,3.536,0,0,0,.294,1.593V13Zm-1.634-1.374a1.7,1.7,0,0,0,.807-.195,1.28,1.28,0,0,0,.547-.523V9.637h-.738Q59,9.637,58.9,10.662l-.007.116a.791.791,0,0,0,.26.608A1.009,1.009,0,0,0,59.869,11.626Zm7.93-.082a1.3,1.3,0,0,0,.889-.3,1.054,1.054,0,0,0,.355-.8H70.9a2.534,2.534,0,0,1-.41,1.377,2.706,2.706,0,0,1-1.1.971,3.455,3.455,0,0,1-1.548.345,3.211,3.211,0,0,1-2.5-1.008,3.99,3.99,0,0,1-.916-2.786v-.13a3.944,3.944,0,0,1,.909-2.728,3.174,3.174,0,0,1,2.5-1.019,3.111,3.111,0,0,1,2.225.79,2.8,2.8,0,0,1,.851,2.1H69.042a1.358,1.358,0,0,0-.355-.938,1.321,1.321,0,0,0-1.945.142A2.916,2.916,0,0,0,66.39,9.2V9.4a2.953,2.953,0,0,0,.349,1.643A1.2,1.2,0,0,0,67.8,11.544ZM74.108,13H72.125V5.6h1.982Zm-2.1-9.311a.973.973,0,0,1,.3-.731,1.281,1.281,0,0,1,1.617,0,.967.967,0,0,1,.3.731.97.97,0,0,1-.3.738,1.267,1.267,0,0,1-1.606,0A.97.97,0,0,1,72.009,3.689Zm3.418,5.544a4.387,4.387,0,0,1,.424-1.962,3.1,3.1,0,0,1,1.22-1.333,3.56,3.56,0,0,1,1.849-.472,3.368,3.368,0,0,1,2.444.916A3.676,3.676,0,0,1,82.42,8.871l.014.506a3.866,3.866,0,0,1-.95,2.731,3.683,3.683,0,0,1-5.1,0,3.934,3.934,0,0,1-.954-2.789Zm1.976.14a2.765,2.765,0,0,0,.4,1.612,1.424,1.424,0,0,0,2.256.007,3.025,3.025,0,0,0,.4-1.763,2.737,2.737,0,0,0-.4-1.6A1.311,1.311,0,0,0,78.92,7.06a1.29,1.29,0,0,0-1.121.565A3.076,3.076,0,0,0,77.4,9.374ZM79.31,2.5h2.153L79.57,4.619H77.963Zm6.159,3.1.062.854a2.582,2.582,0,0,1,2.126-.991,2.146,2.146,0,0,1,1.75.69,3.221,3.221,0,0,1,.588,2.064V13H88.019V8.27a1.282,1.282,0,0,0-.273-.913,1.224,1.224,0,0,0-.909-.284,1.359,1.359,0,0,0-1.251.711V13H83.61V5.6ZM97.74,10.2l1.367-4.6h2.119l-2.974,8.545-.164.39A2.255,2.255,0,0,1,95.9,15.987a3.108,3.108,0,0,1-.875-.13v-1.5l.3.007a1.625,1.625,0,0,0,.837-.171,1.123,1.123,0,0,0,.434-.567l.232-.608L94.24,5.6h2.126ZM13.227,27.37a4.436,4.436,0,0,1-.776,2.738,2.488,2.488,0,0,1-2.1,1.029,2.3,2.3,0,0,1-1.812-.779v3.486H6.569V23.6H8.4l.068.725a2.322,2.322,0,0,1,1.873-.861,2.5,2.5,0,0,1,2.126,1.012,4.556,4.556,0,0,1,.759,2.789Zm-1.976-.144a2.911,2.911,0,0,0-.366-1.593,1.191,1.191,0,0,0-1.063-.561,1.294,1.294,0,0,0-1.278.711v3.028a1.316,1.316,0,0,0,1.292.731Q11.251,29.544,11.251,27.227Zm7.355-1.771A5.367,5.367,0,0,0,17.9,25.4a1.447,1.447,0,0,0-1.47.759V31H14.451V23.6h1.866l.055.882a1.831,1.831,0,0,1,1.647-1.019,2.07,2.07,0,0,1,.615.089Zm.4,1.777a4.387,4.387,0,0,1,.424-1.962,3.1,3.1,0,0,1,1.22-1.333,3.56,3.56,0,0,1,1.849-.472,3.368,3.368,0,0,1,2.444.916A3.676,3.676,0,0,1,26,26.871l.014.506a3.866,3.866,0,0,1-.95,2.731,3.3,3.3,0,0,1-2.55,1.029,3.319,3.319,0,0,1-2.553-1.025A3.934,3.934,0,0,1,19,27.322Zm1.976.14a2.765,2.765,0,0,0,.4,1.612,1.424,1.424,0,0,0,2.256.007,3.025,3.025,0,0,0,.4-1.763,2.737,2.737,0,0,0-.4-1.6A1.311,1.311,0,0,0,22.5,25.06a1.29,1.29,0,0,0-1.121.565A3.076,3.076,0,0,0,20.979,27.374Zm8.613-5.588V23.6h1.265v1.449H29.592v3.691a.881.881,0,0,0,.157.588.79.79,0,0,0,.6.178,3.151,3.151,0,0,0,.581-.048v1.5a4.067,4.067,0,0,1-1.2.178,1.886,1.886,0,0,1-2.119-2.1V25.053h-1.08V23.6h1.08V21.785Zm5.77,9.352a3.631,3.631,0,0,1-2.649-1,3.548,3.548,0,0,1-1.022-2.659v-.191a4.468,4.468,0,0,1,.431-1.993,3.161,3.161,0,0,1,1.22-1.354,3.425,3.425,0,0,1,1.8-.475,3.07,3.07,0,0,1,2.389.957,3.889,3.889,0,0,1,.872,2.714v.807h-4.71a1.835,1.835,0,0,0,.578,1.162,1.746,1.746,0,0,0,1.22.438,2.132,2.132,0,0,0,1.784-.827l.971,1.087a2.966,2.966,0,0,1-1.2.981A3.947,3.947,0,0,1,35.362,31.137Zm-.226-6.077a1.234,1.234,0,0,0-.954.4,2.062,2.062,0,0,0-.468,1.14h2.748V26.44a1.471,1.471,0,0,0-.355-1.02A1.274,1.274,0,0,0,35.136,25.06ZM42.6,29.544a1.3,1.3,0,0,0,.889-.3,1.054,1.054,0,0,0,.355-.8H45.7a2.534,2.534,0,0,1-.41,1.377,2.706,2.706,0,0,1-1.1.971,3.455,3.455,0,0,1-1.548.345,3.211,3.211,0,0,1-2.5-1.008,3.99,3.99,0,0,1-.916-2.786v-.13a3.944,3.944,0,0,1,.909-2.728,3.174,3.174,0,0,1,2.5-1.019,3.111,3.111,0,0,1,2.225.79,2.8,2.8,0,0,1,.851,2.1H43.845a1.358,1.358,0,0,0-.355-.938,1.321,1.321,0,0,0-1.945.142,2.916,2.916,0,0,0-.352,1.633V27.4a2.953,2.953,0,0,0,.349,1.643A1.2,1.2,0,0,0,42.6,29.544Zm7.3,0a1.3,1.3,0,0,0,.889-.3,1.054,1.054,0,0,0,.355-.8H53a2.534,2.534,0,0,1-.41,1.377,2.706,2.706,0,0,1-1.1.971,3.455,3.455,0,0,1-1.548.345,3.211,3.211,0,0,1-2.5-1.008,3.99,3.99,0,0,1-.916-2.786v-.13a3.944,3.944,0,0,1,.909-2.728,3.174,3.174,0,0,1,2.5-1.019,3.111,3.111,0,0,1,2.225.79,2.8,2.8,0,0,1,.851,2.1H51.146a1.358,1.358,0,0,0-.355-.938,1.321,1.321,0,0,0-1.945.142,2.916,2.916,0,0,0-.352,1.633V27.4a2.953,2.953,0,0,0,.349,1.643A1.2,1.2,0,0,0,49.9,29.544ZM56.211,31H54.229V23.6h1.982Zm-2.1-9.311a.973.973,0,0,1,.3-.731,1.281,1.281,0,0,1,1.617,0,1.044,1.044,0,0,1,0,1.47,1.267,1.267,0,0,1-1.606,0A.97.97,0,0,1,54.113,21.689Zm3.418,5.544a4.387,4.387,0,0,1,.424-1.962,3.1,3.1,0,0,1,1.22-1.333,3.56,3.56,0,0,1,1.849-.472,3.368,3.368,0,0,1,2.444.916,3.676,3.676,0,0,1,1.056,2.488l.014.506a3.866,3.866,0,0,1-.95,2.731,3.683,3.683,0,0,1-5.1,0,3.934,3.934,0,0,1-.954-2.789Zm1.976.14a2.765,2.765,0,0,0,.4,1.612,1.424,1.424,0,0,0,2.256.007,3.025,3.025,0,0,0,.4-1.763,2.737,2.737,0,0,0-.4-1.6,1.311,1.311,0,0,0-1.135-.568,1.29,1.29,0,0,0-1.121.565A3.076,3.076,0,0,0,59.506,27.374ZM61.414,20.5h2.153l-1.894,2.119H60.067Zm6.159,3.1.062.854a2.582,2.582,0,0,1,2.126-.991,2.146,2.146,0,0,1,1.75.69,3.221,3.221,0,0,1,.588,2.064V31H70.123V26.27a1.282,1.282,0,0,0-.273-.913,1.224,1.224,0,0,0-.909-.284,1.359,1.359,0,0,0-1.251.711V31H65.713V23.6Zm9.2,3.644a4.457,4.457,0,0,1,.776-2.755,2.517,2.517,0,0,1,2.123-1.025,2.265,2.265,0,0,1,1.784.807V20.5h1.982V31H81.655l-.1-.786a2.325,2.325,0,0,1-1.9.923,2.511,2.511,0,0,1-2.1-1.029A4.6,4.6,0,0,1,76.774,27.247Zm1.976.147a2.92,2.92,0,0,0,.362,1.6,1.18,1.18,0,0,0,1.053.555,1.322,1.322,0,0,0,1.292-.774V25.847a1.3,1.3,0,0,0-1.278-.774Q78.75,25.073,78.75,27.394Zm9.625,3.743a3.631,3.631,0,0,1-2.649-1A3.548,3.548,0,0,1,84.7,27.479v-.191a4.468,4.468,0,0,1,.431-1.993,3.161,3.161,0,0,1,1.22-1.354,3.425,3.425,0,0,1,1.8-.475,3.07,3.07,0,0,1,2.389.957,3.889,3.889,0,0,1,.872,2.714v.807h-4.71a1.835,1.835,0,0,0,.578,1.162,1.746,1.746,0,0,0,1.22.438,2.132,2.132,0,0,0,1.784-.827l.971,1.087a2.966,2.966,0,0,1-1.2.981A3.947,3.947,0,0,1,88.375,31.137Zm-.226-6.077a1.234,1.234,0,0,0-.954.4,2.062,2.062,0,0,0-.468,1.14h2.748V26.44a1.471,1.471,0,0,0-.355-1.02A1.274,1.274,0,0,0,88.149,25.06ZM94.623,31H92.64V20.5h1.982Zm7.882-2.413,1.374-4.983h2.064l-2.5,7.4h-1.887l-2.5-7.4h2.064ZM110.995,31a2.194,2.194,0,0,1-.2-.663,2.39,2.39,0,0,1-1.866.8,2.626,2.626,0,0,1-1.8-.629,2.023,2.023,0,0,1-.714-1.586,2.09,2.09,0,0,1,.872-1.8,4.3,4.3,0,0,1,2.519-.636h.909v-.424a1.219,1.219,0,0,0-.263-.82,1.035,1.035,0,0,0-.831-.308,1.177,1.177,0,0,0-.783.239.813.813,0,0,0-.284.656h-1.976a1.985,1.985,0,0,1,.4-1.189,2.621,2.621,0,0,1,1.121-.858,4.086,4.086,0,0,1,1.627-.311,3.228,3.228,0,0,1,2.17.687,2.4,2.4,0,0,1,.8,1.931v3.206a3.536,3.536,0,0,0,.294,1.593V31Zm-1.634-1.374a1.7,1.7,0,0,0,.807-.195,1.28,1.28,0,0,0,.547-.523V27.637h-.738q-1.483,0-1.579,1.025l-.007.116a.791.791,0,0,0,.26.608A1.009,1.009,0,0,0,109.361,29.626ZM116.3,31h-1.982V20.5H116.3Zm1.319-3.767a4.387,4.387,0,0,1,.424-1.962,3.1,3.1,0,0,1,1.22-1.333,3.56,3.56,0,0,1,1.849-.472,3.368,3.368,0,0,1,2.444.916,3.676,3.676,0,0,1,1.056,2.488l.014.506a3.866,3.866,0,0,1-.95,2.731,3.683,3.683,0,0,1-5.1,0,3.934,3.934,0,0,1-.954-2.789Zm1.976.14a2.765,2.765,0,0,0,.4,1.612,1.424,1.424,0,0,0,2.256.007,3.025,3.025,0,0,0,.4-1.763,2.737,2.737,0,0,0-.4-1.6,1.311,1.311,0,0,0-1.135-.568,1.29,1.29,0,0,0-1.121.565A3.076,3.076,0,0,0,119.594,27.374ZM130,25.456a5.367,5.367,0,0,0-.711-.055,1.447,1.447,0,0,0-1.47.759V31h-1.976V23.6h1.866l.055.882a1.831,1.831,0,0,1,1.647-1.019,2.07,2.07,0,0,1,.615.089Z" transform="translate(732.051 702)" fill="#12263f"/>
  </g>
</svg>
